999
Dxf file generated by netDxf https://netdxf.codeplex.com, Copyright(C) 2009-2016 Daniel Carvajal, Licensed under LGPL
0
SECTION
2
HEADER
9
$ACADVER
1
AC1021
9
$DWGCODEPAGE
3
ANSI_936
9
$LASTSAVEDBY
1
GAODI
9
$HANDSEED
5
BA
9
$ANGBASE
50
0.0
9
$ANGDIR
70
0
9
$ATTMODE
70
1
9
$AUNITS
70
0
9
$AUPREC
70
0
9
$CECOLOR
62
256
9
$CELTSCALE
40
1.0
9
$CELTYPE
6
ByLayer
9
$CELWEIGHT
370
-1
9
$CLAYER
8
0
9
$CMLJUST
70
0
9
$CMLSCALE
40
20.0
9
$CMLSTYLE
2
Standard
9
$DIMSTYLE
2
Standard
9
$TEXTSIZE
40
2.5
9
$TEXTSTYLE
7
Standard
9
$LUNITS
70
2
9
$LUPREC
70
4
9
$EXTNAMES
290
1
9
$INSBASE
10
0.0
20
0.0
30
0.0
9
$INSUNITS
70
0
9
$LTSCALE
40
1.0
9
$LWDISPLAY
290
0
9
$PDMODE
70
0
9
$PDSIZE
40
0.0
9
$PLINEGEN
70
0
9
$PSLTSCALE
70
1
9
$TDCREATE
40
2457773.6079201
9
$TDUCREATE
40
2457773.27458677
9
$TDUPDATE
40
2457773.6079201
9
$TDUUPDATE
40
2457773.27458677
9
$TDINDWG
40
0.0
9
$DIMADEC
70
0
9
$DIMAUNIT
70
0
9
$DIMASZ
40
0.18
9
$DIMAZIN
70
0
9
$DIMSAH
70
0
9
$DIMBLK
1

9
$DIMLDRBLK
1

9
$DIMCEN
40
0.09
9
$DIMCLRD
70
0
9
$DIMCLRE
70
0
9
$DIMCLRT
70
0
9
$DIMDEC
70
2
9
$DIMDLE
40
0.0
9
$DIMDLI
40
0.38
9
$DIMDSEP
70
46
9
$DIMEXE
40
0.18
9
$DIMEXO
40
0.0625
9
$DIMGAP
40
0.09
9
$DIMJUST
70
0
9
$DIMLFAC
40
1.0
9
$DIMLUNIT
70
2
9
$DIMLWD
70
-2
9
$DIMLWE
70
-2
9
$DIMPOST
1
<>
9
$DIMRND
40
0.0
9
$DIMSCALE
40
1.0
9
$DIMSE1
70
0
9
$DIMSE2
70
0
9
$DIMTAD
70
1
9
$DIMTIH
70
0
9
$DIMTOH
70
0
9
$DIMTXT
40
0.18
9
$DIMZIN
70
0
9
$DIMFRAC
70
0
9
$DIMLTYPE
6
ByBlock
9
$DIMLTEX1
6
ByBlock
9
$DIMLTEX2
6
ByBlock
0
ENDSEC
0
SECTION
2
CLASSES
0
CLASS
1
RASTERVARIABLES
2
AcDbRasterVariables
3
ISM
90
0
91
1
280
0
281
0
0
ENDSEC
0
SECTION
2
TABLES
0
TABLE
2
APPID
5
4
330
0
100
AcDbSymbolTable
70
4
0
APPID
5
17
330
4
100
AcDbSymbolTableRecord
100
AcDbRegAppTableRecord
2
ACAD
70
0
0
APPID
5
AF
330
4
100
AcDbSymbolTableRecord
100
AcDbRegAppTableRecord
2
AcCmTransparency
70
0
0
APPID
5
B0
330
4
100
AcDbSymbolTableRecord
100
AcDbRegAppTableRecord
2
GradientColor1ACI
70
0
0
APPID
5
B1
330
4
100
AcDbSymbolTableRecord
100
AcDbRegAppTableRecord
2
GradientColor2ACI
70
0
0
ENDTAB
0
TABLE
2
VPORT
5
1
330
0
100
AcDbSymbolTable
70
1
0
VPORT
5
2
330
1
100
AcDbSymbolTableRecord
100
AcDbViewportTableRecord
2
*Active
70
0
10
0.0
20
0.0
11
1.0
21
1.0
12
0.0
22
0.0
13
0.0
23
0.0
14
0.5
24
0.5
15
10.0
25
10.0
16
0.0
26
0.0
36
1.0
17
0.0
27
0.0
37
0.0
40
10.0
41
1.0
75
0
76
1
0
ENDTAB
0
TABLE
2
LTYPE
5
6
330
0
100
AcDbSymbolTable
70
3
0
LTYPE
5
13
330
6
100
AcDbSymbolTableRecord
100
AcDbLinetypeTableRecord
70
0
2
Continuous
3
Solid line
72
65
73
0
40
0.0
0
LTYPE
5
14
330
6
100
AcDbSymbolTableRecord
100
AcDbLinetypeTableRecord
70
0
2
ByLayer
3

72
65
73
0
40
0.0
0
LTYPE
5
15
330
6
100
AcDbSymbolTableRecord
100
AcDbLinetypeTableRecord
70
0
2
ByBlock
3

72
65
73
0
40
0.0
0
ENDTAB
0
TABLE
2
LAYER
5
5
330
0
100
AcDbSymbolTable
70
1
0
LAYER
5
12
330
5
100
AcDbSymbolTableRecord
100
AcDbLayerTableRecord
2
0
70
0
62
7
6
Continuous
290
1
370
-3
390
0
0
ENDTAB
0
TABLE
2
STYLE
5
7
330
0
100
AcDbSymbolTable
70
1
0
STYLE
5
16
330
7
100
AcDbSymbolTableRecord
100
AcDbTextStyleTableRecord
2
Standard
3
simplex.shx
70
0
71
0
40
0.0
41
1.0
42
0.0
50
0.0
0
ENDTAB
0
TABLE
2
DIMSTYLE
5
8
330
0
100
AcDbSymbolTable
70
1
100
AcDbDimStyleTable
0
DIMSTYLE
105
18
330
8
100
AcDbSymbolTableRecord
100
AcDbDimStyleTableRecord
2
Standard
70
0
3
<>
40
1.0
41
0.18
42
0.0625
43
0.38
44
0.18
45
0.0
46
0.0
73
0
74
0
75
0
76
0
77
1
78
0
79
0
140
0.18
141
0.09
144
1.0
147
0.09
176
0
177
0
178
0
179
0
271
2
275
0
276
0
277
2
278
46
280
0
340
16
173
0
345
15
346
15
347
15
371
-2
372
-2
0
ENDTAB
0
TABLE
2
VIEW
5
3
330
0
100
AcDbSymbolTable
70
0
0
ENDTAB
0
TABLE
2
UCS
5
A
330
0
100
AcDbSymbolTable
70
0
0
ENDTAB
0
TABLE
2
BLOCK_RECORD
5
B
330
0
100
AcDbSymbolTable
70
3
0
BLOCK_RECORD
5
1A
330
B
100
AcDbSymbolTableRecord
100
AcDbBlockTableRecord
2
*Model_Space
340
1E
0
BLOCK_RECORD
5
22
330
B
100
AcDbSymbolTableRecord
100
AcDbBlockTableRecord
2
柜橱中前视
340
0
70
0
280
1
281
0
1001
ACAD
1000
DesignCenter Data
1002
{
1070
1
1070
0
1002
}
0
BLOCK_RECORD
5
A9
330
B
100
AcDbSymbolTableRecord
100
AcDbBlockTableRecord
2
*Paper_Space
340
AE
0
ENDTAB
0
ENDSEC
0
SECTION
2
BLOCKS
0
BLOCK
5
1C
330
1A
100
AcDbEntity
8
0
100
AcDbBlockBegin
2
*Model_Space
70
0
10
0.0
20
0.0
30
0.0
3
*Model_Space
0
ENDBLK
5
1B
330
1A
100
AcDbEntity
8
0
100
AcDbBlockEnd
0
BLOCK
5
24
330
22
100
AcDbEntity
8
0
100
AcDbBlockBegin
2
柜橱中前视
70
0
10
0.0
20
0.0
30
0.0
3
柜橱中前视
0
LINE
5
25
330
22
100
AcDbEntity
8
0
62
256
6
ByBlock
370
-1
48
1.0
60
0
100
AcDbLine
10
-1.24353259429482
20
2.66005778228459
30
0.0
11
-1.29686559429482
21
2.66005778228459
31
0.0
39
0.0
210
0.0
220
0.0
230
1.0
0
LINE
5
26
330
22
100
AcDbEntity
8
0
62
256
6
ByBlock
370
-1
48
1.0
60
0
100
AcDbLine
10
-1.29686559429482
20
2.66005778228459
30
0.0
11
-1.30686559429483
21
2.67005778228459
31
0.0
39
0.0
210
0.0
220
0.0
230
1.0
0
LINE
5
27
330
22
100
AcDbEntity
8
0
62
256
6
ByBlock
370
-1
48
1.0
60
0
100
AcDbLine
10
-1.30686559429483
20
2.67005778228459
30
0.0
11
-1.30686559429482
21
2.80339078228458
31
0.0
39
0.0
210
0.0
220
0.0
230
1.0
0
LINE
5
28
330
22
100
AcDbEntity
8
0
62
256
6
ByBlock
370
-1
48
1.0
60
0
100
AcDbLine
10
-1.30686559429482
20
2.80339078228458
30
0.0
11
-1.29686559429482
21
2.81339178228459
31
0.0
39
0.0
210
0.0
220
0.0
230
1.0
0
LINE
5
29
330
22
100
AcDbEntity
8
0
62
256
6
ByBlock
370
-1
48
1.0
60
0
100
AcDbLine
10
-1.29686559429482
20
2.81339178228459
30
0.0
11
1.32313440570517
21
2.81339178228459
31
0.0
39
0.0
210
0.0
220
0.0
230
1.0
0
LINE
5
2A
330
22
100
AcDbEntity
8
0
62
256
6
ByBlock
370
-1
48
1.0
60
0
100
AcDbLine
10
1.32313440570517
20
2.81339178228459
30
0.0
11
1.33313440570517
21
2.80005778228459
31
0.0
39
0.0
210
0.0
220
0.0
230
1.0
0
LINE
5
2B
330
22
100
AcDbEntity
8
0
62
256
6
ByBlock
370
-1
48
1.0
60
0
100
AcDbLine
10
1.33313440570517
20
2.80005778228459
30
0.0
11
1.33313440570517
21
2.67005778228459
31
0.0
39
0.0
210
0.0
220
0.0
230
1.0
0
LINE
5
2C
330
22
100
AcDbEntity
8
0
62
256
6
ByBlock
370
-1
48
1.0
60
0
100
AcDbLine
10
1.33313440570517
20
2.67005778228459
30
0.0
11
1.32313440570517
21
2.66005778228459
31
0.0
39
0.0
210
0.0
220
0.0
230
1.0
0
LINE
5
2D
330
22
100
AcDbEntity
8
0
62
256
6
ByBlock
370
-1
48
1.0
60
0
100
AcDbLine
10
1.32313440570517
20
2.66005778228459
30
0.0
11
1.26980140570517
21
2.66005778228459
31
0.0
39
0.0
210
0.0
220
0.0
230
1.0
0
LINE
5
2E
330
22
100
AcDbEntity
8
0
62
256
6
ByBlock
370
-1
48
1.0
60
0
100
AcDbLine
10
1.26980140570517
20
2.66005778228459
30
0.0
11
1.27646740570518
21
0.01672478228459
31
0.0
39
0.0
210
0.0
220
0.0
230
1.0
0
LINE
5
2F
330
22
100
AcDbEntity
8
0
62
256
6
ByBlock
370
-1
48
1.0
60
0
100
AcDbLine
10
1.27646740570518
20
0.01672478228459
30
0.0
11
-1.25353259429482
21
0.02005778228459
31
0.0
39
0.0
210
0.0
220
0.0
230
1.0
0
LINE
5
30
330
22
100
AcDbEntity
8
0
62
256
6
ByBlock
370
-1
48
1.0
60
0
100
AcDbLine
10
-1.25353259429482
20
0.02005778228459
30
0.0
11
-1.24353259429482
21
2.66005778228459
31
0.0
39
0.0
210
0.0
220
0.0
230
1.0
0
LINE
5
31
330
22
100
AcDbEntity
8
0
62
256
6
ByBlock
370
-1
48
1.0
60
0
100
AcDbLine
10
-1.24353259429482
20
2.66005778228459
30
0.0
11
-1.24353259429482
21
2.66005778228459
31
0.0
39
0.0
210
0.0
220
0.0
230
1.0
0
LINE
5
32
330
22
100
AcDbEntity
8
0
62
256
6
Continuous
370
-1
48
1.0
60
0
100
AcDbLine
10
-1.20019959429482
20
2.66005778228459
30
0.0
11
-1.24353259429482
21
2.66005778228459
31
0.0
39
0.0
210
0.0
220
0.0
230
1.0
0
LINE
5
33
330
22
100
AcDbEntity
8
0
62
256
6
Continuous
370
-1
48
1.0
60
0
100
AcDbLine
10
-1.29686559429482
20
2.80339078228459
30
0.0
11
1.32313440570517
21
2.80339078228459
31
0.0
39
0.0
210
0.0
220
0.0
230
1.0
0
LINE
5
34
330
22
100
AcDbEntity
8
0
62
256
6
Continuous
370
-1
48
1.0
60
0
100
AcDbLine
10
1.32313440570517
20
2.80339078228459
30
0.0
11
1.31980040570518
21
2.66672478228459
31
0.0
39
0.0
210
0.0
220
0.0
230
1.0
0
LINE
5
35
330
22
100
AcDbEntity
8
0
62
256
6
Continuous
370
-1
48
1.0
60
0
100
AcDbLine
10
1.31980040570518
20
2.66672478228459
30
0.0
11
-1.29353259429482
21
2.66672478228459
31
0.0
39
0.0
210
0.0
220
0.0
230
1.0
0
LINE
5
36
330
22
100
AcDbEntity
8
0
62
256
6
Continuous
370
-1
48
1.0
60
0
100
AcDbLine
10
-1.29353259429482
20
2.66672478228459
30
0.0
11
-1.29686559429482
21
2.80339078228459
31
0.0
39
0.0
210
0.0
220
0.0
230
1.0
0
LINE
5
37
330
22
100
AcDbEntity
8
0
62
256
6
Continuous
370
-1
48
1.0
60
0
100
AcDbLine
10
-1.19353259429482
20
2.66005778228459
30
0.0
11
-1.16353259429482
21
2.66005778228459
31
0.0
39
0.0
210
0.0
220
0.0
230
1.0
0
LINE
5
38
330
22
100
AcDbEntity
8
0
62
256
6
Continuous
370
-1
48
1.0
60
0
100
AcDbLine
10
-1.16353259429482
20
2.66005778228459
30
0.0
11
-1.19353259429482
21
2.66005778228459
31
0.0
39
0.0
210
0.0
220
0.0
230
1.0
0
LINE
5
39
330
22
100
AcDbEntity
8
0
62
256
6
Continuous
370
-1
48
1.0
60
0
100
AcDbLine
10
-1.15686559429482
20
2.66005778228459
30
0.0
11
-1.10019959429482
21
2.66005778228459
31
0.0
39
0.0
210
0.0
220
0.0
230
1.0
0
LINE
5
3A
330
22
100
AcDbEntity
8
0
62
256
6
Continuous
370
-1
48
1.0
60
0
100
AcDbLine
10
-1.10019959429482
20
2.66005778228459
30
0.0
11
-1.15686559429482
21
2.66005778228459
31
0.0
39
0.0
210
0.0
220
0.0
230
1.0
0
LINE
5
3B
330
22
100
AcDbEntity
8
0
62
256
6
Continuous
370
-1
48
1.0
60
0
100
AcDbLine
10
-1.09353259429482
20
2.66005778228459
30
0.0
11
-1.09019959429482
21
2.66005778228459
31
0.0
39
0.0
210
0.0
220
0.0
230
1.0
0
LINE
5
3C
330
22
100
AcDbEntity
8
0
62
256
6
Continuous
370
-1
48
1.0
60
0
100
AcDbLine
10
-1.09019959429482
20
2.66005778228459
30
0.0
11
-1.09353259429482
21
2.66005778228459
31
0.0
39
0.0
210
0.0
220
0.0
230
1.0
0
LINE
5
3D
330
22
100
AcDbEntity
8
0
62
256
6
Continuous
370
-1
48
1.0
60
0
100
AcDbLine
10
-1.08353259429482
20
2.66005778228459
30
0.0
11
-1.03019959429482
21
2.66005778228459
31
0.0
39
0.0
210
0.0
220
0.0
230
1.0
0
LINE
5
3E
330
22
100
AcDbEntity
8
0
62
256
6
Continuous
370
-1
48
1.0
60
0
100
AcDbLine
10
-1.03019959429482
20
2.66005778228459
30
0.0
11
-1.05353259429482
21
2.66005778228459
31
0.0
39
0.0
210
0.0
220
0.0
230
1.0
0
LINE
5
3F
330
22
100
AcDbEntity
8
0
62
256
6
Continuous
370
-1
48
1.0
60
0
100
AcDbLine
10
-1.06019959429482
20
2.66005778228459
30
0.0
11
-1.08353259429482
21
2.66005778228459
31
0.0
39
0.0
210
0.0
220
0.0
230
1.0
0
LINE
5
40
330
22
100
AcDbEntity
8
0
62
256
6
Continuous
370
-1
48
1.0
60
0
100
AcDbLine
10
-1.02353259429482
20
2.66005778228459
30
0.0
11
-0.98019959429483
21
2.66005778228459
31
0.0
39
0.0
210
0.0
220
0.0
230
1.0
0
LINE
5
41
330
22
100
AcDbEntity
8
0
62
256
6
Continuous
370
-1
48
1.0
60
0
100
AcDbLine
10
-0.98019959429483
20
2.66005778228459
30
0.0
11
-1.02353259429482
21
2.66005778228459
31
0.0
39
0.0
210
0.0
220
0.0
230
1.0
0
LINE
5
42
330
22
100
AcDbEntity
8
0
62
256
6
Continuous
370
-1
48
1.0
60
0
100
AcDbLine
10
-0.97353259429483
20
2.66005778228459
30
0.0
11
-0.89019959429482
21
2.66005778228459
31
0.0
39
0.0
210
0.0
220
0.0
230
1.0
0
LINE
5
43
330
22
100
AcDbEntity
8
0
62
256
6
Continuous
370
-1
48
1.0
60
0
100
AcDbLine
10
-0.89019959429482
20
2.66005778228459
30
0.0
11
-0.97353259429483
21
2.66005778228459
31
0.0
39
0.0
210
0.0
220
0.0
230
1.0
0
LINE
5
44
330
22
100
AcDbEntity
8
0
62
256
6
Continuous
370
-1
48
1.0
60
0
100
AcDbLine
10
-0.88353259429483
20
2.66005778228459
30
0.0
11
-0.86019959429483
21
2.66005778228459
31
0.0
39
0.0
210
0.0
220
0.0
230
1.0
0
LINE
5
45
330
22
100
AcDbEntity
8
0
62
256
6
Continuous
370
-1
48
1.0
60
0
100
AcDbLine
10
-0.86019959429483
20
2.66005778228459
30
0.0
11
-0.88353259429483
21
2.66005778228459
31
0.0
39
0.0
210
0.0
220
0.0
230
1.0
0
LINE
5
46
330
22
100
AcDbEntity
8
0
62
256
6
Continuous
370
-1
48
1.0
60
0
100
AcDbLine
10
-0.85353259429483
20
2.66005778228459
30
0.0
11
-0.84353259429483
21
2.66005778228459
31
0.0
39
0.0
210
0.0
220
0.0
230
1.0
0
LINE
5
47
330
22
100
AcDbEntity
8
0
62
256
6
Continuous
370
-1
48
1.0
60
0
100
AcDbLine
10
-0.84353259429483
20
2.66005778228459
30
0.0
11
-0.85353259429483
21
2.66005778228459
31
0.0
39
0.0
210
0.0
220
0.0
230
1.0
0
LINE
5
48
330
22
100
AcDbEntity
8
0
62
256
6
Continuous
370
-1
48
1.0
60
0
100
AcDbLine
10
-0.83686559429483
20
2.66005778228459
30
0.0
11
-0.68019859429483
21
2.66005778228459
31
0.0
39
0.0
210
0.0
220
0.0
230
1.0
0
LINE
5
49
330
22
100
AcDbEntity
8
0
62
256
6
Continuous
370
-1
48
1.0
60
0
100
AcDbLine
10
-0.68019859429483
20
2.66005778228459
30
0.0
11
-0.83686559429483
21
2.66005778228459
31
0.0
39
0.0
210
0.0
220
0.0
230
1.0
0
LINE
5
4A
330
22
100
AcDbEntity
8
0
62
256
6
Continuous
370
-1
48
1.0
60
0
100
AcDbLine
10
-0.67353259429483
20
2.66005778228459
30
0.0
11
-0.66353259429483
21
2.66005778228459
31
0.0
39
0.0
210
0.0
220
0.0
230
1.0
0
LINE
5
4B
330
22
100
AcDbEntity
8
0
62
256
6
Continuous
370
-1
48
1.0
60
0
100
AcDbLine
10
-0.66353259429483
20
2.66005778228459
30
0.0
11
-0.67353259429483
21
2.66005778228459
31
0.0
39
0.0
210
0.0
220
0.0
230
1.0
0
LINE
5
4C
330
22
100
AcDbEntity
8
0
62
256
6
Continuous
370
-1
48
1.0
60
0
100
AcDbLine
10
-0.65686559429483
20
2.66005778228459
30
0.0
11
-0.56019959429483
21
2.66005778228459
31
0.0
39
0.0
210
0.0
220
0.0
230
1.0
0
LINE
5
4D
330
22
100
AcDbEntity
8
0
62
256
6
Continuous
370
-1
48
1.0
60
0
100
AcDbLine
10
-0.56019959429483
20
2.66005778228459
30
0.0
11
-0.65686559429483
21
2.66005778228459
31
0.0
39
0.0
210
0.0
220
0.0
230
1.0
0
LINE
5
4E
330
22
100
AcDbEntity
8
0
62
256
6
Continuous
370
-1
48
1.0
60
0
100
AcDbLine
10
-0.55353259429483
20
2.66005778228459
30
0.0
11
-0.44353259429483
21
2.66005778228459
31
0.0
39
0.0
210
0.0
220
0.0
230
1.0
0
LINE
5
4F
330
22
100
AcDbEntity
8
0
62
256
6
Continuous
370
-1
48
1.0
60
0
100
AcDbLine
10
-0.44353259429483
20
2.66005778228459
30
0.0
11
-0.55353259429483
21
2.66005778228459
31
0.0
39
0.0
210
0.0
220
0.0
230
1.0
0
LINE
5
50
330
22
100
AcDbEntity
8
0
62
256
6
Continuous
370
-1
48
1.0
60
0
100
AcDbLine
10
-0.43686559429483
20
2.66005778228459
30
0.0
11
-0.13686559429483
21
2.66005778228459
31
0.0
39
0.0
210
0.0
220
0.0
230
1.0
0
LINE
5
51
330
22
100
AcDbEntity
8
0
62
256
6
Continuous
370
-1
48
1.0
60
0
100
AcDbLine
10
-0.13686559429483
20
2.66005778228459
30
0.0
11
-0.43686559429483
21
2.66005778228459
31
0.0
39
0.0
210
0.0
220
0.0
230
1.0
0
LINE
5
52
330
22
100
AcDbEntity
8
0
62
256
6
Continuous
370
-1
48
1.0
60
0
100
AcDbLine
10
-0.13019959429483
20
2.66005778228459
30
0.0
11
-0.08686559429482
21
2.66005778228459
31
0.0
39
0.0
210
0.0
220
0.0
230
1.0
0
LINE
5
53
330
22
100
AcDbEntity
8
0
62
256
6
Continuous
370
-1
48
1.0
60
0
100
AcDbLine
10
-0.08686559429482
20
2.66005778228459
30
0.0
11
-0.13019959429483
21
2.66005778228459
31
0.0
39
0.0
210
0.0
220
0.0
230
1.0
0
LINE
5
54
330
22
100
AcDbEntity
8
0
62
256
6
Continuous
370
-1
48
1.0
60
0
100
AcDbLine
10
-0.08019959429482
20
2.66005778228459
30
0.0
11
-0.00019859429483
21
2.66005778228459
31
0.0
39
0.0
210
0.0
220
0.0
230
1.0
0
LINE
5
55
330
22
100
AcDbEntity
8
0
62
256
6
Continuous
370
-1
48
1.0
60
0
100
AcDbLine
10
-0.00019859429483
20
2.66005778228459
30
0.0
11
-0.08019959429482
21
2.66005778228459
31
0.0
39
0.0
210
0.0
220
0.0
230
1.0
0
LINE
5
56
330
22
100
AcDbEntity
8
0
62
256
6
Continuous
370
-1
48
1.0
60
0
100
AcDbLine
10
0.00646740570518
20
2.66005778228459
30
0.0
11
0.05313440570518
21
2.66005778228459
31
0.0
39
0.0
210
0.0
220
0.0
230
1.0
0
LINE
5
57
330
22
100
AcDbEntity
8
0
62
256
6
Continuous
370
-1
48
1.0
60
0
100
AcDbLine
10
0.05313440570518
20
2.66005778228459
30
0.0
11
0.00646740570518
21
2.66005778228459
31
0.0
39
0.0
210
0.0
220
0.0
230
1.0
0
LINE
5
58
330
22
100
AcDbEntity
8
0
62
256
6
Continuous
370
-1
48
1.0
60
0
100
AcDbLine
10
0.05980140570517
20
2.66005778228459
30
0.0
11
0.06313440570518
21
2.66005778228459
31
0.0
39
0.0
210
0.0
220
0.0
230
1.0
0
LINE
5
59
330
22
100
AcDbEntity
8
0
62
256
6
Continuous
370
-1
48
1.0
60
0
100
AcDbLine
10
0.06313440570518
20
2.66005778228459
30
0.0
11
0.05980140570517
21
2.66005778228459
31
0.0
39
0.0
210
0.0
220
0.0
230
1.0
0
LINE
5
5A
330
22
100
AcDbEntity
8
0
62
256
6
Continuous
370
-1
48
1.0
60
0
100
AcDbLine
10
0.06980040570518
20
2.66005778228459
30
0.0
11
0.11646740570518
21
2.66005778228459
31
0.0
39
0.0
210
0.0
220
0.0
230
1.0
0
LINE
5
5B
330
22
100
AcDbEntity
8
0
62
256
6
Continuous
370
-1
48
1.0
60
0
100
AcDbLine
10
0.11646740570518
20
2.66005778228459
30
0.0
11
0.06980040570518
21
2.66005778228459
31
0.0
39
0.0
210
0.0
220
0.0
230
1.0
0
LINE
5
5C
330
22
100
AcDbEntity
8
0
62
256
6
Continuous
370
-1
48
1.0
60
0
100
AcDbLine
10
0.12313440570518
20
2.66005778228459
30
0.0
11
0.13313440570518
21
2.66005778228459
31
0.0
39
0.0
210
0.0
220
0.0
230
1.0
0
LINE
5
5D
330
22
100
AcDbEntity
8
0
62
256
6
Continuous
370
-1
48
1.0
60
0
100
AcDbLine
10
0.13313440570518
20
2.66005778228459
30
0.0
11
0.12313440570518
21
2.66005778228459
31
0.0
39
0.0
210
0.0
220
0.0
230
1.0
0
LINE
5
5E
330
22
100
AcDbEntity
8
0
62
256
6
Continuous
370
-1
48
1.0
60
0
100
AcDbLine
10
0.13980040570518
20
2.66005778228459
30
0.0
11
0.14646740570518
21
2.66005778228459
31
0.0
39
0.0
210
0.0
220
0.0
230
1.0
0
LINE
5
5F
330
22
100
AcDbEntity
8
0
62
256
6
Continuous
370
-1
48
1.0
60
0
100
AcDbLine
10
0.14646740570518
20
2.66005778228459
30
0.0
11
0.13980040570518
21
2.66005778228459
31
0.0
39
0.0
210
0.0
220
0.0
230
1.0
0
LINE
5
60
330
22
100
AcDbEntity
8
0
62
256
6
Continuous
370
-1
48
1.0
60
0
100
AcDbLine
10
0.15313440570518
20
2.66005778228459
30
0.0
11
0.28646740570518
21
2.66005778228459
31
0.0
39
0.0
210
0.0
220
0.0
230
1.0
0
LINE
5
61
330
22
100
AcDbEntity
8
0
62
256
6
Continuous
370
-1
48
1.0
60
0
100
AcDbLine
10
0.28646740570518
20
2.66005778228459
30
0.0
11
0.15313440570518
21
2.66005778228459
31
0.0
39
0.0
210
0.0
220
0.0
230
1.0
0
LINE
5
62
330
22
100
AcDbEntity
8
0
62
256
6
Continuous
370
-1
48
1.0
60
0
100
AcDbLine
10
0.29313440570518
20
2.66005778228459
30
0.0
11
0.35646740570518
21
2.66005778228459
31
0.0
39
0.0
210
0.0
220
0.0
230
1.0
0
LINE
5
63
330
22
100
AcDbEntity
8
0
62
256
6
Continuous
370
-1
48
1.0
60
0
100
AcDbLine
10
0.35646740570518
20
2.66005778228459
30
0.0
11
0.29313440570518
21
2.66005778228459
31
0.0
39
0.0
210
0.0
220
0.0
230
1.0
0
LINE
5
64
330
22
100
AcDbEntity
8
0
62
256
6
Continuous
370
-1
48
1.0
60
0
100
AcDbLine
10
0.36313440570518
20
2.66005778228459
30
0.0
11
0.53980140570518
21
2.66005778228459
31
0.0
39
0.0
210
0.0
220
0.0
230
1.0
0
LINE
5
65
330
22
100
AcDbEntity
8
0
62
256
6
Continuous
370
-1
48
1.0
60
0
100
AcDbLine
10
0.53980140570518
20
2.66005778228459
30
0.0
11
0.36313440570518
21
2.66005778228459
31
0.0
39
0.0
210
0.0
220
0.0
230
1.0
0
LINE
5
66
330
22
100
AcDbEntity
8
0
62
256
6
Continuous
370
-1
48
1.0
60
0
100
AcDbLine
10
0.54646740570518
20
2.66005778228459
30
0.0
11
0.66313440570518
21
2.66005778228459
31
0.0
39
0.0
210
0.0
220
0.0
230
1.0
0
LINE
5
67
330
22
100
AcDbEntity
8
0
62
256
6
Continuous
370
-1
48
1.0
60
0
100
AcDbLine
10
0.66313440570518
20
2.66005778228459
30
0.0
11
0.54646740570518
21
2.66005778228459
31
0.0
39
0.0
210
0.0
220
0.0
230
1.0
0
LINE
5
68
330
22
100
AcDbEntity
8
0
62
256
6
Continuous
370
-1
48
1.0
60
0
100
AcDbLine
10
0.66980140570518
20
2.66005778228459
30
0.0
11
1.02313440570517
21
2.66005778228459
31
0.0
39
0.0
210
0.0
220
0.0
230
1.0
0
LINE
5
69
330
22
100
AcDbEntity
8
0
62
256
6
Continuous
370
-1
48
1.0
60
0
100
AcDbLine
10
1.02313440570517
20
2.66005778228459
30
0.0
11
0.66980140570518
21
2.66005778228459
31
0.0
39
0.0
210
0.0
220
0.0
230
1.0
0
LINE
5
6A
330
22
100
AcDbEntity
8
0
62
256
6
Continuous
370
-1
48
1.0
60
0
100
AcDbLine
10
1.02980040570518
20
2.66005778228459
30
0.0
11
1.05646740570517
21
2.66005778228459
31
0.0
39
0.0
210
0.0
220
0.0
230
1.0
0
LINE
5
6B
330
22
100
AcDbEntity
8
0
62
256
6
Continuous
370
-1
48
1.0
60
0
100
AcDbLine
10
1.05646740570517
20
2.66005778228459
30
0.0
11
1.07313440570517
21
2.66005778228459
31
0.0
39
0.0
210
0.0
220
0.0
230
1.0
0
LINE
5
6C
330
22
100
AcDbEntity
8
0
62
256
6
Continuous
370
-1
48
1.0
60
0
100
AcDbLine
10
1.05980140570517
20
2.65339178228459
30
0.0
11
1.05980140570517
21
0.36005778228459
31
0.0
39
0.0
210
0.0
220
0.0
230
1.0
0
LINE
5
6D
330
22
100
AcDbEntity
8
0
62
256
6
Continuous
370
-1
48
1.0
60
0
100
AcDbLine
10
1.05980140570517
20
0.36005778228459
30
0.0
11
1.09313440570518
21
0.03339078228459
31
0.0
39
0.0
210
0.0
220
0.0
230
1.0
0
LINE
5
6E
330
22
100
AcDbEntity
8
0
62
256
6
Continuous
370
-1
48
1.0
60
0
100
AcDbLine
10
1.09313440570518
20
0.03339078228459
30
0.0
11
1.09980040570517
21
0.01672478228459
31
0.0
39
0.0
210
0.0
220
0.0
230
1.0
0
LINE
5
6F
330
22
100
AcDbEntity
8
0
62
256
6
Continuous
370
-1
48
1.0
60
0
100
AcDbLine
10
-1.03019959429482
20
0.41005778228459
30
0.0
11
-1.03353259429482
21
0.36339178228459
31
0.0
39
0.0
210
0.0
220
0.0
230
1.0
0
LINE
5
70
330
22
100
AcDbEntity
8
0
62
256
6
Continuous
370
-1
48
1.0
60
0
100
AcDbLine
10
-1.03353259429482
20
0.36339178228459
30
0.0
11
-1.03353259429482
21
2.65005778228459
31
0.0
39
0.0
210
0.0
220
0.0
230
1.0
0
LINE
5
71
330
22
100
AcDbEntity
8
0
62
256
6
Continuous
370
-1
48
1.0
60
0
100
AcDbLine
10
-1.03353259429482
20
2.65005778228459
30
0.0
11
-1.03353259429482
21
1.74339078228459
31
0.0
39
0.0
210
0.0
220
0.0
230
1.0
0
LINE
5
72
330
22
100
AcDbEntity
8
0
62
256
6
Continuous
370
-1
48
1.0
60
0
100
AcDbLine
10
-1.03353259429482
20
1.74339078228459
30
0.0
11
-1.02686559429482
21
1.74339078228459
31
0.0
39
0.0
210
0.0
220
0.0
230
1.0
0
LINE
5
73
330
22
100
AcDbEntity
8
0
62
256
6
Continuous
370
-1
48
1.0
60
0
100
AcDbLine
10
-1.02686559429482
20
1.74339078228459
30
0.0
11
-1.03353259429482
21
1.73672478228459
31
0.0
39
0.0
210
0.0
220
0.0
230
1.0
0
LINE
5
74
330
22
100
AcDbEntity
8
0
62
256
6
Continuous
370
-1
48
1.0
60
0
100
AcDbLine
10
-1.03353259429482
20
1.73672478228459
30
0.0
11
-1.03019959429482
21
1.67339078228459
31
0.0
39
0.0
210
0.0
220
0.0
230
1.0
0
LINE
5
75
330
22
100
AcDbEntity
8
0
62
256
6
Continuous
370
-1
48
1.0
60
0
100
AcDbLine
10
-1.03019959429482
20
1.67339078228459
30
0.0
11
1.03980140570517
21
1.67339078228459
31
0.0
39
0.0
210
0.0
220
0.0
230
1.0
0
LINE
5
76
330
22
100
AcDbEntity
8
0
62
256
6
Continuous
370
-1
48
1.0
60
0
100
AcDbLine
10
1.03980140570517
20
1.67339078228459
30
0.0
11
1.04980040570518
21
1.68339078228459
31
0.0
39
0.0
210
0.0
220
0.0
230
1.0
0
LINE
5
77
330
22
100
AcDbEntity
8
0
62
256
6
Continuous
370
-1
48
1.0
60
0
100
AcDbLine
10
1.04980040570518
20
1.68339078228459
30
0.0
11
1.04980040570518
21
2.64005778228459
31
0.0
39
0.0
210
0.0
220
0.0
230
1.0
0
LINE
5
78
330
22
100
AcDbEntity
8
0
62
256
6
Continuous
370
-1
48
1.0
60
0
100
AcDbLine
10
1.04980040570518
20
2.64005778228459
30
0.0
11
1.04313440570518
21
2.64672478228459
31
0.0
39
0.0
210
0.0
220
0.0
230
1.0
0
LINE
5
79
330
22
100
AcDbEntity
8
0
62
256
6
Continuous
370
-1
48
1.0
60
0
100
AcDbLine
10
1.04313440570518
20
2.64672478228459
30
0.0
11
-1.01686559429483
21
2.64672478228459
31
0.0
39
0.0
210
0.0
220
0.0
230
1.0
0
LINE
5
7A
330
22
100
AcDbEntity
8
0
62
256
6
Continuous
370
-1
48
1.0
60
0
100
AcDbLine
10
-1.01686559429483
20
2.64672478228459
30
0.0
11
-1.02686559429482
21
2.63672478228459
31
0.0
39
0.0
210
0.0
220
0.0
230
1.0
0
LINE
5
7B
330
22
100
AcDbEntity
8
0
62
256
6
Continuous
370
-1
48
1.0
60
0
100
AcDbLine
10
-1.02686559429482
20
2.63672478228459
30
0.0
11
-1.01686559429483
21
2.64672478228459
31
0.0
39
0.0
210
0.0
220
0.0
230
1.0
0
LINE
5
7C
330
22
100
AcDbEntity
8
0
62
256
6
Continuous
370
-1
48
1.0
60
0
100
AcDbLine
10
-1.01686559429483
20
2.64672478228459
30
0.0
11
1.04313440570518
21
2.64672478228459
31
0.0
39
0.0
210
0.0
220
0.0
230
1.0
0
LINE
5
7D
330
22
100
AcDbEntity
8
0
62
256
6
Continuous
370
-1
48
1.0
60
0
100
AcDbLine
10
1.04313440570518
20
2.64672478228459
30
0.0
11
1.04980040570518
21
2.64005778228459
31
0.0
39
0.0
210
0.0
220
0.0
230
1.0
0
LINE
5
7E
330
22
100
AcDbEntity
8
0
62
256
6
Continuous
370
-1
48
1.0
60
0
100
AcDbLine
10
1.04980040570518
20
2.64005778228459
30
0.0
11
1.04980040570518
21
1.81339178228459
31
0.0
39
0.0
210
0.0
220
0.0
230
1.0
0
LINE
5
7F
330
22
100
AcDbEntity
8
0
62
256
6
Continuous
370
-1
48
1.0
60
0
100
AcDbLine
10
1.04980040570518
20
1.81339178228459
30
0.0
11
1.05980140570517
21
1.81339178228459
31
0.0
39
0.0
210
0.0
220
0.0
230
1.0
0
LINE
5
80
330
22
100
AcDbEntity
8
0
62
256
6
Continuous
370
-1
48
1.0
60
0
100
AcDbLine
10
1.05980140570517
20
1.81339178228459
30
0.0
11
1.05980140570517
21
2.65672478228459
31
0.0
39
0.0
210
0.0
220
0.0
230
1.0
0
LINE
5
81
330
22
100
AcDbEntity
8
0
62
256
6
Continuous
370
-1
48
1.0
60
0
100
AcDbLine
10
1.05980140570517
20
2.65672478228459
30
0.0
11
1.02980040570518
21
2.66005778228459
31
0.0
39
0.0
210
0.0
220
0.0
230
1.0
0
LINE
5
82
330
22
100
AcDbEntity
8
0
62
256
6
Continuous
370
-1
48
1.0
60
0
100
AcDbLine
10
1.08980040570517
20
2.66005778228459
30
0.0
11
1.15313440570517
21
2.66005778228459
31
0.0
39
0.0
210
0.0
220
0.0
230
1.0
0
LINE
5
83
330
22
100
AcDbEntity
8
0
62
256
6
Continuous
370
-1
48
1.0
60
0
100
AcDbLine
10
1.15313440570517
20
2.66005778228459
30
0.0
11
1.24980140570517
21
2.66005778228459
31
0.0
39
0.0
210
0.0
220
0.0
230
1.0
0
LINE
5
84
330
22
100
AcDbEntity
8
0
62
256
6
Continuous
370
-1
48
1.0
60
0
100
AcDbLine
10
1.24980140570517
20
2.66005778228459
30
0.0
11
1.15980040570517
21
2.66005778228459
31
0.0
39
0.0
210
0.0
220
0.0
230
1.0
0
LINE
5
85
330
22
100
AcDbEntity
8
0
62
256
6
Continuous
370
-1
48
1.0
60
0
100
AcDbLine
10
1.14980140570518
20
2.66005778228459
30
0.0
11
1.08980040570517
21
2.66005778228459
31
0.0
39
0.0
210
0.0
220
0.0
230
1.0
0
LINE
5
86
330
22
100
AcDbEntity
8
0
62
256
6
Continuous
370
-1
48
1.0
60
0
100
AcDbLine
10
1.26980140570517
20
2.66005778228459
30
0.0
11
1.25646740570518
21
2.66005778228459
31
0.0
39
0.0
210
0.0
220
0.0
230
1.0
0
LINE
5
87
330
22
100
AcDbEntity
8
0
62
256
6
Continuous
370
-1
48
1.0
60
0
100
AcDbLine
10
-0.87686559429483
20
2.64005778228459
30
0.0
11
-0.76019959429483
21
2.64005778228459
31
0.0
39
0.0
210
0.0
220
0.0
230
1.0
0
LINE
5
88
330
22
100
AcDbEntity
8
0
62
256
6
Continuous
370
-1
48
1.0
60
0
100
AcDbLine
10
-0.76019959429483
20
2.64005778228459
30
0.0
11
-0.87686559429483
21
2.64005778228459
31
0.0
39
0.0
210
0.0
220
0.0
230
1.0
0
LINE
5
89
330
22
100
AcDbEntity
8
0
62
256
6
Continuous
370
-1
48
1.0
60
0
100
AcDbLine
10
-0.75353259429483
20
2.64005778228459
30
0.0
11
0.75313440570518
21
2.64005778228459
31
0.0
39
0.0
210
0.0
220
0.0
230
1.0
0
LINE
5
8A
330
22
100
AcDbEntity
8
0
62
256
6
Continuous
370
-1
48
1.0
60
0
100
AcDbLine
10
0.75313440570518
20
2.64005778228459
30
0.0
11
-0.75353259429483
21
2.64005778228459
31
0.0
39
0.0
210
0.0
220
0.0
230
1.0
0
LINE
5
8B
330
22
100
AcDbEntity
8
0
62
256
6
Continuous
370
-1
48
1.0
60
0
100
AcDbLine
10
0.75980040570518
20
2.64005778228459
30
0.0
11
1.03980140570517
21
2.64005778228459
31
0.0
39
0.0
210
0.0
220
0.0
230
1.0
0
LINE
5
8C
330
22
100
AcDbEntity
8
0
62
256
6
Continuous
370
-1
48
1.0
60
0
100
AcDbLine
10
1.03980140570517
20
2.64005778228459
30
0.0
11
1.03980140570517
21
1.68339078228459
31
0.0
39
0.0
210
0.0
220
0.0
230
1.0
0
LINE
5
8D
330
22
100
AcDbEntity
8
0
62
256
6
Continuous
370
-1
48
1.0
60
0
100
AcDbLine
10
1.03980140570517
20
1.68339078228459
30
0.0
11
-1.01686559429483
21
1.68672478228459
31
0.0
39
0.0
210
0.0
220
0.0
230
1.0
0
LINE
5
8E
330
22
100
AcDbEntity
8
0
62
256
6
Continuous
370
-1
48
1.0
60
0
100
AcDbLine
10
-1.01686559429483
20
1.68672478228459
30
0.0
11
-1.01686559429483
21
2.63672478228459
31
0.0
39
0.0
210
0.0
220
0.0
230
1.0
0
LINE
5
8F
330
22
100
AcDbEntity
8
0
62
256
6
Continuous
370
-1
48
1.0
60
0
100
AcDbLine
10
-1.01686559429483
20
2.63672478228459
30
0.0
11
-0.88353259429483
21
2.64005778228459
31
0.0
39
0.0
210
0.0
220
0.0
230
1.0
0
LINE
5
90
330
22
100
AcDbEntity
8
0
62
256
6
Continuous
370
-1
48
1.0
60
0
100
AcDbLine
10
-0.88353259429483
20
2.64005778228459
30
0.0
11
-1.01686559429483
21
2.63672478228459
31
0.0
39
0.0
210
0.0
220
0.0
230
1.0
0
LINE
5
91
330
22
100
AcDbEntity
8
0
62
256
6
Continuous
370
-1
48
1.0
60
0
100
AcDbLine
10
1.03646740570518
20
2.64005778228459
30
0.0
11
0.75980040570518
21
2.64005778228459
31
0.0
39
0.0
210
0.0
220
0.0
230
1.0
0
LINE
5
92
330
22
100
AcDbEntity
8
0
62
256
6
Continuous
370
-1
48
1.0
60
0
100
AcDbLine
10
-0.00019859429483
20
2.23672478228459
30
0.0
11
0.00980040570518
21
2.23672478228459
31
0.0
39
0.0
210
0.0
220
0.0
230
1.0
0
LINE
5
93
330
22
100
AcDbEntity
8
0
62
256
6
Continuous
370
-1
48
1.0
60
0
100
AcDbLine
10
0.00980040570518
20
2.23672478228459
30
0.0
11
0.04646740570518
21
2.22672478228459
31
0.0
39
0.0
210
0.0
220
0.0
230
1.0
0
LINE
5
94
330
22
100
AcDbEntity
8
0
62
256
6
Continuous
370
-1
48
1.0
60
0
100
AcDbLine
10
0.04646740570518
20
2.22672478228459
30
0.0
11
0.08313440570517
21
2.19005778228459
31
0.0
39
0.0
210
0.0
220
0.0
230
1.0
0
LINE
5
95
330
22
100
AcDbEntity
8
0
62
256
6
Continuous
370
-1
48
1.0
60
0
100
AcDbLine
10
0.08313440570517
20
2.19005778228459
30
0.0
11
0.09313440570518
21
2.15672478228459
31
0.0
39
0.0
210
0.0
220
0.0
230
1.0
0
LINE
5
96
330
22
100
AcDbEntity
8
0
62
256
6
Continuous
370
-1
48
1.0
60
0
100
AcDbLine
10
0.09313440570518
20
2.15672478228459
30
0.0
11
0.08313440570517
21
2.10339178228459
31
0.0
39
0.0
210
0.0
220
0.0
230
1.0
0
LINE
5
97
330
22
100
AcDbEntity
8
0
62
256
6
Continuous
370
-1
48
1.0
60
0
100
AcDbLine
10
0.08313440570517
20
2.10339178228459
30
0.0
11
0.04980040570518
21
2.07005778228459
31
0.0
39
0.0
210
0.0
220
0.0
230
1.0
0
LINE
5
98
330
22
100
AcDbEntity
8
0
62
256
6
Continuous
370
-1
48
1.0
60
0
100
AcDbLine
10
0.04980040570518
20
2.07005778228459
30
0.0
11
0.01646740570517
21
2.06005778228459
31
0.0
39
0.0
210
0.0
220
0.0
230
1.0
0
LINE
5
99
330
22
100
AcDbEntity
8
0
62
256
6
Continuous
370
-1
48
1.0
60
0
100
AcDbLine
10
0.01646740570517
20
2.06005778228459
30
0.0
11
-0.00353259429482
21
2.06005778228459
31
0.0
39
0.0
210
0.0
220
0.0
230
1.0
0
LINE
5
9A
330
22
100
AcDbEntity
8
0
62
256
6
Continuous
370
-1
48
1.0
60
0
100
AcDbLine
10
-0.00353259429482
20
2.06005778228459
30
0.0
11
-0.04019959429482
21
2.07005778228459
31
0.0
39
0.0
210
0.0
220
0.0
230
1.0
0
LINE
5
9B
330
22
100
AcDbEntity
8
0
62
256
6
Continuous
370
-1
48
1.0
60
0
100
AcDbLine
10
-0.04019959429482
20
2.07005778228459
30
0.0
11
-0.07353259429482
21
2.10339178228459
31
0.0
39
0.0
210
0.0
220
0.0
230
1.0
0
LINE
5
9C
330
22
100
AcDbEntity
8
0
62
256
6
Continuous
370
-1
48
1.0
60
0
100
AcDbLine
10
-0.07353259429482
20
2.10339178228459
30
0.0
11
-0.08353259429482
21
2.14005778228459
31
0.0
39
0.0
210
0.0
220
0.0
230
1.0
0
LINE
5
9D
330
22
100
AcDbEntity
8
0
62
256
6
Continuous
370
-1
48
1.0
60
0
100
AcDbLine
10
-0.08353259429482
20
2.14005778228459
30
0.0
11
-0.07353259429482
21
2.19005778228459
31
0.0
39
0.0
210
0.0
220
0.0
230
1.0
0
LINE
5
9E
330
22
100
AcDbEntity
8
0
62
256
6
Continuous
370
-1
48
1.0
60
0
100
AcDbLine
10
-0.07353259429482
20
2.19005778228459
30
0.0
11
-0.03686559429483
21
2.22672478228459
31
0.0
39
0.0
210
0.0
220
0.0
230
1.0
0
LINE
5
9F
330
22
100
AcDbEntity
8
0
62
256
6
Continuous
370
-1
48
1.0
60
0
100
AcDbLine
10
-0.03686559429483
20
2.22672478228459
30
0.0
11
-0.00019859429483
21
2.23672478228459
31
0.0
39
0.0
210
0.0
220
0.0
230
1.0
0
LINE
5
A0
330
22
100
AcDbEntity
8
0
62
256
6
Continuous
370
-1
48
1.0
60
0
100
AcDbLine
10
-0.92686559429483
20
0.49339078228459
30
0.0
11
-0.93019859429483
21
0.49672478228459
31
0.0
39
0.0
210
0.0
220
0.0
230
1.0
0
LINE
5
A1
330
22
100
AcDbEntity
8
0
62
256
6
Continuous
370
-1
48
1.0
60
0
100
AcDbLine
10
-0.93019859429483
20
0.49672478228459
30
0.0
11
-1.03019959429482
21
0.49672478228459
31
0.0
39
0.0
210
0.0
220
0.0
230
1.0
0
LINE
5
A2
330
22
100
AcDbEntity
8
0
62
256
6
Continuous
370
-1
48
1.0
60
0
100
AcDbLine
10
-1.03019959429482
20
0.49672478228459
30
0.0
11
-1.03019959429482
21
0.41005778228459
31
0.0
39
0.0
210
0.0
220
0.0
230
1.0
0
LINE
5
A3
330
22
100
AcDbEntity
8
0
62
256
6
Continuous
370
-1
48
1.0
60
0
100
AcDbLine
10
-1.03019959429482
20
0.41005778228459
30
0.0
11
1.05980140570517
21
0.41339078228459
31
0.0
39
0.0
210
0.0
220
0.0
230
1.0
0
LINE
5
A4
330
22
100
AcDbEntity
8
0
62
256
6
Continuous
370
-1
48
1.0
60
0
100
AcDbLine
10
1.05980140570517
20
0.41339078228459
30
0.0
11
1.05980140570517
21
0.49005778228459
31
0.0
39
0.0
210
0.0
220
0.0
230
1.0
0
LINE
5
A5
330
22
100
AcDbEntity
8
0
62
256
6
Continuous
370
-1
48
1.0
60
0
100
AcDbLine
10
1.05980140570517
20
0.49005778228459
30
0.0
11
1.05313440570518
21
0.49672478228459
31
0.0
39
0.0
210
0.0
220
0.0
230
1.0
0
LINE
5
A6
330
22
100
AcDbEntity
8
0
62
256
6
Continuous
370
-1
48
1.0
60
0
100
AcDbLine
10
1.05313440570518
20
0.49672478228459
30
0.0
11
-0.92686559429483
21
0.49339078228459
31
0.0
39
0.0
210
0.0
220
0.0
230
1.0
0
LINE
5
A7
330
22
100
AcDbEntity
8
0
62
256
6
Continuous
370
-1
48
1.0
60
0
100
AcDbLine
10
-1.05353259429482
20
0.27672478228459
30
0.0
11
-1.08402959191358
21
0.02019759470067
31
0.0
39
0.0
210
0.0
220
0.0
230
1.0
0
LWPOLYLINE
5
A8
330
22
100
AcDbEntity
8
0
62
256
6
ByLayer
370
-1
48
1.0
60
0
100
AcDbPolyline
90
12
70
0
38
0.0
39
0.0
10
-1.24353259429482
20
2.66005778228459
40
0.0
41
0.0
42
0.0
10
-1.25353259429483
20
0.02005778228459
40
0.0
41
0.0
42
0.0
10
1.27646740570517
20
0.01672478228459
40
0.0
41
0.0
42
0.0
10
1.26980140570518
20
2.66005778228459
40
0.0
41
0.0
42
0.0
10
1.32313440570518
20
2.66005778228459
40
0.0
41
0.0
42
0.0
10
1.33313440570517
20
2.67005778228459
40
0.0
41
0.0
42
0.0
10
1.33313440570518
20
2.80005778228459
40
0.0
41
0.0
42
0.0
10
1.32313440570518
20
2.81339178228459
40
0.0
41
0.0
42
0.0
10
-1.29686559429483
20
2.81339178228459
40
0.0
41
0.0
42
0.0
10
-1.30686559429483
20
2.80339078228459
40
0.0
41
0.0
42
0.0
10
-1.30686559429483
20
2.67005778228459
40
0.0
41
0.0
42
0.0
10
-1.29686559429483
20
2.66005778228459
40
0.0
41
0.0
42
0.0
210
0.0
220
0.0
230
1.0
0
ENDBLK
5
23
330
22
100
AcDbEntity
8
0
100
AcDbBlockEnd
0
BLOCK
5
AB
330
A9
100
AcDbEntity
8
0
100
AcDbBlockBegin
2
*Paper_Space
70
0
10
0.0
20
0.0
30
0.0
3
*Paper_Space
0
ENDBLK
5
AA
330
A9
100
AcDbEntity
8
0
100
AcDbBlockEnd
0
ENDSEC
0
SECTION
2
ENTITIES
0
INSERT
5
21
330
1A
100
AcDbEntity
67
0
8
0
62
256
6
ByLayer
370
-1
48
1.0
60
0
100
AcDbBlockReference
2
柜橱中前视
10
0.0
20
0.0
30
0.0
41
1.0
42
1.0
43
1.0
50
0.0
210
0.0
220
0.0
230
1.0
0
VIEWPORT
5
AD
330
A9
100
AcDbEntity
67
1
8
0
62
256
6
ByLayer
370
-1
48
1.0
60
0
100
AcDbViewport
10
0.0
20
0.0
30
0.0
40
297.0
41
210.0
68
1
69
1
12
50.0
22
100.0
13
0.0
23
0.0
14
10.0
24
10.0
15
10.0
25
10.0
16
0.0
26
0.0
36
1.0
17
0.0
27
0.0
37
0.0
42
50.0
43
0.0
44
0.0
45
250.0
50
0.0
51
0.0
72
1000
90
819232
110
0.0
120
0.0
130
0.0
111
1.0
121
0.0
131
0.0
112
0.0
122
1.0
132
0.0
0
ENDSEC
0
SECTION
2
OBJECTS
0
DICTIONARY
5
B2
330
0
100
AcDbDictionary
280
0
281
1
3
ACAD_GROUP
350
B3
3
ACAD_LAYOUT
350
B4
3
ACAD_MLINESTYLE
350
B8
0
DICTIONARY
5
B3
330
B2
100
AcDbDictionary
280
0
281
1
0
DICTIONARY
5
B4
330
B2
100
AcDbDictionary
280
0
281
1
3
Model
350
1E
3
Layout1
350
AE
0
DICTIONARY
5
B8
330
B2
100
AcDbDictionary
280
0
281
1
3
Standard
350
19
0
LAYOUT
5
1E
330
B4
100
AcDbPlotSettings
1

2
none_device
4
ISO_A4_(210.00_x_297.00_MM)
6

40
7.5
41
20.0
42
7.5
43
20.0
44
210.0
45
297.0
46
0.0
47
0.0
48
0.0
49
0.0
140
0.0
141
0.0
142
1.0
143
1.0
70
11952
72
1
73
1
74
5
7

75
16
147
1.0
148
0.0
149
0.0
100
AcDbLayout
1
Model
70
1
71
0
10
-20.0
20
-7.5
11
277.0
21
202.5
12
0.0
22
0.0
32
0.0
14
25.7
24
19.5
34
0.0
15
231.3
25
175.5
35
0.0
146
0.0
13
0.0
23
0.0
33
0.0
16
1.0
26
0.0
36
0.0
17
0.0
27
1.0
37
0.0
76
0
330
1A
0
LAYOUT
5
AE
330
B4
100
AcDbPlotSettings
1

2
none_device
4
ISO_A4_(210.00_x_297.00_MM)
6

40
7.5
41
20.0
42
7.5
43
20.0
44
210.0
45
297.0
46
0.0
47
0.0
48
0.0
49
0.0
140
0.0
141
0.0
142
1.0
143
1.0
70
688
72
1
73
1
74
5
7

75
16
147
1.0
148
0.0
149
0.0
100
AcDbLayout
1
Layout1
70
1
71
1
10
-20.0
20
-7.5
11
277.0
21
202.5
12
0.0
22
0.0
32
0.0
14
25.7
24
19.5
34
0.0
15
231.3
25
175.5
35
0.0
146
0.0
13
0.0
23
0.0
33
0.0
16
1.0
26
0.0
36
0.0
17
0.0
27
1.0
37
0.0
76
0
330
A9
0
MLINESTYLE
5
19
330
B8
100
AcDbMlineStyle
2
Standard
70
0
3

62
256
51
90.0
52
90.0
71
2
49
-0.5
62
256
6
ByLayer
49
0.5
62
256
6
ByLayer
0
ENDSEC
0
EOF
