999
Dxf file generated by netDxf https://netdxf.codeplex.com, Copyright(C) 2009-2016 Daniel Carvajal, Licensed under LGPL
0
SECTION
2
HEADER
9
$ACADVER
1
AC1021
9
$DWGCODEPAGE
3
ANSI_936
9
$LASTSAVEDBY
1
GAODI
9
$HANDSEED
5
1E2
9
$ANGBASE
50
0.0
9
$ANGDIR
70
0
9
$ATTMODE
70
1
9
$AUNITS
70
0
9
$AUPREC
70
0
9
$CECOLOR
62
256
9
$CELTSCALE
40
1.0
9
$CELTYPE
6
ByLayer
9
$CELWEIGHT
370
-1
9
$CLAYER
8
0
9
$CMLJUST
70
0
9
$CMLSCALE
40
20.0
9
$CMLSTYLE
2
Standard
9
$DIMSTYLE
2
Standard
9
$TEXTSIZE
40
2.5
9
$TEXTSTYLE
7
Standard
9
$LUNITS
70
2
9
$LUPREC
70
4
9
$EXTNAMES
290
1
9
$INSBASE
10
0.0
20
0.0
30
0.0
9
$INSUNITS
70
0
9
$LTSCALE
40
1.0
9
$LWDISPLAY
290
0
9
$PDMODE
70
0
9
$PDSIZE
40
0.0
9
$PLINEGEN
70
0
9
$PSLTSCALE
70
1
9
$TDCREATE
40
2457773.60866828
9
$TDUCREATE
40
2457773.27533494
9
$TDUPDATE
40
2457773.60866828
9
$TDUUPDATE
40
2457773.27533494
9
$TDINDWG
40
0.0
9
$DIMADEC
70
0
9
$DIMAUNIT
70
0
9
$DIMASZ
40
0.18
9
$DIMAZIN
70
0
9
$DIMSAH
70
0
9
$DIMBLK
1

9
$DIMLDRBLK
1

9
$DIMCEN
40
0.09
9
$DIMCLRD
70
0
9
$DIMCLRE
70
0
9
$DIMCLRT
70
0
9
$DIMDEC
70
2
9
$DIMDLE
40
0.0
9
$DIMDLI
40
0.38
9
$DIMDSEP
70
46
9
$DIMEXE
40
0.18
9
$DIMEXO
40
0.0625
9
$DIMGAP
40
0.09
9
$DIMJUST
70
0
9
$DIMLFAC
40
1.0
9
$DIMLUNIT
70
2
9
$DIMLWD
70
-2
9
$DIMLWE
70
-2
9
$DIMPOST
1
<>
9
$DIMRND
40
0.0
9
$DIMSCALE
40
1.0
9
$DIMSE1
70
0
9
$DIMSE2
70
0
9
$DIMTAD
70
1
9
$DIMTIH
70
0
9
$DIMTOH
70
0
9
$DIMTXT
40
0.18
9
$DIMZIN
70
0
9
$DIMFRAC
70
0
9
$DIMLTYPE
6
ByBlock
9
$DIMLTEX1
6
ByBlock
9
$DIMLTEX2
6
ByBlock
0
ENDSEC
0
SECTION
2
CLASSES
0
CLASS
1
RASTERVARIABLES
2
AcDbRasterVariables
3
ISM
90
0
91
1
280
0
281
0
0
ENDSEC
0
SECTION
2
TABLES
0
TABLE
2
APPID
5
4
330
0
100
AcDbSymbolTable
70
4
0
APPID
5
17
330
4
100
AcDbSymbolTableRecord
100
AcDbRegAppTableRecord
2
ACAD
70
0
0
APPID
5
1D7
330
4
100
AcDbSymbolTableRecord
100
AcDbRegAppTableRecord
2
AcCmTransparency
70
0
0
APPID
5
1D8
330
4
100
AcDbSymbolTableRecord
100
AcDbRegAppTableRecord
2
GradientColor1ACI
70
0
0
APPID
5
1D9
330
4
100
AcDbSymbolTableRecord
100
AcDbRegAppTableRecord
2
GradientColor2ACI
70
0
0
ENDTAB
0
TABLE
2
VPORT
5
1
330
0
100
AcDbSymbolTable
70
1
0
VPORT
5
2
330
1
100
AcDbSymbolTableRecord
100
AcDbViewportTableRecord
2
*Active
70
0
10
0.0
20
0.0
11
1.0
21
1.0
12
0.0
22
0.0
13
0.0
23
0.0
14
0.5
24
0.5
15
10.0
25
10.0
16
0.0
26
0.0
36
1.0
17
0.0
27
0.0
37
0.0
40
10.0
41
1.0
75
0
76
1
0
ENDTAB
0
TABLE
2
LTYPE
5
6
330
0
100
AcDbSymbolTable
70
3
0
LTYPE
5
13
330
6
100
AcDbSymbolTableRecord
100
AcDbLinetypeTableRecord
70
0
2
Continuous
3
Solid line
72
65
73
0
40
0.0
0
LTYPE
5
14
330
6
100
AcDbSymbolTableRecord
100
AcDbLinetypeTableRecord
70
0
2
ByLayer
3

72
65
73
0
40
0.0
0
LTYPE
5
15
330
6
100
AcDbSymbolTableRecord
100
AcDbLinetypeTableRecord
70
0
2
ByBlock
3

72
65
73
0
40
0.0
0
ENDTAB
0
TABLE
2
LAYER
5
5
330
0
100
AcDbSymbolTable
70
1
0
LAYER
5
12
330
5
100
AcDbSymbolTableRecord
100
AcDbLayerTableRecord
2
0
70
0
62
7
6
Continuous
290
1
370
-3
390
0
0
ENDTAB
0
TABLE
2
STYLE
5
7
330
0
100
AcDbSymbolTable
70
1
0
STYLE
5
16
330
7
100
AcDbSymbolTableRecord
100
AcDbTextStyleTableRecord
2
Standard
3
simplex.shx
70
0
71
0
40
0.0
41
1.0
42
0.0
50
0.0
0
ENDTAB
0
TABLE
2
DIMSTYLE
5
8
330
0
100
AcDbSymbolTable
70
1
100
AcDbDimStyleTable
0
DIMSTYLE
105
18
330
8
100
AcDbSymbolTableRecord
100
AcDbDimStyleTableRecord
2
Standard
70
0
3
<>
40
1.0
41
0.18
42
0.0625
43
0.38
44
0.18
45
0.0
46
0.0
73
0
74
0
75
0
76
0
77
1
78
0
79
0
140
0.18
141
0.09
144
1.0
147
0.09
176
0
177
0
178
0
179
0
271
2
275
0
276
0
277
2
278
46
280
0
340
16
173
0
345
15
346
15
347
15
371
-2
372
-2
0
ENDTAB
0
TABLE
2
VIEW
5
3
330
0
100
AcDbSymbolTable
70
0
0
ENDTAB
0
TABLE
2
UCS
5
A
330
0
100
AcDbSymbolTable
70
0
0
ENDTAB
0
TABLE
2
BLOCK_RECORD
5
B
330
0
100
AcDbSymbolTable
70
4
0
BLOCK_RECORD
5
1A
330
B
100
AcDbSymbolTableRecord
100
AcDbBlockTableRecord
2
*Model_Space
340
1E
0
BLOCK_RECORD
5
22
330
B
100
AcDbSymbolTableRecord
100
AcDbBlockTableRecord
2
沙发前视
340
0
70
0
280
1
281
0
1001
ACAD
1000
DesignCenter Data
1002
{
1070
1
1070
0
1002
}
0
BLOCK_RECORD
5
27
330
B
100
AcDbSymbolTableRecord
100
AcDbBlockTableRecord
2
QS
340
0
70
0
280
1
281
0
1001
ACAD
1000
DesignCenter Data
1002
{
1070
1
1070
0
1002
}
0
BLOCK_RECORD
5
1D1
330
B
100
AcDbSymbolTableRecord
100
AcDbBlockTableRecord
2
*Paper_Space
340
1D6
0
ENDTAB
0
ENDSEC
0
SECTION
2
BLOCKS
0
BLOCK
5
1C
330
1A
100
AcDbEntity
8
0
100
AcDbBlockBegin
2
*Model_Space
70
0
10
0.0
20
0.0
30
0.0
3
*Model_Space
0
ENDBLK
5
1B
330
1A
100
AcDbEntity
8
0
100
AcDbBlockEnd
0
BLOCK
5
24
330
22
100
AcDbEntity
8
0
100
AcDbBlockBegin
2
沙发前视
70
0
10
0.0
20
0.0
30
0.0
3
沙发前视
0
INSERT
5
26
330
22
100
AcDbEntity
8
0
62
256
6
ByBlock
370
-1
48
1.0
60
0
100
AcDbBlockReference
2
QS
10
0.0
20
0.0
30
0.0
41
1.0
42
1.0
43
1.0
50
0.0
210
0.0
220
0.0
230
1.0
0
LINE
5
2A
330
22
100
AcDbEntity
8
0
62
1
6
ByBlock
370
-1
48
1.0
60
0
100
AcDbLine
10
-2.39333300915955
20
0.19000000154898
30
0.0
11
-2.43000000915955
21
0.19000000154898
31
0.0
39
0.0
210
0.0
220
0.0
230
1.0
0
LINE
5
2B
330
22
100
AcDbEntity
8
0
62
256
6
Continuous
370
-1
48
1.0
60
0
100
AcDbLine
10
0.01333399084045
20
1.29000000154898
30
0.0
11
0.00666699084045
21
1.29333300154898
31
0.0
39
0.0
210
0.0
220
0.0
230
1.0
0
LINE
5
2C
330
22
100
AcDbEntity
8
0
62
256
6
Continuous
370
-1
48
1.0
60
0
100
AcDbLine
10
0.00666699084045
20
1.29333300154898
30
0.0
11
-0.31333300915955
21
1.28000000154898
31
0.0
39
0.0
210
0.0
220
0.0
230
1.0
0
LINE
5
2D
330
22
100
AcDbEntity
8
0
62
256
6
Continuous
370
-1
48
1.0
60
0
100
AcDbLine
10
-0.31333300915955
20
1.28000000154898
30
0.0
11
-0.57666600915955
21
1.24333300154898
31
0.0
39
0.0
210
0.0
220
0.0
230
1.0
0
LINE
5
2E
330
22
100
AcDbEntity
8
0
62
256
6
Continuous
370
-1
48
1.0
60
0
100
AcDbLine
10
-0.57666600915955
20
1.24333300154898
30
0.0
11
-0.60000000915955
21
1.23666600154898
31
0.0
39
0.0
210
0.0
220
0.0
230
1.0
0
LINE
5
2F
330
22
100
AcDbEntity
8
0
62
256
6
Continuous
370
-1
48
1.0
60
0
100
AcDbLine
10
-0.60000000915955
20
1.23666600154898
30
0.0
11
-0.74666600915955
21
1.16333300154898
31
0.0
39
0.0
210
0.0
220
0.0
230
1.0
0
LINE
5
30
330
22
100
AcDbEntity
8
0
62
256
6
Continuous
370
-1
48
1.0
60
0
100
AcDbLine
10
-0.74666600915955
20
1.16333300154898
30
0.0
11
-0.73999900915955
21
1.15666700154898
31
0.0
39
0.0
210
0.0
220
0.0
230
1.0
0
LINE
5
31
330
22
100
AcDbEntity
8
0
62
256
6
Continuous
370
-1
48
1.0
60
0
100
AcDbLine
10
-0.73999900915955
20
1.15666700154898
30
0.0
11
-0.03999900915955
21
1.16666700154898
31
0.0
39
0.0
210
0.0
220
0.0
230
1.0
0
LINE
5
32
330
22
100
AcDbEntity
8
0
62
256
6
Continuous
370
-1
48
1.0
60
0
100
AcDbLine
10
-0.03999900915955
20
1.16666700154898
30
0.0
11
0.63999999084045
21
1.15666700154898
31
0.0
39
0.0
210
0.0
220
0.0
230
1.0
0
LINE
5
33
330
22
100
AcDbEntity
8
0
62
256
6
Continuous
370
-1
48
1.0
60
0
100
AcDbLine
10
0.63999999084045
20
1.15666700154898
30
0.0
11
1.17999999084045
21
1.16333300154898
31
0.0
39
0.0
210
0.0
220
0.0
230
1.0
0
LINE
5
34
330
22
100
AcDbEntity
8
0
62
256
6
Continuous
370
-1
48
1.0
60
0
100
AcDbLine
10
1.17999999084045
20
1.16333300154898
30
0.0
11
1.19333399084045
21
1.16000000154898
31
0.0
39
0.0
210
0.0
220
0.0
230
1.0
0
LINE
5
35
330
22
100
AcDbEntity
8
0
62
256
6
Continuous
370
-1
48
1.0
60
0
100
AcDbLine
10
1.19333399084045
20
1.16000000154898
30
0.0
11
1.43666699084045
21
1.16666700154898
31
0.0
39
0.0
210
0.0
220
0.0
230
1.0
0
LINE
5
36
330
22
100
AcDbEntity
8
0
62
256
6
Continuous
370
-1
48
1.0
60
0
100
AcDbLine
10
1.43666699084045
20
1.16666700154898
30
0.0
11
2.14666699084045
21
1.15666700154898
31
0.0
39
0.0
210
0.0
220
0.0
230
1.0
0
LINE
5
37
330
22
100
AcDbEntity
8
0
62
256
6
Continuous
370
-1
48
1.0
60
0
100
AcDbLine
10
2.14666699084045
20
1.15666700154898
30
0.0
11
2.25000099084045
21
1.16000000154898
31
0.0
39
0.0
210
0.0
220
0.0
230
1.0
0
LINE
5
38
330
22
100
AcDbEntity
8
0
62
256
6
Continuous
370
-1
48
1.0
60
0
100
AcDbLine
10
2.25000099084045
20
1.16000000154898
30
0.0
11
2.23666699084045
21
1.17000000154898
31
0.0
39
0.0
210
0.0
220
0.0
230
1.0
0
LINE
5
39
330
22
100
AcDbEntity
8
0
62
256
6
Continuous
370
-1
48
1.0
60
0
100
AcDbLine
10
2.23666699084045
20
1.17000000154898
30
0.0
11
2.05000099084045
21
1.24333300154898
31
0.0
39
0.0
210
0.0
220
0.0
230
1.0
0
LINE
5
3A
330
22
100
AcDbEntity
8
0
62
256
6
Continuous
370
-1
48
1.0
60
0
100
AcDbLine
10
2.05000099084045
20
1.24333300154898
30
0.0
11
1.99333399084045
21
1.24666600154898
31
0.0
39
0.0
210
0.0
220
0.0
230
1.0
0
LINE
5
3B
330
22
100
AcDbEntity
8
0
62
256
6
Continuous
370
-1
48
1.0
60
0
100
AcDbLine
10
1.99333399084045
20
1.24666600154898
30
0.0
11
1.73999999084045
21
1.28333300154898
31
0.0
39
0.0
210
0.0
220
0.0
230
1.0
0
LINE
5
3C
330
22
100
AcDbEntity
8
0
62
256
6
Continuous
370
-1
48
1.0
60
0
100
AcDbLine
10
1.73999999084045
20
1.28333300154898
30
0.0
11
1.50333399084045
21
1.29333300154898
31
0.0
39
0.0
210
0.0
220
0.0
230
1.0
0
LINE
5
3D
330
22
100
AcDbEntity
8
0
62
256
6
Continuous
370
-1
48
1.0
60
0
100
AcDbLine
10
1.50333399084045
20
1.29333300154898
30
0.0
11
1.19666699084045
21
1.28333300154898
31
0.0
39
0.0
210
0.0
220
0.0
230
1.0
0
LINE
5
3E
330
22
100
AcDbEntity
8
0
62
256
6
Continuous
370
-1
48
1.0
60
0
100
AcDbLine
10
1.19666699084045
20
1.28333300154898
30
0.0
11
0.90666699084045
21
1.24000000154898
31
0.0
39
0.0
210
0.0
220
0.0
230
1.0
0
LINE
5
3F
330
22
100
AcDbEntity
8
0
62
256
6
Continuous
370
-1
48
1.0
60
0
100
AcDbLine
10
0.90666699084045
20
1.24000000154898
30
0.0
11
0.80333399084045
21
1.18666600154898
31
0.0
39
0.0
210
0.0
220
0.0
230
1.0
0
LINE
5
40
330
22
100
AcDbEntity
8
0
62
256
6
Continuous
370
-1
48
1.0
60
0
100
AcDbLine
10
0.80333399084045
20
1.18666600154898
30
0.0
11
0.75000099084045
21
1.16666700154898
31
0.0
39
0.0
210
0.0
220
0.0
230
1.0
0
LINE
5
41
330
22
100
AcDbEntity
8
0
62
256
6
Continuous
370
-1
48
1.0
60
0
100
AcDbLine
10
0.75000099084045
20
1.16666700154898
30
0.0
11
0.69999999084045
21
1.18666600154898
31
0.0
39
0.0
210
0.0
220
0.0
230
1.0
0
LINE
5
42
330
22
100
AcDbEntity
8
0
62
256
6
Continuous
370
-1
48
1.0
60
0
100
AcDbLine
10
0.69999999084045
20
1.18666600154898
30
0.0
11
0.60666699084045
21
1.23666600154898
31
0.0
39
0.0
210
0.0
220
0.0
230
1.0
0
LINE
5
43
330
22
100
AcDbEntity
8
0
62
256
6
Continuous
370
-1
48
1.0
60
0
100
AcDbLine
10
0.60666699084045
20
1.23666600154898
30
0.0
11
0.57000099084045
21
1.24666600154898
31
0.0
39
0.0
210
0.0
220
0.0
230
1.0
0
LINE
5
44
330
22
100
AcDbEntity
8
0
62
256
6
Continuous
370
-1
48
1.0
60
0
100
AcDbLine
10
0.57000099084045
20
1.24666600154898
30
0.0
11
0.52333399084045
21
1.25333300154898
31
0.0
39
0.0
210
0.0
220
0.0
230
1.0
0
LINE
5
45
330
22
100
AcDbEntity
8
0
62
256
6
Continuous
370
-1
48
1.0
60
0
100
AcDbLine
10
0.52333399084045
20
1.25333300154898
30
0.0
11
0.51999999084045
21
1.25000000154898
31
0.0
39
0.0
210
0.0
220
0.0
230
1.0
0
LINE
5
46
330
22
100
AcDbEntity
8
0
62
256
6
Continuous
370
-1
48
1.0
60
0
100
AcDbLine
10
0.51999999084045
20
1.25000000154898
30
0.0
11
0.32333399084045
21
1.28000000154898
31
0.0
39
0.0
210
0.0
220
0.0
230
1.0
0
LINE
5
47
330
22
100
AcDbEntity
8
0
62
256
6
Continuous
370
-1
48
1.0
60
0
100
AcDbLine
10
0.32333399084045
20
1.28000000154898
30
0.0
11
0.01333399084045
21
1.29000000154898
31
0.0
39
0.0
210
0.0
220
0.0
230
1.0
0
LINE
5
48
330
22
100
AcDbEntity
8
0
62
256
6
Continuous
370
-1
48
1.0
60
0
100
AcDbLine
10
-0.75333300915955
20
2.51000000154898
30
0.0
11
-0.74666600915955
21
2.31000000154898
31
0.0
39
0.0
210
0.0
220
0.0
230
1.0
0
LINE
5
49
330
22
100
AcDbEntity
8
0
62
256
6
Continuous
370
-1
48
1.0
60
0
100
AcDbLine
10
-0.74666600915955
20
2.31000000154898
30
0.0
11
-0.74999900915955
21
1.18000000154898
31
0.0
39
0.0
210
0.0
220
0.0
230
1.0
0
LINE
5
4A
330
22
100
AcDbEntity
8
0
62
256
6
Continuous
370
-1
48
1.0
60
0
100
AcDbLine
10
-0.74999900915955
20
1.18000000154898
30
0.0
11
-0.73999900915955
21
1.17000000154898
31
0.0
39
0.0
210
0.0
220
0.0
230
1.0
0
LINE
5
4B
330
22
100
AcDbEntity
8
0
62
256
6
Continuous
370
-1
48
1.0
60
0
100
AcDbLine
10
-0.73999900915955
20
1.17000000154898
30
0.0
11
-0.69333300915955
21
1.18666600154898
31
0.0
39
0.0
210
0.0
220
0.0
230
1.0
0
LINE
5
4C
330
22
100
AcDbEntity
8
0
62
256
6
Continuous
370
-1
48
1.0
60
0
100
AcDbLine
10
-0.69333300915955
20
1.18666600154898
30
0.0
11
-0.59000000915955
21
1.24000000154898
31
0.0
39
0.0
210
0.0
220
0.0
230
1.0
0
LINE
5
4D
330
22
100
AcDbEntity
8
0
62
256
6
Continuous
370
-1
48
1.0
60
0
100
AcDbLine
10
-0.59000000915955
20
1.24000000154898
30
0.0
11
-0.47000000915955
21
1.25666600154898
31
0.0
39
0.0
210
0.0
220
0.0
230
1.0
0
LINE
5
4E
330
22
100
AcDbEntity
8
0
62
256
6
Continuous
370
-1
48
1.0
60
0
100
AcDbLine
10
-0.47000000915955
20
1.25666600154898
30
0.0
11
-0.46000000915955
21
1.26333300154898
31
0.0
39
0.0
210
0.0
220
0.0
230
1.0
0
LINE
5
4F
330
22
100
AcDbEntity
8
0
62
256
6
Continuous
370
-1
48
1.0
60
0
100
AcDbLine
10
-0.46000000915955
20
1.26333300154898
30
0.0
11
-0.56666600915955
21
1.29666700154898
31
0.0
39
0.0
210
0.0
220
0.0
230
1.0
0
LINE
5
50
330
22
100
AcDbEntity
8
0
62
256
6
Continuous
370
-1
48
1.0
60
0
100
AcDbLine
10
-0.56666600915955
20
1.29666700154898
30
0.0
11
-0.51333300915955
21
1.39333300154898
31
0.0
39
0.0
210
0.0
220
0.0
230
1.0
0
LINE
5
51
330
22
100
AcDbEntity
8
0
62
256
6
Continuous
370
-1
48
1.0
60
0
100
AcDbLine
10
-0.51333300915955
20
1.39333300154898
30
0.0
11
-0.49999900915955
21
1.55666700154898
31
0.0
39
0.0
210
0.0
220
0.0
230
1.0
0
LINE
5
52
330
22
100
AcDbEntity
8
0
62
256
6
Continuous
370
-1
48
1.0
60
0
100
AcDbLine
10
-0.49999900915955
20
1.55666700154898
30
0.0
11
-0.49333300915955
21
1.80666700154898
31
0.0
39
0.0
210
0.0
220
0.0
230
1.0
0
LINE
5
53
330
22
100
AcDbEntity
8
0
62
256
6
Continuous
370
-1
48
1.0
60
0
100
AcDbLine
10
-0.49333300915955
20
1.80666700154898
30
0.0
11
-0.49666600915955
21
2.10000000154898
31
0.0
39
0.0
210
0.0
220
0.0
230
1.0
0
LINE
5
54
330
22
100
AcDbEntity
8
0
62
256
6
Continuous
370
-1
48
1.0
60
0
100
AcDbLine
10
-0.49666600915955
20
2.10000000154898
30
0.0
11
-0.37000000915955
21
2.06666700154898
31
0.0
39
0.0
210
0.0
220
0.0
230
1.0
0
LINE
5
55
330
22
100
AcDbEntity
8
0
62
256
6
Continuous
370
-1
48
1.0
60
0
100
AcDbLine
10
-0.37000000915955
20
2.06666700154898
30
0.0
11
-0.04666600915955
21
2.04000000154898
31
0.0
39
0.0
210
0.0
220
0.0
230
1.0
0
LINE
5
56
330
22
100
AcDbEntity
8
0
62
256
6
Continuous
370
-1
48
1.0
60
0
100
AcDbLine
10
-0.04666600915955
20
2.04000000154898
30
0.0
11
0.26666699084045
21
2.04000000154898
31
0.0
39
0.0
210
0.0
220
0.0
230
1.0
0
LINE
5
57
330
22
100
AcDbEntity
8
0
62
256
6
Continuous
370
-1
48
1.0
60
0
100
AcDbLine
10
0.26666699084045
20
2.04000000154898
30
0.0
11
0.55999999084045
21
2.05333300154898
31
0.0
39
0.0
210
0.0
220
0.0
230
1.0
0
LINE
5
58
330
22
100
AcDbEntity
8
0
62
256
6
Continuous
370
-1
48
1.0
60
0
100
AcDbLine
10
0.55999999084045
20
2.05333300154898
30
0.0
11
0.51333399084045
21
1.79666700154898
31
0.0
39
0.0
210
0.0
220
0.0
230
1.0
0
LINE
5
59
330
22
100
AcDbEntity
8
0
62
256
6
Continuous
370
-1
48
1.0
60
0
100
AcDbLine
10
0.51333399084045
20
1.79666700154898
30
0.0
11
0.48333399084045
21
1.39000000154898
31
0.0
39
0.0
210
0.0
220
0.0
230
1.0
0
LINE
5
5A
330
22
100
AcDbEntity
8
0
62
256
6
Continuous
370
-1
48
1.0
60
0
100
AcDbLine
10
0.48333399084045
20
1.39000000154898
30
0.0
11
0.52999999084045
21
1.25000000154898
31
0.0
39
0.0
210
0.0
220
0.0
230
1.0
0
LINE
5
5B
330
22
100
AcDbEntity
8
0
62
256
6
Continuous
370
-1
48
1.0
60
0
100
AcDbLine
10
0.52999999084045
20
1.25000000154898
30
0.0
11
0.57000099084045
21
1.24666600154898
31
0.0
39
0.0
210
0.0
220
0.0
230
1.0
0
LINE
5
5C
330
22
100
AcDbEntity
8
0
62
256
6
Continuous
370
-1
48
1.0
60
0
100
AcDbLine
10
0.57000099084045
20
1.24666600154898
30
0.0
11
0.60666699084045
21
1.23666600154898
31
0.0
39
0.0
210
0.0
220
0.0
230
1.0
0
LINE
5
5D
330
22
100
AcDbEntity
8
0
62
256
6
Continuous
370
-1
48
1.0
60
0
100
AcDbLine
10
0.60666699084045
20
1.23666600154898
30
0.0
11
0.73999999084045
21
1.17000000154898
31
0.0
39
0.0
210
0.0
220
0.0
230
1.0
0
LINE
5
5E
330
22
100
AcDbEntity
8
0
62
256
6
Continuous
370
-1
48
1.0
60
0
100
AcDbLine
10
0.73999999084045
20
1.17000000154898
30
0.0
11
0.75333399084045
21
1.17666700154898
31
0.0
39
0.0
210
0.0
220
0.0
230
1.0
0
LINE
5
5F
330
22
100
AcDbEntity
8
0
62
256
6
Continuous
370
-1
48
1.0
60
0
100
AcDbLine
10
0.75333399084045
20
1.17666700154898
30
0.0
11
0.75000099084045
21
1.70000000154898
31
0.0
39
0.0
210
0.0
220
0.0
230
1.0
0
LINE
5
60
330
22
100
AcDbEntity
8
0
62
256
6
Continuous
370
-1
48
1.0
60
0
100
AcDbLine
10
0.75000099084045
20
1.70000000154898
30
0.0
11
0.75666699084045
21
1.17000000154898
31
0.0
39
0.0
210
0.0
220
0.0
230
1.0
0
LINE
5
61
330
22
100
AcDbEntity
8
0
62
256
6
Continuous
370
-1
48
1.0
60
0
100
AcDbLine
10
0.75666699084045
20
1.17000000154898
30
0.0
11
0.80333399084045
21
1.18666600154898
31
0.0
39
0.0
210
0.0
220
0.0
230
1.0
0
LINE
5
62
330
22
100
AcDbEntity
8
0
62
256
6
Continuous
370
-1
48
1.0
60
0
100
AcDbLine
10
0.80333399084045
20
1.18666600154898
30
0.0
11
0.89666699084045
21
1.23666600154898
31
0.0
39
0.0
210
0.0
220
0.0
230
1.0
0
LINE
5
63
330
22
100
AcDbEntity
8
0
62
256
6
Continuous
370
-1
48
1.0
60
0
100
AcDbLine
10
0.89666699084045
20
1.23666600154898
30
0.0
11
0.93333399084045
21
1.24666600154898
31
0.0
39
0.0
210
0.0
220
0.0
230
1.0
0
LINE
5
64
330
22
100
AcDbEntity
8
0
62
256
6
Continuous
370
-1
48
1.0
60
0
100
AcDbLine
10
0.93333399084045
20
1.24666600154898
30
0.0
11
1.23333399084045
21
1.28666600154898
31
0.0
39
0.0
210
0.0
220
0.0
230
1.0
0
LINE
5
65
330
22
100
AcDbEntity
8
0
62
256
6
Continuous
370
-1
48
1.0
60
0
100
AcDbLine
10
1.23333399084045
20
1.28666600154898
30
0.0
11
1.25333399084045
21
1.28333300154898
31
0.0
39
0.0
210
0.0
220
0.0
230
1.0
0
LINE
5
66
330
22
100
AcDbEntity
8
0
62
256
6
Continuous
370
-1
48
1.0
60
0
100
AcDbLine
10
1.25333399084045
20
1.28333300154898
30
0.0
11
1.42000099084045
21
1.29333300154898
31
0.0
39
0.0
210
0.0
220
0.0
230
1.0
0
LINE
5
67
330
22
100
AcDbEntity
8
0
62
256
6
Continuous
370
-1
48
1.0
60
0
100
AcDbLine
10
1.42000099084045
20
1.29333300154898
30
0.0
11
1.74333399084045
21
1.28333300154898
31
0.0
39
0.0
210
0.0
220
0.0
230
1.0
0
LINE
5
68
330
22
100
AcDbEntity
8
0
62
256
6
Continuous
370
-1
48
1.0
60
0
100
AcDbLine
10
1.74333399084045
20
1.28333300154898
30
0.0
11
2.02333399084045
21
1.24333300154898
31
0.0
39
0.0
210
0.0
220
0.0
230
1.0
0
LINE
5
69
330
22
100
AcDbEntity
8
0
62
256
6
Continuous
370
-1
48
1.0
60
0
100
AcDbLine
10
2.02333399084045
20
1.24333300154898
30
0.0
11
2.05333399084045
21
1.24333300154898
31
0.0
39
0.0
210
0.0
220
0.0
230
1.0
0
LINE
5
6A
330
22
100
AcDbEntity
8
0
62
256
6
Continuous
370
-1
48
1.0
60
0
100
AcDbLine
10
2.05333399084045
20
1.24333300154898
30
0.0
11
2.07999999084045
21
1.23000000154898
31
0.0
39
0.0
210
0.0
220
0.0
230
1.0
0
LINE
5
6B
330
22
100
AcDbEntity
8
0
62
256
6
Continuous
370
-1
48
1.0
60
0
100
AcDbLine
10
2.07999999084045
20
1.23000000154898
30
0.0
11
2.16333399084045
21
1.23000000154898
31
0.0
39
0.0
210
0.0
220
0.0
230
1.0
0
LINE
5
6C
330
22
100
AcDbEntity
8
0
62
256
6
Continuous
370
-1
48
1.0
60
0
100
AcDbLine
10
2.16333399084045
20
1.23000000154898
30
0.0
11
2.18666699084045
21
1.25666600154898
31
0.0
39
0.0
210
0.0
220
0.0
230
1.0
0
LINE
5
6D
330
22
100
AcDbEntity
8
0
62
256
6
Continuous
370
-1
48
1.0
60
0
100
AcDbLine
10
2.18666699084045
20
1.25666600154898
30
0.0
11
2.21999999084045
21
1.49000000154898
31
0.0
39
0.0
210
0.0
220
0.0
230
1.0
0
LINE
5
6E
330
22
100
AcDbEntity
8
0
62
256
6
Continuous
370
-1
48
1.0
60
0
100
AcDbLine
10
2.21999999084045
20
1.49000000154898
30
0.0
11
2.25333399084045
21
1.56666700154898
31
0.0
39
0.0
210
0.0
220
0.0
230
1.0
0
LINE
5
6F
330
22
100
AcDbEntity
8
0
62
256
6
Continuous
370
-1
48
1.0
60
0
100
AcDbLine
10
2.25333399084045
20
1.56666700154898
30
0.0
11
2.21999999084045
21
1.49000000154898
31
0.0
39
0.0
210
0.0
220
0.0
230
1.0
0
LINE
5
70
330
22
100
AcDbEntity
8
0
62
256
6
Continuous
370
-1
48
1.0
60
0
100
AcDbLine
10
2.21999999084045
20
1.49000000154898
30
0.0
11
2.18666699084045
21
1.25666600154898
31
0.0
39
0.0
210
0.0
220
0.0
230
1.0
0
LINE
5
71
330
22
100
AcDbEntity
8
0
62
256
6
Continuous
370
-1
48
1.0
60
0
100
AcDbLine
10
2.18666699084045
20
1.25666600154898
30
0.0
11
2.16333399084045
21
1.23000000154898
31
0.0
39
0.0
210
0.0
220
0.0
230
1.0
0
LINE
5
72
330
22
100
AcDbEntity
8
0
62
256
6
Continuous
370
-1
48
1.0
60
0
100
AcDbLine
10
2.16333399084045
20
1.23000000154898
30
0.0
11
2.13000099084045
21
1.23000000154898
31
0.0
39
0.0
210
0.0
220
0.0
230
1.0
0
LINE
5
73
330
22
100
AcDbEntity
8
0
62
256
6
Continuous
370
-1
48
1.0
60
0
100
AcDbLine
10
2.13000099084045
20
1.23000000154898
30
0.0
11
2.12333399084045
21
1.22333300154898
31
0.0
39
0.0
210
0.0
220
0.0
230
1.0
0
LINE
5
74
330
22
100
AcDbEntity
8
0
62
256
6
Continuous
370
-1
48
1.0
60
0
100
AcDbLine
10
2.12333399084045
20
1.22333300154898
30
0.0
11
2.13000099084045
21
1.21000000154898
31
0.0
39
0.0
210
0.0
220
0.0
230
1.0
0
LINE
5
75
330
22
100
AcDbEntity
8
0
62
256
6
Continuous
370
-1
48
1.0
60
0
100
AcDbLine
10
2.13000099084045
20
1.21000000154898
30
0.0
11
2.25333399084045
21
1.16333300154898
31
0.0
39
0.0
210
0.0
220
0.0
230
1.0
0
LINE
5
76
330
22
100
AcDbEntity
8
0
62
256
6
Continuous
370
-1
48
1.0
60
0
100
AcDbLine
10
2.25333399084045
20
1.16333300154898
30
0.0
11
2.26666699084045
21
1.15000000154898
31
0.0
39
0.0
210
0.0
220
0.0
230
1.0
0
LINE
5
77
330
22
100
AcDbEntity
8
0
62
256
6
Continuous
370
-1
48
1.0
60
0
100
AcDbLine
10
2.26666699084045
20
1.15000000154898
30
0.0
11
2.28333399084045
21
0.91666700154898
31
0.0
39
0.0
210
0.0
220
0.0
230
1.0
0
LINE
5
78
330
22
100
AcDbEntity
8
0
62
256
6
Continuous
370
-1
48
1.0
60
0
100
AcDbLine
10
2.28333399084045
20
0.91666700154898
30
0.0
11
2.25999999084045
21
0.85000000154898
31
0.0
39
0.0
210
0.0
220
0.0
230
1.0
0
LINE
5
79
330
22
100
AcDbEntity
8
0
62
256
6
Continuous
370
-1
48
1.0
60
0
100
AcDbLine
10
2.25999999084045
20
0.85000000154898
30
0.0
11
2.25999999084045
21
0.78000000154898
31
0.0
39
0.0
210
0.0
220
0.0
230
1.0
0
LINE
5
7A
330
22
100
AcDbEntity
8
0
62
256
6
Continuous
370
-1
48
1.0
60
0
100
AcDbLine
10
2.25999999084045
20
0.78000000154898
30
0.0
11
2.24333399084045
21
0.75333300154898
31
0.0
39
0.0
210
0.0
220
0.0
230
1.0
0
LINE
5
7B
330
22
100
AcDbEntity
8
0
62
256
6
Continuous
370
-1
48
1.0
60
0
100
AcDbLine
10
2.24333399084045
20
0.75333300154898
30
0.0
11
2.20666699084045
21
0.74666600154898
31
0.0
39
0.0
210
0.0
220
0.0
230
1.0
0
LINE
5
7C
330
22
100
AcDbEntity
8
0
62
256
6
Continuous
370
-1
48
1.0
60
0
100
AcDbLine
10
2.20666699084045
20
0.74666600154898
30
0.0
11
1.86000099084045
21
0.74000000154898
31
0.0
39
0.0
210
0.0
220
0.0
230
1.0
0
LINE
5
7D
330
22
100
AcDbEntity
8
0
62
256
6
Continuous
370
-1
48
1.0
60
0
100
AcDbLine
10
1.86000099084045
20
0.74000000154898
30
0.0
11
0.83666699084045
21
0.74333300154898
31
0.0
39
0.0
210
0.0
220
0.0
230
1.0
0
LINE
5
7E
330
22
100
AcDbEntity
8
0
62
256
6
Continuous
370
-1
48
1.0
60
0
100
AcDbLine
10
0.83666699084045
20
0.74333300154898
30
0.0
11
0.76999999084045
21
0.75000000154898
31
0.0
39
0.0
210
0.0
220
0.0
230
1.0
0
LINE
5
7F
330
22
100
AcDbEntity
8
0
62
256
6
Continuous
370
-1
48
1.0
60
0
100
AcDbLine
10
0.76999999084045
20
0.75000000154898
30
0.0
11
0.75666699084045
21
0.76333300154898
31
0.0
39
0.0
210
0.0
220
0.0
230
1.0
0
LINE
5
80
330
22
100
AcDbEntity
8
0
62
256
6
Continuous
370
-1
48
1.0
60
0
100
AcDbLine
10
0.75666699084045
20
0.76333300154898
30
0.0
11
0.76999999084045
21
0.75000000154898
31
0.0
39
0.0
210
0.0
220
0.0
230
1.0
0
LINE
5
81
330
22
100
AcDbEntity
8
0
62
256
6
Continuous
370
-1
48
1.0
60
0
100
AcDbLine
10
0.76999999084045
20
0.75000000154898
30
0.0
11
0.85666699084045
21
0.74333300154898
31
0.0
39
0.0
210
0.0
220
0.0
230
1.0
0
LINE
5
82
330
22
100
AcDbEntity
8
0
62
256
6
Continuous
370
-1
48
1.0
60
0
100
AcDbLine
10
0.85666699084045
20
0.74333300154898
30
0.0
11
0.86666699084045
21
0.74666600154898
31
0.0
39
0.0
210
0.0
220
0.0
230
1.0
0
LINE
5
83
330
22
100
AcDbEntity
8
0
62
256
6
Continuous
370
-1
48
1.0
60
0
100
AcDbLine
10
0.86666699084045
20
0.74666600154898
30
0.0
11
1.08666699084045
21
0.74000000154898
31
0.0
39
0.0
210
0.0
220
0.0
230
1.0
0
LINE
5
84
330
22
100
AcDbEntity
8
0
62
256
6
Continuous
370
-1
48
1.0
60
0
100
AcDbLine
10
1.08666699084045
20
0.74000000154898
30
0.0
11
1.84666699084045
21
0.74000000154898
31
0.0
39
0.0
210
0.0
220
0.0
230
1.0
0
LINE
5
85
330
22
100
AcDbEntity
8
0
62
256
6
Continuous
370
-1
48
1.0
60
0
100
AcDbLine
10
1.84666699084045
20
0.74000000154898
30
0.0
11
2.20666699084045
21
0.74666600154898
31
0.0
39
0.0
210
0.0
220
0.0
230
1.0
0
LINE
5
86
330
22
100
AcDbEntity
8
0
62
256
6
Continuous
370
-1
48
1.0
60
0
100
AcDbLine
10
2.20666699084045
20
0.74666600154898
30
0.0
11
2.23666699084045
21
0.75000000154898
31
0.0
39
0.0
210
0.0
220
0.0
230
1.0
0
LINE
5
87
330
22
100
AcDbEntity
8
0
62
256
6
Continuous
370
-1
48
1.0
60
0
100
AcDbLine
10
2.23666699084045
20
0.75000000154898
30
0.0
11
2.25333399084045
21
0.76333300154898
31
0.0
39
0.0
210
0.0
220
0.0
230
1.0
0
LINE
5
88
330
22
100
AcDbEntity
8
0
62
256
6
Continuous
370
-1
48
1.0
60
0
100
AcDbLine
10
2.25333399084045
20
0.76333300154898
30
0.0
11
2.25999999084045
21
0.78000000154898
31
0.0
39
0.0
210
0.0
220
0.0
230
1.0
0
LINE
5
89
330
22
100
AcDbEntity
8
0
62
256
6
Continuous
370
-1
48
1.0
60
0
100
AcDbLine
10
2.25999999084045
20
0.78000000154898
30
0.0
11
2.25999999084045
21
0.85333300154898
31
0.0
39
0.0
210
0.0
220
0.0
230
1.0
0
LINE
5
8A
330
22
100
AcDbEntity
8
0
62
256
6
Continuous
370
-1
48
1.0
60
0
100
AcDbLine
10
2.25999999084045
20
0.85333300154898
30
0.0
11
2.28333399084045
21
0.91666700154898
31
0.0
39
0.0
210
0.0
220
0.0
230
1.0
0
LINE
5
8B
330
22
100
AcDbEntity
8
0
62
256
6
Continuous
370
-1
48
1.0
60
0
100
AcDbLine
10
2.28333399084045
20
0.91666700154898
30
0.0
11
2.26666699084045
21
1.14333300154898
31
0.0
39
0.0
210
0.0
220
0.0
230
1.0
0
LINE
5
8C
330
22
100
AcDbEntity
8
0
62
256
6
Continuous
370
-1
48
1.0
60
0
100
AcDbLine
10
2.26666699084045
20
1.14333300154898
30
0.0
11
2.25999999084045
21
1.15666700154898
31
0.0
39
0.0
210
0.0
220
0.0
230
1.0
0
LINE
5
8D
330
22
100
AcDbEntity
8
0
62
256
6
Continuous
370
-1
48
1.0
60
0
100
AcDbLine
10
2.25999999084045
20
1.15666700154898
30
0.0
11
1.73000099084045
21
1.16333300154898
31
0.0
39
0.0
210
0.0
220
0.0
230
1.0
0
LINE
5
8E
330
22
100
AcDbEntity
8
0
62
256
6
Continuous
370
-1
48
1.0
60
0
100
AcDbLine
10
1.73000099084045
20
1.16333300154898
30
0.0
11
1.71999999084045
21
1.16000000154898
31
0.0
39
0.0
210
0.0
220
0.0
230
1.0
0
LINE
5
8F
330
22
100
AcDbEntity
8
0
62
256
6
Continuous
370
-1
48
1.0
60
0
100
AcDbLine
10
1.71999999084045
20
1.16000000154898
30
0.0
11
1.46000099084045
21
1.16666700154898
31
0.0
39
0.0
210
0.0
220
0.0
230
1.0
0
LINE
5
90
330
22
100
AcDbEntity
8
0
62
256
6
Continuous
370
-1
48
1.0
60
0
100
AcDbLine
10
1.46000099084045
20
1.16666700154898
30
0.0
11
1.20666699084045
21
1.16000000154898
31
0.0
39
0.0
210
0.0
220
0.0
230
1.0
0
LINE
5
91
330
22
100
AcDbEntity
8
0
62
256
6
Continuous
370
-1
48
1.0
60
0
100
AcDbLine
10
1.20666699084045
20
1.16000000154898
30
0.0
11
0.59999999084045
21
1.15666700154898
31
0.0
39
0.0
210
0.0
220
0.0
230
1.0
0
LINE
5
92
330
22
100
AcDbEntity
8
0
62
256
6
Continuous
370
-1
48
1.0
60
0
100
AcDbLine
10
0.59999999084045
20
1.15666700154898
30
0.0
11
0.01999999084045
21
1.16666700154898
31
0.0
39
0.0
210
0.0
220
0.0
230
1.0
0
LINE
5
93
330
22
100
AcDbEntity
8
0
62
256
6
Continuous
370
-1
48
1.0
60
0
100
AcDbLine
10
0.01999999084045
20
1.16666700154898
30
0.0
11
-0.60666600915955
21
1.15666700154898
31
0.0
39
0.0
210
0.0
220
0.0
230
1.0
0
LINE
5
94
330
22
100
AcDbEntity
8
0
62
256
6
Continuous
370
-1
48
1.0
60
0
100
AcDbLine
10
-0.60666600915955
20
1.15666700154898
30
0.0
11
-0.74333300915955
21
1.16000000154898
31
0.0
39
0.0
210
0.0
220
0.0
230
1.0
0
LINE
5
95
330
22
100
AcDbEntity
8
0
62
256
6
Continuous
370
-1
48
1.0
60
0
100
AcDbLine
10
-0.74333300915955
20
1.16000000154898
30
0.0
11
-0.74999900915955
21
1.15333300154898
31
0.0
39
0.0
210
0.0
220
0.0
230
1.0
0
LINE
5
96
330
22
100
AcDbEntity
8
0
62
256
6
Continuous
370
-1
48
1.0
60
0
100
AcDbLine
10
-0.74999900915955
20
1.15333300154898
30
0.0
11
-0.74999900915955
21
0.77666600154898
31
0.0
39
0.0
210
0.0
220
0.0
230
1.0
0
LINE
5
97
330
22
100
AcDbEntity
8
0
62
256
6
Continuous
370
-1
48
1.0
60
0
100
AcDbLine
10
-0.74999900915955
20
0.77666600154898
30
0.0
11
-0.72666600915955
21
0.75000000154898
31
0.0
39
0.0
210
0.0
220
0.0
230
1.0
0
LINE
5
98
330
22
100
AcDbEntity
8
0
62
256
6
Continuous
370
-1
48
1.0
60
0
100
AcDbLine
10
-0.72666600915955
20
0.75000000154898
30
0.0
11
-0.66333300915955
21
0.74333300154898
31
0.0
39
0.0
210
0.0
220
0.0
230
1.0
0
LINE
5
99
330
22
100
AcDbEntity
8
0
62
256
6
Continuous
370
-1
48
1.0
60
0
100
AcDbLine
10
-0.66333300915955
20
0.74333300154898
30
0.0
11
0.46000099084045
21
0.74000000154898
31
0.0
39
0.0
210
0.0
220
0.0
230
1.0
0
LINE
5
9A
330
22
100
AcDbEntity
8
0
62
256
6
Continuous
370
-1
48
1.0
60
0
100
AcDbLine
10
0.46000099084045
20
0.74000000154898
30
0.0
11
0.65999999084045
21
0.74333300154898
31
0.0
39
0.0
210
0.0
220
0.0
230
1.0
0
LINE
5
9B
330
22
100
AcDbEntity
8
0
62
256
6
Continuous
370
-1
48
1.0
60
0
100
AcDbLine
10
0.65999999084045
20
0.74333300154898
30
0.0
11
0.73333399084045
21
0.75000000154898
31
0.0
39
0.0
210
0.0
220
0.0
230
1.0
0
LINE
5
9C
330
22
100
AcDbEntity
8
0
62
256
6
Continuous
370
-1
48
1.0
60
0
100
AcDbLine
10
0.73333399084045
20
0.75000000154898
30
0.0
11
0.75000099084045
21
0.76666600154898
31
0.0
39
0.0
210
0.0
220
0.0
230
1.0
0
LINE
5
9D
330
22
100
AcDbEntity
8
0
62
256
6
Continuous
370
-1
48
1.0
60
0
100
AcDbLine
10
0.75000099084045
20
0.76666600154898
30
0.0
11
0.75333399084045
21
1.15000000154898
31
0.0
39
0.0
210
0.0
220
0.0
230
1.0
0
LINE
5
9E
330
22
100
AcDbEntity
8
0
62
256
6
Continuous
370
-1
48
1.0
60
0
100
AcDbLine
10
0.75333399084045
20
1.15000000154898
30
0.0
11
0.75333399084045
21
0.77000000154898
31
0.0
39
0.0
210
0.0
220
0.0
230
1.0
0
LINE
5
9F
330
22
100
AcDbEntity
8
0
62
256
6
Continuous
370
-1
48
1.0
60
0
100
AcDbLine
10
0.75333399084045
20
0.77000000154898
30
0.0
11
0.73333399084045
21
0.75000000154898
31
0.0
39
0.0
210
0.0
220
0.0
230
1.0
0
LINE
5
A0
330
22
100
AcDbEntity
8
0
62
256
6
Continuous
370
-1
48
1.0
60
0
100
AcDbLine
10
0.73333399084045
20
0.75000000154898
30
0.0
11
0.70666699084045
21
0.75000000154898
31
0.0
39
0.0
210
0.0
220
0.0
230
1.0
0
LINE
5
A1
330
22
100
AcDbEntity
8
0
62
256
6
Continuous
370
-1
48
1.0
60
0
100
AcDbLine
10
0.70666699084045
20
0.75000000154898
30
0.0
11
0.68333399084045
21
0.74333300154898
31
0.0
39
0.0
210
0.0
220
0.0
230
1.0
0
LINE
5
A2
330
22
100
AcDbEntity
8
0
62
256
6
Continuous
370
-1
48
1.0
60
0
100
AcDbLine
10
0.68333399084045
20
0.74333300154898
30
0.0
11
-0.67666600915955
21
0.74333300154898
31
0.0
39
0.0
210
0.0
220
0.0
230
1.0
0
LINE
5
A3
330
22
100
AcDbEntity
8
0
62
256
6
Continuous
370
-1
48
1.0
60
0
100
AcDbLine
10
-0.67666600915955
20
0.74333300154898
30
0.0
11
-0.70000000915955
21
0.75000000154898
31
0.0
39
0.0
210
0.0
220
0.0
230
1.0
0
LINE
5
A4
330
22
100
AcDbEntity
8
0
62
256
6
Continuous
370
-1
48
1.0
60
0
100
AcDbLine
10
-0.70000000915955
20
0.75000000154898
30
0.0
11
-0.72666600915955
21
0.75000000154898
31
0.0
39
0.0
210
0.0
220
0.0
230
1.0
0
LINE
5
A5
330
22
100
AcDbEntity
8
0
62
256
6
Continuous
370
-1
48
1.0
60
0
100
AcDbLine
10
-0.72666600915955
20
0.75000000154898
30
0.0
11
-0.74333300915955
21
0.77000000154898
31
0.0
39
0.0
210
0.0
220
0.0
230
1.0
0
LINE
5
A6
330
22
100
AcDbEntity
8
0
62
256
6
Continuous
370
-1
48
1.0
60
0
100
AcDbLine
10
-0.74333300915955
20
0.77000000154898
30
0.0
11
-0.75333300915955
21
0.77000000154898
31
0.0
39
0.0
210
0.0
220
0.0
230
1.0
0
LINE
5
A7
330
22
100
AcDbEntity
8
0
62
256
6
Continuous
370
-1
48
1.0
60
0
100
AcDbLine
10
-0.75333300915955
20
0.77000000154898
30
0.0
11
-0.76999900915955
21
0.75000000154898
31
0.0
39
0.0
210
0.0
220
0.0
230
1.0
0
LINE
5
A8
330
22
100
AcDbEntity
8
0
62
256
6
Continuous
370
-1
48
1.0
60
0
100
AcDbLine
10
-0.76999900915955
20
0.75000000154898
30
0.0
11
-0.79666600915955
21
0.75000000154898
31
0.0
39
0.0
210
0.0
220
0.0
230
1.0
0
LINE
5
A9
330
22
100
AcDbEntity
8
0
62
256
6
Continuous
370
-1
48
1.0
60
0
100
AcDbLine
10
-0.79666600915955
20
0.75000000154898
30
0.0
11
-0.82000000915955
21
0.74333300154898
31
0.0
39
0.0
210
0.0
220
0.0
230
1.0
0
LINE
5
AA
330
22
100
AcDbEntity
8
0
62
256
6
Continuous
370
-1
48
1.0
60
0
100
AcDbLine
10
-0.82000000915955
20
0.74333300154898
30
0.0
11
-2.09333300915955
21
0.74333300154898
31
0.0
39
0.0
210
0.0
220
0.0
230
1.0
0
LINE
5
AB
330
22
100
AcDbEntity
8
0
62
256
6
Continuous
370
-1
48
1.0
60
0
100
AcDbLine
10
-2.09333300915955
20
0.74333300154898
30
0.0
11
-2.24000000915955
21
0.75000000154898
31
0.0
39
0.0
210
0.0
220
0.0
230
1.0
0
LINE
5
AC
330
22
100
AcDbEntity
8
0
62
256
6
Continuous
370
-1
48
1.0
60
0
100
AcDbLine
10
-2.24000000915955
20
0.75000000154898
30
0.0
11
-2.25333300915955
21
0.76333300154898
31
0.0
39
0.0
210
0.0
220
0.0
230
1.0
0
LINE
5
AD
330
22
100
AcDbEntity
8
0
62
256
6
Continuous
370
-1
48
1.0
60
0
100
AcDbLine
10
-2.25333300915955
20
0.76333300154898
30
0.0
11
-2.26000000915955
21
0.78000000154898
31
0.0
39
0.0
210
0.0
220
0.0
230
1.0
0
LINE
5
AE
330
22
100
AcDbEntity
8
0
62
256
6
Continuous
370
-1
48
1.0
60
0
100
AcDbLine
10
-2.26000000915955
20
0.78000000154898
30
0.0
11
-2.26000000915955
21
0.84666700154898
31
0.0
39
0.0
210
0.0
220
0.0
230
1.0
0
LINE
5
AF
330
22
100
AcDbEntity
8
0
62
256
6
Continuous
370
-1
48
1.0
60
0
100
AcDbLine
10
-2.26000000915955
20
0.84666700154898
30
0.0
11
-2.28333300915955
21
0.91333300154898
31
0.0
39
0.0
210
0.0
220
0.0
230
1.0
0
LINE
5
B0
330
22
100
AcDbEntity
8
0
62
256
6
Continuous
370
-1
48
1.0
60
0
100
AcDbLine
10
-2.28333300915955
20
0.91333300154898
30
0.0
11
-2.28333300915955
21
0.97333300154898
31
0.0
39
0.0
210
0.0
220
0.0
230
1.0
0
LINE
5
B1
330
22
100
AcDbEntity
8
0
62
256
6
Continuous
370
-1
48
1.0
60
0
100
AcDbLine
10
-2.28333300915955
20
0.97333300154898
30
0.0
11
-2.26666600915955
21
1.15333300154898
31
0.0
39
0.0
210
0.0
220
0.0
230
1.0
0
LINE
5
B2
330
22
100
AcDbEntity
8
0
62
256
6
Continuous
370
-1
48
1.0
60
0
100
AcDbLine
10
-2.26666600915955
20
1.15333300154898
30
0.0
11
-2.24666600915955
21
1.16666700154898
31
0.0
39
0.0
210
0.0
220
0.0
230
1.0
0
LINE
5
B3
330
22
100
AcDbEntity
8
0
62
256
6
Continuous
370
-1
48
1.0
60
0
100
AcDbLine
10
-2.24666600915955
20
1.16666700154898
30
0.0
11
-2.13000000915955
21
1.21000000154898
31
0.0
39
0.0
210
0.0
220
0.0
230
1.0
0
LINE
5
B4
330
22
100
AcDbEntity
8
0
62
256
6
Continuous
370
-1
48
1.0
60
0
100
AcDbLine
10
-2.13000000915955
20
1.21000000154898
30
0.0
11
-2.12333300915955
21
1.21666600154898
31
0.0
39
0.0
210
0.0
220
0.0
230
1.0
0
LINE
5
B5
330
22
100
AcDbEntity
8
0
62
256
6
Continuous
370
-1
48
1.0
60
0
100
AcDbLine
10
-2.12333300915955
20
1.21666600154898
30
0.0
11
-2.12666600915955
21
1.24333300154898
31
0.0
39
0.0
210
0.0
220
0.0
230
1.0
0
LINE
5
B6
330
22
100
AcDbEntity
8
0
62
256
6
Continuous
370
-1
48
1.0
60
0
100
AcDbLine
10
-2.12666600915955
20
1.24333300154898
30
0.0
11
-2.13333300915955
21
1.25000000154898
31
0.0
39
0.0
210
0.0
220
0.0
230
1.0
0
LINE
5
B7
330
22
100
AcDbEntity
8
0
62
256
6
Continuous
370
-1
48
1.0
60
0
100
AcDbLine
10
-2.13333300915955
20
1.25000000154898
30
0.0
11
-2.16333300915955
21
1.25000000154898
31
0.0
39
0.0
210
0.0
220
0.0
230
1.0
0
LINE
5
B8
330
22
100
AcDbEntity
8
0
62
256
6
Continuous
370
-1
48
1.0
60
0
100
AcDbLine
10
-2.16333300915955
20
1.25000000154898
30
0.0
11
-2.18666600915955
21
1.28000000154898
31
0.0
39
0.0
210
0.0
220
0.0
230
1.0
0
LINE
5
B9
330
22
100
AcDbEntity
8
0
62
256
6
Continuous
370
-1
48
1.0
60
0
100
AcDbLine
10
-2.18666600915955
20
1.28000000154898
30
0.0
11
-2.22000000915955
21
1.49000000154898
31
0.0
39
0.0
210
0.0
220
0.0
230
1.0
0
LINE
5
BA
330
22
100
AcDbEntity
8
0
62
256
6
Continuous
370
-1
48
1.0
60
0
100
AcDbLine
10
-2.22000000915955
20
1.49000000154898
30
0.0
11
-2.25000000915955
21
1.56000000154898
31
0.0
39
0.0
210
0.0
220
0.0
230
1.0
0
LINE
5
BB
330
22
100
AcDbEntity
8
0
62
256
6
Continuous
370
-1
48
1.0
60
0
100
AcDbLine
10
-2.25000000915955
20
1.56000000154898
30
0.0
11
-2.21666600915955
21
1.47666600154898
31
0.0
39
0.0
210
0.0
220
0.0
230
1.0
0
LINE
5
BC
330
22
100
AcDbEntity
8
0
62
256
6
Continuous
370
-1
48
1.0
60
0
100
AcDbLine
10
-2.21666600915955
20
1.47666600154898
30
0.0
11
-2.18666600915955
21
1.28000000154898
31
0.0
39
0.0
210
0.0
220
0.0
230
1.0
0
LINE
5
BD
330
22
100
AcDbEntity
8
0
62
256
6
Continuous
370
-1
48
1.0
60
0
100
AcDbLine
10
-2.18666600915955
20
1.28000000154898
30
0.0
11
-2.16333300915955
21
1.25000000154898
31
0.0
39
0.0
210
0.0
220
0.0
230
1.0
0
LINE
5
BE
330
22
100
AcDbEntity
8
0
62
256
6
Continuous
370
-1
48
1.0
60
0
100
AcDbLine
10
-2.16333300915955
20
1.25000000154898
30
0.0
11
-1.97333300915955
21
1.25000000154898
31
0.0
39
0.0
210
0.0
220
0.0
230
1.0
0
LINE
5
BF
330
22
100
AcDbEntity
8
0
62
256
6
Continuous
370
-1
48
1.0
60
0
100
AcDbLine
10
-1.97333300915955
20
1.25000000154898
30
0.0
11
-1.74333300915955
21
1.28333300154898
31
0.0
39
0.0
210
0.0
220
0.0
230
1.0
0
LINE
5
C0
330
22
100
AcDbEntity
8
0
62
256
6
Continuous
370
-1
48
1.0
60
0
100
AcDbLine
10
-1.74333300915955
20
1.28333300154898
30
0.0
11
-1.51333300915955
21
1.29333300154898
31
0.0
39
0.0
210
0.0
220
0.0
230
1.0
0
LINE
5
C1
330
22
100
AcDbEntity
8
0
62
256
6
Continuous
370
-1
48
1.0
60
0
100
AcDbLine
10
-1.51333300915955
20
1.29333300154898
30
0.0
11
-1.30333300915955
21
1.29333300154898
31
0.0
39
0.0
210
0.0
220
0.0
230
1.0
0
LINE
5
C2
330
22
100
AcDbEntity
8
0
62
256
6
Continuous
370
-1
48
1.0
60
0
100
AcDbLine
10
-1.30333300915955
20
1.29333300154898
30
0.0
11
-1.31333300915955
21
1.29000000154898
31
0.0
39
0.0
210
0.0
220
0.0
230
1.0
0
LINE
5
C3
330
22
100
AcDbEntity
8
0
62
256
6
Continuous
370
-1
48
1.0
60
0
100
AcDbLine
10
-1.31333300915955
20
1.29000000154898
30
0.0
11
-1.19666600915955
21
1.28333300154898
31
0.0
39
0.0
210
0.0
220
0.0
230
1.0
0
LINE
5
C4
330
22
100
AcDbEntity
8
0
62
256
6
Continuous
370
-1
48
1.0
60
0
100
AcDbLine
10
-1.19666600915955
20
1.28333300154898
30
0.0
11
-0.98333300915955
21
1.25333300154898
31
0.0
39
0.0
210
0.0
220
0.0
230
1.0
0
LINE
5
C5
330
22
100
AcDbEntity
8
0
62
256
6
Continuous
370
-1
48
1.0
60
0
100
AcDbLine
10
-0.98333300915955
20
1.25333300154898
30
0.0
11
-1.20000000915955
21
1.28333300154898
31
0.0
39
0.0
210
0.0
220
0.0
230
1.0
0
LINE
5
C6
330
22
100
AcDbEntity
8
0
62
256
6
Continuous
370
-1
48
1.0
60
0
100
AcDbLine
10
-1.20000000915955
20
1.28333300154898
30
0.0
11
-1.43666600915955
21
1.29333300154898
31
0.0
39
0.0
210
0.0
220
0.0
230
1.0
0
LINE
5
C7
330
22
100
AcDbEntity
8
0
62
256
6
Continuous
370
-1
48
1.0
60
0
100
AcDbLine
10
-1.43666600915955
20
1.29333300154898
30
0.0
11
-1.73999900915955
21
1.28333300154898
31
0.0
39
0.0
210
0.0
220
0.0
230
1.0
0
LINE
5
C8
330
22
100
AcDbEntity
8
0
62
256
6
Continuous
370
-1
48
1.0
60
0
100
AcDbLine
10
-1.73999900915955
20
1.28333300154898
30
0.0
11
-1.97000000915955
21
1.25000000154898
31
0.0
39
0.0
210
0.0
220
0.0
230
1.0
0
LINE
5
C9
330
22
100
AcDbEntity
8
0
62
256
6
Continuous
370
-1
48
1.0
60
0
100
AcDbLine
10
-1.97000000915955
20
1.25000000154898
30
0.0
11
-2.05000000915955
21
1.24333300154898
31
0.0
39
0.0
210
0.0
220
0.0
230
1.0
0
LINE
5
CA
330
22
100
AcDbEntity
8
0
62
256
6
Continuous
370
-1
48
1.0
60
0
100
AcDbLine
10
-2.05000000915955
20
1.24333300154898
30
0.0
11
-2.24666600915955
21
1.16666700154898
31
0.0
39
0.0
210
0.0
220
0.0
230
1.0
0
LINE
5
CB
330
22
100
AcDbEntity
8
0
62
256
6
Continuous
370
-1
48
1.0
60
0
100
AcDbLine
10
-2.24666600915955
20
1.16666700154898
30
0.0
11
-2.25333300915955
21
1.16000000154898
31
0.0
39
0.0
210
0.0
220
0.0
230
1.0
0
LINE
5
CC
330
22
100
AcDbEntity
8
0
62
256
6
Continuous
370
-1
48
1.0
60
0
100
AcDbLine
10
-2.25333300915955
20
1.16000000154898
30
0.0
11
-2.13333300915955
21
1.15666700154898
31
0.0
39
0.0
210
0.0
220
0.0
230
1.0
0
LINE
5
CD
330
22
100
AcDbEntity
8
0
62
256
6
Continuous
370
-1
48
1.0
60
0
100
AcDbLine
10
-2.13333300915955
20
1.15666700154898
30
0.0
11
-1.49666600915955
21
1.16666700154898
31
0.0
39
0.0
210
0.0
220
0.0
230
1.0
0
LINE
5
CE
330
22
100
AcDbEntity
8
0
62
256
6
Continuous
370
-1
48
1.0
60
0
100
AcDbLine
10
-1.49666600915955
20
1.16666700154898
30
0.0
11
-0.86333300915955
21
1.15666700154898
31
0.0
39
0.0
210
0.0
220
0.0
230
1.0
0
LINE
5
CF
330
22
100
AcDbEntity
8
0
62
256
6
Continuous
370
-1
48
1.0
60
0
100
AcDbLine
10
-0.86333300915955
20
1.15666700154898
30
0.0
11
-0.75999900915955
21
1.15666700154898
31
0.0
39
0.0
210
0.0
220
0.0
230
1.0
0
LINE
5
D0
330
22
100
AcDbEntity
8
0
62
256
6
Continuous
370
-1
48
1.0
60
0
100
AcDbLine
10
-0.75999900915955
20
1.15666700154898
30
0.0
11
-0.74999900915955
21
1.16333300154898
31
0.0
39
0.0
210
0.0
220
0.0
230
1.0
0
LINE
5
D1
330
22
100
AcDbEntity
8
0
62
256
6
Continuous
370
-1
48
1.0
60
0
100
AcDbLine
10
-0.74999900915955
20
1.16333300154898
30
0.0
11
-0.89666600915955
21
1.23666600154898
31
0.0
39
0.0
210
0.0
220
0.0
230
1.0
0
LINE
5
D2
330
22
100
AcDbEntity
8
0
62
256
6
Continuous
370
-1
48
1.0
60
0
100
AcDbLine
10
-0.89666600915955
20
1.23666600154898
30
0.0
11
-0.97666600915955
21
1.25000000154898
31
0.0
39
0.0
210
0.0
220
0.0
230
1.0
0
LINE
5
D3
330
22
100
AcDbEntity
8
0
62
256
6
Continuous
370
-1
48
1.0
60
0
100
AcDbLine
10
-0.97666600915955
20
1.25000000154898
30
0.0
11
-0.90666600915955
21
1.24000000154898
31
0.0
39
0.0
210
0.0
220
0.0
230
1.0
0
LINE
5
D4
330
22
100
AcDbEntity
8
0
62
256
6
Continuous
370
-1
48
1.0
60
0
100
AcDbLine
10
-0.90666600915955
20
1.24000000154898
30
0.0
11
-0.78000000915955
21
1.17666700154898
31
0.0
39
0.0
210
0.0
220
0.0
230
1.0
0
LINE
5
D5
330
22
100
AcDbEntity
8
0
62
256
6
Continuous
370
-1
48
1.0
60
0
100
AcDbLine
10
-0.78000000915955
20
1.17666700154898
30
0.0
11
-0.75666600915955
21
1.17000000154898
31
0.0
39
0.0
210
0.0
220
0.0
230
1.0
0
LINE
5
D6
330
22
100
AcDbEntity
8
0
62
256
6
Continuous
370
-1
48
1.0
60
0
100
AcDbLine
10
-0.75666600915955
20
1.17000000154898
30
0.0
11
-0.74999900915955
21
1.17666700154898
31
0.0
39
0.0
210
0.0
220
0.0
230
1.0
0
LINE
5
D7
330
22
100
AcDbEntity
8
0
62
256
6
Continuous
370
-1
48
1.0
60
0
100
AcDbLine
10
-0.74999900915955
20
1.17666700154898
30
0.0
11
-0.75333300915955
21
2.50000000154898
31
0.0
39
0.0
210
0.0
220
0.0
230
1.0
0
LINE
5
D8
330
22
100
AcDbEntity
8
0
62
256
6
Continuous
370
-1
48
1.0
60
0
100
AcDbLine
10
0.75666699084045
20
2.51000000154898
30
0.0
11
0.75000099084045
21
1.86333300154898
31
0.0
39
0.0
210
0.0
220
0.0
230
1.0
0
LINE
5
D9
330
22
100
AcDbEntity
8
0
62
256
6
Continuous
370
-1
48
1.0
60
0
100
AcDbLine
10
0.75000099084045
20
1.86333300154898
30
0.0
11
0.75000099084045
21
2.32666600154898
31
0.0
39
0.0
210
0.0
220
0.0
230
1.0
0
LINE
5
DA
330
22
100
AcDbEntity
8
0
62
256
6
Continuous
370
-1
48
1.0
60
0
100
AcDbLine
10
0.75000099084045
20
2.32666600154898
30
0.0
11
0.75666699084045
21
2.41666700154898
31
0.0
39
0.0
210
0.0
220
0.0
230
1.0
0
LINE
5
DB
330
22
100
AcDbEntity
8
0
62
256
6
Continuous
370
-1
48
1.0
60
0
100
AcDbLine
10
0.75666699084045
20
2.41666700154898
30
0.0
11
0.75666699084045
21
2.51000000154898
31
0.0
39
0.0
210
0.0
220
0.0
230
1.0
0
LINE
5
DC
330
22
100
AcDbEntity
8
0
62
256
6
Continuous
370
-1
48
1.0
60
0
100
AcDbLine
10
2.60666699084045
20
1.23333300154898
30
0.0
11
2.61999999084045
21
1.22333300154898
31
0.0
39
0.0
210
0.0
220
0.0
230
1.0
0
LINE
5
DD
330
22
100
AcDbEntity
8
0
62
256
6
Continuous
370
-1
48
1.0
60
0
100
AcDbLine
10
2.65999999084045
20
1.73333300154898
30
0.0
11
2.44000099084045
21
1.74333300154898
31
0.0
39
0.0
210
0.0
220
0.0
230
1.0
0
LINE
5
DE
330
22
100
AcDbEntity
8
0
62
256
6
Continuous
370
-1
48
1.0
60
0
100
AcDbLine
10
2.44000099084045
20
1.74333300154898
30
0.0
11
2.40333399084045
21
1.73000000154898
31
0.0
39
0.0
210
0.0
220
0.0
230
1.0
0
LINE
5
DF
330
22
100
AcDbEntity
8
0
62
256
6
Continuous
370
-1
48
1.0
60
0
100
AcDbLine
10
2.40333399084045
20
1.73000000154898
30
0.0
11
2.43666699084045
21
1.74000000154898
31
0.0
39
0.0
210
0.0
220
0.0
230
1.0
0
LINE
5
E0
330
22
100
AcDbEntity
8
0
62
256
6
Continuous
370
-1
48
1.0
60
0
100
AcDbLine
10
2.43666699084045
20
1.74000000154898
30
0.0
11
2.44333399084045
21
1.74666600154898
31
0.0
39
0.0
210
0.0
220
0.0
230
1.0
0
LINE
5
E1
330
22
100
AcDbEntity
8
0
62
256
6
Continuous
370
-1
48
1.0
60
0
100
AcDbLine
10
2.44333399084045
20
1.74666600154898
30
0.0
11
2.44666699084045
21
1.81666700154898
31
0.0
39
0.0
210
0.0
220
0.0
230
1.0
0
LINE
5
E2
330
22
100
AcDbEntity
8
0
62
256
6
Continuous
370
-1
48
1.0
60
0
100
AcDbLine
10
2.44666699084045
20
1.81666700154898
30
0.0
11
2.53666699084045
21
2.05000000154898
31
0.0
39
0.0
210
0.0
220
0.0
230
1.0
0
LINE
5
E3
330
22
100
AcDbEntity
8
0
62
256
6
Continuous
370
-1
48
1.0
60
0
100
AcDbLine
10
2.53333399084045
20
2.05666700154898
30
0.0
11
2.26666699084045
21
2.03666700154898
31
0.0
39
0.0
210
0.0
220
0.0
230
1.0
0
LINE
5
E4
330
22
100
AcDbEntity
8
0
62
256
6
Continuous
370
-1
48
1.0
60
0
100
AcDbLine
10
2.26666699084045
20
2.03666700154898
30
0.0
11
1.95666699084045
21
2.03666700154898
31
0.0
39
0.0
210
0.0
220
0.0
230
1.0
0
LINE
5
E5
330
22
100
AcDbEntity
8
0
62
256
6
Continuous
370
-1
48
1.0
60
0
100
AcDbLine
10
1.95666699084045
20
2.03666700154898
30
0.0
11
1.67666699084045
21
2.05333300154898
31
0.0
39
0.0
210
0.0
220
0.0
230
1.0
0
LINE
5
E6
330
22
100
AcDbEntity
8
0
62
256
6
Continuous
370
-1
48
1.0
60
0
100
AcDbLine
10
1.67666699084045
20
2.05333300154898
30
0.0
11
1.57999999084045
21
2.08000000154898
31
0.0
39
0.0
210
0.0
220
0.0
230
1.0
0
LINE
5
E7
330
22
100
AcDbEntity
8
0
62
256
6
Continuous
370
-1
48
1.0
60
0
100
AcDbLine
10
1.57999999084045
20
2.08000000154898
30
0.0
11
1.56333399084045
21
2.08000000154898
31
0.0
39
0.0
210
0.0
220
0.0
230
1.0
0
LINE
5
E8
330
22
100
AcDbEntity
8
0
62
256
6
Continuous
370
-1
48
1.0
60
0
100
AcDbLine
10
1.56333399084045
20
2.08000000154898
30
0.0
11
1.53333399084045
21
2.03333300154898
31
0.0
39
0.0
210
0.0
220
0.0
230
1.0
0
LINE
5
E9
330
22
100
AcDbEntity
8
0
62
256
6
Continuous
370
-1
48
1.0
60
0
100
AcDbLine
10
1.53333399084045
20
2.03333300154898
30
0.0
11
1.51666699084045
21
1.95333300154898
31
0.0
39
0.0
210
0.0
220
0.0
230
1.0
0
LINE
5
EA
330
22
100
AcDbEntity
8
0
62
256
6
Continuous
370
-1
48
1.0
60
0
100
AcDbLine
10
1.51666699084045
20
1.95333300154898
30
0.0
11
1.46333399084045
21
1.81000000154898
31
0.0
39
0.0
210
0.0
220
0.0
230
1.0
0
LINE
5
EB
330
22
100
AcDbEntity
8
0
62
256
6
Continuous
370
-1
48
1.0
60
0
100
AcDbLine
10
1.46333399084045
20
1.81000000154898
30
0.0
11
1.41333399084045
21
1.65333300154898
31
0.0
39
0.0
210
0.0
220
0.0
230
1.0
0
LINE
5
EC
330
22
100
AcDbEntity
8
0
62
256
6
Continuous
370
-1
48
1.0
60
0
100
AcDbLine
10
1.41333399084045
20
1.65333300154898
30
0.0
11
1.46666699084045
21
1.82000000154898
31
0.0
39
0.0
210
0.0
220
0.0
230
1.0
0
LINE
5
ED
330
22
100
AcDbEntity
8
0
62
256
6
Continuous
370
-1
48
1.0
60
0
100
AcDbLine
10
1.46666699084045
20
1.82000000154898
30
0.0
11
1.51666699084045
21
1.95333300154898
31
0.0
39
0.0
210
0.0
220
0.0
230
1.0
0
LINE
5
EE
330
22
100
AcDbEntity
8
0
62
256
6
Continuous
370
-1
48
1.0
60
0
100
AcDbLine
10
1.51666699084045
20
1.95333300154898
30
0.0
11
1.53333399084045
21
2.03333300154898
31
0.0
39
0.0
210
0.0
220
0.0
230
1.0
0
LINE
5
EF
330
22
100
AcDbEntity
8
0
62
256
6
Continuous
370
-1
48
1.0
60
0
100
AcDbLine
10
1.53333399084045
20
2.03333300154898
30
0.0
11
1.56666699084045
21
2.08333300154898
31
0.0
39
0.0
210
0.0
220
0.0
230
1.0
0
LINE
5
F0
330
22
100
AcDbEntity
8
0
62
256
6
Continuous
370
-1
48
1.0
60
0
100
AcDbLine
10
1.56666699084045
20
2.08333300154898
30
0.0
11
1.67666699084045
21
2.05333300154898
31
0.0
39
0.0
210
0.0
220
0.0
230
1.0
0
LINE
5
F1
330
22
100
AcDbEntity
8
0
62
256
6
Continuous
370
-1
48
1.0
60
0
100
AcDbLine
10
1.67666699084045
20
2.05333300154898
30
0.0
11
1.98999999084045
21
2.03666700154898
31
0.0
39
0.0
210
0.0
220
0.0
230
1.0
0
LINE
5
F2
330
22
100
AcDbEntity
8
0
62
256
6
Continuous
370
-1
48
1.0
60
0
100
AcDbLine
10
1.98999999084045
20
2.03666700154898
30
0.0
11
2.25999999084045
21
2.03666700154898
31
0.0
39
0.0
210
0.0
220
0.0
230
1.0
0
LINE
5
F3
330
22
100
AcDbEntity
8
0
62
256
6
Continuous
370
-1
48
1.0
60
0
100
AcDbLine
10
2.25999999084045
20
2.03666700154898
30
0.0
11
2.41333399084045
21
2.04666700154898
31
0.0
39
0.0
210
0.0
220
0.0
230
1.0
0
LINE
5
F4
330
22
100
AcDbEntity
8
0
62
256
6
Continuous
370
-1
48
1.0
60
0
100
AcDbLine
10
2.41333399084045
20
2.04666700154898
30
0.0
11
2.44999999084045
21
2.05333300154898
31
0.0
39
0.0
210
0.0
220
0.0
230
1.0
0
LINE
5
F5
330
22
100
AcDbEntity
8
0
62
256
6
Continuous
370
-1
48
1.0
60
0
100
AcDbLine
10
2.44999999084045
20
2.05333300154898
30
0.0
11
2.44333399084045
21
2.18666600154898
31
0.0
39
0.0
210
0.0
220
0.0
230
1.0
0
LINE
5
F6
330
22
100
AcDbEntity
8
0
62
256
6
Continuous
370
-1
48
1.0
60
0
100
AcDbLine
10
-2.44666600915955
20
2.07333300154898
30
0.0
11
-2.21666600915955
21
2.05666700154898
31
0.0
39
0.0
210
0.0
220
0.0
230
1.0
0
LINE
5
F7
330
22
100
AcDbEntity
8
0
62
256
6
Continuous
370
-1
48
1.0
60
0
100
AcDbLine
10
-2.21666600915955
20
2.05666700154898
30
0.0
11
-1.89000000915955
21
2.06000000154898
31
0.0
39
0.0
210
0.0
220
0.0
230
1.0
0
LINE
5
F8
330
22
100
AcDbEntity
8
0
62
256
6
Continuous
370
-1
48
1.0
60
0
100
AcDbLine
10
-1.89000000915955
20
2.06000000154898
30
0.0
11
-1.61666600915955
21
2.07666700154898
31
0.0
39
0.0
210
0.0
220
0.0
230
1.0
0
LINE
5
F9
330
22
100
AcDbEntity
8
0
62
256
6
Continuous
370
-1
48
1.0
60
0
100
AcDbLine
10
-1.61666600915955
20
2.07666700154898
30
0.0
11
-1.50666600915955
21
2.10666700154898
31
0.0
39
0.0
210
0.0
220
0.0
230
1.0
0
LINE
5
FA
330
22
100
AcDbEntity
8
0
62
256
6
Continuous
370
-1
48
1.0
60
0
100
AcDbLine
10
-1.50666600915955
20
2.10666700154898
30
0.0
11
-1.48999900915955
21
2.09000000154898
31
0.0
39
0.0
210
0.0
220
0.0
230
1.0
0
LINE
5
FB
330
22
100
AcDbEntity
8
0
62
256
6
Continuous
370
-1
48
1.0
60
0
100
AcDbLine
10
-1.48999900915955
20
2.09000000154898
30
0.0
11
-1.50666600915955
21
2.10666700154898
31
0.0
39
0.0
210
0.0
220
0.0
230
1.0
0
LINE
5
FC
330
22
100
AcDbEntity
8
0
62
256
6
Continuous
370
-1
48
1.0
60
0
100
AcDbLine
10
-1.50666600915955
20
2.10666700154898
30
0.0
11
-1.61666600915955
21
2.07666700154898
31
0.0
39
0.0
210
0.0
220
0.0
230
1.0
0
LINE
5
FD
330
22
100
AcDbEntity
8
0
62
256
6
Continuous
370
-1
48
1.0
60
0
100
AcDbLine
10
-1.61666600915955
20
2.07666700154898
30
0.0
11
-1.88666600915955
21
2.06000000154898
31
0.0
39
0.0
210
0.0
220
0.0
230
1.0
0
LINE
5
FE
330
22
100
AcDbEntity
8
0
62
256
6
Continuous
370
-1
48
1.0
60
0
100
AcDbLine
10
-1.88666600915955
20
2.06000000154898
30
0.0
11
-2.22000000915955
21
2.05666700154898
31
0.0
39
0.0
210
0.0
220
0.0
230
1.0
0
LINE
5
FF
330
22
100
AcDbEntity
8
0
62
256
6
Continuous
370
-1
48
1.0
60
0
100
AcDbLine
10
-2.22000000915955
20
2.05666700154898
30
0.0
11
-2.45333300915955
21
2.07333300154898
31
0.0
39
0.0
210
0.0
220
0.0
230
1.0
0
LINE
5
100
330
22
100
AcDbEntity
8
0
62
256
6
Continuous
370
-1
48
1.0
60
0
100
AcDbLine
10
-2.47000000915955
20
1.74000000154898
30
0.0
11
-2.46000000915955
21
1.75333300154898
31
0.0
39
0.0
210
0.0
220
0.0
230
1.0
0
LINE
5
101
330
22
100
AcDbEntity
8
0
62
256
6
Continuous
370
-1
48
1.0
60
0
100
AcDbLine
10
-2.46000000915955
20
1.75333300154898
30
0.0
11
-2.45000000915955
21
1.84666700154898
31
0.0
39
0.0
210
0.0
220
0.0
230
1.0
0
LINE
5
102
330
22
100
AcDbEntity
8
0
62
256
6
Continuous
370
-1
48
1.0
60
0
100
AcDbLine
10
-2.45000000915955
20
1.84666700154898
30
0.0
11
-2.44333300915955
21
1.74666600154898
31
0.0
39
0.0
210
0.0
220
0.0
230
1.0
0
LINE
5
103
330
22
100
AcDbEntity
8
0
62
256
6
Continuous
370
-1
48
1.0
60
0
100
AcDbLine
10
-2.44333300915955
20
1.74666600154898
30
0.0
11
-2.43666600915955
21
1.74000000154898
31
0.0
39
0.0
210
0.0
220
0.0
230
1.0
0
LINE
5
104
330
22
100
AcDbEntity
8
0
62
256
6
Continuous
370
-1
48
1.0
60
0
100
AcDbLine
10
-2.43666600915955
20
1.74000000154898
30
0.0
11
-2.38333300915955
21
1.72333300154898
31
0.0
39
0.0
210
0.0
220
0.0
230
1.0
0
LINE
5
105
330
22
100
AcDbEntity
8
0
62
256
6
Continuous
370
-1
48
1.0
60
0
100
AcDbLine
10
-2.38333300915955
20
1.72333300154898
30
0.0
11
-2.35666600915955
21
1.70666600154898
31
0.0
39
0.0
210
0.0
220
0.0
230
1.0
0
LINE
5
106
330
22
100
AcDbEntity
8
0
62
256
6
Continuous
370
-1
48
1.0
60
0
100
AcDbLine
10
-2.35666600915955
20
1.70666600154898
30
0.0
11
-2.38333300915955
21
1.72333300154898
31
0.0
39
0.0
210
0.0
220
0.0
230
1.0
0
LINE
5
107
330
22
100
AcDbEntity
8
0
62
256
6
Continuous
370
-1
48
1.0
60
0
100
AcDbLine
10
-2.38333300915955
20
1.72333300154898
30
0.0
11
-2.44000000915955
21
1.74333300154898
31
0.0
39
0.0
210
0.0
220
0.0
230
1.0
0
LINE
5
108
330
22
100
AcDbEntity
8
0
62
256
6
Continuous
370
-1
48
1.0
60
0
100
AcDbLine
10
-2.44000000915955
20
1.74333300154898
30
0.0
11
-2.66000000915955
21
1.73333300154898
31
0.0
39
0.0
210
0.0
220
0.0
230
1.0
0
LINE
5
109
330
22
100
AcDbEntity
8
0
62
256
6
Continuous
370
-1
48
1.0
60
0
100
AcDbLine
10
-1.48000000915955
20
2.05000000154898
30
0.0
11
-1.48000000915955
21
2.06666700154898
31
0.0
39
0.0
210
0.0
220
0.0
230
1.0
0
LINE
5
10A
330
22
100
AcDbEntity
8
0
62
256
6
Continuous
370
-1
48
1.0
60
0
100
AcDbLine
10
-1.48000000915955
20
2.06666700154898
30
0.0
11
-1.48666600915955
21
2.08333300154898
31
0.0
39
0.0
210
0.0
220
0.0
230
1.0
0
LINE
5
10B
330
22
100
AcDbEntity
8
0
62
256
6
Continuous
370
-1
48
1.0
60
0
100
AcDbLine
10
-1.48666600915955
20
2.08333300154898
30
0.0
11
-1.45333300915955
21
1.93666600154898
31
0.0
39
0.0
210
0.0
220
0.0
230
1.0
0
LINE
5
10C
330
22
100
AcDbEntity
8
0
62
256
6
Continuous
370
-1
48
1.0
60
0
100
AcDbLine
10
-1.45333300915955
20
1.93666600154898
30
0.0
11
-1.44333300915955
21
1.86333300154898
31
0.0
39
0.0
210
0.0
220
0.0
230
1.0
0
LINE
5
10D
330
22
100
AcDbEntity
8
0
62
256
6
Continuous
370
-1
48
1.0
60
0
100
AcDbLine
10
-1.44333300915955
20
1.86333300154898
30
0.0
11
-1.35333300915955
21
1.56666700154898
31
0.0
39
0.0
210
0.0
220
0.0
230
1.0
0
LINE
5
10E
330
22
100
AcDbEntity
8
0
62
256
6
Continuous
370
-1
48
1.0
60
0
100
AcDbLine
10
-1.35333300915955
20
1.56666700154898
30
0.0
11
-1.22333300915955
21
1.31000000154898
31
0.0
39
0.0
210
0.0
220
0.0
230
1.0
0
LINE
5
10F
330
22
100
AcDbEntity
8
0
62
256
6
Continuous
370
-1
48
1.0
60
0
100
AcDbLine
10
-1.22333300915955
20
1.31000000154898
30
0.0
11
-1.27666600915955
21
1.29666700154898
31
0.0
39
0.0
210
0.0
220
0.0
230
1.0
0
LINE
5
110
330
22
100
AcDbEntity
8
0
62
256
6
Continuous
370
-1
48
1.0
60
0
100
AcDbLine
10
-1.27666600915955
20
1.29666700154898
30
0.0
11
-1.29666600915955
21
1.29666700154898
31
0.0
39
0.0
210
0.0
220
0.0
230
1.0
0
LINE
5
111
330
22
100
AcDbEntity
8
0
62
256
6
Continuous
370
-1
48
1.0
60
0
100
AcDbLine
10
-1.29666600915955
20
1.29666700154898
30
0.0
11
-1.22333300915955
21
1.31000000154898
31
0.0
39
0.0
210
0.0
220
0.0
230
1.0
0
LINE
5
112
330
22
100
AcDbEntity
8
0
62
256
6
Continuous
370
-1
48
1.0
60
0
100
AcDbLine
10
-1.22333300915955
20
1.31000000154898
30
0.0
11
-1.35333300915955
21
1.56666700154898
31
0.0
39
0.0
210
0.0
220
0.0
230
1.0
0
LINE
5
113
330
22
100
AcDbEntity
8
0
62
256
6
Continuous
370
-1
48
1.0
60
0
100
AcDbLine
10
-1.35333300915955
20
1.56666700154898
30
0.0
11
-1.44000000915955
21
1.85000000154898
31
0.0
39
0.0
210
0.0
220
0.0
230
1.0
0
LINE
5
114
330
22
100
AcDbEntity
8
0
62
256
6
Continuous
370
-1
48
1.0
60
0
100
AcDbLine
10
-1.44000000915955
20
1.85000000154898
30
0.0
11
-1.48000000915955
21
2.05000000154898
31
0.0
39
0.0
210
0.0
220
0.0
230
1.0
0
LINE
5
115
330
22
100
AcDbEntity
8
0
62
256
6
Continuous
370
-1
48
1.0
60
0
100
AcDbLine
10
-0.18000000915955
20
2.05000000154898
30
0.0
11
-0.18333300915955
21
2.05333300154898
31
0.0
39
0.0
210
0.0
220
0.0
230
1.0
0
LINE
5
116
330
22
100
AcDbEntity
8
0
62
256
6
Continuous
370
-1
48
1.0
60
0
100
AcDbLine
10
-0.18333300915955
20
2.05333300154898
30
0.0
11
-0.39666600915955
21
2.07000000154898
31
0.0
39
0.0
210
0.0
220
0.0
230
1.0
0
LINE
5
117
330
22
100
AcDbEntity
8
0
62
256
6
Continuous
370
-1
48
1.0
60
0
100
AcDbLine
10
-0.39666600915955
20
2.07000000154898
30
0.0
11
-0.48333300915955
21
2.09666700154898
31
0.0
39
0.0
210
0.0
220
0.0
230
1.0
0
LINE
5
118
330
22
100
AcDbEntity
8
0
62
256
6
Continuous
370
-1
48
1.0
60
0
100
AcDbLine
10
-0.48333300915955
20
2.09666700154898
30
0.0
11
-0.49666600915955
21
2.09333300154898
31
0.0
39
0.0
210
0.0
220
0.0
230
1.0
0
LINE
5
119
330
22
100
AcDbEntity
8
0
62
256
6
Continuous
370
-1
48
1.0
60
0
100
AcDbLine
10
-0.49666600915955
20
2.09333300154898
30
0.0
11
-0.49333300915955
21
1.80000000154898
31
0.0
39
0.0
210
0.0
220
0.0
230
1.0
0
LINE
5
11A
330
22
100
AcDbEntity
8
0
62
256
6
Continuous
370
-1
48
1.0
60
0
100
AcDbLine
10
-0.49333300915955
20
1.80000000154898
30
0.0
11
-0.49999900915955
21
1.54333300154898
31
0.0
39
0.0
210
0.0
220
0.0
230
1.0
0
LINE
5
11B
330
22
100
AcDbEntity
8
0
62
256
6
Continuous
370
-1
48
1.0
60
0
100
AcDbLine
10
-0.49999900915955
20
1.54333300154898
30
0.0
11
-0.51333300915955
21
1.42000000154898
31
0.0
39
0.0
210
0.0
220
0.0
230
1.0
0
LINE
5
11C
330
22
100
AcDbEntity
8
0
62
256
6
Continuous
370
-1
48
1.0
60
0
100
AcDbLine
10
-0.51333300915955
20
1.42000000154898
30
0.0
11
-0.50999900915955
21
1.40333300154898
31
0.0
39
0.0
210
0.0
220
0.0
230
1.0
0
LINE
5
11D
330
22
100
AcDbEntity
8
0
62
256
6
Continuous
370
-1
48
1.0
60
0
100
AcDbLine
10
-0.50999900915955
20
1.40333300154898
30
0.0
11
-0.49666600915955
21
1.42333300154898
31
0.0
39
0.0
210
0.0
220
0.0
230
1.0
0
LINE
5
11E
330
22
100
AcDbEntity
8
0
62
256
6
Continuous
370
-1
48
1.0
60
0
100
AcDbLine
10
-0.49666600915955
20
1.42333300154898
30
0.0
11
-0.56666600915955
21
1.29666700154898
31
0.0
39
0.0
210
0.0
220
0.0
230
1.0
0
LINE
5
11F
330
22
100
AcDbEntity
8
0
62
256
6
Continuous
370
-1
48
1.0
60
0
100
AcDbLine
10
-0.56666600915955
20
1.29666700154898
30
0.0
11
-0.46000000915955
21
1.26333300154898
31
0.0
39
0.0
210
0.0
220
0.0
230
1.0
0
LINE
5
120
330
22
100
AcDbEntity
8
0
62
256
6
Continuous
370
-1
48
1.0
60
0
100
AcDbLine
10
-0.46000000915955
20
1.26333300154898
30
0.0
11
-0.42333300915955
21
1.26333300154898
31
0.0
39
0.0
210
0.0
220
0.0
230
1.0
0
LINE
5
121
330
22
100
AcDbEntity
8
0
62
256
6
Continuous
370
-1
48
1.0
60
0
100
AcDbLine
10
-0.42333300915955
20
1.26333300154898
30
0.0
11
-0.28666600915955
21
1.28333300154898
31
0.0
39
0.0
210
0.0
220
0.0
230
1.0
0
LINE
5
122
330
22
100
AcDbEntity
8
0
62
256
6
Continuous
370
-1
48
1.0
60
0
100
AcDbLine
10
-0.28666600915955
20
1.28333300154898
30
0.0
11
-0.27999900915955
21
1.28000000154898
31
0.0
39
0.0
210
0.0
220
0.0
230
1.0
0
LINE
5
123
330
22
100
AcDbEntity
8
0
62
256
6
Continuous
370
-1
48
1.0
60
0
100
AcDbLine
10
-0.27999900915955
20
1.28000000154898
30
0.0
11
-0.20666600915955
21
1.28666600154898
31
0.0
39
0.0
210
0.0
220
0.0
230
1.0
0
LINE
5
124
330
22
100
AcDbEntity
8
0
62
256
6
Continuous
370
-1
48
1.0
60
0
100
AcDbLine
10
-0.20666600915955
20
1.28666600154898
30
0.0
11
0.02333399084045
21
1.29333300154898
31
0.0
39
0.0
210
0.0
220
0.0
230
1.0
0
LINE
5
125
330
22
100
AcDbEntity
8
0
62
256
6
Continuous
370
-1
48
1.0
60
0
100
AcDbLine
10
0.02333399084045
20
1.29333300154898
30
0.0
11
0.28666699084045
21
1.28333300154898
31
0.0
39
0.0
210
0.0
220
0.0
230
1.0
0
LINE
5
126
330
22
100
AcDbEntity
8
0
62
256
6
Continuous
370
-1
48
1.0
60
0
100
AcDbLine
10
0.28666699084045
20
1.28333300154898
30
0.0
11
0.50000099084045
21
1.25333300154898
31
0.0
39
0.0
210
0.0
220
0.0
230
1.0
0
LINE
5
127
330
22
100
AcDbEntity
8
0
62
256
6
Continuous
370
-1
48
1.0
60
0
100
AcDbLine
10
0.50000099084045
20
1.25333300154898
30
0.0
11
0.51999999084045
21
1.25333300154898
31
0.0
39
0.0
210
0.0
220
0.0
230
1.0
0
LINE
5
128
330
22
100
AcDbEntity
8
0
62
256
6
Continuous
370
-1
48
1.0
60
0
100
AcDbLine
10
0.51999999084045
20
1.25333300154898
30
0.0
11
0.52333399084045
21
1.26666600154898
31
0.0
39
0.0
210
0.0
220
0.0
230
1.0
0
LINE
5
129
330
22
100
AcDbEntity
8
0
62
256
6
Continuous
370
-1
48
1.0
60
0
100
AcDbLine
10
0.52333399084045
20
1.26666600154898
30
0.0
11
0.48333399084045
21
1.39000000154898
31
0.0
39
0.0
210
0.0
220
0.0
230
1.0
0
LINE
5
12A
330
22
100
AcDbEntity
8
0
62
256
6
Continuous
370
-1
48
1.0
60
0
100
AcDbLine
10
0.48333399084045
20
1.39000000154898
30
0.0
11
0.51333399084045
21
1.80000000154898
31
0.0
39
0.0
210
0.0
220
0.0
230
1.0
0
LINE
5
12B
330
22
100
AcDbEntity
8
0
62
256
6
Continuous
370
-1
48
1.0
60
0
100
AcDbLine
10
0.51333399084045
20
1.80000000154898
30
0.0
11
0.55333399084045
21
2.00333300154898
31
0.0
39
0.0
210
0.0
220
0.0
230
1.0
0
LINE
5
12C
330
22
100
AcDbEntity
8
0
62
256
6
Continuous
370
-1
48
1.0
60
0
100
AcDbLine
10
0.55333399084045
20
2.00333300154898
30
0.0
11
0.55999999084045
21
2.05000000154898
31
0.0
39
0.0
210
0.0
220
0.0
230
1.0
0
LINE
5
12D
330
22
100
AcDbEntity
8
0
62
256
6
Continuous
370
-1
48
1.0
60
0
100
AcDbLine
10
0.55999999084045
20
2.05000000154898
30
0.0
11
0.52999999084045
21
2.05333300154898
31
0.0
39
0.0
210
0.0
220
0.0
230
1.0
0
LINE
5
12E
330
22
100
AcDbEntity
8
0
62
256
6
Continuous
370
-1
48
1.0
60
0
100
AcDbLine
10
0.52999999084045
20
2.05333300154898
30
0.0
11
0.27666699084045
21
2.04000000154898
31
0.0
39
0.0
210
0.0
220
0.0
230
1.0
0
LINE
5
12F
330
22
100
AcDbEntity
8
0
62
256
6
Continuous
370
-1
48
1.0
60
0
100
AcDbLine
10
0.27666699084045
20
2.04000000154898
30
0.0
11
-0.05000000915955
21
2.04000000154898
31
0.0
39
0.0
210
0.0
220
0.0
230
1.0
0
LINE
5
130
330
22
100
AcDbEntity
8
0
62
256
6
Continuous
370
-1
48
1.0
60
0
100
AcDbLine
10
-0.05000000915955
20
2.04000000154898
30
0.0
11
-0.18000000915955
21
2.05000000154898
31
0.0
39
0.0
210
0.0
220
0.0
230
1.0
0
LINE
5
131
330
22
100
AcDbEntity
8
0
62
256
6
Continuous
370
-1
48
1.0
60
0
100
AcDbLine
10
1.53999999084045
20
1.98666600154898
30
0.0
11
1.54333399084045
21
1.98666600154898
31
0.0
39
0.0
210
0.0
220
0.0
230
1.0
0
LINE
5
132
330
22
100
AcDbEntity
8
0
62
256
6
Continuous
370
-1
48
1.0
60
0
100
AcDbLine
10
1.54333399084045
20
1.98666600154898
30
0.0
11
1.53999999084045
21
1.98666600154898
31
0.0
39
0.0
210
0.0
220
0.0
230
1.0
0
LINE
5
133
330
22
100
AcDbEntity
8
0
62
256
6
Continuous
370
-1
48
1.0
60
0
100
AcDbLine
10
2.39333399084045
20
1.72666600154898
30
0.0
11
2.39666699084045
21
1.72666600154898
31
0.0
39
0.0
210
0.0
220
0.0
230
1.0
0
LINE
5
134
330
22
100
AcDbEntity
8
0
62
256
6
Continuous
370
-1
48
1.0
60
0
100
AcDbLine
10
2.39666699084045
20
1.72666600154898
30
0.0
11
2.39333399084045
21
1.72666600154898
31
0.0
39
0.0
210
0.0
220
0.0
230
1.0
0
LINE
5
135
330
22
100
AcDbEntity
8
0
62
256
6
Continuous
370
-1
48
1.0
60
0
100
AcDbLine
10
2.38333399084045
20
1.72333300154898
30
0.0
11
2.39666699084045
21
1.72666600154898
31
0.0
39
0.0
210
0.0
220
0.0
230
1.0
0
LINE
5
136
330
22
100
AcDbEntity
8
0
62
256
6
Continuous
370
-1
48
1.0
60
0
100
AcDbLine
10
2.39666699084045
20
1.72666600154898
30
0.0
11
2.38333399084045
21
1.72333300154898
31
0.0
39
0.0
210
0.0
220
0.0
230
1.0
0
LINE
5
137
330
22
100
AcDbEntity
8
0
62
256
6
Continuous
370
-1
48
1.0
60
0
100
AcDbLine
10
2.37666699084045
20
1.72000000154898
30
0.0
11
2.39666699084045
21
1.72666600154898
31
0.0
39
0.0
210
0.0
220
0.0
230
1.0
0
LINE
5
138
330
22
100
AcDbEntity
8
0
62
256
6
Continuous
370
-1
48
1.0
60
0
100
AcDbLine
10
2.39666699084045
20
1.72666600154898
30
0.0
11
2.37666699084045
21
1.72000000154898
31
0.0
39
0.0
210
0.0
220
0.0
230
1.0
0
LINE
5
139
330
22
100
AcDbEntity
8
0
62
256
6
Continuous
370
-1
48
1.0
60
0
100
AcDbLine
10
2.36333399084045
20
1.71000000154898
30
0.0
11
2.38333399084045
21
1.72333300154898
31
0.0
39
0.0
210
0.0
220
0.0
230
1.0
0
LINE
5
13A
330
22
100
AcDbEntity
8
0
62
256
6
Continuous
370
-1
48
1.0
60
0
100
AcDbLine
10
2.38333399084045
20
1.72333300154898
30
0.0
11
2.39666699084045
21
1.72666600154898
31
0.0
39
0.0
210
0.0
220
0.0
230
1.0
0
LINE
5
13B
330
22
100
AcDbEntity
8
0
62
256
6
Continuous
370
-1
48
1.0
60
0
100
AcDbLine
10
2.39666699084045
20
1.72666600154898
30
0.0
11
2.36333399084045
21
1.71000000154898
31
0.0
39
0.0
210
0.0
220
0.0
230
1.0
0
LINE
5
13C
330
22
100
AcDbEntity
8
0
62
256
6
Continuous
370
-1
48
1.0
60
0
100
AcDbLine
10
2.27333399084045
20
1.61333300154898
30
0.0
11
2.28666699084045
21
1.63333300154898
31
0.0
39
0.0
210
0.0
220
0.0
230
1.0
0
LINE
5
13D
330
22
100
AcDbEntity
8
0
62
256
6
Continuous
370
-1
48
1.0
60
0
100
AcDbLine
10
2.28666699084045
20
1.63333300154898
30
0.0
11
2.25666699084045
21
1.57333300154898
31
0.0
39
0.0
210
0.0
220
0.0
230
1.0
0
LINE
5
13E
330
22
100
AcDbEntity
8
0
62
256
6
Continuous
370
-1
48
1.0
60
0
100
AcDbLine
10
2.25666699084045
20
1.57333300154898
30
0.0
11
2.27333399084045
21
1.61333300154898
31
0.0
39
0.0
210
0.0
220
0.0
230
1.0
0
LINE
5
13F
330
22
100
AcDbEntity
8
0
62
256
6
Continuous
370
-1
48
1.0
60
0
100
AcDbLine
10
1.39333399084045
20
1.60000000154898
30
0.0
11
1.40000099084045
21
1.61000000154898
31
0.0
39
0.0
210
0.0
220
0.0
230
1.0
0
LINE
5
140
330
22
100
AcDbEntity
8
0
62
256
6
Continuous
370
-1
48
1.0
60
0
100
AcDbLine
10
1.40000099084045
20
1.61000000154898
30
0.0
11
1.40999999084045
21
1.64666700154898
31
0.0
39
0.0
210
0.0
220
0.0
230
1.0
0
LINE
5
141
330
22
100
AcDbEntity
8
0
62
256
6
Continuous
370
-1
48
1.0
60
0
100
AcDbLine
10
1.40999999084045
20
1.64666700154898
30
0.0
11
1.39666699084045
21
1.60000000154898
31
0.0
39
0.0
210
0.0
220
0.0
230
1.0
0
LINE
5
142
330
22
100
AcDbEntity
8
0
62
256
6
Continuous
370
-1
48
1.0
60
0
100
AcDbLine
10
1.39666699084045
20
1.60000000154898
30
0.0
11
1.23666699084045
21
1.29333300154898
31
0.0
39
0.0
210
0.0
220
0.0
230
1.0
0
LINE
5
143
330
22
100
AcDbEntity
8
0
62
256
6
Continuous
370
-1
48
1.0
60
0
100
AcDbLine
10
1.23666699084045
20
1.29333300154898
30
0.0
11
1.39333399084045
21
1.60000000154898
31
0.0
39
0.0
210
0.0
220
0.0
230
1.0
0
LINE
5
144
330
22
100
AcDbEntity
8
0
62
256
6
Continuous
370
-1
48
1.0
60
0
100
AcDbLine
10
-2.35333300915955
20
0.30000000154898
30
0.0
11
-2.43666600915955
21
0.30000000154898
31
0.0
39
0.0
210
0.0
220
0.0
230
1.0
0
LINE
5
145
330
22
100
AcDbEntity
8
0
62
256
6
Continuous
370
-1
48
1.0
60
0
100
AcDbLine
10
-2.43666600915955
20
0.30000000154898
30
0.0
11
-2.50666600915955
21
0.31000000154898
31
0.0
39
0.0
210
0.0
220
0.0
230
1.0
0
LINE
5
146
330
22
100
AcDbEntity
8
0
62
256
6
Continuous
370
-1
48
1.0
60
0
100
AcDbLine
10
-2.50666600915955
20
0.31000000154898
30
0.0
11
-2.63000000915955
21
0.31000000154898
31
0.0
39
0.0
210
0.0
220
0.0
230
1.0
0
LINE
5
147
330
22
100
AcDbEntity
8
0
62
256
6
Continuous
370
-1
48
1.0
60
0
100
AcDbLine
10
-2.61333300915955
20
0.29333300154898
30
0.0
11
-2.49000000915955
21
0.28666600154898
31
0.0
39
0.0
210
0.0
220
0.0
230
1.0
0
LINE
5
148
330
22
100
AcDbEntity
8
0
62
256
6
Continuous
370
-1
48
1.0
60
0
100
AcDbLine
10
-2.42333300915955
20
0.29000000154898
30
0.0
11
-2.50000000915955
21
0.28666600154898
31
0.0
39
0.0
210
0.0
220
0.0
230
1.0
0
LINE
5
149
330
22
100
AcDbEntity
8
0
62
256
6
Continuous
370
-1
48
1.0
60
0
100
AcDbLine
10
2.30000099084045
20
0.29666600154898
30
0.0
11
2.16333399084045
21
0.29666600154898
31
0.0
39
0.0
210
0.0
220
0.0
230
1.0
0
LINE
5
14A
330
22
100
AcDbEntity
8
0
62
256
6
Continuous
370
-1
48
1.0
60
0
100
AcDbLine
10
-2.32333300915955
20
0.30333300154898
30
0.0
11
-2.24666600915955
21
0.30000000154898
31
0.0
39
0.0
210
0.0
220
0.0
230
1.0
0
LINE
5
14B
330
22
100
AcDbEntity
8
0
62
256
6
Continuous
370
-1
48
1.0
60
0
100
AcDbLine
10
-2.24666600915955
20
0.30000000154898
30
0.0
11
-1.73666600915955
21
0.30666600154898
31
0.0
39
0.0
210
0.0
220
0.0
230
1.0
0
LINE
5
14C
330
22
100
AcDbEntity
8
0
62
256
6
Continuous
370
-1
48
1.0
60
0
100
AcDbLine
10
-1.73666600915955
20
0.30666600154898
30
0.0
11
-1.68666600915955
21
0.30333300154898
31
0.0
39
0.0
210
0.0
220
0.0
230
1.0
0
LINE
5
14D
330
22
100
AcDbEntity
8
0
62
256
6
Continuous
370
-1
48
1.0
60
0
100
AcDbLine
10
-1.68666600915955
20
0.30333300154898
30
0.0
11
0.15999999084045
21
0.31333300154898
31
0.0
39
0.0
210
0.0
220
0.0
230
1.0
0
LINE
5
14E
330
22
100
AcDbEntity
8
0
62
256
6
Continuous
370
-1
48
1.0
60
0
100
AcDbLine
10
0.15999999084045
20
0.31333300154898
30
0.0
11
2.29666699084045
21
0.30000000154898
31
0.0
39
0.0
210
0.0
220
0.0
230
1.0
0
LINE
5
14F
330
22
100
AcDbEntity
8
0
62
256
6
Continuous
370
-1
48
1.0
60
0
100
AcDbLine
10
2.30999999084045
20
0.29333300154898
30
0.0
11
2.42666699084045
21
0.29333300154898
31
0.0
39
0.0
210
0.0
220
0.0
230
1.0
0
LINE
5
150
330
22
100
AcDbEntity
8
0
62
256
6
Continuous
370
-1
48
1.0
60
0
100
AcDbLine
10
2.42666699084045
20
0.29333300154898
30
0.0
11
2.46999999084045
21
0.28666600154898
31
0.0
39
0.0
210
0.0
220
0.0
230
1.0
0
LINE
5
151
330
22
100
AcDbEntity
8
0
62
256
6
Continuous
370
-1
48
1.0
60
0
100
AcDbLine
10
2.46999999084045
20
0.28666600154898
30
0.0
11
2.61333399084045
21
0.29333300154898
31
0.0
39
0.0
210
0.0
220
0.0
230
1.0
0
LINE
5
152
330
22
100
AcDbEntity
8
0
62
256
6
Continuous
370
-1
48
1.0
60
0
100
AcDbLine
10
2.37333399084045
20
0.30000000154898
30
0.0
11
2.42999999084045
21
0.30000000154898
31
0.0
39
0.0
210
0.0
220
0.0
230
1.0
0
LINE
5
153
330
22
100
AcDbEntity
8
0
62
256
6
Continuous
370
-1
48
1.0
60
0
100
AcDbLine
10
2.42999999084045
20
0.30000000154898
30
0.0
11
2.50333399084045
21
0.31000000154898
31
0.0
39
0.0
210
0.0
220
0.0
230
1.0
0
LINE
5
154
330
22
100
AcDbEntity
8
0
62
256
6
Continuous
370
-1
48
1.0
60
0
100
AcDbLine
10
2.50333399084045
20
0.31000000154898
30
0.0
11
2.61666699084045
21
0.30666600154898
31
0.0
39
0.0
210
0.0
220
0.0
230
1.0
0
LINE
5
155
330
22
100
AcDbEntity
8
0
62
256
6
Continuous
370
-1
48
1.0
60
0
100
AcDbLine
10
2.59999999084045
20
1.23666600154898
30
0.0
11
2.58666699084045
21
1.24666600154898
31
0.0
39
0.0
210
0.0
220
0.0
230
1.0
0
LINE
5
156
330
22
100
AcDbEntity
8
0
62
256
6
Continuous
370
-1
48
1.0
60
0
100
AcDbLine
10
2.58333399084045
20
1.23666600154898
30
0.0
11
2.59999999084045
21
1.17000000154898
31
0.0
39
0.0
210
0.0
220
0.0
230
1.0
0
LINE
5
157
330
22
100
AcDbEntity
8
0
62
256
6
Continuous
370
-1
48
1.0
60
0
100
AcDbLine
10
2.59999999084045
20
1.17000000154898
30
0.0
11
2.61333399084045
21
1.05000000154898
31
0.0
39
0.0
210
0.0
220
0.0
230
1.0
0
LINE
5
158
330
22
100
AcDbEntity
8
0
62
256
6
Continuous
370
-1
48
1.0
60
0
100
AcDbLine
10
2.61333399084045
20
1.05000000154898
30
0.0
11
2.64333399084045
21
0.94666600154898
31
0.0
39
0.0
210
0.0
220
0.0
230
1.0
0
LINE
5
159
330
22
100
AcDbEntity
8
0
62
256
6
Continuous
370
-1
48
1.0
60
0
100
AcDbLine
10
2.64333399084045
20
0.94666600154898
30
0.0
11
2.64333399084045
21
0.61333300154898
31
0.0
39
0.0
210
0.0
220
0.0
230
1.0
0
LINE
5
15A
330
22
100
AcDbEntity
8
0
62
256
6
Continuous
370
-1
48
1.0
60
0
100
AcDbLine
10
2.64333399084045
20
0.61333300154898
30
0.0
11
2.65333399084045
21
0.40000000154898
31
0.0
39
0.0
210
0.0
220
0.0
230
1.0
0
LINE
5
15B
330
22
100
AcDbEntity
8
0
62
256
6
Continuous
370
-1
48
1.0
60
0
100
AcDbLine
10
2.38999999084045
20
0.19333300154898
30
0.0
11
2.23333399084045
21
0.19000000154898
31
0.0
39
0.0
210
0.0
220
0.0
230
1.0
0
LINE
5
15C
330
22
100
AcDbEntity
8
0
62
256
6
Continuous
370
-1
48
1.0
60
0
100
AcDbLine
10
-2.23666600915955
20
0.19333300154898
30
0.0
11
-2.39333300915955
21
0.19000000154898
31
0.0
39
0.0
210
0.0
220
0.0
230
1.0
0
LINE
5
15D
330
22
100
AcDbEntity
8
0
62
256
6
Continuous
370
-1
48
1.0
60
0
100
AcDbLine
10
-2.43000000915955
20
0.19000000154898
30
0.0
11
-2.59000000915955
21
0.19333300154898
31
0.0
39
0.0
210
0.0
220
0.0
230
1.0
0
LINE
5
15E
330
22
100
AcDbEntity
8
0
62
256
6
Continuous
370
-1
48
1.0
60
0
100
AcDbLine
10
-2.65333300915955
20
0.39666700154898
30
0.0
11
-2.64333300915955
21
0.60666700154898
31
0.0
39
0.0
210
0.0
220
0.0
230
1.0
0
LINE
5
15F
330
22
100
AcDbEntity
8
0
62
256
6
Continuous
370
-1
48
1.0
60
0
100
AcDbLine
10
-2.64333300915955
20
0.60666700154898
30
0.0
11
-2.64333300915955
21
0.94666600154898
31
0.0
39
0.0
210
0.0
220
0.0
230
1.0
0
LINE
5
160
330
22
100
AcDbEntity
8
0
62
256
6
Continuous
370
-1
48
1.0
60
0
100
AcDbLine
10
-2.64333300915955
20
0.94666600154898
30
0.0
11
-2.61333300915955
21
1.04666600154898
31
0.0
39
0.0
210
0.0
220
0.0
230
1.0
0
LINE
5
161
330
22
100
AcDbEntity
8
0
62
256
6
Continuous
370
-1
48
1.0
60
0
100
AcDbLine
10
-2.61333300915955
20
1.04666600154898
30
0.0
11
-2.60000000915955
21
1.16666700154898
31
0.0
39
0.0
210
0.0
220
0.0
230
1.0
0
LINE
5
162
330
22
100
AcDbEntity
8
0
62
256
6
Continuous
370
-1
48
1.0
60
0
100
AcDbLine
10
-2.60000000915955
20
1.16666700154898
30
0.0
11
-2.58333300915955
21
1.24000000154898
31
0.0
39
0.0
210
0.0
220
0.0
230
1.0
0
LINE
5
163
330
22
100
AcDbEntity
8
0
62
256
6
Continuous
370
-1
48
1.0
60
0
100
AcDbLine
10
-1.47666600915955
20
1.16333300154898
30
0.0
11
-1.48000000915955
21
1.16666700154898
31
0.0
39
0.0
210
0.0
220
0.0
230
1.0
0
LINE
5
164
330
22
100
AcDbEntity
8
0
62
256
6
Continuous
370
-1
48
1.0
60
0
100
AcDbLine
10
-1.48000000915955
20
1.16666700154898
30
0.0
11
-1.70666600915955
21
1.16000000154898
31
0.0
39
0.0
210
0.0
220
0.0
230
1.0
0
LINE
5
165
330
22
100
AcDbEntity
8
0
62
256
6
Continuous
370
-1
48
1.0
60
0
100
AcDbLine
10
-1.70666600915955
20
1.16000000154898
30
0.0
11
-1.73333300915955
21
1.16333300154898
31
0.0
39
0.0
210
0.0
220
0.0
230
1.0
0
LINE
5
166
330
22
100
AcDbEntity
8
0
62
256
6
Continuous
370
-1
48
1.0
60
0
100
AcDbLine
10
-1.73333300915955
20
1.16333300154898
30
0.0
11
-2.26000000915955
21
1.15666700154898
31
0.0
39
0.0
210
0.0
220
0.0
230
1.0
0
LINE
5
167
330
22
100
AcDbEntity
8
0
62
256
6
Continuous
370
-1
48
1.0
60
0
100
AcDbLine
10
-2.26000000915955
20
1.15666700154898
30
0.0
11
-2.26666600915955
21
1.15000000154898
31
0.0
39
0.0
210
0.0
220
0.0
230
1.0
0
LINE
5
168
330
22
100
AcDbEntity
8
0
62
256
6
Continuous
370
-1
48
1.0
60
0
100
AcDbLine
10
-2.26666600915955
20
1.15000000154898
30
0.0
11
-2.28333300915955
21
0.97000000154898
31
0.0
39
0.0
210
0.0
220
0.0
230
1.0
0
LINE
5
169
330
22
100
AcDbEntity
8
0
62
256
6
Continuous
370
-1
48
1.0
60
0
100
AcDbLine
10
-2.28333300915955
20
0.97000000154898
30
0.0
11
-2.28333300915955
21
0.91333300154898
31
0.0
39
0.0
210
0.0
220
0.0
230
1.0
0
LINE
5
16A
330
22
100
AcDbEntity
8
0
62
256
6
Continuous
370
-1
48
1.0
60
0
100
AcDbLine
10
-2.28333300915955
20
0.91333300154898
30
0.0
11
-2.26333300915955
21
0.86666700154898
31
0.0
39
0.0
210
0.0
220
0.0
230
1.0
0
LINE
5
16B
330
22
100
AcDbEntity
8
0
62
256
6
Continuous
370
-1
48
1.0
60
0
100
AcDbLine
10
-2.26333300915955
20
0.86666700154898
30
0.0
11
-2.25666600915955
21
0.81333300154898
31
0.0
39
0.0
210
0.0
220
0.0
230
1.0
0
LINE
5
16C
330
22
100
AcDbEntity
8
0
62
256
6
Continuous
370
-1
48
1.0
60
0
100
AcDbLine
10
-2.25666600915955
20
0.81333300154898
30
0.0
11
-2.26000000915955
21
0.78000000154898
31
0.0
39
0.0
210
0.0
220
0.0
230
1.0
0
LINE
5
16D
330
22
100
AcDbEntity
8
0
62
256
6
Continuous
370
-1
48
1.0
60
0
100
AcDbLine
10
-2.26000000915955
20
0.78000000154898
30
0.0
11
-2.25333300915955
21
0.76333300154898
31
0.0
39
0.0
210
0.0
220
0.0
230
1.0
0
LINE
5
16E
330
22
100
AcDbEntity
8
0
62
256
6
Continuous
370
-1
48
1.0
60
0
100
AcDbLine
10
-2.25333300915955
20
0.76333300154898
30
0.0
11
-2.24000000915955
21
0.75000000154898
31
0.0
39
0.0
210
0.0
220
0.0
230
1.0
0
LINE
5
16F
330
22
100
AcDbEntity
8
0
62
256
6
Continuous
370
-1
48
1.0
60
0
100
AcDbLine
10
-2.24000000915955
20
0.75000000154898
30
0.0
11
-1.85333300915955
21
0.74000000154898
31
0.0
39
0.0
210
0.0
220
0.0
230
1.0
0
LINE
5
170
330
22
100
AcDbEntity
8
0
62
256
6
Continuous
370
-1
48
1.0
60
0
100
AcDbLine
10
-1.85333300915955
20
0.74000000154898
30
0.0
11
-1.08333300915955
21
0.74000000154898
31
0.0
39
0.0
210
0.0
220
0.0
230
1.0
0
LINE
5
171
330
22
100
AcDbEntity
8
0
62
256
6
Continuous
370
-1
48
1.0
60
0
100
AcDbLine
10
-1.08333300915955
20
0.74000000154898
30
0.0
11
-0.85333300915955
21
0.74666600154898
31
0.0
39
0.0
210
0.0
220
0.0
230
1.0
0
LINE
5
172
330
22
100
AcDbEntity
8
0
62
256
6
Continuous
370
-1
48
1.0
60
0
100
AcDbLine
10
-0.85333300915955
20
0.74666600154898
30
0.0
11
-0.84000000915955
21
0.74333300154898
31
0.0
39
0.0
210
0.0
220
0.0
230
1.0
0
LINE
5
173
330
22
100
AcDbEntity
8
0
62
256
6
Continuous
370
-1
48
1.0
60
0
100
AcDbLine
10
-0.84000000915955
20
0.74333300154898
30
0.0
11
-0.76999900915955
21
0.75000000154898
31
0.0
39
0.0
210
0.0
220
0.0
230
1.0
0
LINE
5
174
330
22
100
AcDbEntity
8
0
62
256
6
Continuous
370
-1
48
1.0
60
0
100
AcDbLine
10
-0.76999900915955
20
0.75000000154898
30
0.0
11
-0.74999900915955
21
0.77333300154898
31
0.0
39
0.0
210
0.0
220
0.0
230
1.0
0
LINE
5
175
330
22
100
AcDbEntity
8
0
62
256
6
Continuous
370
-1
48
1.0
60
0
100
AcDbLine
10
-0.74999900915955
20
0.77333300154898
30
0.0
11
-0.75333300915955
21
1.16000000154898
31
0.0
39
0.0
210
0.0
220
0.0
230
1.0
0
LINE
5
176
330
22
100
AcDbEntity
8
0
62
256
6
Continuous
370
-1
48
1.0
60
0
100
AcDbLine
10
-0.75333300915955
20
1.16000000154898
30
0.0
11
-0.90000000915955
21
1.15666700154898
31
0.0
39
0.0
210
0.0
220
0.0
230
1.0
0
LINE
5
177
330
22
100
AcDbEntity
8
0
62
256
6
Continuous
370
-1
48
1.0
60
0
100
AcDbLine
10
-0.90000000915955
20
1.15666700154898
30
0.0
11
-1.46333300915955
21
1.16666700154898
31
0.0
39
0.0
210
0.0
220
0.0
230
1.0
0
LINE
5
178
330
22
100
AcDbEntity
8
0
62
256
6
Continuous
370
-1
48
1.0
60
0
100
AcDbLine
10
-1.46333300915955
20
1.16666700154898
30
0.0
11
-1.47666600915955
21
1.16333300154898
31
0.0
39
0.0
210
0.0
220
0.0
230
1.0
0
LINE
5
179
330
22
100
AcDbEntity
8
0
62
256
6
Continuous
370
-1
48
1.0
60
0
100
AcDbLine
10
-2.41666600915955
20
0.29333300154898
30
0.0
11
-2.31000000915955
21
0.29333300154898
31
0.0
39
0.0
210
0.0
220
0.0
230
1.0
0
LINE
5
17A
330
22
100
AcDbEntity
8
0
62
256
6
Continuous
370
-1
48
1.0
60
0
100
AcDbLine
10
-2.31000000915955
20
0.29333300154898
30
0.0
11
-2.41666600915955
21
0.29333300154898
31
0.0
39
0.0
210
0.0
220
0.0
230
1.0
0
LINE
5
17B
330
22
100
AcDbEntity
8
0
62
256
6
Continuous
370
-1
48
1.0
60
0
100
AcDbLine
10
2.59333399084045
20
0.19000000154898
30
0.0
11
2.42999999084045
21
0.19000000154898
31
0.0
39
0.0
210
0.0
220
0.0
230
1.0
0
LINE
5
17C
330
22
100
AcDbEntity
8
0
62
256
6
ByBlock
370
-1
48
1.0
60
0
100
AcDbLine
10
-2.43000000915955
20
0.19000000154898
30
0.0
11
-2.43595164099792
21
0.1423824826717
31
0.0
39
0.0
210
0.0
220
0.0
230
1.0
0
LINE
5
17D
330
22
100
AcDbEntity
8
0
62
256
6
ByBlock
370
-1
48
1.0
60
0
100
AcDbLine
10
-2.43595164099792
20
0.1423824826717
30
0.0
11
-2.47000000915955
21
0.00000000154898
31
0.0
39
0.0
210
0.0
220
0.0
230
1.0
0
LINE
5
17E
330
22
100
AcDbEntity
8
0
62
256
6
ByBlock
370
-1
48
1.0
60
0
100
AcDbLine
10
-2.47000000915955
20
0.00000000154898
30
0.0
11
-2.60333300915955
21
0.00000000154898
31
0.0
39
0.0
210
0.0
220
0.0
230
1.0
0
LINE
5
17F
330
22
100
AcDbEntity
8
0
62
256
6
ByBlock
370
-1
48
1.0
60
0
100
AcDbLine
10
-2.60333300915955
20
0.00000000154898
30
0.0
11
-2.61000000915955
21
0.00333300154898
31
0.0
39
0.0
210
0.0
220
0.0
230
1.0
0
LINE
5
180
330
22
100
AcDbEntity
8
0
62
256
6
ByBlock
370
-1
48
1.0
60
0
100
AcDbLine
10
-2.61000000915955
20
0.00333300154898
30
0.0
11
-2.59666600915955
21
0.05666600154898
31
0.0
39
0.0
210
0.0
220
0.0
230
1.0
0
LINE
5
181
330
22
100
AcDbEntity
8
0
62
256
6
ByBlock
370
-1
48
1.0
60
0
100
AcDbLine
10
-2.59666600915955
20
0.05666600154898
30
0.0
11
-2.58866654918835
21
0.16333510156098
31
0.0
39
0.0
210
0.0
220
0.0
230
1.0
0
LINE
5
182
330
22
100
AcDbEntity
8
0
62
256
6
ByBlock
370
-1
48
1.0
60
0
100
AcDbLine
10
-2.58866654918835
20
0.16333510156098
30
0.0
11
-2.59333300915955
21
0.18666600154898
31
0.0
39
0.0
210
0.0
220
0.0
230
1.0
0
LINE
5
183
330
22
100
AcDbEntity
8
0
62
256
6
ByBlock
370
-1
48
1.0
60
0
100
AcDbLine
10
-2.59333300915955
20
0.18666600154898
30
0.0
11
-2.62000000915955
21
0.19333300154898
31
0.0
39
0.0
210
0.0
220
0.0
230
1.0
0
LINE
5
184
330
22
100
AcDbEntity
8
0
62
256
6
ByBlock
370
-1
48
1.0
60
0
100
AcDbLine
10
-2.62000000915955
20
0.19333300154898
30
0.0
11
-2.62000000915955
21
0.19333300154898
31
0.0
39
0.0
210
0.0
220
0.0
230
1.0
0
LINE
5
185
330
22
100
AcDbEntity
8
0
62
256
6
ByBlock
370
-1
48
1.0
60
0
100
AcDbLine
10
-2.62000000915955
20
0.19333300154898
30
0.0
11
-2.62333300915955
21
0.29666600154898
31
0.0
39
0.0
210
0.0
220
0.0
230
1.0
0
LINE
5
186
330
22
100
AcDbEntity
8
0
62
256
6
ByBlock
370
-1
48
1.0
60
0
100
AcDbLine
10
-2.62333300915955
20
0.29666600154898
30
0.0
11
-2.64191894580415
21
0.31292895747448
31
0.0
39
0.0
210
0.0
220
0.0
230
1.0
0
LINE
5
187
330
22
100
AcDbEntity
8
0
62
256
6
ByBlock
370
-1
48
1.0
60
0
100
AcDbLine
10
-2.64191894580415
20
0.31292895747448
30
0.0
11
-2.65000000915955
21
0.32000000154898
31
0.0
39
0.0
210
0.0
220
0.0
230
1.0
0
LINE
5
188
330
22
100
AcDbEntity
8
0
62
256
6
ByBlock
370
-1
48
1.0
60
0
100
AcDbLine
10
-2.65000000915955
20
0.32000000154898
30
0.0
11
-2.65000000915955
21
0.3802023016377
31
0.0
39
0.0
210
0.0
220
0.0
230
1.0
0
LINE
5
189
330
22
100
AcDbEntity
8
0
62
256
6
ByBlock
370
-1
48
1.0
60
0
100
AcDbLine
10
-2.65000000915955
20
0.3802023016377
30
0.0
11
-2.66000000915955
21
0.43000000154898
31
0.0
39
0.0
210
0.0
220
0.0
230
1.0
0
LINE
5
18A
330
22
100
AcDbEntity
8
0
62
256
6
ByBlock
370
-1
48
1.0
60
0
100
AcDbLine
10
-2.66000000915955
20
0.43000000154898
30
0.0
11
-2.66333300915955
21
0.55000000154898
31
0.0
39
0.0
210
0.0
220
0.0
230
1.0
0
LINE
5
18B
330
22
100
AcDbEntity
8
0
62
256
6
ByBlock
370
-1
48
1.0
60
0
100
AcDbLine
10
-2.66333300915955
20
0.55000000154898
30
0.0
11
-2.66333300915955
21
0.90085169205587
31
0.0
39
0.0
210
0.0
220
0.0
230
1.0
0
LINE
5
18C
330
22
100
AcDbEntity
8
0
62
256
6
ByBlock
370
-1
48
1.0
60
0
100
AcDbLine
10
-2.66333300915955
20
0.90085169205587
30
0.0
11
-2.63333300915955
21
1.16333300154898
31
0.0
39
0.0
210
0.0
220
0.0
230
1.0
0
LINE
5
18D
330
22
100
AcDbEntity
8
0
62
256
6
ByBlock
370
-1
48
1.0
60
0
100
AcDbLine
10
-2.63333300915955
20
1.16333300154898
30
0.0
11
-2.61666600915955
21
1.22000000154898
31
0.0
39
0.0
210
0.0
220
0.0
230
1.0
0
LINE
5
18E
330
22
100
AcDbEntity
8
0
62
256
6
ByBlock
370
-1
48
1.0
60
0
100
AcDbLine
10
-2.61666600915955
20
1.22000000154898
30
0.0
11
-2.69666600915955
21
1.24666600154898
31
0.0
39
0.0
210
0.0
220
0.0
230
1.0
0
LINE
5
18F
330
22
100
AcDbEntity
8
0
62
256
6
ByBlock
370
-1
48
1.0
60
0
100
AcDbLine
10
-2.69666600915955
20
1.24666600154898
30
0.0
11
-2.80333300915955
21
1.38666700154898
31
0.0
39
0.0
210
0.0
220
0.0
230
1.0
0
LINE
5
190
330
22
100
AcDbEntity
8
0
62
256
6
ByBlock
370
-1
48
1.0
60
0
100
AcDbLine
10
-2.80333300915955
20
1.38666700154898
30
0.0
11
-2.81000000915955
21
1.56333300154898
31
0.0
39
0.0
210
0.0
220
0.0
230
1.0
0
LINE
5
191
330
22
100
AcDbEntity
8
0
62
256
6
ByBlock
370
-1
48
1.0
60
0
100
AcDbLine
10
-2.81000000915955
20
1.56333300154898
30
0.0
11
-2.66000000915955
21
1.73333300154898
31
0.0
39
0.0
210
0.0
220
0.0
230
1.0
0
LINE
5
192
330
22
100
AcDbEntity
8
0
62
256
6
ByBlock
370
-1
48
1.0
60
0
100
AcDbLine
10
-2.66000000915955
20
1.73333300154898
30
0.0
11
-2.49333300915955
21
1.74333300154898
31
0.0
39
0.0
210
0.0
220
0.0
230
1.0
0
LINE
5
193
330
22
100
AcDbEntity
8
0
62
256
6
ByBlock
370
-1
48
1.0
60
0
100
AcDbLine
10
-2.49333300915955
20
1.74333300154898
30
0.0
11
-2.47333300915955
21
2.00333300154898
31
0.0
39
0.0
210
0.0
220
0.0
230
1.0
0
LINE
5
194
330
22
100
AcDbEntity
8
0
62
256
6
ByBlock
370
-1
48
1.0
60
0
100
AcDbLine
10
-2.47333300915955
20
2.00333300154898
30
0.0
11
-2.50000000915955
21
2.07333300154898
31
0.0
39
0.0
210
0.0
220
0.0
230
1.0
0
LINE
5
195
330
22
100
AcDbEntity
8
0
62
256
6
ByBlock
370
-1
48
1.0
60
0
100
AcDbLine
10
-2.50000000915955
20
2.07333300154898
30
0.0
11
-2.46666600915955
21
2.08000000154898
31
0.0
39
0.0
210
0.0
220
0.0
230
1.0
0
LINE
5
196
330
22
100
AcDbEntity
8
0
62
256
6
ByBlock
370
-1
48
1.0
60
0
100
AcDbLine
10
-2.46666600915955
20
2.08000000154898
30
0.0
11
-2.46333300915955
21
2.14333300154898
31
0.0
39
0.0
210
0.0
220
0.0
230
1.0
0
LINE
5
197
330
22
100
AcDbEntity
8
0
62
256
6
ByBlock
370
-1
48
1.0
60
0
100
AcDbLine
10
-2.46333300915955
20
2.14333300154898
30
0.0
11
-2.44459938916006
21
2.25160041161893
31
0.0
39
0.0
210
0.0
220
0.0
230
1.0
0
LINE
5
198
330
22
100
AcDbEntity
8
0
62
256
6
ByBlock
370
-1
48
1.0
60
0
100
AcDbLine
10
-2.44459938916006
20
2.25160041161893
30
0.0
11
-2.42000000915955
21
2.46333300154898
31
0.0
39
0.0
210
0.0
220
0.0
230
1.0
0
LINE
5
199
330
22
100
AcDbEntity
8
0
62
256
6
ByBlock
370
-1
48
1.0
60
0
100
AcDbLine
10
-2.42000000915955
20
2.46333300154898
30
0.0
11
-2.37666600915955
21
2.52000000154898
31
0.0
39
0.0
210
0.0
220
0.0
230
1.0
0
LINE
5
19A
330
22
100
AcDbEntity
8
0
62
256
6
ByBlock
370
-1
48
1.0
60
0
100
AcDbLine
10
-2.37666600915955
20
2.52000000154898
30
0.0
11
-2.19333300915955
21
2.53666600154898
31
0.0
39
0.0
210
0.0
220
0.0
230
1.0
0
LINE
5
19B
330
22
100
AcDbEntity
8
0
62
256
6
ByBlock
370
-1
48
1.0
60
0
100
AcDbLine
10
-2.19333300915955
20
2.53666600154898
30
0.0
11
-2.05000000915955
21
2.55333300154898
31
0.0
39
0.0
210
0.0
220
0.0
230
1.0
0
LINE
5
19C
330
22
100
AcDbEntity
8
0
62
256
6
ByBlock
370
-1
48
1.0
60
0
100
AcDbLine
10
-2.05000000915955
20
2.55333300154898
30
0.0
11
-1.21666600915955
21
2.55666600154898
31
0.0
39
0.0
210
0.0
220
0.0
230
1.0
0
LINE
5
19D
330
22
100
AcDbEntity
8
0
62
256
6
ByBlock
370
-1
48
1.0
60
0
100
AcDbLine
10
-1.21666600915955
20
2.55666600154898
30
0.0
11
-1.06760681635725
21
2.54952204889857
31
0.0
39
0.0
210
0.0
220
0.0
230
1.0
0
LINE
5
19E
330
22
100
AcDbEntity
8
0
62
256
6
ByBlock
370
-1
48
1.0
60
0
100
AcDbLine
10
-1.06760681635725
20
2.54952204889857
30
0.0
11
-0.75333300915955
21
2.51000000154898
31
0.0
39
0.0
210
0.0
220
0.0
230
1.0
0
LINE
5
19F
330
22
100
AcDbEntity
8
0
62
256
6
ByBlock
370
-1
48
1.0
60
0
100
AcDbLine
10
-0.75333300915955
20
2.51000000154898
30
0.0
11
-0.40333300915955
21
2.55333300154898
31
0.0
39
0.0
210
0.0
220
0.0
230
1.0
0
LINE
5
1A0
330
22
100
AcDbEntity
8
0
62
256
6
ByBlock
370
-1
48
1.0
60
0
100
AcDbLine
10
-0.40333300915955
20
2.55333300154898
30
0.0
11
0.38775734825796
21
2.55333300154898
31
0.0
39
0.0
210
0.0
220
0.0
230
1.0
0
LINE
5
1A1
330
22
100
AcDbEntity
8
0
62
256
6
ByBlock
370
-1
48
1.0
60
0
100
AcDbLine
10
0.38775734825796
20
2.55333300154898
30
0.0
11
0.75666699084045
21
2.51000000154898
31
0.0
39
0.0
210
0.0
220
0.0
230
1.0
0
LINE
5
1A2
330
22
100
AcDbEntity
8
0
62
256
6
ByBlock
370
-1
48
1.0
60
0
100
AcDbLine
10
0.75666699084045
20
2.51000000154898
30
0.0
11
1.09333399084045
21
2.55333300154898
31
0.0
39
0.0
210
0.0
220
0.0
230
1.0
0
LINE
5
1A3
330
22
100
AcDbEntity
8
0
62
256
6
ByBlock
370
-1
48
1.0
60
0
100
AcDbLine
10
1.09333399084045
20
2.55333300154898
30
0.0
11
2.02173392626199
21
2.55333300154898
31
0.0
39
0.0
210
0.0
220
0.0
230
1.0
0
LINE
5
1A4
330
22
100
AcDbEntity
8
0
62
256
6
ByBlock
370
-1
48
1.0
60
0
100
AcDbLine
10
2.02173392626199
20
2.55333300154898
30
0.0
11
2.36574271756231
21
2.52078260002232
31
0.0
39
0.0
210
0.0
220
0.0
230
1.0
0
LINE
5
1A5
330
22
100
AcDbEntity
8
0
62
256
6
ByBlock
370
-1
48
1.0
60
0
100
AcDbLine
10
2.36574271756231
20
2.52078260002232
30
0.0
11
2.42000099084045
21
2.46333300154898
31
0.0
39
0.0
210
0.0
220
0.0
230
1.0
0
LINE
5
1A6
330
22
100
AcDbEntity
8
0
62
256
6
ByBlock
370
-1
48
1.0
60
0
100
AcDbLine
10
2.42000099084045
20
2.46333300154898
30
0.0
11
2.4417299182213
21
2.26061423698593
31
0.0
39
0.0
210
0.0
220
0.0
230
1.0
0
LINE
5
1A7
330
22
100
AcDbEntity
8
0
62
256
6
ByBlock
370
-1
48
1.0
60
0
100
AcDbLine
10
2.4417299182213
20
2.26061423698593
30
0.0
11
2.46333399084045
21
2.14333300154898
31
0.0
39
0.0
210
0.0
220
0.0
230
1.0
0
LINE
5
1A8
330
22
100
AcDbEntity
8
0
62
256
6
ByBlock
370
-1
48
1.0
60
0
100
AcDbLine
10
2.46333399084045
20
2.14333300154898
30
0.0
11
2.46666699084045
21
2.05333300154898
31
0.0
39
0.0
210
0.0
220
0.0
230
1.0
0
LINE
5
1A9
330
22
100
AcDbEntity
8
0
62
256
6
ByBlock
370
-1
48
1.0
60
0
100
AcDbLine
10
2.46666699084045
20
2.05333300154898
30
0.0
11
2.53523242218878
21
2.05286956926595
31
0.0
39
0.0
210
0.0
220
0.0
230
1.0
0
LINE
5
1AA
330
22
100
AcDbEntity
8
0
62
256
6
ByBlock
370
-1
48
1.0
60
0
100
AcDbLine
10
2.53523242218878
20
2.05286956926595
30
0.0
11
2.48000099084045
21
1.90666700154898
31
0.0
39
0.0
210
0.0
220
0.0
230
1.0
0
LINE
5
1AB
330
22
100
AcDbEntity
8
0
62
256
6
ByBlock
370
-1
48
1.0
60
0
100
AcDbLine
10
2.48000099084045
20
1.90666700154898
30
0.0
11
2.49333399084045
21
1.74333300154898
31
0.0
39
0.0
210
0.0
220
0.0
230
1.0
0
LINE
5
1AC
330
22
100
AcDbEntity
8
0
62
256
6
ByBlock
370
-1
48
1.0
60
0
100
AcDbLine
10
2.49333399084045
20
1.74333300154898
30
0.0
11
2.65999999084045
21
1.73333300154898
31
0.0
39
0.0
210
0.0
220
0.0
230
1.0
0
LINE
5
1AD
330
22
100
AcDbEntity
8
0
62
256
6
ByBlock
370
-1
48
1.0
60
0
100
AcDbLine
10
2.65999999084045
20
1.73333300154898
30
0.0
11
2.80999999084045
21
1.56333300154898
31
0.0
39
0.0
210
0.0
220
0.0
230
1.0
0
LINE
5
1AE
330
22
100
AcDbEntity
8
0
62
256
6
ByBlock
370
-1
48
1.0
60
0
100
AcDbLine
10
2.80999999084045
20
1.56333300154898
30
0.0
11
2.80666699084045
21
1.39333300154898
31
0.0
39
0.0
210
0.0
220
0.0
230
1.0
0
LINE
5
1AF
330
22
100
AcDbEntity
8
0
62
256
6
ByBlock
370
-1
48
1.0
60
0
100
AcDbLine
10
2.80666699084045
20
1.39333300154898
30
0.0
11
2.73166624087795
21
1.28484665449304
31
0.0
39
0.0
210
0.0
220
0.0
230
1.0
0
LINE
5
1B0
330
22
100
AcDbEntity
8
0
62
256
6
ByBlock
370
-1
48
1.0
60
0
100
AcDbLine
10
2.73166624087795
20
1.28484665449304
30
0.0
11
2.69666699084045
21
1.24666600154898
31
0.0
39
0.0
210
0.0
220
0.0
230
1.0
0
LINE
5
1B1
330
22
100
AcDbEntity
8
0
62
256
6
ByBlock
370
-1
48
1.0
60
0
100
AcDbLine
10
2.69666699084045
20
1.24666600154898
30
0.0
11
2.61666699084045
21
1.22333300154898
31
0.0
39
0.0
210
0.0
220
0.0
230
1.0
0
LINE
5
1B2
330
22
100
AcDbEntity
8
0
62
256
6
ByBlock
370
-1
48
1.0
60
0
100
AcDbLine
10
2.61666699084045
20
1.22333300154898
30
0.0
11
2.63333399084045
21
1.16666700154898
31
0.0
39
0.0
210
0.0
220
0.0
230
1.0
0
LINE
5
1B3
330
22
100
AcDbEntity
8
0
62
256
6
ByBlock
370
-1
48
1.0
60
0
100
AcDbLine
10
2.63333399084045
20
1.16666700154898
30
0.0
11
2.66333399084045
21
0.89000000154898
31
0.0
39
0.0
210
0.0
220
0.0
230
1.0
0
LINE
5
1B4
330
22
100
AcDbEntity
8
0
62
256
6
ByBlock
370
-1
48
1.0
60
0
100
AcDbLine
10
2.66333399084045
20
0.89000000154898
30
0.0
11
2.65999999084045
21
0.41333300154898
31
0.0
39
0.0
210
0.0
220
0.0
230
1.0
0
LINE
5
1B5
330
22
100
AcDbEntity
8
0
62
256
6
ByBlock
370
-1
48
1.0
60
0
100
AcDbLine
10
2.65999999084045
20
0.41333300154898
30
0.0
11
2.65000099084045
21
0.37333300154898
31
0.0
39
0.0
210
0.0
220
0.0
230
1.0
0
LINE
5
1B6
330
22
100
AcDbEntity
8
0
62
256
6
ByBlock
370
-1
48
1.0
60
0
100
AcDbLine
10
2.65000099084045
20
0.37333300154898
30
0.0
11
2.65000099084045
21
0.32000000154898
31
0.0
39
0.0
210
0.0
220
0.0
230
1.0
0
LINE
5
1B7
330
22
100
AcDbEntity
8
0
62
256
6
ByBlock
370
-1
48
1.0
60
0
100
AcDbLine
10
2.65000099084045
20
0.32000000154898
30
0.0
11
2.61333399084045
21
0.29333300154898
31
0.0
39
0.0
210
0.0
220
0.0
230
1.0
0
LINE
5
1B8
330
22
100
AcDbEntity
8
0
62
256
6
ByBlock
370
-1
48
1.0
60
0
100
AcDbLine
10
2.61333399084045
20
0.29333300154898
30
0.0
11
2.62333399084045
21
0.19666600154898
31
0.0
39
0.0
210
0.0
220
0.0
230
1.0
0
LINE
5
1B9
330
22
100
AcDbEntity
8
0
62
256
6
ByBlock
370
-1
48
1.0
60
0
100
AcDbLine
10
2.62333399084045
20
0.19666600154898
30
0.0
11
2.59333399084045
21
0.19000000154898
31
0.0
39
0.0
210
0.0
220
0.0
230
1.0
0
LINE
5
1BA
330
22
100
AcDbEntity
8
0
62
256
6
ByBlock
370
-1
48
1.0
60
0
100
AcDbLine
10
2.59333399084045
20
0.19000000154898
30
0.0
11
2.58666699084045
21
0.15333300154898
31
0.0
39
0.0
210
0.0
220
0.0
230
1.0
0
LINE
5
1BB
330
22
100
AcDbEntity
8
0
62
256
6
ByBlock
370
-1
48
1.0
60
0
100
AcDbLine
10
2.58666699084045
20
0.15333300154898
30
0.0
11
2.59333399084045
21
0.06333300154898
31
0.0
39
0.0
210
0.0
220
0.0
230
1.0
0
LINE
5
1BC
330
22
100
AcDbEntity
8
0
62
256
6
ByBlock
370
-1
48
1.0
60
0
100
AcDbLine
10
2.59333399084045
20
0.06333300154898
30
0.0
11
2.60666699084045
21
0.00666600154898
31
0.0
39
0.0
210
0.0
220
0.0
230
1.0
0
LINE
5
1BD
330
22
100
AcDbEntity
8
0
62
256
6
ByBlock
370
-1
48
1.0
60
0
100
AcDbLine
10
2.60666699084045
20
0.00666600154898
30
0.0
11
2.46999999084045
21
0.00000000154898
31
0.0
39
0.0
210
0.0
220
0.0
230
1.0
0
LINE
5
1BE
330
22
100
AcDbEntity
8
0
62
256
6
ByBlock
370
-1
48
1.0
60
0
100
AcDbLine
10
2.46999999084045
20
0.00000000154898
30
0.0
11
2.42735475400486
21
0.19026450142517
31
0.0
39
0.0
210
0.0
220
0.0
230
1.0
0
LINE
5
1BF
330
22
100
AcDbEntity
8
0
62
256
6
ByBlock
370
-1
48
1.0
60
0
100
AcDbLine
10
2.42735475400486
20
0.19026450142517
30
0.0
11
2.39666699084045
21
0.19333300154898
31
0.0
39
0.0
210
0.0
220
0.0
230
1.0
0
LINE
5
1C0
330
22
100
AcDbEntity
8
0
62
256
6
ByBlock
370
-1
48
1.0
60
0
100
AcDbLine
10
2.39666699084045
20
0.19333300154898
30
0.0
11
2.39333399084045
21
0.16333300154898
31
0.0
39
0.0
210
0.0
220
0.0
230
1.0
0
LINE
5
1C1
330
22
100
AcDbEntity
8
0
62
256
6
ByBlock
370
-1
48
1.0
60
0
100
AcDbLine
10
2.39333399084045
20
0.16333300154898
30
0.0
11
2.39333399084045
21
0.06000000154898
31
0.0
39
0.0
210
0.0
220
0.0
230
1.0
0
LINE
5
1C2
330
22
100
AcDbEntity
8
0
62
256
6
ByBlock
370
-1
48
1.0
60
0
100
AcDbLine
10
2.39333399084045
20
0.06000000154898
30
0.0
11
2.40999999084045
21
0.01666700154898
31
0.0
39
0.0
210
0.0
220
0.0
230
1.0
0
LINE
5
1C3
330
22
100
AcDbEntity
8
0
62
256
6
ByBlock
370
-1
48
1.0
60
0
100
AcDbLine
10
2.40999999084045
20
0.01666700154898
30
0.0
11
2.40666699084045
21
0.00000000154898
31
0.0
39
0.0
210
0.0
220
0.0
230
1.0
0
LINE
5
1C4
330
22
100
AcDbEntity
8
0
62
256
6
ByBlock
370
-1
48
1.0
60
0
100
AcDbLine
10
2.40666699084045
20
0.00000000154898
30
0.0
11
2.32999999084045
21
0.00000000154898
31
0.0
39
0.0
210
0.0
220
0.0
230
1.0
0
LINE
5
1C5
330
22
100
AcDbEntity
8
0
62
256
6
ByBlock
370
-1
48
1.0
60
0
100
AcDbLine
10
2.32999999084045
20
0.00000000154898
30
0.0
11
2.30666699084045
21
0.00333300154898
31
0.0
39
0.0
210
0.0
220
0.0
230
1.0
0
LINE
5
1C6
330
22
100
AcDbEntity
8
0
62
256
6
ByBlock
370
-1
48
1.0
60
0
100
AcDbLine
10
2.30666699084045
20
0.00333300154898
30
0.0
11
2.2791312989652
21
0.00057968018516
31
0.0
39
0.0
210
0.0
220
0.0
230
1.0
0
LINE
5
1C7
330
22
100
AcDbEntity
8
0
62
256
6
ByBlock
370
-1
48
1.0
60
0
100
AcDbLine
10
2.2791312989652
20
0.00057968018516
30
0.0
11
2.23000099084045
21
0.19333300154898
31
0.0
39
0.0
210
0.0
220
0.0
230
1.0
0
LINE
5
1C8
330
22
100
AcDbEntity
8
0
62
256
6
ByBlock
370
-1
48
1.0
60
0
100
AcDbLine
10
2.23000099084045
20
0.19333300154898
30
0.0
11
-2.23000000915955
21
0.19333300154898
31
0.0
39
0.0
210
0.0
220
0.0
230
1.0
0
LINE
5
1C9
330
22
100
AcDbEntity
8
0
62
256
6
ByBlock
370
-1
48
1.0
60
0
100
AcDbLine
10
-2.23000000915955
20
0.19333300154898
30
0.0
11
-2.23666600915955
21
0.15000000154898
31
0.0
39
0.0
210
0.0
220
0.0
230
1.0
0
LINE
5
1CA
330
22
100
AcDbEntity
8
0
62
256
6
ByBlock
370
-1
48
1.0
60
0
100
AcDbLine
10
-2.23666600915955
20
0.15000000154898
30
0.0
11
-2.27000000915955
21
0.00333300154898
31
0.0
39
0.0
210
0.0
220
0.0
230
1.0
0
LINE
5
1CB
330
22
100
AcDbEntity
8
0
62
256
6
ByBlock
370
-1
48
1.0
60
0
100
AcDbLine
10
-2.27000000915955
20
0.00333300154898
30
0.0
11
-2.27000000915955
21
0.00333300154898
31
0.0
39
0.0
210
0.0
220
0.0
230
1.0
0
LINE
5
1CC
330
22
100
AcDbEntity
8
0
62
256
6
ByBlock
370
-1
48
1.0
60
0
100
AcDbLine
10
-2.27000000915955
20
0.00333300154898
30
0.0
11
-2.41000000915955
21
0.00000000154898
31
0.0
39
0.0
210
0.0
220
0.0
230
1.0
0
LINE
5
1CD
330
22
100
AcDbEntity
8
0
62
256
6
ByBlock
370
-1
48
1.0
60
0
100
AcDbLine
10
-2.41000000915955
20
0.00000000154898
30
0.0
11
-2.39333300915955
21
0.10000200154898
31
0.0
39
0.0
210
0.0
220
0.0
230
1.0
0
LINE
5
1CE
330
22
100
AcDbEntity
8
0
62
256
6
ByBlock
370
-1
48
1.0
60
0
100
AcDbLine
10
-2.39333300915955
20
0.10000200154898
30
0.0
11
-2.39333300915955
21
0.19000000154898
31
0.0
39
0.0
210
0.0
220
0.0
230
1.0
0
LINE
5
1CF
330
22
100
AcDbEntity
8
0
62
256
6
ByBlock
370
-1
48
1.0
60
0
100
AcDbLine
10
-2.39333300915955
20
0.19000000154898
30
0.0
11
-2.43000000915955
21
0.19000000154898
31
0.0
39
0.0
210
0.0
220
0.0
230
1.0
0
LINE
5
1D0
330
22
100
AcDbEntity
8
0
62
256
6
ByBlock
370
-1
48
1.0
60
0
100
AcDbLine
10
-2.59666600915955
20
0.05666600154898
30
0.0
11
-2.58866654918835
21
0.16333510156098
31
0.0
39
0.0
210
0.0
220
0.0
230
1.0
0
ENDBLK
5
23
330
22
100
AcDbEntity
8
0
100
AcDbBlockEnd
0
BLOCK
5
29
330
27
100
AcDbEntity
8
0
100
AcDbBlockBegin
2
QS
70
0
10
0.0
20
0.0
30
0.0
3
QS
0
ENDBLK
5
28
330
27
100
AcDbEntity
8
0
100
AcDbBlockEnd
0
BLOCK
5
1D3
330
1D1
100
AcDbEntity
8
0
100
AcDbBlockBegin
2
*Paper_Space
70
0
10
0.0
20
0.0
30
0.0
3
*Paper_Space
0
ENDBLK
5
1D2
330
1D1
100
AcDbEntity
8
0
100
AcDbBlockEnd
0
ENDSEC
0
SECTION
2
ENTITIES
0
INSERT
5
21
330
1A
100
AcDbEntity
67
0
8
0
62
256
6
ByLayer
370
-1
48
1.0
60
0
100
AcDbBlockReference
2
沙发前视
10
0.0
20
0.0
30
0.0
41
1.0
42
1.0
43
1.0
50
0.0
210
0.0
220
0.0
230
1.0
0
VIEWPORT
5
1D5
330
1D1
100
AcDbEntity
67
1
8
0
62
256
6
ByLayer
370
-1
48
1.0
60
0
100
AcDbViewport
10
0.0
20
0.0
30
0.0
40
297.0
41
210.0
68
1
69
1
12
50.0
22
100.0
13
0.0
23
0.0
14
10.0
24
10.0
15
10.0
25
10.0
16
0.0
26
0.0
36
1.0
17
0.0
27
0.0
37
0.0
42
50.0
43
0.0
44
0.0
45
250.0
50
0.0
51
0.0
72
1000
90
819232
110
0.0
120
0.0
130
0.0
111
1.0
121
0.0
131
0.0
112
0.0
122
1.0
132
0.0
0
ENDSEC
0
SECTION
2
OBJECTS
0
DICTIONARY
5
1DA
330
0
100
AcDbDictionary
280
0
281
1
3
ACAD_GROUP
350
1DB
3
ACAD_LAYOUT
350
1DC
3
ACAD_MLINESTYLE
350
1E0
0
DICTIONARY
5
1DB
330
1DA
100
AcDbDictionary
280
0
281
1
0
DICTIONARY
5
1DC
330
1DA
100
AcDbDictionary
280
0
281
1
3
Model
350
1E
3
Layout1
350
1D6
0
DICTIONARY
5
1E0
330
1DA
100
AcDbDictionary
280
0
281
1
3
Standard
350
19
0
LAYOUT
5
1E
330
1DC
100
AcDbPlotSettings
1

2
none_device
4
ISO_A4_(210.00_x_297.00_MM)
6

40
7.5
41
20.0
42
7.5
43
20.0
44
210.0
45
297.0
46
0.0
47
0.0
48
0.0
49
0.0
140
0.0
141
0.0
142
1.0
143
1.0
70
11952
72
1
73
1
74
5
7

75
16
147
1.0
148
0.0
149
0.0
100
AcDbLayout
1
Model
70
1
71
0
10
-20.0
20
-7.5
11
277.0
21
202.5
12
0.0
22
0.0
32
0.0
14
25.7
24
19.5
34
0.0
15
231.3
25
175.5
35
0.0
146
0.0
13
0.0
23
0.0
33
0.0
16
1.0
26
0.0
36
0.0
17
0.0
27
1.0
37
0.0
76
0
330
1A
0
LAYOUT
5
1D6
330
1DC
100
AcDbPlotSettings
1

2
none_device
4
ISO_A4_(210.00_x_297.00_MM)
6

40
7.5
41
20.0
42
7.5
43
20.0
44
210.0
45
297.0
46
0.0
47
0.0
48
0.0
49
0.0
140
0.0
141
0.0
142
1.0
143
1.0
70
688
72
1
73
1
74
5
7

75
16
147
1.0
148
0.0
149
0.0
100
AcDbLayout
1
Layout1
70
1
71
1
10
-20.0
20
-7.5
11
277.0
21
202.5
12
0.0
22
0.0
32
0.0
14
25.7
24
19.5
34
0.0
15
231.3
25
175.5
35
0.0
146
0.0
13
0.0
23
0.0
33
0.0
16
1.0
26
0.0
36
0.0
17
0.0
27
1.0
37
0.0
76
0
330
1D1
0
MLINESTYLE
5
19
330
1E0
100
AcDbMlineStyle
2
Standard
70
0
3

62
256
51
90.0
52
90.0
71
2
49
-0.5
62
256
6
ByLayer
49
0.5
62
256
6
ByLayer
0
ENDSEC
0
EOF
