999
Dxf file generated by netDxf https://netdxf.codeplex.com, Copyright(C) 2009-2016 Daniel Carvajal, Licensed under LGPL
0
SECTION
2
HEADER
9
$ACADVER
1
AC1021
9
$DWGCODEPAGE
3
ANSI_936
9
$LASTSAVEDBY
1
GAODI
9
$HANDSEED
5
165
9
$ANGBASE
50
0.0
9
$ANGDIR
70
0
9
$ATTMODE
70
1
9
$AUNITS
70
0
9
$AUPREC
70
0
9
$CECOLOR
62
256
9
$CELTSCALE
40
1.0
9
$CELTYPE
6
ByLayer
9
$CELWEIGHT
370
-1
9
$CLAYER
8
0
9
$CMLJUST
70
0
9
$CMLSCALE
40
20.0
9
$CMLSTYLE
2
Standard
9
$DIMSTYLE
2
Standard
9
$TEXTSIZE
40
2.5
9
$TEXTSTYLE
7
Standard
9
$LUNITS
70
2
9
$LUPREC
70
4
9
$EXTNAMES
290
1
9
$INSBASE
10
0.0
20
0.0
30
0.0
9
$INSUNITS
70
0
9
$LTSCALE
40
1.0
9
$LWDISPLAY
290
0
9
$PDMODE
70
0
9
$PDSIZE
40
0.0
9
$PLINEGEN
70
0
9
$PSLTSCALE
70
1
9
$TDCREATE
40
2457773.60850551
9
$TDUCREATE
40
2457773.27517218
9
$TDUPDATE
40
2457773.60850551
9
$TDUUPDATE
40
2457773.27517218
9
$TDINDWG
40
0.0
9
$DIMADEC
70
0
9
$DIMAUNIT
70
0
9
$DIMASZ
40
0.18
9
$DIMAZIN
70
0
9
$DIMSAH
70
0
9
$DIMBLK
1

9
$DIMLDRBLK
1

9
$DIMCEN
40
0.09
9
$DIMCLRD
70
0
9
$DIMCLRE
70
0
9
$DIMCLRT
70
0
9
$DIMDEC
70
2
9
$DIMDLE
40
0.0
9
$DIMDLI
40
0.38
9
$DIMDSEP
70
46
9
$DIMEXE
40
0.18
9
$DIMEXO
40
0.0625
9
$DIMGAP
40
0.09
9
$DIMJUST
70
0
9
$DIMLFAC
40
1.0
9
$DIMLUNIT
70
2
9
$DIMLWD
70
-2
9
$DIMLWE
70
-2
9
$DIMPOST
1
<>
9
$DIMRND
40
0.0
9
$DIMSCALE
40
1.0
9
$DIMSE1
70
0
9
$DIMSE2
70
0
9
$DIMTAD
70
1
9
$DIMTIH
70
0
9
$DIMTOH
70
0
9
$DIMTXT
40
0.18
9
$DIMZIN
70
0
9
$DIMFRAC
70
0
9
$DIMLTYPE
6
ByBlock
9
$DIMLTEX1
6
ByBlock
9
$DIMLTEX2
6
ByBlock
0
ENDSEC
0
SECTION
2
CLASSES
0
CLASS
1
RASTERVARIABLES
2
AcDbRasterVariables
3
ISM
90
0
91
1
280
0
281
0
0
ENDSEC
0
SECTION
2
TABLES
0
TABLE
2
APPID
5
4
330
0
100
AcDbSymbolTable
70
4
0
APPID
5
17
330
4
100
AcDbSymbolTableRecord
100
AcDbRegAppTableRecord
2
ACAD
70
0
0
APPID
5
15A
330
4
100
AcDbSymbolTableRecord
100
AcDbRegAppTableRecord
2
AcCmTransparency
70
0
0
APPID
5
15B
330
4
100
AcDbSymbolTableRecord
100
AcDbRegAppTableRecord
2
GradientColor1ACI
70
0
0
APPID
5
15C
330
4
100
AcDbSymbolTableRecord
100
AcDbRegAppTableRecord
2
GradientColor2ACI
70
0
0
ENDTAB
0
TABLE
2
VPORT
5
1
330
0
100
AcDbSymbolTable
70
1
0
VPORT
5
2
330
1
100
AcDbSymbolTableRecord
100
AcDbViewportTableRecord
2
*Active
70
0
10
0.0
20
0.0
11
1.0
21
1.0
12
0.0
22
0.0
13
0.0
23
0.0
14
0.5
24
0.5
15
10.0
25
10.0
16
0.0
26
0.0
36
1.0
17
0.0
27
0.0
37
0.0
40
10.0
41
1.0
75
0
76
1
0
ENDTAB
0
TABLE
2
LTYPE
5
6
330
0
100
AcDbSymbolTable
70
3
0
LTYPE
5
13
330
6
100
AcDbSymbolTableRecord
100
AcDbLinetypeTableRecord
70
0
2
Continuous
3
Solid line
72
65
73
0
40
0.0
0
LTYPE
5
14
330
6
100
AcDbSymbolTableRecord
100
AcDbLinetypeTableRecord
70
0
2
ByLayer
3

72
65
73
0
40
0.0
0
LTYPE
5
15
330
6
100
AcDbSymbolTableRecord
100
AcDbLinetypeTableRecord
70
0
2
ByBlock
3

72
65
73
0
40
0.0
0
ENDTAB
0
TABLE
2
LAYER
5
5
330
0
100
AcDbSymbolTable
70
1
0
LAYER
5
12
330
5
100
AcDbSymbolTableRecord
100
AcDbLayerTableRecord
2
0
70
0
62
7
6
Continuous
290
1
370
-3
390
0
0
ENDTAB
0
TABLE
2
STYLE
5
7
330
0
100
AcDbSymbolTable
70
1
0
STYLE
5
16
330
7
100
AcDbSymbolTableRecord
100
AcDbTextStyleTableRecord
2
Standard
3
simplex.shx
70
0
71
0
40
0.0
41
1.0
42
0.0
50
0.0
0
ENDTAB
0
TABLE
2
DIMSTYLE
5
8
330
0
100
AcDbSymbolTable
70
1
100
AcDbDimStyleTable
0
DIMSTYLE
105
18
330
8
100
AcDbSymbolTableRecord
100
AcDbDimStyleTableRecord
2
Standard
70
0
3
<>
40
1.0
41
0.18
42
0.0625
43
0.38
44
0.18
45
0.0
46
0.0
73
0
74
0
75
0
76
0
77
1
78
0
79
0
140
0.18
141
0.09
144
1.0
147
0.09
176
0
177
0
178
0
179
0
271
2
275
0
276
0
277
2
278
46
280
0
340
16
173
0
345
15
346
15
347
15
371
-2
372
-2
0
ENDTAB
0
TABLE
2
VIEW
5
3
330
0
100
AcDbSymbolTable
70
0
0
ENDTAB
0
TABLE
2
UCS
5
A
330
0
100
AcDbSymbolTable
70
0
0
ENDTAB
0
TABLE
2
BLOCK_RECORD
5
B
330
0
100
AcDbSymbolTable
70
4
0
BLOCK_RECORD
5
1A
330
B
100
AcDbSymbolTableRecord
100
AcDbBlockTableRecord
2
*Model_Space
340
1E
0
BLOCK_RECORD
5
22
330
B
100
AcDbSymbolTableRecord
100
AcDbBlockTableRecord
2
沙发顶视
340
0
70
0
280
1
281
0
1001
ACAD
1000
DesignCenter Data
1002
{
1070
1
1070
0
1002
}
0
BLOCK_RECORD
5
27
330
B
100
AcDbSymbolTableRecord
100
AcDbBlockTableRecord
2
DS
340
0
70
0
280
1
281
0
1001
ACAD
1000
DesignCenter Data
1002
{
1070
1
1070
0
1002
}
0
BLOCK_RECORD
5
154
330
B
100
AcDbSymbolTableRecord
100
AcDbBlockTableRecord
2
*Paper_Space
340
159
0
ENDTAB
0
ENDSEC
0
SECTION
2
BLOCKS
0
BLOCK
5
1C
330
1A
100
AcDbEntity
8
0
100
AcDbBlockBegin
2
*Model_Space
70
0
10
0.0
20
0.0
30
0.0
3
*Model_Space
0
ENDBLK
5
1B
330
1A
100
AcDbEntity
8
0
100
AcDbBlockEnd
0
BLOCK
5
24
330
22
100
AcDbEntity
8
0
100
AcDbBlockBegin
2
沙发顶视
70
0
10
0.0
20
0.0
30
0.0
3
沙发顶视
0
INSERT
5
26
330
22
100
AcDbEntity
8
0
62
256
6
ByBlock
370
-1
48
1.0
60
0
100
AcDbBlockReference
2
DS
10
0.00000000000001
20
-1.32335
30
0.0
41
1.0
42
1.0
43
1.0
50
0.0
210
0.0
220
0.0
230
1.0
0
LINE
5
2A
330
22
100
AcDbEntity
8
0
62
3
6
ByBlock
370
-1
48
1.0
60
0
100
AcDbLine
10
-2.65333300915411
20
-1.25335000433816
30
0.0
11
-2.65333300915411
21
-1.23668300433816
31
0.0
39
0.0
210
0.0
220
0.0
230
1.0
0
LINE
5
2B
330
22
100
AcDbEntity
8
0
62
3
6
ByBlock
370
-1
48
1.0
60
0
100
AcDbLine
10
-2.65333300915411
20
-1.23668300433816
30
0.0
11
-2.66333300915411
21
-1.21335000433816
31
0.0
39
0.0
210
0.0
220
0.0
230
1.0
0
LINE
5
2C
330
22
100
AcDbEntity
8
0
62
3
6
ByBlock
370
-1
48
1.0
60
0
100
AcDbLine
10
-2.66333300915411
20
-1.21335000433816
30
0.0
11
-2.66666700915411
21
-1.08001700433816
31
0.0
39
0.0
210
0.0
220
0.0
230
1.0
0
LINE
5
2D
330
22
100
AcDbEntity
8
0
62
3
6
ByBlock
370
-1
48
1.0
60
0
100
AcDbLine
10
-2.66666700915411
20
-1.08001700433816
30
0.0
11
-2.66000000915411
21
-1.02001700433816
31
0.0
39
0.0
210
0.0
220
0.0
230
1.0
0
LINE
5
2E
330
22
100
AcDbEntity
8
0
62
3
6
ByBlock
370
-1
48
1.0
60
0
100
AcDbLine
10
-2.66000000915411
20
-1.02001700433816
30
0.0
11
-2.66666700915411
21
-1.01335000433816
31
0.0
39
0.0
210
0.0
220
0.0
230
1.0
0
LINE
5
2F
330
22
100
AcDbEntity
8
0
62
3
6
ByBlock
370
-1
48
1.0
60
0
100
AcDbLine
10
-2.66666700915411
20
-1.01335000433816
30
0.0
11
-2.71666700915411
21
-1.01335000433816
31
0.0
39
0.0
210
0.0
220
0.0
230
1.0
0
LINE
5
30
330
22
100
AcDbEntity
8
0
62
3
6
ByBlock
370
-1
48
1.0
60
0
100
AcDbLine
10
-2.71666700915411
20
-1.01335000433816
30
0.0
11
-2.74000000915411
21
-1.00668300433816
31
0.0
39
0.0
210
0.0
220
0.0
230
1.0
0
LINE
5
31
330
22
100
AcDbEntity
8
0
62
3
6
ByBlock
370
-1
48
1.0
60
0
100
AcDbLine
10
-2.74000000915411
20
-1.00668300433816
30
0.0
11
-2.78333300915411
21
-0.96335000433816
31
0.0
39
0.0
210
0.0
220
0.0
230
1.0
0
LINE
5
32
330
22
100
AcDbEntity
8
0
62
3
6
ByBlock
370
-1
48
1.0
60
0
100
AcDbLine
10
-2.78333300915411
20
-0.96335000433816
30
0.0
11
-2.81000000915411
21
-0.89335000433816
31
0.0
39
0.0
210
0.0
220
0.0
230
1.0
0
LINE
5
33
330
22
100
AcDbEntity
8
0
62
3
6
ByBlock
370
-1
48
1.0
60
0
100
AcDbLine
10
-2.81000000915411
20
-0.89335000433816
30
0.0
11
-2.81000000915411
21
-0.44335000433816
31
0.0
39
0.0
210
0.0
220
0.0
230
1.0
0
LINE
5
34
330
22
100
AcDbEntity
8
0
62
3
6
ByBlock
370
-1
48
1.0
60
0
100
AcDbLine
10
-2.81000000915411
20
-0.44335000433816
30
0.0
11
-2.74666700915411
21
0.18998299566184
31
0.0
39
0.0
210
0.0
220
0.0
230
1.0
0
LINE
5
35
330
22
100
AcDbEntity
8
0
62
3
6
ByBlock
370
-1
48
1.0
60
0
100
AcDbLine
10
-2.74666700915411
20
0.18998299566184
30
0.0
11
-2.65333300915411
21
0.64664999566184
31
0.0
39
0.0
210
0.0
220
0.0
230
1.0
0
LINE
5
36
330
22
100
AcDbEntity
8
0
62
3
6
ByBlock
370
-1
48
1.0
60
0
100
AcDbLine
10
-2.65333300915411
20
0.64664999566184
30
0.0
11
-2.61333300915411
21
0.84664999566184
31
0.0
39
0.0
210
0.0
220
0.0
230
1.0
0
LINE
5
37
330
22
100
AcDbEntity
8
0
62
3
6
ByBlock
370
-1
48
1.0
60
0
100
AcDbLine
10
-2.61333300915411
20
0.84664999566184
30
0.0
11
-2.60333300915411
21
0.86998299566184
31
0.0
39
0.0
210
0.0
220
0.0
230
1.0
0
LINE
5
38
330
22
100
AcDbEntity
8
0
62
3
6
ByBlock
370
-1
48
1.0
60
0
100
AcDbLine
10
-2.60333300915411
20
0.86998299566184
30
0.0
11
-2.5794734024906
21
0.93261602897939
31
0.0
39
0.0
210
0.0
220
0.0
230
1.0
0
LINE
5
39
330
22
100
AcDbEntity
8
0
62
3
6
ByBlock
370
-1
48
1.0
60
0
100
AcDbLine
10
-2.5794734024906
20
0.93261602897939
30
0.0
11
-2.57000000915411
21
0.97998299566184
31
0.0
39
0.0
210
0.0
220
0.0
230
1.0
0
LINE
5
3A
330
22
100
AcDbEntity
8
0
62
3
6
ByBlock
370
-1
48
1.0
60
0
100
AcDbLine
10
-2.57000000915411
20
0.97998299566184
30
0.0
11
-2.54000000915411
21
1.07331699566184
31
0.0
39
0.0
210
0.0
220
0.0
230
1.0
0
LINE
5
3B
330
22
100
AcDbEntity
8
0
62
3
6
ByBlock
370
-1
48
1.0
60
0
100
AcDbLine
10
-2.54000000915411
20
1.07331699566184
30
0.0
11
-2.53000000915411
21
1.08664999566184
31
0.0
39
0.0
210
0.0
220
0.0
230
1.0
0
LINE
5
3C
330
22
100
AcDbEntity
8
0
62
3
6
ByBlock
370
-1
48
1.0
60
0
100
AcDbLine
10
-2.53000000915411
20
1.08664999566184
30
0.0
11
-2.47000000915411
21
1.12998299566184
31
0.0
39
0.0
210
0.0
220
0.0
230
1.0
0
LINE
5
3D
330
22
100
AcDbEntity
8
0
62
3
6
ByBlock
370
-1
48
1.0
60
0
100
AcDbLine
10
-2.47000000915411
20
1.12998299566184
30
0.0
11
-2.46527755777268
21
1.1913720302912
31
0.0
39
0.0
210
0.0
220
0.0
230
1.0
0
LINE
5
3E
330
22
100
AcDbEntity
8
0
62
3
6
ByBlock
370
-1
48
1.0
60
0
100
AcDbLine
10
-2.46527755777268
20
1.1913720302912
30
0.0
11
-2.46333300915411
21
1.21664999566184
31
0.0
39
0.0
210
0.0
220
0.0
230
1.0
0
LINE
5
3F
330
22
100
AcDbEntity
8
0
62
3
6
ByBlock
370
-1
48
1.0
60
0
100
AcDbLine
10
-2.46333300915411
20
1.21664999566184
30
0.0
11
-2.45000000915411
21
1.24998299566184
31
0.0
39
0.0
210
0.0
220
0.0
230
1.0
0
LINE
5
40
330
22
100
AcDbEntity
8
0
62
3
6
ByBlock
370
-1
48
1.0
60
0
100
AcDbLine
10
-2.45000000915411
20
1.24998299566184
30
0.0
11
-2.44333300915411
21
1.26998299566184
31
0.0
39
0.0
210
0.0
220
0.0
230
1.0
0
LINE
5
41
330
22
100
AcDbEntity
8
0
62
3
6
ByBlock
370
-1
48
1.0
60
0
100
AcDbLine
10
-2.44333300915411
20
1.26998299566184
30
0.0
11
-2.41666700915411
21
1.31331599566184
31
0.0
39
0.0
210
0.0
220
0.0
230
1.0
0
LINE
5
42
330
22
100
AcDbEntity
8
0
62
3
6
ByBlock
370
-1
48
1.0
60
0
100
AcDbLine
10
-2.41666700915411
20
1.31331599566184
30
0.0
11
-2.40333300915411
21
1.32998299566184
31
0.0
39
0.0
210
0.0
220
0.0
230
1.0
0
LINE
5
43
330
22
100
AcDbEntity
8
0
62
3
6
ByBlock
370
-1
48
1.0
60
0
100
AcDbLine
10
-2.40333300915411
20
1.32998299566184
30
0.0
11
2.39999999084589
21
1.32998299566184
31
0.0
39
0.0
210
0.0
220
0.0
230
1.0
0
LINE
5
44
330
22
100
AcDbEntity
8
0
62
3
6
ByBlock
370
-1
48
1.0
60
0
100
AcDbLine
10
2.39999999084589
20
1.32998299566184
30
0.0
11
2.44333399084588
21
1.26331699566184
31
0.0
39
0.0
210
0.0
220
0.0
230
1.0
0
LINE
5
45
330
22
100
AcDbEntity
8
0
62
3
6
ByBlock
370
-1
48
1.0
60
0
100
AcDbLine
10
2.44333399084588
20
1.26331699566184
30
0.0
11
2.45999999084589
21
1.21998299566184
31
0.0
39
0.0
210
0.0
220
0.0
230
1.0
0
LINE
5
46
330
22
100
AcDbEntity
8
0
62
3
6
ByBlock
370
-1
48
1.0
60
0
100
AcDbLine
10
2.45999999084589
20
1.21998299566184
30
0.0
11
2.46666699084588
21
1.12998299566184
31
0.0
39
0.0
210
0.0
220
0.0
230
1.0
0
LINE
5
47
330
22
100
AcDbEntity
8
0
62
3
6
ByBlock
370
-1
48
1.0
60
0
100
AcDbLine
10
2.46666699084588
20
1.12998299566184
30
0.0
11
2.53666699084589
21
1.07331699566184
31
0.0
39
0.0
210
0.0
220
0.0
230
1.0
0
LINE
5
48
330
22
100
AcDbEntity
8
0
62
3
6
ByBlock
370
-1
48
1.0
60
0
100
AcDbLine
10
2.53666699084589
20
1.07331699566184
30
0.0
11
2.56666699084589
21
0.97998299566184
31
0.0
39
0.0
210
0.0
220
0.0
230
1.0
0
LINE
5
49
330
22
100
AcDbEntity
8
0
62
3
6
ByBlock
370
-1
48
1.0
60
0
100
AcDbLine
10
2.56666699084589
20
0.97998299566184
30
0.0
11
2.57666699084588
21
0.92998299566184
31
0.0
39
0.0
210
0.0
220
0.0
230
1.0
0
LINE
5
4A
330
22
100
AcDbEntity
8
0
62
3
6
ByBlock
370
-1
48
1.0
60
0
100
AcDbLine
10
2.57666699084588
20
0.92998299566184
30
0.0
11
2.61333399084588
21
0.83331699566184
31
0.0
39
0.0
210
0.0
220
0.0
230
1.0
0
LINE
5
4B
330
22
100
AcDbEntity
8
0
62
3
6
ByBlock
370
-1
48
1.0
60
0
100
AcDbLine
10
2.61333399084588
20
0.83331699566184
30
0.0
11
2.73999999084589
21
0.20998299566184
31
0.0
39
0.0
210
0.0
220
0.0
230
1.0
0
LINE
5
4C
330
22
100
AcDbEntity
8
0
62
3
6
ByBlock
370
-1
48
1.0
60
0
100
AcDbLine
10
2.73999999084589
20
0.20998299566184
30
0.0
11
2.80666699084588
21
-0.44001700433816
31
0.0
39
0.0
210
0.0
220
0.0
230
1.0
0
LINE
5
4D
330
22
100
AcDbEntity
8
0
62
3
6
ByBlock
370
-1
48
1.0
60
0
100
AcDbLine
10
2.80666699084588
20
-0.44001700433816
30
0.0
11
2.80666699084588
21
-0.89668300433816
31
0.0
39
0.0
210
0.0
220
0.0
230
1.0
0
LINE
5
4E
330
22
100
AcDbEntity
8
0
62
3
6
ByBlock
370
-1
48
1.0
60
0
100
AcDbLine
10
2.80666699084588
20
-0.89668300433816
30
0.0
11
2.77999999084589
21
-0.96335000433816
31
0.0
39
0.0
210
0.0
220
0.0
230
1.0
0
LINE
5
4F
330
22
100
AcDbEntity
8
0
62
3
6
ByBlock
370
-1
48
1.0
60
0
100
AcDbLine
10
2.77999999084589
20
-0.96335000433816
30
0.0
11
2.73666699084588
21
-1.00668300433816
31
0.0
39
0.0
210
0.0
220
0.0
230
1.0
0
LINE
5
50
330
22
100
AcDbEntity
8
0
62
3
6
ByBlock
370
-1
48
1.0
60
0
100
AcDbLine
10
2.73666699084588
20
-1.00668300433816
30
0.0
11
2.71333399084589
21
-1.01335000433816
31
0.0
39
0.0
210
0.0
220
0.0
230
1.0
0
LINE
5
51
330
22
100
AcDbEntity
8
0
62
3
6
ByBlock
370
-1
48
1.0
60
0
100
AcDbLine
10
2.71333399084589
20
-1.01335000433816
30
0.0
11
2.65705912233219
21
-1.01962481402625
31
0.0
39
0.0
210
0.0
220
0.0
230
1.0
0
LINE
5
52
330
22
100
AcDbEntity
8
0
62
3
6
ByBlock
370
-1
48
1.0
60
0
100
AcDbLine
10
2.65705912233219
20
-1.01962481402625
30
0.0
11
2.65999999084588
21
-1.21335000433816
31
0.0
39
0.0
210
0.0
220
0.0
230
1.0
0
LINE
5
53
330
22
100
AcDbEntity
8
0
62
3
6
ByBlock
370
-1
48
1.0
60
0
100
AcDbLine
10
2.65999999084588
20
-1.21335000433816
30
0.0
11
2.64999999084589
21
-1.23668300433816
31
0.0
39
0.0
210
0.0
220
0.0
230
1.0
0
LINE
5
54
330
22
100
AcDbEntity
8
0
62
3
6
ByBlock
370
-1
48
1.0
60
0
100
AcDbLine
10
2.64999999084589
20
-1.23668300433816
30
0.0
11
2.64999999084589
21
-1.25335000433816
31
0.0
39
0.0
210
0.0
220
0.0
230
1.0
0
LINE
5
55
330
22
100
AcDbEntity
8
0
62
3
6
ByBlock
370
-1
48
1.0
60
0
100
AcDbLine
10
2.64999999084589
20
-1.25335000433816
30
0.0
11
2.63999999084588
21
-1.26335000433816
31
0.0
39
0.0
210
0.0
220
0.0
230
1.0
0
LINE
5
56
330
22
100
AcDbEntity
8
0
62
3
6
ByBlock
370
-1
48
1.0
60
0
100
AcDbLine
10
2.63999999084588
20
-1.26335000433816
30
0.0
11
2.62999999084589
21
-1.26335000433816
31
0.0
39
0.0
210
0.0
220
0.0
230
1.0
0
LINE
5
57
330
22
100
AcDbEntity
8
0
62
3
6
ByBlock
370
-1
48
1.0
60
0
100
AcDbLine
10
2.62999999084589
20
-1.26335000433816
30
0.0
11
2.62333299084588
21
-1.26668400433816
31
0.0
39
0.0
210
0.0
220
0.0
230
1.0
0
LINE
5
58
330
22
100
AcDbEntity
8
0
62
3
6
ByBlock
370
-1
48
1.0
60
0
100
AcDbLine
10
2.62333299084588
20
-1.26668400433816
30
0.0
11
2.56333299084588
21
-1.27668400433816
31
0.0
39
0.0
210
0.0
220
0.0
230
1.0
0
LINE
5
59
330
22
100
AcDbEntity
8
0
62
3
6
ByBlock
370
-1
48
1.0
60
0
100
AcDbLine
10
2.56333299084588
20
-1.27668400433816
30
0.0
11
2.52666699084589
21
-1.29335000433816
31
0.0
39
0.0
210
0.0
220
0.0
230
1.0
0
LINE
5
5A
330
22
100
AcDbEntity
8
0
62
3
6
ByBlock
370
-1
48
1.0
60
0
100
AcDbLine
10
2.52666699084589
20
-1.29335000433816
30
0.0
11
2.45333299084589
21
-1.27335000433816
31
0.0
39
0.0
210
0.0
220
0.0
230
1.0
0
LINE
5
5B
330
22
100
AcDbEntity
8
0
62
3
6
ByBlock
370
-1
48
1.0
60
0
100
AcDbLine
10
2.45333299084589
20
-1.27335000433816
30
0.0
11
2.41333299084589
21
-1.27001700433816
31
0.0
39
0.0
210
0.0
220
0.0
230
1.0
0
LINE
5
5C
330
22
100
AcDbEntity
8
0
62
3
6
ByBlock
370
-1
48
1.0
60
0
100
AcDbLine
10
2.41333299084589
20
-1.27001700433816
30
0.0
11
2.37999999084589
21
-1.29001700433816
31
0.0
39
0.0
210
0.0
220
0.0
230
1.0
0
LINE
5
5D
330
22
100
AcDbEntity
8
0
62
3
6
ByBlock
370
-1
48
1.0
60
0
100
AcDbLine
10
2.37999999084589
20
-1.29001700433816
30
0.0
11
2.34999999084589
21
-1.30001700433816
31
0.0
39
0.0
210
0.0
220
0.0
230
1.0
0
LINE
5
5E
330
22
100
AcDbEntity
8
0
62
3
6
ByBlock
370
-1
48
1.0
60
0
100
AcDbLine
10
2.34999999084589
20
-1.30001700433816
30
0.0
11
2.30333399084589
21
-1.30335000433816
31
0.0
39
0.0
210
0.0
220
0.0
230
1.0
0
LINE
5
5F
330
22
100
AcDbEntity
8
0
62
3
6
ByBlock
370
-1
48
1.0
60
0
100
AcDbLine
10
2.30333399084589
20
-1.30335000433816
30
0.0
11
2.18333299084588
21
-1.30668400433816
31
0.0
39
0.0
210
0.0
220
0.0
230
1.0
0
LINE
5
60
330
22
100
AcDbEntity
8
0
62
3
6
ByBlock
370
-1
48
1.0
60
0
100
AcDbLine
10
2.18333299084588
20
-1.30668400433816
30
0.0
11
1.98666699084588
21
-1.30668400433816
31
0.0
39
0.0
210
0.0
220
0.0
230
1.0
0
LINE
5
61
330
22
100
AcDbEntity
8
0
62
3
6
ByBlock
370
-1
48
1.0
60
0
100
AcDbLine
10
1.98666699084588
20
-1.30668400433816
30
0.0
11
1.79666699084588
21
-1.32335000433816
31
0.0
39
0.0
210
0.0
220
0.0
230
1.0
0
LINE
5
62
330
22
100
AcDbEntity
8
0
62
3
6
ByBlock
370
-1
48
1.0
60
0
100
AcDbLine
10
1.79666699084588
20
-1.32335000433816
30
0.0
11
1.16333299084588
21
-1.32335000433816
31
0.0
39
0.0
210
0.0
220
0.0
230
1.0
0
LINE
5
63
330
22
100
AcDbEntity
8
0
62
3
6
ByBlock
370
-1
48
1.0
60
0
100
AcDbLine
10
1.16333299084588
20
-1.32335000433816
30
0.0
11
0.95666699084589
21
-1.30668400433816
31
0.0
39
0.0
210
0.0
220
0.0
230
1.0
0
LINE
5
64
330
22
100
AcDbEntity
8
0
62
3
6
ByBlock
370
-1
48
1.0
60
0
100
AcDbLine
10
0.95666699084589
20
-1.30668400433816
30
0.0
11
0.92666699084589
21
-1.31001700433816
31
0.0
39
0.0
210
0.0
220
0.0
230
1.0
0
LINE
5
65
330
22
100
AcDbEntity
8
0
62
3
6
ByBlock
370
-1
48
1.0
60
0
100
AcDbLine
10
0.92666699084589
20
-1.31001700433816
30
0.0
11
0.87946262605393
21
-1.31001700433816
31
0.0
39
0.0
210
0.0
220
0.0
230
1.0
0
LINE
5
66
330
22
100
AcDbEntity
8
0
62
3
6
ByBlock
370
-1
48
1.0
60
0
100
AcDbLine
10
0.87946262605393
20
-1.31001700433816
30
0.0
11
0.82333299084589
21
-1.31001700433816
31
0.0
39
0.0
210
0.0
220
0.0
230
1.0
0
LINE
5
67
330
22
100
AcDbEntity
8
0
62
3
6
ByBlock
370
-1
48
1.0
60
0
100
AcDbLine
10
0.82333299084589
20
-1.31001700433816
30
0.0
11
0.81828298809134
21
-1.30749200296088
31
0.0
39
0.0
210
0.0
220
0.0
230
1.0
0
LINE
5
68
330
22
100
AcDbEntity
8
0
62
3
6
ByBlock
370
-1
48
1.0
60
0
100
AcDbLine
10
0.81828298809134
20
-1.30749200296088
30
0.0
11
0.44333399084589
21
-1.31335000433816
31
0.0
39
0.0
210
0.0
220
0.0
230
1.0
0
LINE
5
69
330
22
100
AcDbEntity
8
0
62
3
6
ByBlock
370
-1
48
1.0
60
0
100
AcDbLine
10
0.44333399084589
20
-1.31335000433816
30
0.0
11
0.43666699084589
21
-1.31668400433816
31
0.0
39
0.0
210
0.0
220
0.0
230
1.0
0
LINE
5
6A
330
22
100
AcDbEntity
8
0
62
3
6
ByBlock
370
-1
48
1.0
60
0
100
AcDbLine
10
0.43666699084589
20
-1.31668400433816
30
0.0
11
-0.33333300915411
21
-1.32335000433816
31
0.0
39
0.0
210
0.0
220
0.0
230
1.0
0
LINE
5
6B
330
22
100
AcDbEntity
8
0
62
3
6
ByBlock
370
-1
48
1.0
60
0
100
AcDbLine
10
-0.33333300915411
20
-1.32335000433816
30
0.0
11
-0.47333300915411
21
-1.31001700433816
31
0.0
39
0.0
210
0.0
220
0.0
230
1.0
0
LINE
5
6C
330
22
100
AcDbEntity
8
0
62
3
6
ByBlock
370
-1
48
1.0
60
0
100
AcDbLine
10
-0.47333300915411
20
-1.31001700433816
30
0.0
11
-0.87333300915411
21
-1.31001700433816
31
0.0
39
0.0
210
0.0
220
0.0
230
1.0
0
LINE
5
6D
330
22
100
AcDbEntity
8
0
62
3
6
ByBlock
370
-1
48
1.0
60
0
100
AcDbLine
10
-0.87333300915411
20
-1.31001700433816
30
0.0
11
-0.89666700915411
21
-1.31001700433816
31
0.0
39
0.0
210
0.0
220
0.0
230
1.0
0
LINE
5
6E
330
22
100
AcDbEntity
8
0
62
3
6
ByBlock
370
-1
48
1.0
60
0
100
AcDbLine
10
-0.89666700915411
20
-1.31001700433816
30
0.0
11
-0.92333300915411
21
-1.31001700433816
31
0.0
39
0.0
210
0.0
220
0.0
230
1.0
0
LINE
5
6F
330
22
100
AcDbEntity
8
0
62
3
6
ByBlock
370
-1
48
1.0
60
0
100
AcDbLine
10
-0.92333300915411
20
-1.31001700433816
30
0.0
11
-0.97333300915411
21
-1.30668400433816
31
0.0
39
0.0
210
0.0
220
0.0
230
1.0
0
LINE
5
70
330
22
100
AcDbEntity
8
0
62
3
6
ByBlock
370
-1
48
1.0
60
0
100
AcDbLine
10
-0.97333300915411
20
-1.30668400433816
30
0.0
11
-1.15333300915411
21
-1.32335000433816
31
0.0
39
0.0
210
0.0
220
0.0
230
1.0
0
LINE
5
71
330
22
100
AcDbEntity
8
0
62
3
6
ByBlock
370
-1
48
1.0
60
0
100
AcDbLine
10
-1.15333300915411
20
-1.32335000433816
30
0.0
11
-1.79333300915411
21
-1.32335000433816
31
0.0
39
0.0
210
0.0
220
0.0
230
1.0
0
LINE
5
72
330
22
100
AcDbEntity
8
0
62
3
6
ByBlock
370
-1
48
1.0
60
0
100
AcDbLine
10
-1.79333300915411
20
-1.32335000433816
30
0.0
11
-1.98333300915411
21
-1.30668400433816
31
0.0
39
0.0
210
0.0
220
0.0
230
1.0
0
LINE
5
73
330
22
100
AcDbEntity
8
0
62
3
6
ByBlock
370
-1
48
1.0
60
0
100
AcDbLine
10
-1.98333300915411
20
-1.30668400433816
30
0.0
11
-2.18000000915411
21
-1.30668400433816
31
0.0
39
0.0
210
0.0
220
0.0
230
1.0
0
LINE
5
74
330
22
100
AcDbEntity
8
0
62
3
6
ByBlock
370
-1
48
1.0
60
0
100
AcDbLine
10
-2.18000000915411
20
-1.30668400433816
30
0.0
11
-2.2228619006489
21
-1.30668400433816
31
0.0
39
0.0
210
0.0
220
0.0
230
1.0
0
LINE
5
75
330
22
100
AcDbEntity
8
0
62
3
6
ByBlock
370
-1
48
1.0
60
0
100
AcDbLine
10
-2.2228619006489
20
-1.30668400433816
30
0.0
11
-2.35333300915411
21
-1.30001700433816
31
0.0
39
0.0
210
0.0
220
0.0
230
1.0
0
LINE
5
76
330
22
100
AcDbEntity
8
0
62
3
6
ByBlock
370
-1
48
1.0
60
0
100
AcDbLine
10
-2.35333300915411
20
-1.30001700433816
30
0.0
11
-2.39000000915411
21
-1.28668400433816
31
0.0
39
0.0
210
0.0
220
0.0
230
1.0
0
LINE
5
77
330
22
100
AcDbEntity
8
0
62
3
6
ByBlock
370
-1
48
1.0
60
0
100
AcDbLine
10
-2.39000000915411
20
-1.28668400433816
30
0.0
11
-2.41666700915411
21
-1.27001700433816
31
0.0
39
0.0
210
0.0
220
0.0
230
1.0
0
LINE
5
78
330
22
100
AcDbEntity
8
0
62
3
6
ByBlock
370
-1
48
1.0
60
0
100
AcDbLine
10
-2.41666700915411
20
-1.27001700433816
30
0.0
11
-2.45333300915411
21
-1.27335000433816
31
0.0
39
0.0
210
0.0
220
0.0
230
1.0
0
LINE
5
79
330
22
100
AcDbEntity
8
0
62
3
6
ByBlock
370
-1
48
1.0
60
0
100
AcDbLine
10
-2.45333300915411
20
-1.27335000433816
30
0.0
11
-2.5144458980541
21
-1.29001700433816
31
0.0
39
0.0
210
0.0
220
0.0
230
1.0
0
LINE
5
7A
330
22
100
AcDbEntity
8
0
62
3
6
ByBlock
370
-1
48
1.0
60
0
100
AcDbLine
10
-2.5144458980541
20
-1.29001700433816
30
0.0
11
-2.52666700915411
21
-1.29335000433816
31
0.0
39
0.0
210
0.0
220
0.0
230
1.0
0
LINE
5
7B
330
22
100
AcDbEntity
8
0
62
3
6
ByBlock
370
-1
48
1.0
60
0
100
AcDbLine
10
-2.52666700915411
20
-1.29335000433816
30
0.0
11
-2.53666700915411
21
-1.29001700433816
31
0.0
39
0.0
210
0.0
220
0.0
230
1.0
0
LINE
5
7C
330
22
100
AcDbEntity
8
0
62
3
6
ByBlock
370
-1
48
1.0
60
0
100
AcDbLine
10
-2.53666700915411
20
-1.29001700433816
30
0.0
11
-2.56333300915411
21
-1.27668400433816
31
0.0
39
0.0
210
0.0
220
0.0
230
1.0
0
LINE
5
7D
330
22
100
AcDbEntity
8
0
62
3
6
ByBlock
370
-1
48
1.0
60
0
100
AcDbLine
10
-2.56333300915411
20
-1.27668400433816
30
0.0
11
-2.62333300915411
21
-1.27001700433816
31
0.0
39
0.0
210
0.0
220
0.0
230
1.0
0
LINE
5
7E
330
22
100
AcDbEntity
8
0
62
3
6
ByBlock
370
-1
48
1.0
60
0
100
AcDbLine
10
-2.62333300915411
20
-1.27001700433816
30
0.0
11
-2.64333300915411
21
-1.26335000433816
31
0.0
39
0.0
210
0.0
220
0.0
230
1.0
0
LINE
5
7F
330
22
100
AcDbEntity
8
0
62
3
6
ByBlock
370
-1
48
1.0
60
0
100
AcDbLine
10
-2.64333300915411
20
-1.26335000433816
30
0.0
11
-2.65333300915411
21
-1.25335000433816
31
0.0
39
0.0
210
0.0
220
0.0
230
1.0
0
LINE
5
80
330
22
100
AcDbEntity
8
0
62
3
6
ByBlock
370
-1
48
1.0
60
0
100
AcDbLine
10
-2.65333300915411
20
-1.25335000433816
30
0.0
11
-2.65333300915411
21
-1.25335000433816
31
0.0
39
0.0
210
0.0
220
0.0
230
1.0
0
LINE
5
81
330
22
100
AcDbEntity
8
0
62
3
6
ByBlock
370
-1
48
1.0
60
0
100
AcDbLine
10
2.63999999084588
20
-1.26335000433816
30
0.0
11
2.63999999084588
21
-1.23001700433816
31
0.0
39
0.0
210
0.0
220
0.0
230
1.0
0
LINE
5
82
330
22
100
AcDbEntity
8
0
62
3
6
ByBlock
370
-1
48
1.0
60
0
100
AcDbLine
10
2.63999999084588
20
-1.23001700433816
30
0.0
11
2.60999999084589
21
-1.10335000433816
31
0.0
39
0.0
210
0.0
220
0.0
230
1.0
0
LINE
5
83
330
22
100
AcDbEntity
8
0
62
3
6
ByBlock
370
-1
48
1.0
60
0
100
AcDbLine
10
2.60999999084589
20
-1.10335000433816
30
0.0
11
2.5971158059379
21
-1.01902329430518
31
0.0
39
0.0
210
0.0
220
0.0
230
1.0
0
LINE
5
84
330
22
100
AcDbEntity
8
0
62
3
6
ByBlock
370
-1
48
1.0
60
0
100
AcDbLine
10
2.5971158059379
20
-1.01902329430518
30
0.0
11
2.59333399084588
21
-1.01335000433816
31
0.0
39
0.0
210
0.0
220
0.0
230
1.0
0
LINE
5
85
330
22
100
AcDbEntity
8
0
62
3
6
ByBlock
370
-1
48
1.0
60
0
100
AcDbLine
10
2.72666699084589
20
-1.01001700433816
30
0.0
11
2.66333299084589
21
-1.01335000433816
31
0.0
39
0.0
210
0.0
220
0.0
230
1.0
0
LINE
5
86
330
22
100
AcDbEntity
8
0
62
3
6
ByBlock
370
-1
48
1.0
60
0
100
AcDbLine
10
2.66333299084589
20
-1.01335000433816
30
0.0
11
2.65705912233219
21
-1.01962481402625
31
0.0
39
0.0
210
0.0
220
0.0
230
1.0
0
LINE
5
87
330
22
100
AcDbEntity
8
0
62
3
6
ByBlock
370
-1
48
1.0
60
0
100
AcDbLine
10
2.65705912233219
20
-1.01962481402625
30
0.0
11
2.64666699084589
21
-1.01001700433816
31
0.0
39
0.0
210
0.0
220
0.0
230
1.0
0
LINE
5
88
330
22
100
AcDbEntity
8
0
62
3
6
ByBlock
370
-1
48
1.0
60
0
100
AcDbLine
10
2.64666699084589
20
-1.01001700433816
30
0.0
11
2.59666699084588
21
-1.01668300433816
31
0.0
39
0.0
210
0.0
220
0.0
230
1.0
0
LINE
5
89
330
22
100
AcDbEntity
8
0
62
3
6
ByBlock
370
-1
48
1.0
60
0
100
AcDbLine
10
2.59666699084588
20
-1.01668300433816
30
0.0
11
2.57500049084587
21
-1.01335000433816
31
0.0
39
0.0
210
0.0
220
0.0
230
1.0
0
LINE
5
8A
330
22
100
AcDbEntity
8
0
62
3
6
ByBlock
370
-1
48
1.0
60
0
100
AcDbLine
10
2.57500049084587
20
-1.01335000433816
30
0.0
11
2.36501708810471
21
-1.01335000433816
31
0.0
39
0.0
210
0.0
220
0.0
230
1.0
0
LINE
5
8B
330
22
100
AcDbEntity
8
0
62
3
6
ByBlock
370
-1
48
1.0
60
0
100
AcDbLine
10
2.32999999084588
20
-1.29335000433816
30
0.0
11
2.26999999084589
21
-1.26001700433816
31
0.0
39
0.0
210
0.0
220
0.0
230
1.0
0
LINE
5
8C
330
22
100
AcDbEntity
8
0
62
3
6
ByBlock
370
-1
48
1.0
60
0
100
AcDbLine
10
2.08333299084589
20
-1.30668400433816
30
0.0
11
2.08999999084589
21
-1.30001700433816
31
0.0
39
0.0
210
0.0
220
0.0
230
1.0
0
LINE
5
8D
330
22
100
AcDbEntity
8
0
62
3
6
ByBlock
370
-1
48
1.0
60
0
100
AcDbLine
10
2.08999999084589
20
-1.30001700433816
30
0.0
11
2.11666699084589
21
-1.29668400433816
31
0.0
39
0.0
210
0.0
220
0.0
230
1.0
0
LINE
5
8E
330
22
100
AcDbEntity
8
0
62
3
6
ByBlock
370
-1
48
1.0
60
0
100
AcDbLine
10
2.11666699084589
20
-1.29668400433816
30
0.0
11
2.24333299084589
21
-1.29001700433816
31
0.0
39
0.0
210
0.0
220
0.0
230
1.0
0
LINE
5
8F
330
22
100
AcDbEntity
8
0
62
3
6
ByBlock
370
-1
48
1.0
60
0
100
AcDbLine
10
2.24333299084589
20
-1.29001700433816
30
0.0
11
2.28333299084589
21
-1.24668300433816
31
0.0
39
0.0
210
0.0
220
0.0
230
1.0
0
LINE
5
90
330
22
100
AcDbEntity
8
0
62
3
6
ByBlock
370
-1
48
1.0
60
0
100
AcDbLine
10
2.28333299084589
20
-1.24668300433816
30
0.0
11
2.26666699084589
21
-1.10001700433816
31
0.0
39
0.0
210
0.0
220
0.0
230
1.0
0
LINE
5
91
330
22
100
AcDbEntity
8
0
62
3
6
ByBlock
370
-1
48
1.0
60
0
100
AcDbLine
10
2.26666699084589
20
-1.10001700433816
30
0.0
11
2.24771982186871
21
-1.03668400433816
31
0.0
39
0.0
210
0.0
220
0.0
230
1.0
0
LINE
5
92
330
22
100
AcDbEntity
8
0
62
3
6
ByBlock
370
-1
48
1.0
60
0
100
AcDbLine
10
2.24771982186871
20
-1.03668400433816
30
0.0
11
2.23999999084589
21
-0.98335000433816
31
0.0
39
0.0
210
0.0
220
0.0
230
1.0
0
LINE
5
93
330
22
100
AcDbEntity
8
0
62
3
6
ByBlock
370
-1
48
1.0
60
0
100
AcDbLine
10
2.23999999084589
20
-0.98335000433816
30
0.0
11
2.20999999084589
21
-0.92335000433816
31
0.0
39
0.0
210
0.0
220
0.0
230
1.0
0
LINE
5
94
330
22
100
AcDbEntity
8
0
62
3
6
ByBlock
370
-1
48
1.0
60
0
100
AcDbLine
10
2.20999999084589
20
-0.92335000433816
30
0.0
11
2.17999999084589
21
-0.70668300433816
31
0.0
39
0.0
210
0.0
220
0.0
230
1.0
0
LINE
5
95
330
22
100
AcDbEntity
8
0
62
3
6
ByBlock
370
-1
48
1.0
60
0
100
AcDbLine
10
2.17999999084589
20
-0.70668300433816
30
0.0
11
2.19999999084588
21
-0.67751686371227
31
0.0
39
0.0
210
0.0
220
0.0
230
1.0
0
LINE
5
96
330
22
100
AcDbEntity
8
0
62
3
6
ByBlock
370
-1
48
1.0
60
0
100
AcDbLine
10
2.19999999084588
20
-0.67751686371227
30
0.0
11
2.24333299084589
21
-0.53668400433816
31
0.0
39
0.0
210
0.0
220
0.0
230
1.0
0
LINE
5
97
330
22
100
AcDbEntity
8
0
62
3
6
ByBlock
370
-1
48
1.0
60
0
100
AcDbLine
10
2.24333299084589
20
-0.53668400433816
30
0.0
11
2.38666699084588
21
-0.30668400433816
31
0.0
39
0.0
210
0.0
220
0.0
230
1.0
0
LINE
5
98
330
22
100
AcDbEntity
8
0
62
3
6
ByBlock
370
-1
48
1.0
60
0
100
AcDbLine
10
2.38666699084588
20
-0.30668400433816
30
0.0
11
2.53666699084589
21
-0.05668400433816
31
0.0
39
0.0
210
0.0
220
0.0
230
1.0
0
LINE
5
99
330
22
100
AcDbEntity
8
0
62
3
6
ByBlock
370
-1
48
1.0
60
0
100
AcDbLine
10
2.53666699084589
20
-0.05668400433816
30
0.0
11
2.44999999084588
21
-0.00668400433816
31
0.0
39
0.0
210
0.0
220
0.0
230
1.0
0
LINE
5
9A
330
22
100
AcDbEntity
8
0
62
3
6
ByBlock
370
-1
48
1.0
60
0
100
AcDbLine
10
2.44999999084588
20
-0.00668400433816
30
0.0
11
2.35999999084589
21
0.03664999566184
31
0.0
39
0.0
210
0.0
220
0.0
230
1.0
0
LINE
5
9B
330
22
100
AcDbEntity
8
0
62
3
6
ByBlock
370
-1
48
1.0
60
0
100
AcDbLine
10
2.35999999084589
20
0.03664999566184
30
0.0
11
2.16666699084589
21
0.09331699566184
31
0.0
39
0.0
210
0.0
220
0.0
230
1.0
0
LINE
5
9C
330
22
100
AcDbEntity
8
0
62
3
6
ByBlock
370
-1
48
1.0
60
0
100
AcDbLine
10
2.16666699084589
20
0.09331699566184
30
0.0
11
2.14242429663022
21
0.10826628032826
31
0.0
39
0.0
210
0.0
220
0.0
230
1.0
0
LINE
5
9D
330
22
100
AcDbEntity
8
0
62
3
6
ByBlock
370
-1
48
1.0
60
0
100
AcDbLine
10
2.14242429663022
20
0.10826628032826
30
0.0
11
2.17416674084589
21
0.17039937066184
31
0.0
39
0.0
210
0.0
220
0.0
230
1.0
0
LINE
5
9E
330
22
100
AcDbEntity
8
0
62
3
6
ByBlock
370
-1
48
1.0
60
0
100
AcDbLine
10
2.17416674084589
20
0.17039937066184
30
0.0
11
2.28999999084588
21
0.21664999566184
31
0.0
39
0.0
210
0.0
220
0.0
230
1.0
0
LINE
5
9F
330
22
100
AcDbEntity
8
0
62
3
6
ByBlock
370
-1
48
1.0
60
0
100
AcDbLine
10
2.28999999084588
20
0.21664999566184
30
0.0
11
2.37666699084589
21
0.27664999566184
31
0.0
39
0.0
210
0.0
220
0.0
230
1.0
0
LINE
5
A0
330
22
100
AcDbEntity
8
0
62
3
6
ByBlock
370
-1
48
1.0
60
0
100
AcDbLine
10
2.37666699084589
20
0.27664999566184
30
0.0
11
2.41999999084589
21
0.32998299566184
31
0.0
39
0.0
210
0.0
220
0.0
230
1.0
0
LINE
5
A1
330
22
100
AcDbEntity
8
0
62
3
6
ByBlock
370
-1
48
1.0
60
0
100
AcDbLine
10
2.41999999084589
20
0.32998299566184
30
0.0
11
2.45333299084589
21
0.60664999566184
31
0.0
39
0.0
210
0.0
220
0.0
230
1.0
0
LINE
5
A2
330
22
100
AcDbEntity
8
0
62
3
6
ByBlock
370
-1
48
1.0
60
0
100
AcDbLine
10
2.45333299084589
20
0.60664999566184
30
0.0
11
2.43999999084589
21
0.79998299566184
31
0.0
39
0.0
210
0.0
220
0.0
230
1.0
0
LINE
5
A3
330
22
100
AcDbEntity
8
0
62
3
6
ByBlock
370
-1
48
1.0
60
0
100
AcDbLine
10
2.43999999084589
20
0.79998299566184
30
0.0
11
2.42333399084588
21
0.89331699566184
31
0.0
39
0.0
210
0.0
220
0.0
230
1.0
0
LINE
5
A4
330
22
100
AcDbEntity
8
0
62
3
6
ByBlock
370
-1
48
1.0
60
0
100
AcDbLine
10
2.42333399084588
20
0.89331699566184
30
0.0
11
2.35333299084588
21
1.04664999566184
31
0.0
39
0.0
210
0.0
220
0.0
230
1.0
0
LINE
5
A5
330
22
100
AcDbEntity
8
0
62
3
6
ByBlock
370
-1
48
1.0
60
0
100
AcDbLine
10
2.35333299084588
20
1.04664999566184
30
0.0
11
2.25999999084589
21
1.08664999566184
31
0.0
39
0.0
210
0.0
220
0.0
230
1.0
0
LINE
5
A6
330
22
100
AcDbEntity
8
0
62
3
6
ByBlock
370
-1
48
1.0
60
0
100
AcDbLine
10
2.25999999084589
20
1.08664999566184
30
0.0
11
1.82778325243993
21
1.08972458478437
31
0.0
39
0.0
210
0.0
220
0.0
230
1.0
0
LINE
5
A7
330
22
100
AcDbEntity
8
0
62
3
6
ByBlock
370
-1
48
1.0
60
0
100
AcDbLine
10
1.82778325243993
20
1.08972458478437
30
0.0
11
1.43371519492412
21
1.08972458478437
31
0.0
39
0.0
210
0.0
220
0.0
230
1.0
0
LINE
5
A8
330
22
100
AcDbEntity
8
0
62
3
6
ByBlock
370
-1
48
1.0
60
0
100
AcDbLine
10
1.43371519492412
20
1.08972458478437
30
0.0
11
1.09962256891951
21
1.08972458478437
31
0.0
39
0.0
210
0.0
220
0.0
230
1.0
0
LINE
5
A9
330
22
100
AcDbEntity
8
0
62
3
6
ByBlock
370
-1
48
1.0
60
0
100
AcDbLine
10
1.09962256891951
20
1.08972458478437
30
0.0
11
0.86666699084589
21
1.07331699566184
31
0.0
39
0.0
210
0.0
220
0.0
230
1.0
0
LINE
5
AA
330
22
100
AcDbEntity
8
0
62
3
6
ByBlock
370
-1
48
1.0
60
0
100
AcDbLine
10
0.86666699084589
20
1.07331699566184
30
0.0
11
0.7753112124756
21
1.03416437938666
31
0.0
39
0.0
210
0.0
220
0.0
230
1.0
0
LINE
5
AB
330
22
100
AcDbEntity
8
0
62
3
6
ByBlock
370
-1
48
1.0
60
0
100
AcDbLine
10
0.7753112124756
20
1.03416437938666
30
0.0
11
0.75333399084589
21
0.99998299566184
31
0.0
39
0.0
210
0.0
220
0.0
230
1.0
0
LINE
5
AC
330
22
100
AcDbEntity
8
0
62
3
6
ByBlock
370
-1
48
1.0
60
0
100
AcDbLine
10
0.75333399084589
20
0.99998299566184
30
0.0
11
0.75333399084589
21
0.08998299566184
31
0.0
39
0.0
210
0.0
220
0.0
230
1.0
0
LINE
5
AD
330
22
100
AcDbEntity
8
0
62
3
6
ByBlock
370
-1
48
1.0
60
0
100
AcDbLine
10
0.75333399084589
20
0.08998299566184
30
0.0
11
0.78333299084589
21
0.04998299566184
31
0.0
39
0.0
210
0.0
220
0.0
230
1.0
0
LINE
5
AE
330
22
100
AcDbEntity
8
0
62
3
6
ByBlock
370
-1
48
1.0
60
0
100
AcDbLine
10
0.78333299084589
20
0.04998299566184
30
0.0
11
0.94999999084589
21
0.01998299566184
31
0.0
39
0.0
210
0.0
220
0.0
230
1.0
0
LINE
5
AF
330
22
100
AcDbEntity
8
0
62
3
6
ByBlock
370
-1
48
1.0
60
0
100
AcDbLine
10
0.94999999084589
20
0.01998299566184
30
0.0
11
1.41999999084588
21
0.00331599566184
31
0.0
39
0.0
210
0.0
220
0.0
230
1.0
0
LINE
5
B0
330
22
100
AcDbEntity
8
0
62
3
6
ByBlock
370
-1
48
1.0
60
0
100
AcDbLine
10
1.41999999084588
20
0.00331599566184
30
0.0
11
1.42168046443924
21
0.00365215087635
31
0.0
39
0.0
210
0.0
220
0.0
230
1.0
0
LINE
5
B1
330
22
100
AcDbEntity
8
0
62
3
6
ByBlock
370
-1
48
1.0
60
0
100
AcDbLine
10
1.42168046443924
20
0.00365215087635
30
0.0
11
1.23666699084588
21
-0.32001700433816
31
0.0
39
0.0
210
0.0
220
0.0
230
1.0
0
LINE
5
B2
330
22
100
AcDbEntity
8
0
62
3
6
ByBlock
370
-1
48
1.0
60
0
100
AcDbLine
10
1.23666699084588
20
-0.32001700433816
30
0.0
11
1.51333299084589
21
-0.50001700433816
31
0.0
39
0.0
210
0.0
220
0.0
230
1.0
0
LINE
5
B3
330
22
100
AcDbEntity
8
0
62
3
6
ByBlock
370
-1
48
1.0
60
0
100
AcDbLine
10
1.51333299084589
20
-0.50001700433816
30
0.0
11
2.01333299084589
21
-0.66335000433816
31
0.0
39
0.0
210
0.0
220
0.0
230
1.0
0
LINE
5
B4
330
22
100
AcDbEntity
8
0
62
3
6
ByBlock
370
-1
48
1.0
60
0
100
AcDbLine
10
2.01333299084589
20
-0.66335000433816
30
0.0
11
2.18333299084588
21
-0.71668400433816
31
0.0
39
0.0
210
0.0
220
0.0
230
1.0
0
LINE
5
B5
330
22
100
AcDbEntity
8
0
62
3
6
ByBlock
370
-1
48
1.0
60
0
100
AcDbLine
10
1.42168046443924
20
0.00365215087635
30
0.0
11
1.47333299084588
21
0.09664999566184
31
0.0
39
0.0
210
0.0
220
0.0
230
1.0
0
LINE
5
B6
330
22
100
AcDbEntity
8
0
62
3
6
ByBlock
370
-1
48
1.0
60
0
100
AcDbLine
10
1.47333299084588
20
0.09664999566184
30
0.0
11
1.52333399084588
21
0.17664999566184
31
0.0
39
0.0
210
0.0
220
0.0
230
1.0
0
LINE
5
B7
330
22
100
AcDbEntity
8
0
62
3
6
ByBlock
370
-1
48
1.0
60
0
100
AcDbLine
10
1.52333399084588
20
0.17664999566184
30
0.0
11
1.56333299084589
21
0.21998299566184
31
0.0
39
0.0
210
0.0
220
0.0
230
1.0
0
LINE
5
B8
330
22
100
AcDbEntity
8
0
62
3
6
ByBlock
370
-1
48
1.0
60
0
100
AcDbLine
10
1.56333299084589
20
0.21998299566184
30
0.0
11
1.72999999084588
21
0.20998299566184
31
0.0
39
0.0
210
0.0
220
0.0
230
1.0
0
LINE
5
B9
330
22
100
AcDbEntity
8
0
62
3
6
ByBlock
370
-1
48
1.0
60
0
100
AcDbLine
10
1.72999999084588
20
0.20998299566184
30
0.0
11
1.87666699084589
21
0.17998299566184
31
0.0
39
0.0
210
0.0
220
0.0
230
1.0
0
LINE
5
BA
330
22
100
AcDbEntity
8
0
62
3
6
ByBlock
370
-1
48
1.0
60
0
100
AcDbLine
10
1.87666699084589
20
0.17998299566184
30
0.0
11
1.92260113236511
21
0.17410675582161
31
0.0
39
0.0
210
0.0
220
0.0
230
1.0
0
LINE
5
BB
330
22
100
AcDbEntity
8
0
62
3
6
ByBlock
370
-1
48
1.0
60
0
100
AcDbLine
10
1.92260113236511
20
0.17410675582161
30
0.0
11
2.07666699084588
21
0.13331699566184
31
0.0
39
0.0
210
0.0
220
0.0
230
1.0
0
LINE
5
BC
330
22
100
AcDbEntity
8
0
62
3
6
ByBlock
370
-1
48
1.0
60
0
100
AcDbLine
10
2.07666699084588
20
0.13331699566184
30
0.0
11
2.14333299084588
21
0.10664999566184
31
0.0
39
0.0
210
0.0
220
0.0
230
1.0
0
LINE
5
BD
330
22
100
AcDbEntity
8
0
62
3
6
ByBlock
370
-1
48
1.0
60
0
100
AcDbLine
10
0.75333399084589
20
0.98998299566184
30
0.0
11
0.73999999084589
21
1.03331699566184
31
0.0
39
0.0
210
0.0
220
0.0
230
1.0
0
LINE
5
BE
330
22
100
AcDbEntity
8
0
62
3
6
ByBlock
370
-1
48
1.0
60
0
100
AcDbLine
10
0.73999999084589
20
1.03331699566184
30
0.0
11
0.64666699084589
21
1.07331699566184
31
0.0
39
0.0
210
0.0
220
0.0
230
1.0
0
LINE
5
BF
330
22
100
AcDbEntity
8
0
62
3
6
ByBlock
370
-1
48
1.0
60
0
100
AcDbLine
10
0.64666699084589
20
1.07331699566184
30
0.0
11
-0.00000000915411
21
1.09664999566184
31
0.0
39
0.0
210
0.0
220
0.0
230
1.0
0
LINE
5
C0
330
22
100
AcDbEntity
8
0
62
3
6
ByBlock
370
-1
48
1.0
60
0
100
AcDbLine
10
-0.00000000915411
20
1.09664999566184
30
0.0
11
-0.49000137053547
21
1.08229081046454
31
0.0
39
0.0
210
0.0
220
0.0
230
1.0
0
LINE
5
C1
330
22
100
AcDbEntity
8
0
62
3
6
ByBlock
370
-1
48
1.0
60
0
100
AcDbLine
10
-0.49000137053547
20
1.08229081046454
30
0.0
11
-0.65666700915411
21
1.06664999566184
31
0.0
39
0.0
210
0.0
220
0.0
230
1.0
0
LINE
5
C2
330
22
100
AcDbEntity
8
0
62
3
6
ByBlock
370
-1
48
1.0
60
0
100
AcDbLine
10
-0.65666700915411
20
1.06664999566184
30
0.0
11
-0.73414666696383
21
1.03441236040278
31
0.0
39
0.0
210
0.0
220
0.0
230
1.0
0
LINE
5
C3
330
22
100
AcDbEntity
8
0
62
3
6
ByBlock
370
-1
48
1.0
60
0
100
AcDbLine
10
-0.73414666696383
20
1.03441236040278
30
0.0
11
-0.75124958208405
21
0.99539988104336
31
0.0
39
0.0
210
0.0
220
0.0
230
1.0
0
LINE
5
C4
330
22
100
AcDbEntity
8
0
62
3
6
ByBlock
370
-1
48
1.0
60
0
100
AcDbLine
10
-0.75124958208405
20
0.99539988104336
30
0.0
11
-0.75333300915411
21
0.10998299566184
31
0.0
39
0.0
210
0.0
220
0.0
230
1.0
0
LINE
5
C5
330
22
100
AcDbEntity
8
0
62
3
6
ByBlock
370
-1
48
1.0
60
0
100
AcDbLine
10
-0.75333300915411
20
0.10998299566184
30
0.0
11
-0.71000000915411
21
0.04998299566184
31
0.0
39
0.0
210
0.0
220
0.0
230
1.0
0
LINE
5
C6
330
22
100
AcDbEntity
8
0
62
3
6
ByBlock
370
-1
48
1.0
60
0
100
AcDbLine
10
-0.71000000915411
20
0.04998299566184
30
0.0
11
-0.49666600915411
21
0.01331599566184
31
0.0
39
0.0
210
0.0
220
0.0
230
1.0
0
LINE
5
C7
330
22
100
AcDbEntity
8
0
62
3
6
ByBlock
370
-1
48
1.0
60
0
100
AcDbLine
10
-0.49666600915411
20
0.01331599566184
30
0.0
11
-0.51666700915411
21
-0.46668300433816
31
0.0
39
0.0
210
0.0
220
0.0
230
1.0
0
LINE
5
C8
330
22
100
AcDbEntity
8
0
62
3
6
ByBlock
370
-1
48
1.0
60
0
100
AcDbLine
10
-0.51666700915411
20
-0.46668300433816
30
0.0
11
-0.57000000915411
21
-0.56001700433816
31
0.0
39
0.0
210
0.0
220
0.0
230
1.0
0
LINE
5
C9
330
22
100
AcDbEntity
8
0
62
3
6
ByBlock
370
-1
48
1.0
60
0
100
AcDbLine
10
-0.57000000915411
20
-0.56001700433816
30
0.0
11
-0.47666600915411
21
-0.59335000433816
31
0.0
39
0.0
210
0.0
220
0.0
230
1.0
0
LINE
5
CA
330
22
100
AcDbEntity
8
0
62
3
6
ByBlock
370
-1
48
1.0
60
0
100
AcDbLine
10
-0.47666600915411
20
-0.59335000433816
30
0.0
11
0.34441877873077
21
-0.59150126263484
31
0.0
39
0.0
210
0.0
220
0.0
230
1.0
0
LINE
5
CB
330
22
100
AcDbEntity
8
0
62
3
6
ByBlock
370
-1
48
1.0
60
0
100
AcDbLine
10
0.34441877873077
20
-0.59150126263484
30
0.0
11
0.51481609720659
21
-0.57421415940783
31
0.0
39
0.0
210
0.0
220
0.0
230
1.0
0
LINE
5
CC
330
22
100
AcDbEntity
8
0
62
3
6
ByBlock
370
-1
48
1.0
60
0
100
AcDbLine
10
0.51481609720659
20
-0.57421415940783
30
0.0
11
0.47999999084589
21
-0.41335000433816
31
0.0
39
0.0
210
0.0
220
0.0
230
1.0
0
LINE
5
CD
330
22
100
AcDbEntity
8
0
62
3
6
ByBlock
370
-1
48
1.0
60
0
100
AcDbLine
10
0.47999999084589
20
-0.41335000433816
30
0.0
11
0.53333299084589
21
0.01998299566184
31
0.0
39
0.0
210
0.0
220
0.0
230
1.0
0
LINE
5
CE
330
22
100
AcDbEntity
8
0
62
3
6
ByBlock
370
-1
48
1.0
60
0
100
AcDbLine
10
0.53333299084589
20
0.01998299566184
30
0.0
11
0.71999999084589
21
0.04331699566184
31
0.0
39
0.0
210
0.0
220
0.0
230
1.0
0
LINE
5
CF
330
22
100
AcDbEntity
8
0
62
3
6
ByBlock
370
-1
48
1.0
60
0
100
AcDbLine
10
0.71999999084589
20
0.04331699566184
30
0.0
11
0.75333399084589
21
0.08998299566184
31
0.0
39
0.0
210
0.0
220
0.0
230
1.0
0
LINE
5
D0
330
22
100
AcDbEntity
8
0
62
3
6
ByBlock
370
-1
48
1.0
60
0
100
AcDbLine
10
-0.49666600915411
20
0.01331599566184
30
0.0
11
-0.49523757031627
21
0.14807872016957
31
0.0
39
0.0
210
0.0
220
0.0
230
1.0
0
LINE
5
D1
330
22
100
AcDbEntity
8
0
62
3
6
ByBlock
370
-1
48
1.0
60
0
100
AcDbLine
10
-0.49523757031627
20
0.14807872016957
30
0.0
11
-0.43333300915411
21
0.16664999566184
31
0.0
39
0.0
210
0.0
220
0.0
230
1.0
0
LINE
5
D2
330
22
100
AcDbEntity
8
0
62
3
6
ByBlock
370
-1
48
1.0
60
0
100
AcDbLine
10
-0.43333300915411
20
0.16664999566184
30
0.0
11
-0.09732292935572
21
0.15331599566184
31
0.0
39
0.0
210
0.0
220
0.0
230
1.0
0
LINE
5
D3
330
22
100
AcDbEntity
8
0
62
3
6
ByBlock
370
-1
48
1.0
60
0
100
AcDbLine
10
-0.09732292935572
20
0.15331599566184
30
0.0
11
0.06999999084589
21
0.15331599566184
31
0.0
39
0.0
210
0.0
220
0.0
230
1.0
0
LINE
5
D4
330
22
100
AcDbEntity
8
0
62
3
6
ByBlock
370
-1
48
1.0
60
0
100
AcDbLine
10
0.06999999084589
20
0.15331599566184
30
0.0
11
0.21999999084589
21
0.15998299566184
31
0.0
39
0.0
210
0.0
220
0.0
230
1.0
0
LINE
5
D5
330
22
100
AcDbEntity
8
0
62
3
6
ByBlock
370
-1
48
1.0
60
0
100
AcDbLine
10
0.21999999084589
20
0.15998299566184
30
0.0
11
0.25999999084589
21
0.16664999566184
31
0.0
39
0.0
210
0.0
220
0.0
230
1.0
0
LINE
5
D6
330
22
100
AcDbEntity
8
0
62
3
6
ByBlock
370
-1
48
1.0
60
0
100
AcDbLine
10
0.25999999084589
20
0.16664999566184
30
0.0
11
0.39666699084589
21
0.16664999566184
31
0.0
39
0.0
210
0.0
220
0.0
230
1.0
0
LINE
5
D7
330
22
100
AcDbEntity
8
0
62
3
6
ByBlock
370
-1
48
1.0
60
0
100
AcDbLine
10
0.39666699084589
20
0.16664999566184
30
0.0
11
0.44666699084589
21
0.17998299566184
31
0.0
39
0.0
210
0.0
220
0.0
230
1.0
0
LINE
5
D8
330
22
100
AcDbEntity
8
0
62
3
6
ByBlock
370
-1
48
1.0
60
0
100
AcDbLine
10
0.44666699084589
20
0.17998299566184
30
0.0
11
0.55666699084589
21
0.15331599566184
31
0.0
39
0.0
210
0.0
220
0.0
230
1.0
0
LINE
5
D9
330
22
100
AcDbEntity
8
0
62
3
6
ByBlock
370
-1
48
1.0
60
0
100
AcDbLine
10
0.55666699084589
20
0.15331599566184
30
0.0
11
0.53333299084589
21
0.01998299566184
31
0.0
39
0.0
210
0.0
220
0.0
230
1.0
0
LINE
5
DA
330
22
100
AcDbEntity
8
0
62
3
6
ByBlock
370
-1
48
1.0
60
0
100
AcDbLine
10
-0.75666700915411
20
0.98998299566184
30
0.0
11
-0.78000000915411
21
1.03664999566184
31
0.0
39
0.0
210
0.0
220
0.0
230
1.0
0
LINE
5
DB
330
22
100
AcDbEntity
8
0
62
3
6
ByBlock
370
-1
48
1.0
60
0
100
AcDbLine
10
-0.78000000915411
20
1.03664999566184
30
0.0
11
-0.87000000915411
21
1.07331699566184
31
0.0
39
0.0
210
0.0
220
0.0
230
1.0
0
LINE
5
DC
330
22
100
AcDbEntity
8
0
62
3
6
ByBlock
370
-1
48
1.0
60
0
100
AcDbLine
10
-0.87000000915411
20
1.07331699566184
30
0.0
11
-1.14333300915411
21
1.08998299566184
31
0.0
39
0.0
210
0.0
220
0.0
230
1.0
0
LINE
5
DD
330
22
100
AcDbEntity
8
0
62
3
6
ByBlock
370
-1
48
1.0
60
0
100
AcDbLine
10
-1.14333300915411
20
1.08998299566184
30
0.0
11
-1.4537723289915
21
1.08998299566184
31
0.0
39
0.0
210
0.0
220
0.0
230
1.0
0
LINE
5
DE
330
22
100
AcDbEntity
8
0
62
3
6
ByBlock
370
-1
48
1.0
60
0
100
AcDbLine
10
-1.4537723289915
20
1.08998299566184
30
0.0
11
-1.86565636391361
21
1.08998299566184
31
0.0
39
0.0
210
0.0
220
0.0
230
1.0
0
LINE
5
DF
330
22
100
AcDbEntity
8
0
62
3
6
ByBlock
370
-1
48
1.0
60
0
100
AcDbLine
10
-1.86565636391361
20
1.08998299566184
30
0.0
11
-2.26000000915411
21
1.08664999566184
31
0.0
39
0.0
210
0.0
220
0.0
230
1.0
0
LINE
5
E0
330
22
100
AcDbEntity
8
0
62
3
6
ByBlock
370
-1
48
1.0
60
0
100
AcDbLine
10
-2.26000000915411
20
1.08664999566184
30
0.0
11
-2.35000000915411
21
1.04998299566184
31
0.0
39
0.0
210
0.0
220
0.0
230
1.0
0
LINE
5
E1
330
22
100
AcDbEntity
8
0
62
3
6
ByBlock
370
-1
48
1.0
60
0
100
AcDbLine
10
-2.35000000915411
20
1.04998299566184
30
0.0
11
-2.42333300915411
21
0.90664999566184
31
0.0
39
0.0
210
0.0
220
0.0
230
1.0
0
LINE
5
E2
330
22
100
AcDbEntity
8
0
62
3
6
ByBlock
370
-1
48
1.0
60
0
100
AcDbLine
10
-2.42333300915411
20
0.90664999566184
30
0.0
11
-2.44175453962376
21
0.80664999566184
31
0.0
39
0.0
210
0.0
220
0.0
230
1.0
0
LINE
5
E3
330
22
100
AcDbEntity
8
0
62
3
6
ByBlock
370
-1
48
1.0
60
0
100
AcDbLine
10
-2.44175453962376
20
0.80664999566184
30
0.0
11
-2.45666700915411
21
0.60331699566184
31
0.0
39
0.0
210
0.0
220
0.0
230
1.0
0
LINE
5
E4
330
22
100
AcDbEntity
8
0
62
3
6
ByBlock
370
-1
48
1.0
60
0
100
AcDbLine
10
-2.45666700915411
20
0.60331699566184
30
0.0
11
-2.42333300915411
21
0.33331699566184
31
0.0
39
0.0
210
0.0
220
0.0
230
1.0
0
LINE
5
E5
330
22
100
AcDbEntity
8
0
62
3
6
ByBlock
370
-1
48
1.0
60
0
100
AcDbLine
10
-2.42333300915411
20
0.33331699566184
30
0.0
11
-2.39333300915411
21
0.28998299566184
31
0.0
39
0.0
210
0.0
220
0.0
230
1.0
0
LINE
5
E6
330
22
100
AcDbEntity
8
0
62
3
6
ByBlock
370
-1
48
1.0
60
0
100
AcDbLine
10
-2.39333300915411
20
0.28998299566184
30
0.0
11
-2.30098130511212
21
0.22207740282541
31
0.0
39
0.0
210
0.0
220
0.0
230
1.0
0
LINE
5
E7
330
22
100
AcDbEntity
8
0
62
3
6
ByBlock
370
-1
48
1.0
60
0
100
AcDbLine
10
-2.30098130511212
20
0.22207740282541
30
0.0
11
-2.27333300915411
21
0.20331599566184
31
0.0
39
0.0
210
0.0
220
0.0
230
1.0
0
LINE
5
E8
330
22
100
AcDbEntity
8
0
62
3
6
ByBlock
370
-1
48
1.0
60
0
100
AcDbLine
10
-2.27333300915411
20
0.20331599566184
30
0.0
11
-2.18000000915411
21
0.17664999566184
31
0.0
39
0.0
210
0.0
220
0.0
230
1.0
0
LINE
5
E9
330
22
100
AcDbEntity
8
0
62
3
6
ByBlock
370
-1
48
1.0
60
0
100
AcDbLine
10
-2.18000000915411
20
0.17664999566184
30
0.0
11
-2.15000000915411
21
0.10664999566184
31
0.0
39
0.0
210
0.0
220
0.0
230
1.0
0
LINE
5
EA
330
22
100
AcDbEntity
8
0
62
3
6
ByBlock
370
-1
48
1.0
60
0
100
AcDbLine
10
-2.15000000915411
20
0.10664999566184
30
0.0
11
-2.27666700915411
21
0.07331699566184
31
0.0
39
0.0
210
0.0
220
0.0
230
1.0
0
LINE
5
EB
330
22
100
AcDbEntity
8
0
62
3
6
ByBlock
370
-1
48
1.0
60
0
100
AcDbLine
10
-2.27666700915411
20
0.07331699566184
30
0.0
11
-2.39297971335749
21
0.03866841641159
31
0.0
39
0.0
210
0.0
220
0.0
230
1.0
0
LINE
5
EC
330
22
100
AcDbEntity
8
0
62
3
6
ByBlock
370
-1
48
1.0
60
0
100
AcDbLine
10
-2.39297971335749
20
0.03866841641159
30
0.0
11
-2.50333300915411
21
-0.01335000433816
31
0.0
39
0.0
210
0.0
220
0.0
230
1.0
0
LINE
5
ED
330
22
100
AcDbEntity
8
0
62
3
6
ByBlock
370
-1
48
1.0
60
0
100
AcDbLine
10
-2.50333300915411
20
-0.01335000433816
30
0.0
11
-2.41000000915411
21
-0.20335000433816
31
0.0
39
0.0
210
0.0
220
0.0
230
1.0
0
LINE
5
EE
330
22
100
AcDbEntity
8
0
62
3
6
ByBlock
370
-1
48
1.0
60
0
100
AcDbLine
10
-2.41000000915411
20
-0.20335000433816
30
0.0
11
-2.37666700915411
21
-0.28335000433816
31
0.0
39
0.0
210
0.0
220
0.0
230
1.0
0
LINE
5
EF
330
22
100
AcDbEntity
8
0
62
3
6
ByBlock
370
-1
48
1.0
60
0
100
AcDbLine
10
-2.37666700915411
20
-0.28335000433816
30
0.0
11
-2.26333300915411
21
-0.49001700433816
31
0.0
39
0.0
210
0.0
220
0.0
230
1.0
0
LINE
5
F0
330
22
100
AcDbEntity
8
0
62
3
6
ByBlock
370
-1
48
1.0
60
0
100
AcDbLine
10
-2.26333300915411
20
-0.49001700433816
30
0.0
11
-2.23222257027711
21
-0.59196029319416
31
0.0
39
0.0
210
0.0
220
0.0
230
1.0
0
LINE
5
F1
330
22
100
AcDbEntity
8
0
62
3
6
ByBlock
370
-1
48
1.0
60
0
100
AcDbLine
10
-2.23222257027711
20
-0.59196029319416
30
0.0
11
-2.22000000915411
21
-0.61335000433816
31
0.0
39
0.0
210
0.0
220
0.0
230
1.0
0
LINE
5
F2
330
22
100
AcDbEntity
8
0
62
3
6
ByBlock
370
-1
48
1.0
60
0
100
AcDbLine
10
-2.22000000915411
20
-0.61335000433816
30
0.0
11
-2.19846200028076
21
-0.68411906645161
31
0.0
39
0.0
210
0.0
220
0.0
230
1.0
0
LINE
5
F3
330
22
100
AcDbEntity
8
0
62
3
6
ByBlock
370
-1
48
1.0
60
0
100
AcDbLine
10
-2.19846200028076
20
-0.68411906645161
30
0.0
11
-2.18428607039784
21
-0.69311177476523
31
0.0
39
0.0
210
0.0
220
0.0
230
1.0
0
LINE
5
F4
330
22
100
AcDbEntity
8
0
62
3
6
ByBlock
370
-1
48
1.0
60
0
100
AcDbLine
10
-2.18428607039784
20
-0.69311177476523
30
0.0
11
-2.02666700915411
21
-0.66001700433816
31
0.0
39
0.0
210
0.0
220
0.0
230
1.0
0
LINE
5
F5
330
22
100
AcDbEntity
8
0
62
3
6
ByBlock
370
-1
48
1.0
60
0
100
AcDbLine
10
-2.02666700915411
20
-0.66001700433816
30
0.0
11
-1.77333300915411
21
-0.59001700433816
31
0.0
39
0.0
210
0.0
220
0.0
230
1.0
0
LINE
5
F6
330
22
100
AcDbEntity
8
0
62
3
6
ByBlock
370
-1
48
1.0
60
0
100
AcDbLine
10
-1.77333300915411
20
-0.59001700433816
30
0.0
11
-1.51666700915411
21
-0.53335000433816
31
0.0
39
0.0
210
0.0
220
0.0
230
1.0
0
LINE
5
F7
330
22
100
AcDbEntity
8
0
62
3
6
ByBlock
370
-1
48
1.0
60
0
100
AcDbLine
10
-1.51666700915411
20
-0.53335000433816
30
0.0
11
-1.22666600915411
21
-0.38335000433816
31
0.0
39
0.0
210
0.0
220
0.0
230
1.0
0
LINE
5
F8
330
22
100
AcDbEntity
8
0
62
3
6
ByBlock
370
-1
48
1.0
60
0
100
AcDbLine
10
-1.22666600915411
20
-0.38335000433816
30
0.0
11
-1.22666600915411
21
-0.38335000433816
31
0.0
39
0.0
210
0.0
220
0.0
230
1.0
0
LINE
5
F9
330
22
100
AcDbEntity
8
0
62
3
6
ByBlock
370
-1
48
1.0
60
0
100
AcDbLine
10
-1.22666600915411
20
-0.38335000433816
30
0.0
11
-1.33666700915411
21
-0.19335000433816
31
0.0
39
0.0
210
0.0
220
0.0
230
1.0
0
LINE
5
FA
330
22
100
AcDbEntity
8
0
62
3
6
ByBlock
370
-1
48
1.0
60
0
100
AcDbLine
10
-1.33666700915411
20
-0.19335000433816
30
0.0
11
-1.40520847792637
21
-0.04689116053542
31
0.0
39
0.0
210
0.0
220
0.0
230
1.0
0
LINE
5
FB
330
22
100
AcDbEntity
8
0
62
3
6
ByBlock
370
-1
48
1.0
60
0
100
AcDbLine
10
-1.40520847792637
20
-0.04689116053542
30
0.0
11
-1.42000000915411
21
0.00331599566184
31
0.0
39
0.0
210
0.0
220
0.0
230
1.0
0
LINE
5
FC
330
22
100
AcDbEntity
8
0
62
3
6
ByBlock
370
-1
48
1.0
60
0
100
AcDbLine
10
-1.42000000915411
20
0.00331599566184
30
0.0
11
-1.16333300915411
21
0.00664999566184
31
0.0
39
0.0
210
0.0
220
0.0
230
1.0
0
LINE
5
FD
330
22
100
AcDbEntity
8
0
62
3
6
ByBlock
370
-1
48
1.0
60
0
100
AcDbLine
10
-1.16333300915411
20
0.00664999566184
30
0.0
11
-0.96599714437463
21
0.0189831981439
31
0.0
39
0.0
210
0.0
220
0.0
230
1.0
0
LINE
5
FE
330
22
100
AcDbEntity
8
0
62
3
6
ByBlock
370
-1
48
1.0
60
0
100
AcDbLine
10
-0.96599714437463
20
0.0189831981439
30
0.0
11
-0.79000000915411
21
0.04998299566184
31
0.0
39
0.0
210
0.0
220
0.0
230
1.0
0
LINE
5
FF
330
22
100
AcDbEntity
8
0
62
3
6
ByBlock
370
-1
48
1.0
60
0
100
AcDbLine
10
-0.79000000915411
20
0.04998299566184
30
0.0
11
-0.75333300915411
21
0.10998299566184
31
0.0
39
0.0
210
0.0
220
0.0
230
1.0
0
LINE
5
100
330
22
100
AcDbEntity
8
0
62
3
6
ByBlock
370
-1
48
1.0
60
0
100
AcDbLine
10
-2.15000000915411
20
0.10664999566184
30
0.0
11
-2.02190075006811
21
0.14193482641165
31
0.0
39
0.0
210
0.0
220
0.0
230
1.0
0
LINE
5
101
330
22
100
AcDbEntity
8
0
62
3
6
ByBlock
370
-1
48
1.0
60
0
100
AcDbLine
10
-2.02190075006811
20
0.14193482641165
30
0.0
11
-1.89666700915411
21
0.16331599566184
31
0.0
39
0.0
210
0.0
220
0.0
230
1.0
0
LINE
5
102
330
22
100
AcDbEntity
8
0
62
3
6
ByBlock
370
-1
48
1.0
60
0
100
AcDbLine
10
-1.89666700915411
20
0.16331599566184
30
0.0
11
-1.84000000915411
21
0.17998299566184
31
0.0
39
0.0
210
0.0
220
0.0
230
1.0
0
LINE
5
103
330
22
100
AcDbEntity
8
0
62
3
6
ByBlock
370
-1
48
1.0
60
0
100
AcDbLine
10
-1.84000000915411
20
0.17998299566184
30
0.0
11
-1.66666700915411
21
0.20664999566184
31
0.0
39
0.0
210
0.0
220
0.0
230
1.0
0
LINE
5
104
330
22
100
AcDbEntity
8
0
62
3
6
ByBlock
370
-1
48
1.0
60
0
100
AcDbLine
10
-1.66666700915411
20
0.20664999566184
30
0.0
11
-1.62333300915411
21
0.21664999566184
31
0.0
39
0.0
210
0.0
220
0.0
230
1.0
0
LINE
5
105
330
22
100
AcDbEntity
8
0
62
3
6
ByBlock
370
-1
48
1.0
60
0
100
AcDbLine
10
-1.62333300915411
20
0.21664999566184
30
0.0
11
-1.50000000915411
21
0.22664999566184
31
0.0
39
0.0
210
0.0
220
0.0
230
1.0
0
LINE
5
106
330
22
100
AcDbEntity
8
0
62
3
6
ByBlock
370
-1
48
1.0
60
0
100
AcDbLine
10
-1.50000000915411
20
0.22664999566184
30
0.0
11
-1.48333300915411
21
0.20998299566184
31
0.0
39
0.0
210
0.0
220
0.0
230
1.0
0
LINE
5
107
330
22
100
AcDbEntity
8
0
62
3
6
ByBlock
370
-1
48
1.0
60
0
100
AcDbLine
10
-1.48333300915411
20
0.20998299566184
30
0.0
11
-1.45666700915411
21
0.15664999566184
31
0.0
39
0.0
210
0.0
220
0.0
230
1.0
0
LINE
5
108
330
22
100
AcDbEntity
8
0
62
3
6
ByBlock
370
-1
48
1.0
60
0
100
AcDbLine
10
-1.45666700915411
20
0.15664999566184
30
0.0
11
-1.45666700915411
21
0.15664999566184
31
0.0
39
0.0
210
0.0
220
0.0
230
1.0
0
LINE
5
109
330
22
100
AcDbEntity
8
0
62
3
6
ByBlock
370
-1
48
1.0
60
0
100
AcDbLine
10
-1.45666700915411
20
0.15664999566184
30
0.0
11
-1.42000000915411
21
0.00331599566184
31
0.0
39
0.0
210
0.0
220
0.0
230
1.0
0
LINE
5
10A
330
22
100
AcDbEntity
8
0
62
3
6
ByBlock
370
-1
48
1.0
60
0
100
AcDbLine
10
-2.44616691165459
20
1.24998299566184
30
0.0
11
-2.44333300915411
21
1.18998299566184
31
0.0
39
0.0
210
0.0
220
0.0
230
1.0
0
LINE
5
10B
330
22
100
AcDbEntity
8
0
62
3
6
ByBlock
370
-1
48
1.0
60
0
100
AcDbLine
10
-2.44333300915411
20
1.18998299566184
30
0.0
11
-2.41666700915411
21
1.13664999566184
31
0.0
39
0.0
210
0.0
220
0.0
230
1.0
0
LINE
5
10C
330
22
100
AcDbEntity
8
0
62
3
6
ByBlock
370
-1
48
1.0
60
0
100
AcDbLine
10
-2.41666700915411
20
1.13664999566184
30
0.0
11
-2.39666700915411
21
1.06331699566184
31
0.0
39
0.0
210
0.0
220
0.0
230
1.0
0
LINE
5
10D
330
22
100
AcDbEntity
8
0
62
3
6
ByBlock
370
-1
48
1.0
60
0
100
AcDbLine
10
-2.39666700915411
20
1.06331699566184
30
0.0
11
-2.39666700915411
21
1.04331699566184
31
0.0
39
0.0
210
0.0
220
0.0
230
1.0
0
LINE
5
10E
330
22
100
AcDbEntity
8
0
62
3
6
ByBlock
370
-1
48
1.0
60
0
100
AcDbLine
10
-2.39666700915411
20
1.04331699566184
30
0.0
11
-2.47000000915411
21
0.82331608261042
31
0.0
39
0.0
210
0.0
220
0.0
230
1.0
0
LINE
5
10F
330
22
100
AcDbEntity
8
0
62
3
6
ByBlock
370
-1
48
1.0
60
0
100
AcDbLine
10
-2.47000000915411
20
0.82331608261042
30
0.0
11
-2.47000000915411
21
0.81331699566184
31
0.0
39
0.0
210
0.0
220
0.0
230
1.0
0
LINE
5
110
330
22
100
AcDbEntity
8
0
62
3
6
ByBlock
370
-1
48
1.0
60
0
100
AcDbLine
10
-2.47000000915411
20
0.81331699566184
30
0.0
11
-2.46333300915411
21
0.80664999566184
31
0.0
39
0.0
210
0.0
220
0.0
230
1.0
0
LINE
5
111
330
22
100
AcDbEntity
8
0
62
3
6
ByBlock
370
-1
48
1.0
60
0
100
AcDbLine
10
-2.46333300915411
20
0.80664999566184
30
0.0
11
-2.44175453962376
21
0.80664999566184
31
0.0
39
0.0
210
0.0
220
0.0
230
1.0
0
LINE
5
112
330
22
100
AcDbEntity
8
0
62
3
6
ByBlock
370
-1
48
1.0
60
0
100
AcDbLine
10
2.44257625530713
20
1.24664999566184
30
0.0
11
2.43666699084589
21
1.17998299566184
31
0.0
39
0.0
210
0.0
220
0.0
230
1.0
0
LINE
5
113
330
22
100
AcDbEntity
8
0
62
3
6
ByBlock
370
-1
48
1.0
60
0
100
AcDbLine
10
2.43666699084589
20
1.17998299566184
30
0.0
11
2.41666699084589
21
1.14331699566184
31
0.0
39
0.0
210
0.0
220
0.0
230
1.0
0
LINE
5
114
330
22
100
AcDbEntity
8
0
62
3
6
ByBlock
370
-1
48
1.0
60
0
100
AcDbLine
10
2.41666699084589
20
1.14331699566184
30
0.0
11
2.39333299084588
21
1.05998299566184
31
0.0
39
0.0
210
0.0
220
0.0
230
1.0
0
LINE
5
115
330
22
100
AcDbEntity
8
0
62
3
6
ByBlock
370
-1
48
1.0
60
0
100
AcDbLine
10
2.39333299084588
20
1.05998299566184
30
0.0
11
2.39333299084588
21
1.04331699566184
31
0.0
39
0.0
210
0.0
220
0.0
230
1.0
0
LINE
5
116
330
22
100
AcDbEntity
8
0
62
3
6
ByBlock
370
-1
48
1.0
60
0
100
AcDbLine
10
2.39333299084588
20
1.04331699566184
30
0.0
11
2.46666699084588
21
0.81331699566184
31
0.0
39
0.0
210
0.0
220
0.0
230
1.0
0
LINE
5
117
330
22
100
AcDbEntity
8
0
62
3
6
ByBlock
370
-1
48
1.0
60
0
100
AcDbLine
10
2.46666699084588
20
0.81331699566184
30
0.0
11
2.45999999084589
21
0.80664999566184
31
0.0
39
0.0
210
0.0
220
0.0
230
1.0
0
LINE
5
118
330
22
100
AcDbEntity
8
0
62
3
6
ByBlock
370
-1
48
1.0
60
0
100
AcDbLine
10
2.45999999084589
20
0.80664999566184
30
0.0
11
2.44333399084588
21
0.80331699566184
31
0.0
39
0.0
210
0.0
220
0.0
230
1.0
0
LINE
5
119
330
22
100
AcDbEntity
8
0
62
3
6
ByBlock
370
-1
48
1.0
60
0
100
AcDbLine
10
2.44333399084588
20
0.80331699566184
30
0.0
11
2.43919997646291
21
0.80745038997367
31
0.0
39
0.0
210
0.0
220
0.0
230
1.0
0
LINE
5
11A
330
22
100
AcDbEntity
8
0
62
3
6
ByBlock
370
-1
48
1.0
60
0
100
AcDbLine
10
-2.66666700915411
20
-1.01335000433816
30
0.0
11
-2.36333300915411
21
-1.01335000433816
31
0.0
39
0.0
210
0.0
220
0.0
230
1.0
0
LINE
5
11B
330
22
100
AcDbEntity
8
0
62
3
6
ByBlock
370
-1
48
1.0
60
0
100
AcDbLine
10
-2.59666700915411
20
-1.01335000433816
30
0.0
11
-2.60333300915411
21
-1.02668400433816
31
0.0
39
0.0
210
0.0
220
0.0
230
1.0
0
LINE
5
11C
330
22
100
AcDbEntity
8
0
62
3
6
ByBlock
370
-1
48
1.0
60
0
100
AcDbLine
10
-2.60333300915411
20
-1.02668400433816
30
0.0
11
-2.61333300915411
21
-1.10335000433816
31
0.0
39
0.0
210
0.0
220
0.0
230
1.0
0
LINE
5
11D
330
22
100
AcDbEntity
8
0
62
3
6
ByBlock
370
-1
48
1.0
60
0
100
AcDbLine
10
-2.61333300915411
20
-1.10335000433816
30
0.0
11
-2.64333300915411
21
-1.23335000433816
31
0.0
39
0.0
210
0.0
220
0.0
230
1.0
0
LINE
5
11E
330
22
100
AcDbEntity
8
0
62
3
6
ByBlock
370
-1
48
1.0
60
0
100
AcDbLine
10
-2.64333300915411
20
-1.23335000433816
30
0.0
11
-2.64333300915411
21
-1.26335000433816
31
0.0
39
0.0
210
0.0
220
0.0
230
1.0
0
LINE
5
11F
330
22
100
AcDbEntity
8
0
62
3
6
ByBlock
370
-1
48
1.0
60
0
100
AcDbLine
10
-2.18666700915411
20
-0.69668300433816
30
0.0
11
-2.21333300915411
21
-0.92335000433816
31
0.0
39
0.0
210
0.0
220
0.0
230
1.0
0
LINE
5
120
330
22
100
AcDbEntity
8
0
62
3
6
ByBlock
370
-1
48
1.0
60
0
100
AcDbLine
10
-2.21333300915411
20
-0.92335000433816
30
0.0
11
-2.24333300915411
21
-0.98668300433816
31
0.0
39
0.0
210
0.0
220
0.0
230
1.0
0
LINE
5
121
330
22
100
AcDbEntity
8
0
62
3
6
ByBlock
370
-1
48
1.0
60
0
100
AcDbLine
10
-2.24333300915411
20
-0.98668300433816
30
0.0
11
-2.25000000915411
21
-1.03335000433816
31
0.0
39
0.0
210
0.0
220
0.0
230
1.0
0
LINE
5
122
330
22
100
AcDbEntity
8
0
62
3
6
ByBlock
370
-1
48
1.0
60
0
100
AcDbLine
10
-2.25000000915411
20
-1.03335000433816
30
0.0
11
-2.27000000915411
21
-1.10001700433816
31
0.0
39
0.0
210
0.0
220
0.0
230
1.0
0
LINE
5
123
330
22
100
AcDbEntity
8
0
62
3
6
ByBlock
370
-1
48
1.0
60
0
100
AcDbLine
10
-2.27000000915411
20
-1.10001700433816
30
0.0
11
-2.28666700915411
21
-1.24335000433816
31
0.0
39
0.0
210
0.0
220
0.0
230
1.0
0
LINE
5
124
330
22
100
AcDbEntity
8
0
62
3
6
ByBlock
370
-1
48
1.0
60
0
100
AcDbLine
10
-2.28666700915411
20
-1.24335000433816
30
0.0
11
-2.24666700915411
21
-1.29001700433816
31
0.0
39
0.0
210
0.0
220
0.0
230
1.0
0
LINE
5
125
330
22
100
AcDbEntity
8
0
62
3
6
ByBlock
370
-1
48
1.0
60
0
100
AcDbLine
10
-2.24666700915411
20
-1.29001700433816
30
0.0
11
-2.08333300915411
21
-1.30668400433816
31
0.0
39
0.0
210
0.0
220
0.0
230
1.0
0
LINE
5
126
330
22
100
AcDbEntity
8
0
62
3
6
ByBlock
370
-1
48
1.0
60
0
100
AcDbLine
10
-2.32666700915411
20
-1.29001700433816
30
0.0
11
-2.27000000915411
21
-1.26335000433816
31
0.0
39
0.0
210
0.0
220
0.0
230
1.0
0
LINE
5
127
330
22
100
AcDbEntity
8
0
62
3
6
ByBlock
370
-1
48
1.0
60
0
100
AcDbLine
10
-2.32666700915411
20
-1.29001700433816
30
0.0
11
-2.27333300915411
21
-1.26001700433816
31
0.0
39
0.0
210
0.0
220
0.0
230
1.0
0
LINE
5
128
330
22
100
AcDbEntity
8
0
62
3
6
ByBlock
370
-1
48
1.0
60
0
100
AcDbLine
10
-2.24333300915411
20
-0.98668300433816
30
0.0
11
-2.2666670091541
21
-1.21335000433816
31
0.0
39
0.0
210
0.0
220
0.0
230
1.0
0
LINE
5
129
330
22
100
AcDbEntity
8
0
62
3
6
ByBlock
370
-1
48
1.0
60
0
100
AcDbLine
10
-2.2666670091541
20
-1.21335000433816
30
0.0
11
-2.23333300915411
21
-1.25335000433816
31
0.0
39
0.0
210
0.0
220
0.0
230
1.0
0
LINE
5
12A
330
22
100
AcDbEntity
8
0
62
3
6
ByBlock
370
-1
48
1.0
60
0
100
AcDbLine
10
-2.23333300915411
20
-1.25335000433816
30
0.0
11
-1.85666700915411
21
-1.29001700433816
31
0.0
39
0.0
210
0.0
220
0.0
230
1.0
0
LINE
5
12B
330
22
100
AcDbEntity
8
0
62
3
6
ByBlock
370
-1
48
1.0
60
0
100
AcDbLine
10
-1.85666700915411
20
-1.29001700433816
30
0.0
11
-1.4066670091541
21
-1.28001700433816
31
0.0
39
0.0
210
0.0
220
0.0
230
1.0
0
LINE
5
12C
330
22
100
AcDbEntity
8
0
62
3
6
ByBlock
370
-1
48
1.0
60
0
100
AcDbLine
10
-1.4066670091541
20
-1.28001700433816
30
0.0
11
-1.09666700915411
21
-1.29001700433816
31
0.0
39
0.0
210
0.0
220
0.0
230
1.0
0
LINE
5
12D
330
22
100
AcDbEntity
8
0
62
3
6
ByBlock
370
-1
48
1.0
60
0
100
AcDbLine
10
-1.09666700915411
20
-1.29001700433816
30
0.0
11
-0.79333300915411
21
-1.25335000433816
31
0.0
39
0.0
210
0.0
220
0.0
230
1.0
0
LINE
5
12E
330
22
100
AcDbEntity
8
0
62
3
6
ByBlock
370
-1
48
1.0
60
0
100
AcDbLine
10
-0.79333300915411
20
-1.25335000433816
30
0.0
11
-0.76000000915411
21
-1.21335000433816
31
0.0
39
0.0
210
0.0
220
0.0
230
1.0
0
LINE
5
12F
330
22
100
AcDbEntity
8
0
62
3
6
ByBlock
370
-1
48
1.0
60
0
100
AcDbLine
10
-0.76000000915411
20
-1.21335000433816
30
0.0
11
-0.75000000915411
21
-0.92668300433816
31
0.0
39
0.0
210
0.0
220
0.0
230
1.0
0
LINE
5
130
330
22
100
AcDbEntity
8
0
62
3
6
ByBlock
370
-1
48
1.0
60
0
100
AcDbLine
10
-0.75000000915411
20
-0.92668300433816
30
0.0
11
-0.75333300915411
21
0.10998299566184
31
0.0
39
0.0
210
0.0
220
0.0
230
1.0
0
LINE
5
131
330
22
100
AcDbEntity
8
0
62
3
6
ByBlock
370
-1
48
1.0
60
0
100
AcDbLine
10
-0.74666600915411
20
0.10998299566184
30
0.0
11
-0.75000000915411
21
-0.92668300433816
31
0.0
39
0.0
210
0.0
220
0.0
230
1.0
0
LINE
5
132
330
22
100
AcDbEntity
8
0
62
3
6
ByBlock
370
-1
48
1.0
60
0
100
AcDbLine
10
-0.75000000915411
20
-0.92668300433816
30
0.0
11
-0.74000000915411
21
-1.21335000433816
31
0.0
39
0.0
210
0.0
220
0.0
230
1.0
0
LINE
5
133
330
22
100
AcDbEntity
8
0
62
3
6
ByBlock
370
-1
48
1.0
60
0
100
AcDbLine
10
-0.74000000915411
20
-1.21335000433816
30
0.0
11
-0.70000000915411
21
-1.25668300433816
31
0.0
39
0.0
210
0.0
220
0.0
230
1.0
0
LINE
5
134
330
22
100
AcDbEntity
8
0
62
3
6
ByBlock
370
-1
48
1.0
60
0
100
AcDbLine
10
-0.70000000915411
20
-1.25668300433816
30
0.0
11
-0.40333300915411
21
-1.29001700433816
31
0.0
39
0.0
210
0.0
220
0.0
230
1.0
0
LINE
5
135
330
22
100
AcDbEntity
8
0
62
3
6
ByBlock
370
-1
48
1.0
60
0
100
AcDbLine
10
-0.40333300915411
20
-1.29001700433816
30
0.0
11
0.39000967152486
21
-1.29001700433816
31
0.0
39
0.0
210
0.0
220
0.0
230
1.0
0
LINE
5
136
330
22
100
AcDbEntity
8
0
62
3
6
ByBlock
370
-1
48
1.0
60
0
100
AcDbLine
10
0.39000967152486
20
-1.29001700433816
30
0.0
11
0.71666699084589
21
-1.25001700433816
31
0.0
39
0.0
210
0.0
220
0.0
230
1.0
0
LINE
5
137
330
22
100
AcDbEntity
8
0
62
3
6
ByBlock
370
-1
48
1.0
60
0
100
AcDbLine
10
0.71666699084589
20
-1.25001700433816
30
0.0
11
0.74666699084589
21
-1.21001700433816
31
0.0
39
0.0
210
0.0
220
0.0
230
1.0
0
LINE
5
138
330
22
100
AcDbEntity
8
0
62
3
6
ByBlock
370
-1
48
1.0
60
0
100
AcDbLine
10
0.74666699084589
20
-1.21001700433816
30
0.0
11
0.74666699084589
21
0.08064951567144
31
0.0
39
0.0
210
0.0
220
0.0
230
1.0
0
LINE
5
139
330
22
100
AcDbEntity
8
0
62
3
6
ByBlock
370
-1
48
1.0
60
0
100
AcDbLine
10
0.75333399084589
20
0.08998299566184
30
0.0
11
0.75666699084589
21
-1.21335000433816
31
0.0
39
0.0
210
0.0
220
0.0
230
1.0
0
LINE
5
13A
330
22
100
AcDbEntity
8
0
62
3
6
ByBlock
370
-1
48
1.0
60
0
100
AcDbLine
10
0.75666699084589
20
-1.21335000433816
30
0.0
11
0.79999999084589
21
-1.25668300433816
31
0.0
39
0.0
210
0.0
220
0.0
230
1.0
0
LINE
5
13B
330
22
100
AcDbEntity
8
0
62
3
6
ByBlock
370
-1
48
1.0
60
0
100
AcDbLine
10
0.79999999084589
20
-1.25668300433816
30
0.0
11
1.10015345157351
21
-1.28978968822285
31
0.0
39
0.0
210
0.0
220
0.0
230
1.0
0
LINE
5
13C
330
22
100
AcDbEntity
8
0
62
3
6
ByBlock
370
-1
48
1.0
60
0
100
AcDbLine
10
1.10015345157351
20
-1.28978968822285
30
0.0
11
1.53666699084589
21
-1.28001700433816
31
0.0
39
0.0
210
0.0
220
0.0
230
1.0
0
LINE
5
13D
330
22
100
AcDbEntity
8
0
62
3
6
ByBlock
370
-1
48
1.0
60
0
100
AcDbLine
10
1.53666699084589
20
-1.28001700433816
30
0.0
11
1.84999999084589
21
-1.29001700433816
31
0.0
39
0.0
210
0.0
220
0.0
230
1.0
0
LINE
5
13E
330
22
100
AcDbEntity
8
0
62
3
6
ByBlock
370
-1
48
1.0
60
0
100
AcDbLine
10
1.84999999084589
20
-1.29001700433816
30
0.0
11
2.22341078397819
21
-1.25398581078084
31
0.0
39
0.0
210
0.0
220
0.0
230
1.0
0
LINE
5
13F
330
22
100
AcDbEntity
8
0
62
3
6
ByBlock
370
-1
48
1.0
60
0
100
AcDbLine
10
2.22341078397819
20
-1.25398581078084
30
0.0
11
2.26333299084589
21
-1.21335000433816
31
0.0
39
0.0
210
0.0
220
0.0
230
1.0
0
LINE
5
140
330
22
100
AcDbEntity
8
0
62
3
6
ByBlock
370
-1
48
1.0
60
0
100
AcDbLine
10
2.26333299084589
20
-1.21335000433816
30
0.0
11
2.23999999084589
21
-0.98335000433816
31
0.0
39
0.0
210
0.0
220
0.0
230
1.0
0
LINE
5
141
330
22
100
AcDbEntity
8
0
62
3
6
ByBlock
370
-1
48
1.0
60
0
100
AcDbLine
10
0.74666699084589
20
-1.21001700433816
30
0.0
11
0.74999999084589
21
-1.26335000433816
31
0.0
39
0.0
210
0.0
220
0.0
230
1.0
0
LINE
5
142
330
22
100
AcDbEntity
8
0
62
3
6
ByBlock
370
-1
48
1.0
60
0
100
AcDbLine
10
0.74999999084589
20
-1.26335000433816
30
0.0
11
0.73333399084589
21
-1.28335000433816
31
0.0
39
0.0
210
0.0
220
0.0
230
1.0
0
LINE
5
143
330
22
100
AcDbEntity
8
0
62
3
6
ByBlock
370
-1
48
1.0
60
0
100
AcDbLine
10
0.73333399084589
20
-1.28335000433816
30
0.0
11
0.58666699084589
21
-1.30001700433816
31
0.0
39
0.0
210
0.0
220
0.0
230
1.0
0
LINE
5
144
330
22
100
AcDbEntity
8
0
62
3
6
ByBlock
370
-1
48
1.0
60
0
100
AcDbLine
10
0.58666699084589
20
-1.30001700433816
30
0.0
11
0.72666699084589
21
-1.29001700433816
31
0.0
39
0.0
210
0.0
220
0.0
230
1.0
0
LINE
5
145
330
22
100
AcDbEntity
8
0
62
3
6
ByBlock
370
-1
48
1.0
60
0
100
AcDbLine
10
0.72666699084589
20
-1.29001700433816
30
0.0
11
0.73333399084589
21
-1.28335000433816
31
0.0
39
0.0
210
0.0
220
0.0
230
1.0
0
LINE
5
146
330
22
100
AcDbEntity
8
0
62
3
6
ByBlock
370
-1
48
1.0
60
0
100
AcDbLine
10
0.75666699084589
20
-1.21335000433816
30
0.0
11
0.74999999084589
21
-1.26335000433816
31
0.0
39
0.0
210
0.0
220
0.0
230
1.0
0
LINE
5
147
330
22
100
AcDbEntity
8
0
62
3
6
ByBlock
370
-1
48
1.0
60
0
100
AcDbLine
10
0.74999999084589
20
-1.26335000433816
30
0.0
11
0.76999999084589
21
-1.28668400433816
31
0.0
39
0.0
210
0.0
220
0.0
230
1.0
0
LINE
5
148
330
22
100
AcDbEntity
8
0
62
3
6
ByBlock
370
-1
48
1.0
60
0
100
AcDbLine
10
0.76999999084589
20
-1.28668400433816
30
0.0
11
0.91333299084589
21
-1.30001700433816
31
0.0
39
0.0
210
0.0
220
0.0
230
1.0
0
LINE
5
149
330
22
100
AcDbEntity
8
0
62
3
6
ByBlock
370
-1
48
1.0
60
0
100
AcDbLine
10
0.91333299084589
20
-1.30001700433816
30
0.0
11
0.87666699084589
21
-1.30001700433816
31
0.0
39
0.0
210
0.0
220
0.0
230
1.0
0
LINE
5
14A
330
22
100
AcDbEntity
8
0
62
3
6
ByBlock
370
-1
48
1.0
60
0
100
AcDbLine
10
0.87666699084589
20
-1.30001700433816
30
0.0
11
0.82489910567284
21
-1.29354620068743
31
0.0
39
0.0
210
0.0
220
0.0
230
1.0
0
LINE
5
14B
330
22
100
AcDbEntity
8
0
62
3
6
ByBlock
370
-1
48
1.0
60
0
100
AcDbLine
10
0.82489910567284
20
-1.29354620068743
30
0.0
11
0.77666699084589
21
-1.29001700433816
31
0.0
39
0.0
210
0.0
220
0.0
230
1.0
0
LINE
5
14C
330
22
100
AcDbEntity
8
0
62
3
6
ByBlock
370
-1
48
1.0
60
0
100
AcDbLine
10
0.77666699084589
20
-1.29001700433816
30
0.0
11
0.76999999084589
21
-1.28668400433816
31
0.0
39
0.0
210
0.0
220
0.0
230
1.0
0
LINE
5
14D
330
22
100
AcDbEntity
8
0
62
3
6
ByBlock
370
-1
48
1.0
60
0
100
AcDbLine
10
-0.75333300915411
20
-1.10335000433816
30
0.0
11
-0.75000000915411
21
-1.26001700433816
31
0.0
39
0.0
210
0.0
220
0.0
230
1.0
0
LINE
5
14E
330
22
100
AcDbEntity
8
0
62
3
6
ByBlock
370
-1
48
1.0
60
0
100
AcDbLine
10
-0.75000000915411
20
-1.26001700433816
30
0.0
11
-0.78000000915411
21
-1.29001700433816
31
0.0
39
0.0
210
0.0
220
0.0
230
1.0
0
LINE
5
14F
330
22
100
AcDbEntity
8
0
62
3
6
ByBlock
370
-1
48
1.0
60
0
100
AcDbLine
10
-0.78000000915411
20
-1.29001700433816
30
0.0
11
-0.91666700915411
21
-1.30001700433816
31
0.0
39
0.0
210
0.0
220
0.0
230
1.0
0
LINE
5
150
330
22
100
AcDbEntity
8
0
62
3
6
ByBlock
370
-1
48
1.0
60
0
100
AcDbLine
10
-0.91666700915411
20
-1.30001700433816
30
0.0
11
-0.81333300915411
21
-1.29001700433816
31
0.0
39
0.0
210
0.0
220
0.0
230
1.0
0
LINE
5
151
330
22
100
AcDbEntity
8
0
62
3
6
ByBlock
370
-1
48
1.0
60
0
100
AcDbLine
10
-0.74666600915411
20
-1.10335000433816
30
0.0
11
-0.75000000915411
21
-1.26001700433816
31
0.0
39
0.0
210
0.0
220
0.0
230
1.0
0
LINE
5
152
330
22
100
AcDbEntity
8
0
62
3
6
ByBlock
370
-1
48
1.0
60
0
100
AcDbLine
10
-0.75000000915411
20
-1.26001700433816
30
0.0
11
-0.72000000915411
21
-1.29001700433816
31
0.0
39
0.0
210
0.0
220
0.0
230
1.0
0
LINE
5
153
330
22
100
AcDbEntity
8
0
62
3
6
ByBlock
370
-1
48
1.0
60
0
100
AcDbLine
10
-0.72000000915411
20
-1.29001700433816
30
0.0
11
-0.58000000915412
21
-1.30001700433816
31
0.0
39
0.0
210
0.0
220
0.0
230
1.0
0
ENDBLK
5
23
330
22
100
AcDbEntity
8
0
100
AcDbBlockEnd
0
BLOCK
5
29
330
27
100
AcDbEntity
8
0
100
AcDbBlockBegin
2
DS
70
0
10
0.0
20
0.0
30
0.0
3
DS
0
ENDBLK
5
28
330
27
100
AcDbEntity
8
0
100
AcDbBlockEnd
0
BLOCK
5
156
330
154
100
AcDbEntity
8
0
100
AcDbBlockBegin
2
*Paper_Space
70
0
10
0.0
20
0.0
30
0.0
3
*Paper_Space
0
ENDBLK
5
155
330
154
100
AcDbEntity
8
0
100
AcDbBlockEnd
0
ENDSEC
0
SECTION
2
ENTITIES
0
INSERT
5
21
330
1A
100
AcDbEntity
67
0
8
0
62
256
6
ByLayer
370
-1
48
1.0
60
0
100
AcDbBlockReference
2
沙发顶视
10
0.0
20
0.0
30
0.0
41
1.0
42
1.0
43
1.0
50
0.0
210
0.0
220
0.0
230
1.0
0
VIEWPORT
5
158
330
154
100
AcDbEntity
67
1
8
0
62
256
6
ByLayer
370
-1
48
1.0
60
0
100
AcDbViewport
10
0.0
20
0.0
30
0.0
40
297.0
41
210.0
68
1
69
1
12
50.0
22
100.0
13
0.0
23
0.0
14
10.0
24
10.0
15
10.0
25
10.0
16
0.0
26
0.0
36
1.0
17
0.0
27
0.0
37
0.0
42
50.0
43
0.0
44
0.0
45
250.0
50
0.0
51
0.0
72
1000
90
819232
110
0.0
120
0.0
130
0.0
111
1.0
121
0.0
131
0.0
112
0.0
122
1.0
132
0.0
0
ENDSEC
0
SECTION
2
OBJECTS
0
DICTIONARY
5
15D
330
0
100
AcDbDictionary
280
0
281
1
3
ACAD_GROUP
350
15E
3
ACAD_LAYOUT
350
15F
3
ACAD_MLINESTYLE
350
163
0
DICTIONARY
5
15E
330
15D
100
AcDbDictionary
280
0
281
1
0
DICTIONARY
5
15F
330
15D
100
AcDbDictionary
280
0
281
1
3
Model
350
1E
3
Layout1
350
159
0
DICTIONARY
5
163
330
15D
100
AcDbDictionary
280
0
281
1
3
Standard
350
19
0
LAYOUT
5
1E
330
15F
100
AcDbPlotSettings
1

2
none_device
4
ISO_A4_(210.00_x_297.00_MM)
6

40
7.5
41
20.0
42
7.5
43
20.0
44
210.0
45
297.0
46
0.0
47
0.0
48
0.0
49
0.0
140
0.0
141
0.0
142
1.0
143
1.0
70
11952
72
1
73
1
74
5
7

75
16
147
1.0
148
0.0
149
0.0
100
AcDbLayout
1
Model
70
1
71
0
10
-20.0
20
-7.5
11
277.0
21
202.5
12
0.0
22
0.0
32
0.0
14
25.7
24
19.5
34
0.0
15
231.3
25
175.5
35
0.0
146
0.0
13
0.0
23
0.0
33
0.0
16
1.0
26
0.0
36
0.0
17
0.0
27
1.0
37
0.0
76
0
330
1A
0
LAYOUT
5
159
330
15F
100
AcDbPlotSettings
1

2
none_device
4
ISO_A4_(210.00_x_297.00_MM)
6

40
7.5
41
20.0
42
7.5
43
20.0
44
210.0
45
297.0
46
0.0
47
0.0
48
0.0
49
0.0
140
0.0
141
0.0
142
1.0
143
1.0
70
688
72
1
73
1
74
5
7

75
16
147
1.0
148
0.0
149
0.0
100
AcDbLayout
1
Layout1
70
1
71
1
10
-20.0
20
-7.5
11
277.0
21
202.5
12
0.0
22
0.0
32
0.0
14
25.7
24
19.5
34
0.0
15
231.3
25
175.5
35
0.0
146
0.0
13
0.0
23
0.0
33
0.0
16
1.0
26
0.0
36
0.0
17
0.0
27
1.0
37
0.0
76
0
330
154
0
MLINESTYLE
5
19
330
163
100
AcDbMlineStyle
2
Standard
70
0
3

62
256
51
90.0
52
90.0
71
2
49
-0.5
62
256
6
ByLayer
49
0.5
62
256
6
ByLayer
0
ENDSEC
0
EOF
