999
Dxf file generated by netDxf https://netdxf.codeplex.com, Copyright(C) 2009-2016 Daniel Carvajal, Licensed under LGPL
0
SECTION
2
HEADER
9
$ACADVER
1
AC1021
9
$DWGCODEPAGE
3
ANSI_936
9
$LASTSAVEDBY
1
GAODI
9
$HANDSEED
5
16E
9
$ANGBASE
50
0.0
9
$ANGDIR
70
0
9
$ATTMODE
70
1
9
$AUNITS
70
0
9
$AUPREC
70
0
9
$CECOLOR
62
256
9
$CELTSCALE
40
1.0
9
$CELTYPE
6
ByLayer
9
$CELWEIGHT
370
-1
9
$CLAYER
8
0
9
$CMLJUST
70
0
9
$CMLSCALE
40
20.0
9
$CMLSTYLE
2
Standard
9
$DIMSTYLE
2
Standard
9
$TEXTSIZE
40
2.5
9
$TEXTSTYLE
7
Standard
9
$LUNITS
70
2
9
$LUPREC
70
4
9
$EXTNAMES
290
1
9
$INSBASE
10
0.0
20
0.0
30
0.0
9
$INSUNITS
70
0
9
$LTSCALE
40
1.0
9
$LWDISPLAY
290
0
9
$PDMODE
70
0
9
$PDSIZE
40
0.0
9
$PLINEGEN
70
0
9
$PSLTSCALE
70
1
9
$TDCREATE
40
2457773.60900009
9
$TDUCREATE
40
2457773.27566676
9
$TDUPDATE
40
2457773.60900009
9
$TDUUPDATE
40
2457773.27566676
9
$TDINDWG
40
0.0
9
$DIMADEC
70
0
9
$DIMAUNIT
70
0
9
$DIMASZ
40
0.18
9
$DIMAZIN
70
0
9
$DIMSAH
70
0
9
$DIMBLK
1

9
$DIMLDRBLK
1

9
$DIMCEN
40
0.09
9
$DIMCLRD
70
0
9
$DIMCLRE
70
0
9
$DIMCLRT
70
0
9
$DIMDEC
70
2
9
$DIMDLE
40
0.0
9
$DIMDLI
40
0.38
9
$DIMDSEP
70
46
9
$DIMEXE
40
0.18
9
$DIMEXO
40
0.0625
9
$DIMGAP
40
0.09
9
$DIMJUST
70
0
9
$DIMLFAC
40
1.0
9
$DIMLUNIT
70
2
9
$DIMLWD
70
-2
9
$DIMLWE
70
-2
9
$DIMPOST
1
<>
9
$DIMRND
40
0.0
9
$DIMSCALE
40
1.0
9
$DIMSE1
70
0
9
$DIMSE2
70
0
9
$DIMTAD
70
1
9
$DIMTIH
70
0
9
$DIMTOH
70
0
9
$DIMTXT
40
0.18
9
$DIMZIN
70
0
9
$DIMFRAC
70
0
9
$DIMLTYPE
6
ByBlock
9
$DIMLTEX1
6
ByBlock
9
$DIMLTEX2
6
ByBlock
0
ENDSEC
0
SECTION
2
CLASSES
0
CLASS
1
RASTERVARIABLES
2
AcDbRasterVariables
3
ISM
90
0
91
1
280
0
281
0
0
ENDSEC
0
SECTION
2
TABLES
0
TABLE
2
APPID
5
4
330
0
100
AcDbSymbolTable
70
4
0
APPID
5
17
330
4
100
AcDbSymbolTableRecord
100
AcDbRegAppTableRecord
2
ACAD
70
0
0
APPID
5
163
330
4
100
AcDbSymbolTableRecord
100
AcDbRegAppTableRecord
2
AcCmTransparency
70
0
0
APPID
5
164
330
4
100
AcDbSymbolTableRecord
100
AcDbRegAppTableRecord
2
GradientColor1ACI
70
0
0
APPID
5
165
330
4
100
AcDbSymbolTableRecord
100
AcDbRegAppTableRecord
2
GradientColor2ACI
70
0
0
ENDTAB
0
TABLE
2
VPORT
5
1
330
0
100
AcDbSymbolTable
70
1
0
VPORT
5
2
330
1
100
AcDbSymbolTableRecord
100
AcDbViewportTableRecord
2
*Active
70
0
10
0.0
20
0.0
11
1.0
21
1.0
12
0.0
22
0.0
13
0.0
23
0.0
14
0.5
24
0.5
15
10.0
25
10.0
16
0.0
26
0.0
36
1.0
17
0.0
27
0.0
37
0.0
40
10.0
41
1.0
75
0
76
1
0
ENDTAB
0
TABLE
2
LTYPE
5
6
330
0
100
AcDbSymbolTable
70
3
0
LTYPE
5
13
330
6
100
AcDbSymbolTableRecord
100
AcDbLinetypeTableRecord
70
0
2
Continuous
3
Solid line
72
65
73
0
40
0.0
0
LTYPE
5
14
330
6
100
AcDbSymbolTableRecord
100
AcDbLinetypeTableRecord
70
0
2
ByLayer
3

72
65
73
0
40
0.0
0
LTYPE
5
15
330
6
100
AcDbSymbolTableRecord
100
AcDbLinetypeTableRecord
70
0
2
ByBlock
3

72
65
73
0
40
0.0
0
ENDTAB
0
TABLE
2
LAYER
5
5
330
0
100
AcDbSymbolTable
70
1
0
LAYER
5
12
330
5
100
AcDbSymbolTableRecord
100
AcDbLayerTableRecord
2
0
70
0
62
7
6
Continuous
290
1
370
-3
390
0
0
ENDTAB
0
TABLE
2
STYLE
5
7
330
0
100
AcDbSymbolTable
70
1
0
STYLE
5
16
330
7
100
AcDbSymbolTableRecord
100
AcDbTextStyleTableRecord
2
Standard
3
simplex.shx
70
0
71
0
40
0.0
41
1.0
42
0.0
50
0.0
0
ENDTAB
0
TABLE
2
DIMSTYLE
5
8
330
0
100
AcDbSymbolTable
70
1
100
AcDbDimStyleTable
0
DIMSTYLE
105
18
330
8
100
AcDbSymbolTableRecord
100
AcDbDimStyleTableRecord
2
Standard
70
0
3
<>
40
1.0
41
0.18
42
0.0625
43
0.38
44
0.18
45
0.0
46
0.0
73
0
74
0
75
0
76
0
77
1
78
0
79
0
140
0.18
141
0.09
144
1.0
147
0.09
176
0
177
0
178
0
179
0
271
2
275
0
276
0
277
2
278
46
280
0
340
16
173
0
345
15
346
15
347
15
371
-2
372
-2
0
ENDTAB
0
TABLE
2
VIEW
5
3
330
0
100
AcDbSymbolTable
70
0
0
ENDTAB
0
TABLE
2
UCS
5
A
330
0
100
AcDbSymbolTable
70
0
0
ENDTAB
0
TABLE
2
BLOCK_RECORD
5
B
330
0
100
AcDbSymbolTable
70
3
0
BLOCK_RECORD
5
1A
330
B
100
AcDbSymbolTableRecord
100
AcDbBlockTableRecord
2
*Model_Space
340
1E
0
BLOCK_RECORD
5
22
330
B
100
AcDbSymbolTableRecord
100
AcDbBlockTableRecord
2
桌前视
340
0
70
0
280
1
281
0
1001
ACAD
1000
DesignCenter Data
1002
{
1070
1
1070
0
1002
}
0
BLOCK_RECORD
5
15D
330
B
100
AcDbSymbolTableRecord
100
AcDbBlockTableRecord
2
*Paper_Space
340
162
0
ENDTAB
0
ENDSEC
0
SECTION
2
BLOCKS
0
BLOCK
5
1C
330
1A
100
AcDbEntity
8
0
100
AcDbBlockBegin
2
*Model_Space
70
0
10
0.0
20
0.0
30
0.0
3
*Model_Space
0
ENDBLK
5
1B
330
1A
100
AcDbEntity
8
0
100
AcDbBlockEnd
0
BLOCK
5
24
330
22
100
AcDbEntity
8
0
100
AcDbBlockBegin
2
桌前视
70
0
10
0.0
20
0.0
30
0.0
3
桌前视
0
LINE
5
25
330
22
100
AcDbEntity
8
0
62
256
6
Continuous
370
-1
48
1.0
60
0
100
AcDbLine
10
3.15091616907681
20
0.41555885696694
30
0.0
11
3.15758316907681
21
0.41222485696694
31
0.0
39
0.0
210
0.0
220
0.0
230
1.0
0
LINE
5
26
330
22
100
AcDbEntity
8
0
62
256
6
Continuous
370
-1
48
1.0
60
0
100
AcDbLine
10
3.15758316907681
20
0.41222485696694
30
0.0
11
3.26425016907681
21
0.41555885696694
31
0.0
39
0.0
210
0.0
220
0.0
230
1.0
0
LINE
5
27
330
22
100
AcDbEntity
8
0
62
256
6
Continuous
370
-1
48
1.0
60
0
100
AcDbLine
10
3.23091716907681
20
0.36222485696694
30
0.0
11
2.97091616907681
21
0.36222485696694
31
0.0
39
0.0
210
0.0
220
0.0
230
1.0
0
LINE
5
28
330
22
100
AcDbEntity
8
0
62
256
6
Continuous
370
-1
48
1.0
60
0
100
AcDbLine
10
2.93091716907681
20
0.41222485696694
30
0.0
11
3.15091616907681
21
0.41555885696694
31
0.0
39
0.0
210
0.0
220
0.0
230
1.0
0
LINE
5
29
330
22
100
AcDbEntity
8
0
62
256
6
Continuous
370
-1
48
1.0
60
0
100
AcDbLine
10
3.36758316907681
20
2.20555785696694
30
0.0
11
2.93425016907681
21
2.20222485696694
31
0.0
39
0.0
210
0.0
220
0.0
230
1.0
0
LINE
5
2A
330
22
100
AcDbEntity
8
0
62
256
6
Continuous
370
-1
48
1.0
60
0
100
AcDbLine
10
2.93425016907681
20
2.20222485696694
30
0.0
11
2.93091716907681
21
1.56555885696694
31
0.0
39
0.0
210
0.0
220
0.0
230
1.0
0
LINE
5
2B
330
22
100
AcDbEntity
8
0
62
256
6
Continuous
370
-1
48
1.0
60
0
100
AcDbLine
10
2.93091716907681
20
1.56555885696694
30
0.0
11
2.95091616907681
21
1.55222485696694
31
0.0
39
0.0
210
0.0
220
0.0
230
1.0
0
LINE
5
2C
330
22
100
AcDbEntity
8
0
62
256
6
Continuous
370
-1
48
1.0
60
0
100
AcDbLine
10
2.95091616907681
20
1.55222485696694
30
0.0
11
3.25425016907681
21
1.55222485696694
31
0.0
39
0.0
210
0.0
220
0.0
230
1.0
0
LINE
5
2D
330
22
100
AcDbEntity
8
0
62
256
6
Continuous
370
-1
48
1.0
60
0
100
AcDbLine
10
3.22758316907681
20
1.31222485696694
30
0.0
11
2.97425016907681
21
1.30889185696694
31
0.0
39
0.0
210
0.0
220
0.0
230
1.0
0
LINE
5
2E
330
22
100
AcDbEntity
8
0
62
256
6
Continuous
370
-1
48
1.0
60
0
100
AcDbLine
10
2.97425016907681
20
1.30889185696694
30
0.0
11
2.93758316907681
21
1.16889185696694
31
0.0
39
0.0
210
0.0
220
0.0
230
1.0
0
LINE
5
2F
330
22
100
AcDbEntity
8
0
62
256
6
Continuous
370
-1
48
1.0
60
0
100
AcDbLine
10
2.93758316907681
20
1.16889185696694
30
0.0
11
2.93758316907681
21
0.99555785696694
31
0.0
39
0.0
210
0.0
220
0.0
230
1.0
0
LINE
5
30
330
22
100
AcDbEntity
8
0
62
256
6
Continuous
370
-1
48
1.0
60
0
100
AcDbLine
10
2.93758316907681
20
0.99555785696694
30
0.0
11
2.95091616907681
21
0.91889185696694
31
0.0
39
0.0
210
0.0
220
0.0
230
1.0
0
LINE
5
31
330
22
100
AcDbEntity
8
0
62
256
6
Continuous
370
-1
48
1.0
60
0
100
AcDbLine
10
2.95091616907681
20
0.91889185696694
30
0.0
11
2.93758316907681
21
0.99222485696694
31
0.0
39
0.0
210
0.0
220
0.0
230
1.0
0
LINE
5
32
330
22
100
AcDbEntity
8
0
62
256
6
Continuous
370
-1
48
1.0
60
0
100
AcDbLine
10
2.93758316907681
20
0.99222485696694
30
0.0
11
2.93425016907681
21
1.15555885696694
31
0.0
39
0.0
210
0.0
220
0.0
230
1.0
0
LINE
5
33
330
22
100
AcDbEntity
8
0
62
256
6
Continuous
370
-1
48
1.0
60
0
100
AcDbLine
10
2.93425016907681
20
1.15555885696694
30
0.0
11
2.97425016907681
21
1.30222485696694
31
0.0
39
0.0
210
0.0
220
0.0
230
1.0
0
LINE
5
34
330
22
100
AcDbEntity
8
0
62
256
6
Continuous
370
-1
48
1.0
60
0
100
AcDbLine
10
2.97425016907681
20
1.30222485696694
30
0.0
11
2.97425016907681
21
1.31555885696694
31
0.0
39
0.0
210
0.0
220
0.0
230
1.0
0
LINE
5
35
330
22
100
AcDbEntity
8
0
62
256
6
Continuous
370
-1
48
1.0
60
0
100
AcDbLine
10
2.97425016907681
20
1.31555885696694
30
0.0
11
2.94758316907681
21
1.33889185696694
31
0.0
39
0.0
210
0.0
220
0.0
230
1.0
0
LINE
5
36
330
22
100
AcDbEntity
8
0
62
256
6
Continuous
370
-1
48
1.0
60
0
100
AcDbLine
10
2.94758316907681
20
1.33889185696694
30
0.0
11
2.94091716907681
21
1.35555885696694
31
0.0
39
0.0
210
0.0
220
0.0
230
1.0
0
LINE
5
37
330
22
100
AcDbEntity
8
0
62
256
6
Continuous
370
-1
48
1.0
60
0
100
AcDbLine
10
2.94091716907681
20
1.35555885696694
30
0.0
11
2.94091716907681
21
1.37889185696694
31
0.0
39
0.0
210
0.0
220
0.0
230
1.0
0
LINE
5
38
330
22
100
AcDbEntity
8
0
62
256
6
Continuous
370
-1
48
1.0
60
0
100
AcDbLine
10
2.94091716907681
20
1.37889185696694
30
0.0
11
2.98425016907681
21
1.44222485696694
31
0.0
39
0.0
210
0.0
220
0.0
230
1.0
0
LINE
5
39
330
22
100
AcDbEntity
8
0
62
256
6
Continuous
370
-1
48
1.0
60
0
100
AcDbLine
10
2.98425016907681
20
1.44222485696694
30
0.0
11
2.98425016907681
21
1.46222485696694
31
0.0
39
0.0
210
0.0
220
0.0
230
1.0
0
LINE
5
3A
330
22
100
AcDbEntity
8
0
62
256
6
Continuous
370
-1
48
1.0
60
0
100
AcDbLine
10
2.98425016907681
20
1.46222485696694
30
0.0
11
2.95425016907681
21
1.50889185696694
31
0.0
39
0.0
210
0.0
220
0.0
230
1.0
0
LINE
5
3B
330
22
100
AcDbEntity
8
0
62
256
6
Continuous
370
-1
48
1.0
60
0
100
AcDbLine
10
2.95425016907681
20
1.50889185696694
30
0.0
11
2.95091616907681
21
1.55222485696694
31
0.0
39
0.0
210
0.0
220
0.0
230
1.0
0
LINE
5
3C
330
22
100
AcDbEntity
8
0
62
256
6
Continuous
370
-1
48
1.0
60
0
100
AcDbLine
10
2.95091616907681
20
1.55222485696694
30
0.0
11
2.93091716907681
21
1.56555885696694
31
0.0
39
0.0
210
0.0
220
0.0
230
1.0
0
LINE
5
3D
330
22
100
AcDbEntity
8
0
62
256
6
Continuous
370
-1
48
1.0
60
0
100
AcDbLine
10
2.93091716907681
20
1.56555885696694
30
0.0
11
2.92758316907681
21
1.59222485696694
31
0.0
39
0.0
210
0.0
220
0.0
230
1.0
0
LINE
5
3E
330
22
100
AcDbEntity
8
0
62
256
6
Continuous
370
-1
48
1.0
60
0
100
AcDbLine
10
2.92758316907681
20
1.59222485696694
30
0.0
11
2.77758316907681
21
1.58889185696694
31
0.0
39
0.0
210
0.0
220
0.0
230
1.0
0
LINE
5
3F
330
22
100
AcDbEntity
8
0
62
256
6
Continuous
370
-1
48
1.0
60
0
100
AcDbLine
10
2.77758316907681
20
1.58889185696694
30
0.0
11
2.72425016907681
21
1.60222485696694
31
0.0
39
0.0
210
0.0
220
0.0
230
1.0
0
LINE
5
40
330
22
100
AcDbEntity
8
0
62
256
6
Continuous
370
-1
48
1.0
60
0
100
AcDbLine
10
2.72425016907681
20
1.60222485696694
30
0.0
11
2.70425016907681
21
1.61222485696694
31
0.0
39
0.0
210
0.0
220
0.0
230
1.0
0
LINE
5
41
330
22
100
AcDbEntity
8
0
62
256
6
Continuous
370
-1
48
1.0
60
0
100
AcDbLine
10
2.70425016907681
20
1.61222485696694
30
0.0
11
2.60758316907681
21
1.68555785696694
31
0.0
39
0.0
210
0.0
220
0.0
230
1.0
0
LINE
5
42
330
22
100
AcDbEntity
8
0
62
256
6
Continuous
370
-1
48
1.0
60
0
100
AcDbLine
10
2.60758316907681
20
1.68555785696694
30
0.0
11
2.55758316907681
21
1.68889185696694
31
0.0
39
0.0
210
0.0
220
0.0
230
1.0
0
LINE
5
43
330
22
100
AcDbEntity
8
0
62
256
6
Continuous
370
-1
48
1.0
60
0
100
AcDbLine
10
2.55758316907681
20
1.68889185696694
30
0.0
11
2.48758316907681
21
1.65555885696694
31
0.0
39
0.0
210
0.0
220
0.0
230
1.0
0
LINE
5
44
330
22
100
AcDbEntity
8
0
62
256
6
Continuous
370
-1
48
1.0
60
0
100
AcDbLine
10
2.48758316907681
20
1.65555885696694
30
0.0
11
2.45425016907681
21
1.65555885696694
31
0.0
39
0.0
210
0.0
220
0.0
230
1.0
0
LINE
5
45
330
22
100
AcDbEntity
8
0
62
256
6
Continuous
370
-1
48
1.0
60
0
100
AcDbLine
10
2.45425016907681
20
1.65555885696694
30
0.0
11
2.34425016907681
21
1.75555785696694
31
0.0
39
0.0
210
0.0
220
0.0
230
1.0
0
LINE
5
46
330
22
100
AcDbEntity
8
0
62
256
6
Continuous
370
-1
48
1.0
60
0
100
AcDbLine
10
2.34425016907681
20
1.75555785696694
30
0.0
11
2.25758316907681
21
1.80222485696694
31
0.0
39
0.0
210
0.0
220
0.0
230
1.0
0
LINE
5
47
330
22
100
AcDbEntity
8
0
62
256
6
Continuous
370
-1
48
1.0
60
0
100
AcDbLine
10
2.25758316907681
20
1.80222485696694
30
0.0
11
2.17758316907681
21
1.80555885696694
31
0.0
39
0.0
210
0.0
220
0.0
230
1.0
0
LINE
5
48
330
22
100
AcDbEntity
8
0
62
256
6
Continuous
370
-1
48
1.0
60
0
100
AcDbLine
10
2.17758316907681
20
1.80555885696694
30
0.0
11
2.24091616907681
21
1.80555885696694
31
0.0
39
0.0
210
0.0
220
0.0
230
1.0
0
LINE
5
49
330
22
100
AcDbEntity
8
0
62
256
6
Continuous
370
-1
48
1.0
60
0
100
AcDbLine
10
2.24091616907681
20
1.80555885696694
30
0.0
11
2.25758316907681
21
1.80222485696694
31
0.0
39
0.0
210
0.0
220
0.0
230
1.0
0
LINE
5
4A
330
22
100
AcDbEntity
8
0
62
256
6
Continuous
370
-1
48
1.0
60
0
100
AcDbLine
10
2.25758316907681
20
1.80222485696694
30
0.0
11
2.34425016907681
21
1.75555785696694
31
0.0
39
0.0
210
0.0
220
0.0
230
1.0
0
LINE
5
4B
330
22
100
AcDbEntity
8
0
62
256
6
Continuous
370
-1
48
1.0
60
0
100
AcDbLine
10
2.34425016907681
20
1.75555785696694
30
0.0
11
2.45425016907681
21
1.65555885696694
31
0.0
39
0.0
210
0.0
220
0.0
230
1.0
0
LINE
5
4C
330
22
100
AcDbEntity
8
0
62
256
6
Continuous
370
-1
48
1.0
60
0
100
AcDbLine
10
2.45425016907681
20
1.65555885696694
30
0.0
11
2.48758316907681
21
1.65555885696694
31
0.0
39
0.0
210
0.0
220
0.0
230
1.0
0
LINE
5
4D
330
22
100
AcDbEntity
8
0
62
256
6
Continuous
370
-1
48
1.0
60
0
100
AcDbLine
10
2.48758316907681
20
1.65555885696694
30
0.0
11
2.55758316907681
21
1.68889185696694
31
0.0
39
0.0
210
0.0
220
0.0
230
1.0
0
LINE
5
4E
330
22
100
AcDbEntity
8
0
62
256
6
Continuous
370
-1
48
1.0
60
0
100
AcDbLine
10
2.55758316907681
20
1.68889185696694
30
0.0
11
2.60758316907681
21
1.68555785696694
31
0.0
39
0.0
210
0.0
220
0.0
230
1.0
0
LINE
5
4F
330
22
100
AcDbEntity
8
0
62
256
6
Continuous
370
-1
48
1.0
60
0
100
AcDbLine
10
2.60758316907681
20
1.68555785696694
30
0.0
11
2.70425016907681
21
1.61222485696694
31
0.0
39
0.0
210
0.0
220
0.0
230
1.0
0
LINE
5
50
330
22
100
AcDbEntity
8
0
62
256
6
Continuous
370
-1
48
1.0
60
0
100
AcDbLine
10
2.70425016907681
20
1.61222485696694
30
0.0
11
2.72425016907681
21
1.60222485696694
31
0.0
39
0.0
210
0.0
220
0.0
230
1.0
0
LINE
5
51
330
22
100
AcDbEntity
8
0
62
256
6
Continuous
370
-1
48
1.0
60
0
100
AcDbLine
10
2.72425016907681
20
1.60222485696694
30
0.0
11
2.77758316907681
21
1.58889185696694
31
0.0
39
0.0
210
0.0
220
0.0
230
1.0
0
LINE
5
52
330
22
100
AcDbEntity
8
0
62
256
6
Continuous
370
-1
48
1.0
60
0
100
AcDbLine
10
2.77758316907681
20
1.58889185696694
30
0.0
11
2.92758316907681
21
1.59222485696694
31
0.0
39
0.0
210
0.0
220
0.0
230
1.0
0
LINE
5
53
330
22
100
AcDbEntity
8
0
62
256
6
Continuous
370
-1
48
1.0
60
0
100
AcDbLine
10
2.92758316907681
20
1.59222485696694
30
0.0
11
2.93425016907681
21
1.59889185696694
31
0.0
39
0.0
210
0.0
220
0.0
230
1.0
0
LINE
5
54
330
22
100
AcDbEntity
8
0
62
256
6
Continuous
370
-1
48
1.0
60
0
100
AcDbLine
10
2.93425016907681
20
1.59889185696694
30
0.0
11
2.93425016907681
21
2.19889185696694
31
0.0
39
0.0
210
0.0
220
0.0
230
1.0
0
LINE
5
55
330
22
100
AcDbEntity
8
0
62
256
6
Continuous
370
-1
48
1.0
60
0
100
AcDbLine
10
2.92758316907681
20
2.20555785696694
30
0.0
11
-2.75241683092319
21
2.20555785696694
31
0.0
39
0.0
210
0.0
220
0.0
230
1.0
0
LINE
5
56
330
22
100
AcDbEntity
8
0
62
256
6
Continuous
370
-1
48
1.0
60
0
100
AcDbLine
10
-2.75241683092319
20
2.20555785696694
30
0.0
11
-2.75574983092319
21
1.59889185696694
31
0.0
39
0.0
210
0.0
220
0.0
230
1.0
0
LINE
5
57
330
22
100
AcDbEntity
8
0
62
256
6
Continuous
370
-1
48
1.0
60
0
100
AcDbLine
10
-2.75574983092319
20
1.59889185696694
30
0.0
11
-2.74908383092319
21
1.59222485696694
31
0.0
39
0.0
210
0.0
220
0.0
230
1.0
0
LINE
5
58
330
22
100
AcDbEntity
8
0
62
256
6
Continuous
370
-1
48
1.0
60
0
100
AcDbLine
10
-2.74908383092319
20
1.59222485696694
30
0.0
11
-2.59908383092319
21
1.58889185696694
31
0.0
39
0.0
210
0.0
220
0.0
230
1.0
0
LINE
5
59
330
22
100
AcDbEntity
8
0
62
256
6
Continuous
370
-1
48
1.0
60
0
100
AcDbLine
10
-2.59908383092319
20
1.58889185696694
30
0.0
11
-2.53241683092319
21
1.60889185696694
31
0.0
39
0.0
210
0.0
220
0.0
230
1.0
0
LINE
5
5A
330
22
100
AcDbEntity
8
0
62
256
6
Continuous
370
-1
48
1.0
60
0
100
AcDbLine
10
-2.53241683092319
20
1.60889185696694
30
0.0
11
-2.42908383092319
21
1.68555785696694
31
0.0
39
0.0
210
0.0
220
0.0
230
1.0
0
LINE
5
5B
330
22
100
AcDbEntity
8
0
62
256
6
Continuous
370
-1
48
1.0
60
0
100
AcDbLine
10
-2.42908383092319
20
1.68555785696694
30
0.0
11
-2.38241683092319
21
1.68889185696694
31
0.0
39
0.0
210
0.0
220
0.0
230
1.0
0
LINE
5
5C
330
22
100
AcDbEntity
8
0
62
256
6
Continuous
370
-1
48
1.0
60
0
100
AcDbLine
10
-2.38241683092319
20
1.68889185696694
30
0.0
11
-2.43574983092319
21
1.68222485696694
31
0.0
39
0.0
210
0.0
220
0.0
230
1.0
0
LINE
5
5D
330
22
100
AcDbEntity
8
0
62
256
6
Continuous
370
-1
48
1.0
60
0
100
AcDbLine
10
-2.43574983092319
20
1.68222485696694
30
0.0
11
-2.53574983092319
21
1.60555885696694
31
0.0
39
0.0
210
0.0
220
0.0
230
1.0
0
LINE
5
5E
330
22
100
AcDbEntity
8
0
62
256
6
Continuous
370
-1
48
1.0
60
0
100
AcDbLine
10
-2.53574983092319
20
1.60555885696694
30
0.0
11
-2.59908383092319
21
1.58889185696694
31
0.0
39
0.0
210
0.0
220
0.0
230
1.0
0
LINE
5
5F
330
22
100
AcDbEntity
8
0
62
256
6
Continuous
370
-1
48
1.0
60
0
100
AcDbLine
10
-2.59908383092319
20
1.58889185696694
30
0.0
11
-2.75241683092319
21
1.59222485696694
31
0.0
39
0.0
210
0.0
220
0.0
230
1.0
0
LINE
5
60
330
22
100
AcDbEntity
8
0
62
256
6
Continuous
370
-1
48
1.0
60
0
100
AcDbLine
10
-2.75241683092319
20
1.59222485696694
30
0.0
11
-2.75574983092319
21
1.56555885696694
31
0.0
39
0.0
210
0.0
220
0.0
230
1.0
0
LINE
5
61
330
22
100
AcDbEntity
8
0
62
256
6
Continuous
370
-1
48
1.0
60
0
100
AcDbLine
10
-2.75574983092319
20
1.56555885696694
30
0.0
11
-2.77241683092319
21
1.55222485696694
31
0.0
39
0.0
210
0.0
220
0.0
230
1.0
0
LINE
5
62
330
22
100
AcDbEntity
8
0
62
256
6
Continuous
370
-1
48
1.0
60
0
100
AcDbLine
10
-2.77241683092319
20
1.55222485696694
30
0.0
11
-2.77574983092319
21
1.51222485696694
31
0.0
39
0.0
210
0.0
220
0.0
230
1.0
0
LINE
5
63
330
22
100
AcDbEntity
8
0
62
256
6
Continuous
370
-1
48
1.0
60
0
100
AcDbLine
10
-2.77574983092319
20
1.51222485696694
30
0.0
11
-2.80574983092319
21
1.46555785696694
31
0.0
39
0.0
210
0.0
220
0.0
230
1.0
0
LINE
5
64
330
22
100
AcDbEntity
8
0
62
256
6
Continuous
370
-1
48
1.0
60
0
100
AcDbLine
10
-2.80574983092319
20
1.46555785696694
30
0.0
11
-2.80574983092319
21
1.44222485696694
31
0.0
39
0.0
210
0.0
220
0.0
230
1.0
0
LINE
5
65
330
22
100
AcDbEntity
8
0
62
256
6
Continuous
370
-1
48
1.0
60
0
100
AcDbLine
10
-2.80574983092319
20
1.44222485696694
30
0.0
11
-2.76574983092319
21
1.38889185696694
31
0.0
39
0.0
210
0.0
220
0.0
230
1.0
0
LINE
5
66
330
22
100
AcDbEntity
8
0
62
256
6
Continuous
370
-1
48
1.0
60
0
100
AcDbLine
10
-2.76574983092319
20
1.38889185696694
30
0.0
11
-2.76241683092319
21
1.35555885696694
31
0.0
39
0.0
210
0.0
220
0.0
230
1.0
0
LINE
5
67
330
22
100
AcDbEntity
8
0
62
256
6
Continuous
370
-1
48
1.0
60
0
100
AcDbLine
10
-2.76241683092319
20
1.35555885696694
30
0.0
11
-2.76908383092319
21
1.34222485696694
31
0.0
39
0.0
210
0.0
220
0.0
230
1.0
0
LINE
5
68
330
22
100
AcDbEntity
8
0
62
256
6
Continuous
370
-1
48
1.0
60
0
100
AcDbLine
10
-2.76908383092319
20
1.34222485696694
30
0.0
11
-2.79908383092319
21
1.31222485696694
31
0.0
39
0.0
210
0.0
220
0.0
230
1.0
0
LINE
5
69
330
22
100
AcDbEntity
8
0
62
256
6
Continuous
370
-1
48
1.0
60
0
100
AcDbLine
10
-2.79908383092319
20
1.31222485696694
30
0.0
11
-2.75908383092319
21
1.16222485696694
31
0.0
39
0.0
210
0.0
220
0.0
230
1.0
0
LINE
5
6A
330
22
100
AcDbEntity
8
0
62
256
6
Continuous
370
-1
48
1.0
60
0
100
AcDbLine
10
-2.75908383092319
20
1.16222485696694
30
0.0
11
-2.75908383092319
21
1.01889185696694
31
0.0
39
0.0
210
0.0
220
0.0
230
1.0
0
LINE
5
6B
330
22
100
AcDbEntity
8
0
62
256
6
Continuous
370
-1
48
1.0
60
0
100
AcDbLine
10
-2.75908383092319
20
1.01889185696694
30
0.0
11
-2.76574983092319
21
0.96555785696694
31
0.0
39
0.0
210
0.0
220
0.0
230
1.0
0
LINE
5
6C
330
22
100
AcDbEntity
8
0
62
256
6
Continuous
370
-1
48
1.0
60
0
100
AcDbLine
10
-2.76574983092319
20
0.96555785696694
30
0.0
11
-2.75908383092319
21
1.01889185696694
31
0.0
39
0.0
210
0.0
220
0.0
230
1.0
0
LINE
5
6D
330
22
100
AcDbEntity
8
0
62
256
6
Continuous
370
-1
48
1.0
60
0
100
AcDbLine
10
-2.75908383092319
20
1.01889185696694
30
0.0
11
-2.75908383092319
21
1.16222485696694
31
0.0
39
0.0
210
0.0
220
0.0
230
1.0
0
LINE
5
6E
330
22
100
AcDbEntity
8
0
62
256
6
Continuous
370
-1
48
1.0
60
0
100
AcDbLine
10
-2.75908383092319
20
1.16222485696694
30
0.0
11
-2.79574983092319
21
1.30555885696694
31
0.0
39
0.0
210
0.0
220
0.0
230
1.0
0
LINE
5
6F
330
22
100
AcDbEntity
8
0
62
256
6
Continuous
370
-1
48
1.0
60
0
100
AcDbLine
10
-2.79574983092319
20
1.30555885696694
30
0.0
11
-2.80241683092319
21
1.31222485696694
31
0.0
39
0.0
210
0.0
220
0.0
230
1.0
0
LINE
5
70
330
22
100
AcDbEntity
8
0
62
256
6
Continuous
370
-1
48
1.0
60
0
100
AcDbLine
10
-2.80241683092319
20
1.31222485696694
30
0.0
11
-3.05241683092319
21
1.30889185696694
31
0.0
39
0.0
210
0.0
220
0.0
230
1.0
0
LINE
5
71
330
22
100
AcDbEntity
8
0
62
256
6
Continuous
370
-1
48
1.0
60
0
100
AcDbLine
10
-2.78908383092319
20
0.55555785696694
30
0.0
11
-2.78241683092319
21
0.56222485696694
31
0.0
39
0.0
210
0.0
220
0.0
230
1.0
0
LINE
5
72
330
22
100
AcDbEntity
8
0
62
256
6
Continuous
370
-1
48
1.0
60
0
100
AcDbLine
10
-2.78241683092319
20
0.56222485696694
30
0.0
11
-2.78241683092319
21
0.57222485696694
31
0.0
39
0.0
210
0.0
220
0.0
230
1.0
0
LINE
5
73
330
22
100
AcDbEntity
8
0
62
256
6
Continuous
370
-1
48
1.0
60
0
100
AcDbLine
10
-2.78241683092319
20
0.57222485696694
30
0.0
11
-2.81574983092319
21
0.63222485696694
31
0.0
39
0.0
210
0.0
220
0.0
230
1.0
0
LINE
5
74
330
22
100
AcDbEntity
8
0
62
256
6
Continuous
370
-1
48
1.0
60
0
100
AcDbLine
10
-2.81574983092319
20
0.63222485696694
30
0.0
11
-2.81574983092319
21
0.64889185696694
31
0.0
39
0.0
210
0.0
220
0.0
230
1.0
0
LINE
5
75
330
22
100
AcDbEntity
8
0
62
256
6
Continuous
370
-1
48
1.0
60
0
100
AcDbLine
10
-2.81574983092319
20
0.64889185696694
30
0.0
11
-2.77241683092319
21
0.69555785696694
31
0.0
39
0.0
210
0.0
220
0.0
230
1.0
0
LINE
5
76
330
22
100
AcDbEntity
8
0
62
256
6
Continuous
370
-1
48
1.0
60
0
100
AcDbLine
10
-2.77241683092319
20
0.69555785696694
30
0.0
11
-2.76241683092319
21
0.72555785696694
31
0.0
39
0.0
210
0.0
220
0.0
230
1.0
0
LINE
5
77
330
22
100
AcDbEntity
8
0
62
256
6
Continuous
370
-1
48
1.0
60
0
100
AcDbLine
10
-2.76241683092319
20
0.72555785696694
30
0.0
11
-2.76574983092319
21
0.73889185696694
31
0.0
39
0.0
210
0.0
220
0.0
230
1.0
0
LINE
5
78
330
22
100
AcDbEntity
8
0
62
256
6
Continuous
370
-1
48
1.0
60
0
100
AcDbLine
10
-2.76574983092319
20
0.73889185696694
30
0.0
11
-2.79574983092319
21
0.78555785696694
31
0.0
39
0.0
210
0.0
220
0.0
230
1.0
0
LINE
5
79
330
22
100
AcDbEntity
8
0
62
256
6
Continuous
370
-1
48
1.0
60
0
100
AcDbLine
10
-2.79574983092319
20
0.78555785696694
30
0.0
11
-2.76908383092319
21
0.95889185696694
31
0.0
39
0.0
210
0.0
220
0.0
230
1.0
0
LINE
5
7A
330
22
100
AcDbEntity
8
0
62
256
6
Continuous
370
-1
48
1.0
60
0
100
AcDbLine
10
-2.76908383092319
20
0.95889185696694
30
0.0
11
-2.79574983092319
21
0.78555785696694
31
0.0
39
0.0
210
0.0
220
0.0
230
1.0
0
LINE
5
7B
330
22
100
AcDbEntity
8
0
62
256
6
Continuous
370
-1
48
1.0
60
0
100
AcDbLine
10
-2.79574983092319
20
0.78555785696694
30
0.0
11
-2.76241683092319
21
0.73555785696694
31
0.0
39
0.0
210
0.0
220
0.0
230
1.0
0
LINE
5
7C
330
22
100
AcDbEntity
8
0
62
256
6
Continuous
370
-1
48
1.0
60
0
100
AcDbLine
10
-2.76241683092319
20
0.73555785696694
30
0.0
11
-2.76908383092319
21
0.69889185696694
31
0.0
39
0.0
210
0.0
220
0.0
230
1.0
0
LINE
5
7D
330
22
100
AcDbEntity
8
0
62
256
6
Continuous
370
-1
48
1.0
60
0
100
AcDbLine
10
-2.76908383092319
20
0.69889185696694
30
0.0
11
-2.81574983092319
21
0.64889185696694
31
0.0
39
0.0
210
0.0
220
0.0
230
1.0
0
LINE
5
7E
330
22
100
AcDbEntity
8
0
62
256
6
Continuous
370
-1
48
1.0
60
0
100
AcDbLine
10
-2.81574983092319
20
0.64889185696694
30
0.0
11
-2.81574983092319
21
0.63222485696694
31
0.0
39
0.0
210
0.0
220
0.0
230
1.0
0
LINE
5
7F
330
22
100
AcDbEntity
8
0
62
256
6
Continuous
370
-1
48
1.0
60
0
100
AcDbLine
10
-2.81574983092319
20
0.63222485696694
30
0.0
11
-2.78241683092319
21
0.57555885696694
31
0.0
39
0.0
210
0.0
220
0.0
230
1.0
0
LINE
5
80
330
22
100
AcDbEntity
8
0
62
256
6
Continuous
370
-1
48
1.0
60
0
100
AcDbLine
10
-2.78241683092319
20
0.57555885696694
30
0.0
11
-2.78241683092319
21
0.56222485696694
31
0.0
39
0.0
210
0.0
220
0.0
230
1.0
0
LINE
5
81
330
22
100
AcDbEntity
8
0
62
256
6
Continuous
370
-1
48
1.0
60
0
100
AcDbLine
10
-2.78241683092319
20
0.56222485696694
30
0.0
11
-2.79241683092319
21
0.54889185696694
31
0.0
39
0.0
210
0.0
220
0.0
230
1.0
0
LINE
5
82
330
22
100
AcDbEntity
8
0
62
256
6
Continuous
370
-1
48
1.0
60
0
100
AcDbLine
10
-2.79241683092319
20
0.54889185696694
30
0.0
11
-2.78908383092319
21
0.54222485696694
31
0.0
39
0.0
210
0.0
220
0.0
230
1.0
0
LINE
5
83
330
22
100
AcDbEntity
8
0
62
256
6
Continuous
370
-1
48
1.0
60
0
100
AcDbLine
10
-2.78908383092319
20
0.54222485696694
30
0.0
11
2.96758316907681
21
0.54222485696694
31
0.0
39
0.0
210
0.0
220
0.0
230
1.0
0
LINE
5
84
330
22
100
AcDbEntity
8
0
62
256
6
Continuous
370
-1
48
1.0
60
0
100
AcDbLine
10
2.96758316907681
20
0.54222485696694
30
0.0
11
2.97091616907681
21
0.54889185696694
31
0.0
39
0.0
210
0.0
220
0.0
230
1.0
0
LINE
5
85
330
22
100
AcDbEntity
8
0
62
256
6
Continuous
370
-1
48
1.0
60
0
100
AcDbLine
10
2.97091616907681
20
0.54889185696694
30
0.0
11
2.96091716907681
21
0.55555785696694
31
0.0
39
0.0
210
0.0
220
0.0
230
1.0
0
LINE
5
86
330
22
100
AcDbEntity
8
0
62
256
6
Continuous
370
-1
48
1.0
60
0
100
AcDbLine
10
2.96091716907681
20
0.55555785696694
30
0.0
11
2.96091716907681
21
0.57555885696694
31
0.0
39
0.0
210
0.0
220
0.0
230
1.0
0
LINE
5
87
330
22
100
AcDbEntity
8
0
62
256
6
Continuous
370
-1
48
1.0
60
0
100
AcDbLine
10
2.96091716907681
20
0.57555885696694
30
0.0
11
2.99425016907681
21
0.64222485696694
31
0.0
39
0.0
210
0.0
220
0.0
230
1.0
0
LINE
5
88
330
22
100
AcDbEntity
8
0
62
256
6
Continuous
370
-1
48
1.0
60
0
100
AcDbLine
10
2.99425016907681
20
0.64222485696694
30
0.0
11
2.99091616907681
21
0.65222485696694
31
0.0
39
0.0
210
0.0
220
0.0
230
1.0
0
LINE
5
89
330
22
100
AcDbEntity
8
0
62
256
6
Continuous
370
-1
48
1.0
60
0
100
AcDbLine
10
2.99091616907681
20
0.65222485696694
30
0.0
11
2.94091716907681
21
0.70555785696694
31
0.0
39
0.0
210
0.0
220
0.0
230
1.0
0
LINE
5
8A
330
22
100
AcDbEntity
8
0
62
256
6
Continuous
370
-1
48
1.0
60
0
100
AcDbLine
10
2.94091716907681
20
0.70555785696694
30
0.0
11
2.94091716907681
21
0.73555785696694
31
0.0
39
0.0
210
0.0
220
0.0
230
1.0
0
LINE
5
8B
330
22
100
AcDbEntity
8
0
62
256
6
Continuous
370
-1
48
1.0
60
0
100
AcDbLine
10
2.94091716907681
20
0.73555785696694
30
0.0
11
2.97091616907681
21
0.77889185696694
31
0.0
39
0.0
210
0.0
220
0.0
230
1.0
0
LINE
5
8C
330
22
100
AcDbEntity
8
0
62
256
6
Continuous
370
-1
48
1.0
60
0
100
AcDbLine
10
2.97091616907681
20
0.77889185696694
30
0.0
11
2.97425016907681
21
0.79555785696694
31
0.0
39
0.0
210
0.0
220
0.0
230
1.0
0
LINE
5
8D
330
22
100
AcDbEntity
8
0
62
256
6
Continuous
370
-1
48
1.0
60
0
100
AcDbLine
10
2.97425016907681
20
0.79555785696694
30
0.0
11
2.95425016907681
21
0.91222485696694
31
0.0
39
0.0
210
0.0
220
0.0
230
1.0
0
LINE
5
8E
330
22
100
AcDbEntity
8
0
62
256
6
Continuous
370
-1
48
1.0
60
0
100
AcDbLine
10
2.95425016907681
20
0.91222485696694
30
0.0
11
2.97425016907681
21
0.79222485696694
31
0.0
39
0.0
210
0.0
220
0.0
230
1.0
0
LINE
5
8F
330
22
100
AcDbEntity
8
0
62
256
6
Continuous
370
-1
48
1.0
60
0
100
AcDbLine
10
2.97425016907681
20
0.79222485696694
30
0.0
11
2.97091616907681
21
0.77889185696694
31
0.0
39
0.0
210
0.0
220
0.0
230
1.0
0
LINE
5
90
330
22
100
AcDbEntity
8
0
62
256
6
Continuous
370
-1
48
1.0
60
0
100
AcDbLine
10
2.97091616907681
20
0.77889185696694
30
0.0
11
2.94091716907681
21
0.73555785696694
31
0.0
39
0.0
210
0.0
220
0.0
230
1.0
0
LINE
5
91
330
22
100
AcDbEntity
8
0
62
256
6
Continuous
370
-1
48
1.0
60
0
100
AcDbLine
10
2.94091716907681
20
0.73555785696694
30
0.0
11
2.94091716907681
21
0.70555785696694
31
0.0
39
0.0
210
0.0
220
0.0
230
1.0
0
LINE
5
92
330
22
100
AcDbEntity
8
0
62
256
6
Continuous
370
-1
48
1.0
60
0
100
AcDbLine
10
2.94091716907681
20
0.70555785696694
30
0.0
11
2.99425016907681
21
0.64555885696694
31
0.0
39
0.0
210
0.0
220
0.0
230
1.0
0
LINE
5
93
330
22
100
AcDbEntity
8
0
62
256
6
Continuous
370
-1
48
1.0
60
0
100
AcDbLine
10
2.99425016907681
20
0.64555885696694
30
0.0
11
2.99425016907681
21
0.63555885696694
31
0.0
39
0.0
210
0.0
220
0.0
230
1.0
0
LINE
5
94
330
22
100
AcDbEntity
8
0
62
256
6
Continuous
370
-1
48
1.0
60
0
100
AcDbLine
10
2.99425016907681
20
0.63555885696694
30
0.0
11
2.96091716907681
21
0.57555885696694
31
0.0
39
0.0
210
0.0
220
0.0
230
1.0
0
LINE
5
95
330
22
100
AcDbEntity
8
0
62
256
6
Continuous
370
-1
48
1.0
60
0
100
AcDbLine
10
2.96091716907681
20
0.57555885696694
30
0.0
11
2.96425016907681
21
0.55555785696694
31
0.0
39
0.0
210
0.0
220
0.0
230
1.0
0
LINE
5
96
330
22
100
AcDbEntity
8
0
62
256
6
Continuous
370
-1
48
1.0
60
0
100
AcDbLine
10
2.96425016907681
20
0.55555785696694
30
0.0
11
3.24425016907681
21
0.55889185696694
31
0.0
39
0.0
210
0.0
220
0.0
230
1.0
0
LINE
5
97
330
22
100
AcDbEntity
8
0
62
256
6
Continuous
370
-1
48
1.0
60
0
100
AcDbLine
10
-3.17908383092319
20
0.41555885696694
30
0.0
11
-2.77908383092319
21
0.41222485696694
31
0.0
39
0.0
210
0.0
220
0.0
230
1.0
0
LINE
5
98
330
22
100
AcDbEntity
8
0
62
256
6
Continuous
370
-1
48
1.0
60
0
100
AcDbLine
10
-2.79574983092319
20
0.36222485696694
30
0.0
11
-3.05241683092319
21
0.36222485696694
31
0.0
39
0.0
210
0.0
220
0.0
230
1.0
0
LINE
5
99
330
22
100
AcDbEntity
8
0
62
256
6
Continuous
370
-1
48
1.0
60
0
100
AcDbLine
10
-2.80241683092319
20
0.54222485696694
30
0.0
11
-2.79241683092319
21
0.54889185696694
31
0.0
39
0.0
210
0.0
220
0.0
230
1.0
0
LINE
5
9A
330
22
100
AcDbEntity
8
0
62
256
6
Continuous
370
-1
48
1.0
60
0
100
AcDbLine
10
-2.79241683092319
20
0.54889185696694
30
0.0
11
-2.79574983092319
21
0.55555785696694
31
0.0
39
0.0
210
0.0
220
0.0
230
1.0
0
LINE
5
9B
330
22
100
AcDbEntity
8
0
62
256
6
Continuous
370
-1
48
1.0
60
0
100
AcDbLine
10
-3.16574983092319
20
2.22889185696694
30
0.0
11
3.34425016907681
21
2.22889185696694
31
0.0
39
0.0
210
0.0
220
0.0
230
1.0
0
LINE
5
9C
330
22
100
AcDbEntity
8
0
62
256
6
Continuous
370
-1
48
1.0
60
0
100
AcDbLine
10
2.26091616907681
20
1.80889185696694
30
0.0
11
2.25758316907681
21
1.81222485696694
31
0.0
39
0.0
210
0.0
220
0.0
230
1.0
0
LINE
5
9D
330
22
100
AcDbEntity
8
0
62
256
6
Continuous
370
-1
48
1.0
60
0
100
AcDbLine
10
2.25758316907681
20
1.81222485696694
30
0.0
11
2.26091616907681
21
1.80889185696694
31
0.0
39
0.0
210
0.0
220
0.0
230
1.0
0
LINE
5
9E
330
22
100
AcDbEntity
8
0
62
256
6
Continuous
370
-1
48
1.0
60
0
100
AcDbLine
10
-1.98908383092319
20
1.80555885696694
30
0.0
11
-1.98241683092319
21
1.80222485696694
31
0.0
39
0.0
210
0.0
220
0.0
230
1.0
0
LINE
5
9F
330
22
100
AcDbEntity
8
0
62
256
6
Continuous
370
-1
48
1.0
60
0
100
AcDbLine
10
-1.98241683092319
20
1.80222485696694
30
0.0
11
-1.52908383092319
21
1.80222485696694
31
0.0
39
0.0
210
0.0
220
0.0
230
1.0
0
LINE
5
A0
330
22
100
AcDbEntity
8
0
62
256
6
Continuous
370
-1
48
1.0
60
0
100
AcDbLine
10
-1.52908383092319
20
1.80222485696694
30
0.0
11
-2.08241683092319
21
1.80222485696694
31
0.0
39
0.0
210
0.0
220
0.0
230
1.0
0
LINE
5
A1
330
22
100
AcDbEntity
8
0
62
256
6
Continuous
370
-1
48
1.0
60
0
100
AcDbLine
10
-2.08241683092319
20
1.80222485696694
30
0.0
11
-2.17241683092319
21
1.75222485696694
31
0.0
39
0.0
210
0.0
220
0.0
230
1.0
0
LINE
5
A2
330
22
100
AcDbEntity
8
0
62
256
6
Continuous
370
-1
48
1.0
60
0
100
AcDbLine
10
-2.17241683092319
20
1.75222485696694
30
0.0
11
-2.27574983092319
21
1.65222485696694
31
0.0
39
0.0
210
0.0
220
0.0
230
1.0
0
LINE
5
A3
330
22
100
AcDbEntity
8
0
62
256
6
Continuous
370
-1
48
1.0
60
0
100
AcDbLine
10
-2.27574983092319
20
1.65222485696694
30
0.0
11
-2.30908383092319
21
1.65555885696694
31
0.0
39
0.0
210
0.0
220
0.0
230
1.0
0
LINE
5
A4
330
22
100
AcDbEntity
8
0
62
256
6
Continuous
370
-1
48
1.0
60
0
100
AcDbLine
10
-2.30908383092319
20
1.65555885696694
30
0.0
11
-2.37574983092319
21
1.68555785696694
31
0.0
39
0.0
210
0.0
220
0.0
230
1.0
0
LINE
5
A5
330
22
100
AcDbEntity
8
0
62
256
6
Continuous
370
-1
48
1.0
60
0
100
AcDbLine
10
-2.37574983092319
20
1.68555785696694
30
0.0
11
-2.30908383092319
21
1.65555885696694
31
0.0
39
0.0
210
0.0
220
0.0
230
1.0
0
LINE
5
A6
330
22
100
AcDbEntity
8
0
62
256
6
Continuous
370
-1
48
1.0
60
0
100
AcDbLine
10
-2.30908383092319
20
1.65555885696694
30
0.0
11
-2.27241683092319
21
1.65555885696694
31
0.0
39
0.0
210
0.0
220
0.0
230
1.0
0
LINE
5
A7
330
22
100
AcDbEntity
8
0
62
256
6
Continuous
370
-1
48
1.0
60
0
100
AcDbLine
10
-2.27241683092319
20
1.65555885696694
30
0.0
11
-2.17241683092319
21
1.75222485696694
31
0.0
39
0.0
210
0.0
220
0.0
230
1.0
0
LINE
5
A8
330
22
100
AcDbEntity
8
0
62
256
6
Continuous
370
-1
48
1.0
60
0
100
AcDbLine
10
-2.17241683092319
20
1.75222485696694
30
0.0
11
-2.07574983092319
21
1.80555885696694
31
0.0
39
0.0
210
0.0
220
0.0
230
1.0
0
LINE
5
A9
330
22
100
AcDbEntity
8
0
62
256
6
Continuous
370
-1
48
1.0
60
0
100
AcDbLine
10
-2.07574983092319
20
1.80555885696694
30
0.0
11
-1.98908383092319
21
1.80555885696694
31
0.0
39
0.0
210
0.0
220
0.0
230
1.0
0
LINE
5
AA
330
22
100
AcDbEntity
8
0
62
256
6
Continuous
370
-1
48
1.0
60
0
100
AcDbLine
10
-1.51241683092319
20
1.80555885696694
30
0.0
11
-1.50574983092319
21
1.80555885696694
31
0.0
39
0.0
210
0.0
220
0.0
230
1.0
0
LINE
5
AB
330
22
100
AcDbEntity
8
0
62
256
6
Continuous
370
-1
48
1.0
60
0
100
AcDbLine
10
-1.50574983092319
20
1.80555885696694
30
0.0
11
-1.24241683092319
21
1.80222485696694
31
0.0
39
0.0
210
0.0
220
0.0
230
1.0
0
LINE
5
AC
330
22
100
AcDbEntity
8
0
62
256
6
Continuous
370
-1
48
1.0
60
0
100
AcDbLine
10
-1.24241683092319
20
1.80222485696694
30
0.0
11
-1.52241683092319
21
1.80222485696694
31
0.0
39
0.0
210
0.0
220
0.0
230
1.0
0
LINE
5
AD
330
22
100
AcDbEntity
8
0
62
256
6
Continuous
370
-1
48
1.0
60
0
100
AcDbLine
10
-1.52241683092319
20
1.80222485696694
30
0.0
11
-1.51241683092319
21
1.80555885696694
31
0.0
39
0.0
210
0.0
220
0.0
230
1.0
0
LINE
5
AE
330
22
100
AcDbEntity
8
0
62
256
6
Continuous
370
-1
48
1.0
60
0
100
AcDbLine
10
-1.19908383092319
20
1.80555885696694
30
0.0
11
-1.18908383092319
21
1.80222485696694
31
0.0
39
0.0
210
0.0
220
0.0
230
1.0
0
LINE
5
AF
330
22
100
AcDbEntity
8
0
62
256
6
Continuous
370
-1
48
1.0
60
0
100
AcDbLine
10
-1.18908383092319
20
1.80222485696694
30
0.0
11
-1.23574983092319
21
1.80222485696694
31
0.0
39
0.0
210
0.0
220
0.0
230
1.0
0
LINE
5
B0
330
22
100
AcDbEntity
8
0
62
256
6
Continuous
370
-1
48
1.0
60
0
100
AcDbLine
10
-1.23574983092319
20
1.80222485696694
30
0.0
11
-1.19908383092319
21
1.80555885696694
31
0.0
39
0.0
210
0.0
220
0.0
230
1.0
0
LINE
5
B1
330
22
100
AcDbEntity
8
0
62
256
6
Continuous
370
-1
48
1.0
60
0
100
AcDbLine
10
-1.16908383092319
20
1.80555885696694
30
0.0
11
-1.16241683092319
21
1.80222485696694
31
0.0
39
0.0
210
0.0
220
0.0
230
1.0
0
LINE
5
B2
330
22
100
AcDbEntity
8
0
62
256
6
Continuous
370
-1
48
1.0
60
0
100
AcDbLine
10
-1.16241683092319
20
1.80222485696694
30
0.0
11
-1.14241683092319
21
1.80222485696694
31
0.0
39
0.0
210
0.0
220
0.0
230
1.0
0
LINE
5
B3
330
22
100
AcDbEntity
8
0
62
256
6
Continuous
370
-1
48
1.0
60
0
100
AcDbLine
10
-1.14241683092319
20
1.80222485696694
30
0.0
11
-1.18241683092319
21
1.80222485696694
31
0.0
39
0.0
210
0.0
220
0.0
230
1.0
0
LINE
5
B4
330
22
100
AcDbEntity
8
0
62
256
6
Continuous
370
-1
48
1.0
60
0
100
AcDbLine
10
-1.18241683092319
20
1.80222485696694
30
0.0
11
-1.16908383092319
21
1.80555885696694
31
0.0
39
0.0
210
0.0
220
0.0
230
1.0
0
LINE
5
B5
330
22
100
AcDbEntity
8
0
62
256
6
Continuous
370
-1
48
1.0
60
0
100
AcDbLine
10
-1.09241683092319
20
1.80555885696694
30
0.0
11
-1.08574983092319
21
1.80222485696694
31
0.0
39
0.0
210
0.0
220
0.0
230
1.0
0
LINE
5
B6
330
22
100
AcDbEntity
8
0
62
256
6
Continuous
370
-1
48
1.0
60
0
100
AcDbLine
10
-1.08574983092319
20
1.80222485696694
30
0.0
11
-1.04908383092319
21
1.80222485696694
31
0.0
39
0.0
210
0.0
220
0.0
230
1.0
0
LINE
5
B7
330
22
100
AcDbEntity
8
0
62
256
6
Continuous
370
-1
48
1.0
60
0
100
AcDbLine
10
-1.04908383092319
20
1.80222485696694
30
0.0
11
-1.13241683092319
21
1.80222485696694
31
0.0
39
0.0
210
0.0
220
0.0
230
1.0
0
LINE
5
B8
330
22
100
AcDbEntity
8
0
62
256
6
Continuous
370
-1
48
1.0
60
0
100
AcDbLine
10
-1.13241683092319
20
1.80222485696694
30
0.0
11
-1.09241683092319
21
1.80555885696694
31
0.0
39
0.0
210
0.0
220
0.0
230
1.0
0
LINE
5
B9
330
22
100
AcDbEntity
8
0
62
256
6
Continuous
370
-1
48
1.0
60
0
100
AcDbLine
10
-0.84241683092319
20
1.80555885696694
30
0.0
11
-0.83574983092319
21
1.80222485696694
31
0.0
39
0.0
210
0.0
220
0.0
230
1.0
0
LINE
5
BA
330
22
100
AcDbEntity
8
0
62
256
6
Continuous
370
-1
48
1.0
60
0
100
AcDbLine
10
-0.83574983092319
20
1.80222485696694
30
0.0
11
-0.70908383092319
21
1.80222485696694
31
0.0
39
0.0
210
0.0
220
0.0
230
1.0
0
LINE
5
BB
330
22
100
AcDbEntity
8
0
62
256
6
Continuous
370
-1
48
1.0
60
0
100
AcDbLine
10
-0.70908383092319
20
1.80222485696694
30
0.0
11
-1.04241683092319
21
1.80222485696694
31
0.0
39
0.0
210
0.0
220
0.0
230
1.0
0
LINE
5
BC
330
22
100
AcDbEntity
8
0
62
256
6
Continuous
370
-1
48
1.0
60
0
100
AcDbLine
10
-1.04241683092319
20
1.80222485696694
30
0.0
11
-0.84241683092319
21
1.80555885696694
31
0.0
39
0.0
210
0.0
220
0.0
230
1.0
0
LINE
5
BD
330
22
100
AcDbEntity
8
0
62
256
6
Continuous
370
-1
48
1.0
60
0
100
AcDbLine
10
-0.66908383092319
20
1.80555885696694
30
0.0
11
-0.65574983092319
21
1.80222485696694
31
0.0
39
0.0
210
0.0
220
0.0
230
1.0
0
LINE
5
BE
330
22
100
AcDbEntity
8
0
62
256
6
Continuous
370
-1
48
1.0
60
0
100
AcDbLine
10
-0.65574983092319
20
1.80222485696694
30
0.0
11
-0.64908383092319
21
1.80222485696694
31
0.0
39
0.0
210
0.0
220
0.0
230
1.0
0
LINE
5
BF
330
22
100
AcDbEntity
8
0
62
256
6
Continuous
370
-1
48
1.0
60
0
100
AcDbLine
10
-0.64908383092319
20
1.80222485696694
30
0.0
11
-0.70241683092319
21
1.80222485696694
31
0.0
39
0.0
210
0.0
220
0.0
230
1.0
0
LINE
5
C0
330
22
100
AcDbEntity
8
0
62
256
6
Continuous
370
-1
48
1.0
60
0
100
AcDbLine
10
-0.70241683092319
20
1.80222485696694
30
0.0
11
-0.66908383092319
21
1.80555885696694
31
0.0
39
0.0
210
0.0
220
0.0
230
1.0
0
LINE
5
C1
330
22
100
AcDbEntity
8
0
62
256
6
Continuous
370
-1
48
1.0
60
0
100
AcDbLine
10
-0.63241683092319
20
1.80555885696694
30
0.0
11
-0.62574983092319
21
1.80222485696694
31
0.0
39
0.0
210
0.0
220
0.0
230
1.0
0
LINE
5
C2
330
22
100
AcDbEntity
8
0
62
256
6
Continuous
370
-1
48
1.0
60
0
100
AcDbLine
10
-0.62574983092319
20
1.80222485696694
30
0.0
11
-0.56241683092319
21
1.80222485696694
31
0.0
39
0.0
210
0.0
220
0.0
230
1.0
0
LINE
5
C3
330
22
100
AcDbEntity
8
0
62
256
6
Continuous
370
-1
48
1.0
60
0
100
AcDbLine
10
-0.56241683092319
20
1.80222485696694
30
0.0
11
-0.63241683092319
21
1.80555885696694
31
0.0
39
0.0
210
0.0
220
0.0
230
1.0
0
LINE
5
C4
330
22
100
AcDbEntity
8
0
62
256
6
Continuous
370
-1
48
1.0
60
0
100
AcDbLine
10
-0.49908383092319
20
1.80555885696694
30
0.0
11
-0.49241683092319
21
1.80222485696694
31
0.0
39
0.0
210
0.0
220
0.0
230
1.0
0
LINE
5
C5
330
22
100
AcDbEntity
8
0
62
256
6
Continuous
370
-1
48
1.0
60
0
100
AcDbLine
10
-0.49241683092319
20
1.80222485696694
30
0.0
11
-0.30574983092319
21
1.80222485696694
31
0.0
39
0.0
210
0.0
220
0.0
230
1.0
0
LINE
5
C6
330
22
100
AcDbEntity
8
0
62
256
6
Continuous
370
-1
48
1.0
60
0
100
AcDbLine
10
-0.30574983092319
20
1.80222485696694
30
0.0
11
-0.55574983092319
21
1.80222485696694
31
0.0
39
0.0
210
0.0
220
0.0
230
1.0
0
LINE
5
C7
330
22
100
AcDbEntity
8
0
62
256
6
Continuous
370
-1
48
1.0
60
0
100
AcDbLine
10
-0.55574983092319
20
1.80222485696694
30
0.0
11
-0.49908383092319
21
1.80555885696694
31
0.0
39
0.0
210
0.0
220
0.0
230
1.0
0
LINE
5
C8
330
22
100
AcDbEntity
8
0
62
256
6
Continuous
370
-1
48
1.0
60
0
100
AcDbLine
10
-0.24908383092319
20
1.80555885696694
30
0.0
11
-0.24241683092319
21
1.80222485696694
31
0.0
39
0.0
210
0.0
220
0.0
230
1.0
0
LINE
5
C9
330
22
100
AcDbEntity
8
0
62
256
6
Continuous
370
-1
48
1.0
60
0
100
AcDbLine
10
-0.24241683092319
20
1.80222485696694
30
0.0
11
0.05091616907681
21
1.80222485696694
31
0.0
39
0.0
210
0.0
220
0.0
230
1.0
0
LINE
5
CA
330
22
100
AcDbEntity
8
0
62
256
6
Continuous
370
-1
48
1.0
60
0
100
AcDbLine
10
0.05091616907681
20
1.80222485696694
30
0.0
11
-0.27574983092319
21
1.80222485696694
31
0.0
39
0.0
210
0.0
220
0.0
230
1.0
0
LINE
5
CB
330
22
100
AcDbEntity
8
0
62
256
6
Continuous
370
-1
48
1.0
60
0
100
AcDbLine
10
-0.27574983092319
20
1.80222485696694
30
0.0
11
-0.24908383092319
21
1.80555885696694
31
0.0
39
0.0
210
0.0
220
0.0
230
1.0
0
LINE
5
CC
330
22
100
AcDbEntity
8
0
62
256
6
Continuous
370
-1
48
1.0
60
0
100
AcDbLine
10
0.07758316907681
20
1.80555885696694
30
0.0
11
0.08425016907681
21
1.80222485696694
31
0.0
39
0.0
210
0.0
220
0.0
230
1.0
0
LINE
5
CD
330
22
100
AcDbEntity
8
0
62
256
6
Continuous
370
-1
48
1.0
60
0
100
AcDbLine
10
0.08425016907681
20
1.80222485696694
30
0.0
11
0.24758316907681
21
1.80555885696694
31
0.0
39
0.0
210
0.0
220
0.0
230
1.0
0
LINE
5
CE
330
22
100
AcDbEntity
8
0
62
256
6
Continuous
370
-1
48
1.0
60
0
100
AcDbLine
10
0.24758316907681
20
1.80555885696694
30
0.0
11
0.05758316907681
21
1.80222485696694
31
0.0
39
0.0
210
0.0
220
0.0
230
1.0
0
LINE
5
CF
330
22
100
AcDbEntity
8
0
62
256
6
Continuous
370
-1
48
1.0
60
0
100
AcDbLine
10
0.05758316907681
20
1.80222485696694
30
0.0
11
0.07758316907681
21
1.80555885696694
31
0.0
39
0.0
210
0.0
220
0.0
230
1.0
0
LINE
5
D0
330
22
100
AcDbEntity
8
0
62
256
6
Continuous
370
-1
48
1.0
60
0
100
AcDbLine
10
0.30425016907681
20
1.80555885696694
30
0.0
11
0.31091716907681
21
1.80222485696694
31
0.0
39
0.0
210
0.0
220
0.0
230
1.0
0
LINE
5
D1
330
22
100
AcDbEntity
8
0
62
256
6
Continuous
370
-1
48
1.0
60
0
100
AcDbLine
10
0.31091716907681
20
1.80222485696694
30
0.0
11
0.50425016907681
21
1.80222485696694
31
0.0
39
0.0
210
0.0
220
0.0
230
1.0
0
LINE
5
D2
330
22
100
AcDbEntity
8
0
62
256
6
Continuous
370
-1
48
1.0
60
0
100
AcDbLine
10
0.50425016907681
20
1.80222485696694
30
0.0
11
0.25425016907681
21
1.80222485696694
31
0.0
39
0.0
210
0.0
220
0.0
230
1.0
0
LINE
5
D3
330
22
100
AcDbEntity
8
0
62
256
6
Continuous
370
-1
48
1.0
60
0
100
AcDbLine
10
0.25425016907681
20
1.80222485696694
30
0.0
11
0.30425016907681
21
1.80555885696694
31
0.0
39
0.0
210
0.0
220
0.0
230
1.0
0
LINE
5
D4
330
22
100
AcDbEntity
8
0
62
256
6
Continuous
370
-1
48
1.0
60
0
100
AcDbLine
10
0.70091616907681
20
1.80555885696694
30
0.0
11
0.70758316907681
21
1.80555885696694
31
0.0
39
0.0
210
0.0
220
0.0
230
1.0
0
LINE
5
D5
330
22
100
AcDbEntity
8
0
62
256
6
Continuous
370
-1
48
1.0
60
0
100
AcDbLine
10
0.70758316907681
20
1.80555885696694
30
0.0
11
0.73425016907681
21
1.80222485696694
31
0.0
39
0.0
210
0.0
220
0.0
230
1.0
0
LINE
5
D6
330
22
100
AcDbEntity
8
0
62
256
6
Continuous
370
-1
48
1.0
60
0
100
AcDbLine
10
0.73425016907681
20
1.80222485696694
30
0.0
11
0.68758316907681
21
1.80222485696694
31
0.0
39
0.0
210
0.0
220
0.0
230
1.0
0
LINE
5
D7
330
22
100
AcDbEntity
8
0
62
256
6
Continuous
370
-1
48
1.0
60
0
100
AcDbLine
10
0.68758316907681
20
1.80222485696694
30
0.0
11
0.70091616907681
21
1.80555885696694
31
0.0
39
0.0
210
0.0
220
0.0
230
1.0
0
LINE
5
D8
330
22
100
AcDbEntity
8
0
62
256
6
Continuous
370
-1
48
1.0
60
0
100
AcDbLine
10
0.87758316907681
20
1.80555885696694
30
0.0
11
0.88425016907681
21
1.80222485696694
31
0.0
39
0.0
210
0.0
220
0.0
230
1.0
0
LINE
5
D9
330
22
100
AcDbEntity
8
0
62
256
6
Continuous
370
-1
48
1.0
60
0
100
AcDbLine
10
0.88425016907681
20
1.80222485696694
30
0.0
11
0.97758316907681
21
1.80222485696694
31
0.0
39
0.0
210
0.0
220
0.0
230
1.0
0
LINE
5
DA
330
22
100
AcDbEntity
8
0
62
256
6
Continuous
370
-1
48
1.0
60
0
100
AcDbLine
10
0.97758316907681
20
1.80222485696694
30
0.0
11
0.78758316907681
21
1.80222485696694
31
0.0
39
0.0
210
0.0
220
0.0
230
1.0
0
LINE
5
DB
330
22
100
AcDbEntity
8
0
62
256
6
Continuous
370
-1
48
1.0
60
0
100
AcDbLine
10
0.78758316907681
20
1.80222485696694
30
0.0
11
0.87758316907681
21
1.80555885696694
31
0.0
39
0.0
210
0.0
220
0.0
230
1.0
0
LINE
5
DC
330
22
100
AcDbEntity
8
0
62
256
6
Continuous
370
-1
48
1.0
60
0
100
AcDbLine
10
0.98425016907681
20
1.80555885696694
30
0.0
11
0.99091616907681
21
1.80222485696694
31
0.0
39
0.0
210
0.0
220
0.0
230
1.0
0
LINE
5
DD
330
22
100
AcDbEntity
8
0
62
256
6
Continuous
370
-1
48
1.0
60
0
100
AcDbLine
10
0.99091616907681
20
1.80222485696694
30
0.0
11
1.10758316907681
21
1.80222485696694
31
0.0
39
0.0
210
0.0
220
0.0
230
1.0
0
LINE
5
DE
330
22
100
AcDbEntity
8
0
62
256
6
Continuous
370
-1
48
1.0
60
0
100
AcDbLine
10
1.10758316907681
20
1.80222485696694
30
0.0
11
0.98425016907681
21
1.80555885696694
31
0.0
39
0.0
210
0.0
220
0.0
230
1.0
0
LINE
5
DF
330
22
100
AcDbEntity
8
0
62
256
6
Continuous
370
-1
48
1.0
60
0
100
AcDbLine
10
1.14091716907681
20
1.80555885696694
30
0.0
11
1.14758316907681
21
1.80222485696694
31
0.0
39
0.0
210
0.0
220
0.0
230
1.0
0
LINE
5
E0
330
22
100
AcDbEntity
8
0
62
256
6
Continuous
370
-1
48
1.0
60
0
100
AcDbLine
10
1.14758316907681
20
1.80222485696694
30
0.0
11
1.24758316907681
21
1.80222485696694
31
0.0
39
0.0
210
0.0
220
0.0
230
1.0
0
LINE
5
E1
330
22
100
AcDbEntity
8
0
62
256
6
Continuous
370
-1
48
1.0
60
0
100
AcDbLine
10
1.24758316907681
20
1.80222485696694
30
0.0
11
1.11425016907681
21
1.80222485696694
31
0.0
39
0.0
210
0.0
220
0.0
230
1.0
0
LINE
5
E2
330
22
100
AcDbEntity
8
0
62
256
6
Continuous
370
-1
48
1.0
60
0
100
AcDbLine
10
1.11425016907681
20
1.80222485696694
30
0.0
11
1.14091716907681
21
1.80555885696694
31
0.0
39
0.0
210
0.0
220
0.0
230
1.0
0
LINE
5
E3
330
22
100
AcDbEntity
8
0
62
256
6
Continuous
370
-1
48
1.0
60
0
100
AcDbLine
10
1.32091616907681
20
1.80555885696694
30
0.0
11
1.32758316907681
21
1.80222485696694
31
0.0
39
0.0
210
0.0
220
0.0
230
1.0
0
LINE
5
E4
330
22
100
AcDbEntity
8
0
62
256
6
Continuous
370
-1
48
1.0
60
0
100
AcDbLine
10
1.32758316907681
20
1.80222485696694
30
0.0
11
1.48091716907681
21
1.80222485696694
31
0.0
39
0.0
210
0.0
220
0.0
230
1.0
0
LINE
5
E5
330
22
100
AcDbEntity
8
0
62
256
6
Continuous
370
-1
48
1.0
60
0
100
AcDbLine
10
1.48091716907681
20
1.80222485696694
30
0.0
11
1.25425016907681
21
1.80222485696694
31
0.0
39
0.0
210
0.0
220
0.0
230
1.0
0
LINE
5
E6
330
22
100
AcDbEntity
8
0
62
256
6
Continuous
370
-1
48
1.0
60
0
100
AcDbLine
10
1.25425016907681
20
1.80222485696694
30
0.0
11
1.32091616907681
21
1.80555885696694
31
0.0
39
0.0
210
0.0
220
0.0
230
1.0
0
LINE
5
E7
330
22
100
AcDbEntity
8
0
62
256
6
Continuous
370
-1
48
1.0
60
0
100
AcDbLine
10
1.66758316907681
20
1.80555885696694
30
0.0
11
1.68091716907681
21
1.80222485696694
31
0.0
39
0.0
210
0.0
220
0.0
230
1.0
0
LINE
5
E8
330
22
100
AcDbEntity
8
0
62
256
6
Continuous
370
-1
48
1.0
60
0
100
AcDbLine
10
1.68091716907681
20
1.80222485696694
30
0.0
11
1.59425016907681
21
1.80222485696694
31
0.0
39
0.0
210
0.0
220
0.0
230
1.0
0
LINE
5
E9
330
22
100
AcDbEntity
8
0
62
256
6
Continuous
370
-1
48
1.0
60
0
100
AcDbLine
10
1.59425016907681
20
1.80222485696694
30
0.0
11
1.66758316907681
21
1.80555885696694
31
0.0
39
0.0
210
0.0
220
0.0
230
1.0
0
LINE
5
EA
330
22
100
AcDbEntity
8
0
62
256
6
Continuous
370
-1
48
1.0
60
0
100
AcDbLine
10
1.82425016907681
20
1.80555885696694
30
0.0
11
1.83091716907681
21
1.80555885696694
31
0.0
39
0.0
210
0.0
220
0.0
230
1.0
0
LINE
5
EB
330
22
100
AcDbEntity
8
0
62
256
6
Continuous
370
-1
48
1.0
60
0
100
AcDbLine
10
1.83091716907681
20
1.80555885696694
30
0.0
11
1.88758316907681
21
1.80222485696694
31
0.0
39
0.0
210
0.0
220
0.0
230
1.0
0
LINE
5
EC
330
22
100
AcDbEntity
8
0
62
256
6
Continuous
370
-1
48
1.0
60
0
100
AcDbLine
10
1.88758316907681
20
1.80222485696694
30
0.0
11
1.80758316907681
21
1.80222485696694
31
0.0
39
0.0
210
0.0
220
0.0
230
1.0
0
LINE
5
ED
330
22
100
AcDbEntity
8
0
62
256
6
Continuous
370
-1
48
1.0
60
0
100
AcDbLine
10
1.80758316907681
20
1.80222485696694
30
0.0
11
1.82425016907681
21
1.80555885696694
31
0.0
39
0.0
210
0.0
220
0.0
230
1.0
0
LINE
5
EE
330
22
100
AcDbEntity
8
0
62
256
6
Continuous
370
-1
48
1.0
60
0
100
AcDbLine
10
1.94425016907681
20
1.80555885696694
30
0.0
11
1.95091616907681
21
1.80222485696694
31
0.0
39
0.0
210
0.0
220
0.0
230
1.0
0
LINE
5
EF
330
22
100
AcDbEntity
8
0
62
256
6
Continuous
370
-1
48
1.0
60
0
100
AcDbLine
10
1.95091616907681
20
1.80222485696694
30
0.0
11
2.01091616907681
21
1.80222485696694
31
0.0
39
0.0
210
0.0
220
0.0
230
1.0
0
LINE
5
F0
330
22
100
AcDbEntity
8
0
62
256
6
Continuous
370
-1
48
1.0
60
0
100
AcDbLine
10
2.01091616907681
20
1.80222485696694
30
0.0
11
1.89425016907681
21
1.80222485696694
31
0.0
39
0.0
210
0.0
220
0.0
230
1.0
0
LINE
5
F1
330
22
100
AcDbEntity
8
0
62
256
6
Continuous
370
-1
48
1.0
60
0
100
AcDbLine
10
1.89425016907681
20
1.80222485696694
30
0.0
11
1.94425016907681
21
1.80555885696694
31
0.0
39
0.0
210
0.0
220
0.0
230
1.0
0
LINE
5
F2
330
22
100
AcDbEntity
8
0
62
256
6
Continuous
370
-1
48
1.0
60
0
100
AcDbLine
10
2.03758316907681
20
1.80555885696694
30
0.0
11
2.04425016907681
21
1.80222485696694
31
0.0
39
0.0
210
0.0
220
0.0
230
1.0
0
LINE
5
F3
330
22
100
AcDbEntity
8
0
62
256
6
Continuous
370
-1
48
1.0
60
0
100
AcDbLine
10
2.04425016907681
20
1.80222485696694
30
0.0
11
2.17091616907681
21
1.80222485696694
31
0.0
39
0.0
210
0.0
220
0.0
230
1.0
0
LINE
5
F4
330
22
100
AcDbEntity
8
0
62
256
6
Continuous
370
-1
48
1.0
60
0
100
AcDbLine
10
2.17091616907681
20
1.80222485696694
30
0.0
11
2.03758316907681
21
1.80555885696694
31
0.0
39
0.0
210
0.0
220
0.0
230
1.0
0
LINE
5
F5
330
22
100
AcDbEntity
8
0
62
256
6
Continuous
370
-1
48
1.0
60
0
100
AcDbLine
10
2.26758316907681
20
1.80555885696694
30
0.0
11
2.25758316907681
21
1.81222485696694
31
0.0
39
0.0
210
0.0
220
0.0
230
1.0
0
LINE
5
F6
330
22
100
AcDbEntity
8
0
62
256
6
Continuous
370
-1
48
1.0
60
0
100
AcDbLine
10
2.25758316907681
20
1.81222485696694
30
0.0
11
2.26758316907681
21
1.80555885696694
31
0.0
39
0.0
210
0.0
220
0.0
230
1.0
0
LINE
5
F7
330
22
100
AcDbEntity
8
0
62
256
6
Continuous
370
-1
48
1.0
60
0
100
AcDbLine
10
-0.64241683092319
20
1.80222485696694
30
0.0
11
-0.63908383092319
21
1.80555885696694
31
0.0
39
0.0
210
0.0
220
0.0
230
1.0
0
LINE
5
F8
330
22
100
AcDbEntity
8
0
62
256
6
Continuous
370
-1
48
1.0
60
0
100
AcDbLine
10
-0.63908383092319
20
1.80555885696694
30
0.0
11
-0.56241683092319
21
1.80222485696694
31
0.0
39
0.0
210
0.0
220
0.0
230
1.0
0
LINE
5
F9
330
22
100
AcDbEntity
8
0
62
256
6
Continuous
370
-1
48
1.0
60
0
100
AcDbLine
10
-0.56241683092319
20
1.80222485696694
30
0.0
11
-0.64241683092319
21
1.80222485696694
31
0.0
39
0.0
210
0.0
220
0.0
230
1.0
0
LINE
5
FA
330
22
100
AcDbEntity
8
0
62
256
6
Continuous
370
-1
48
1.0
60
0
100
AcDbLine
10
-0.29908383092319
20
1.80222485696694
30
0.0
11
-0.28241683092319
21
1.80222485696694
31
0.0
39
0.0
210
0.0
220
0.0
230
1.0
0
LINE
5
FB
330
22
100
AcDbEntity
8
0
62
256
6
Continuous
370
-1
48
1.0
60
0
100
AcDbLine
10
-0.28241683092319
20
1.80222485696694
30
0.0
11
-0.29908383092319
21
1.80222485696694
31
0.0
39
0.0
210
0.0
220
0.0
230
1.0
0
LINE
5
FC
330
22
100
AcDbEntity
8
0
62
256
6
Continuous
370
-1
48
1.0
60
0
100
AcDbLine
10
0.51091616907681
20
1.80222485696694
30
0.0
11
0.55425016907681
21
1.80222485696694
31
0.0
39
0.0
210
0.0
220
0.0
230
1.0
0
LINE
5
FD
330
22
100
AcDbEntity
8
0
62
256
6
Continuous
370
-1
48
1.0
60
0
100
AcDbLine
10
0.55425016907681
20
1.80222485696694
30
0.0
11
0.68091716907681
21
1.80555885696694
31
0.0
39
0.0
210
0.0
220
0.0
230
1.0
0
LINE
5
FE
330
22
100
AcDbEntity
8
0
62
256
6
Continuous
370
-1
48
1.0
60
0
100
AcDbLine
10
0.68091716907681
20
1.80555885696694
30
0.0
11
0.51091616907681
21
1.80222485696694
31
0.0
39
0.0
210
0.0
220
0.0
230
1.0
0
LINE
5
FF
330
22
100
AcDbEntity
8
0
62
256
6
Continuous
370
-1
48
1.0
60
0
100
AcDbLine
10
0.74091616907681
20
1.80222485696694
30
0.0
11
0.76758316907681
21
1.80222485696694
31
0.0
39
0.0
210
0.0
220
0.0
230
1.0
0
LINE
5
100
330
22
100
AcDbEntity
8
0
62
256
6
Continuous
370
-1
48
1.0
60
0
100
AcDbLine
10
0.76758316907681
20
1.80222485696694
30
0.0
11
0.78091616907681
21
1.80222485696694
31
0.0
39
0.0
210
0.0
220
0.0
230
1.0
0
LINE
5
101
330
22
100
AcDbEntity
8
0
62
256
6
Continuous
370
-1
48
1.0
60
0
100
AcDbLine
10
0.78091616907681
20
1.80222485696694
30
0.0
11
0.74091616907681
21
1.80222485696694
31
0.0
39
0.0
210
0.0
220
0.0
230
1.0
0
LINE
5
102
330
22
100
AcDbEntity
8
0
62
256
6
Continuous
370
-1
48
1.0
60
0
100
AcDbLine
10
1.49425016907681
20
1.80222485696694
30
0.0
11
1.51091616907681
21
1.80222485696694
31
0.0
39
0.0
210
0.0
220
0.0
230
1.0
0
LINE
5
103
330
22
100
AcDbEntity
8
0
62
256
6
Continuous
370
-1
48
1.0
60
0
100
AcDbLine
10
1.51091616907681
20
1.80222485696694
30
0.0
11
1.49425016907681
21
1.80222485696694
31
0.0
39
0.0
210
0.0
220
0.0
230
1.0
0
LINE
5
104
330
22
100
AcDbEntity
8
0
62
256
6
Continuous
370
-1
48
1.0
60
0
100
AcDbLine
10
1.51758316907681
20
1.80222485696694
30
0.0
11
1.52758316907681
21
1.80222485696694
31
0.0
39
0.0
210
0.0
220
0.0
230
1.0
0
LINE
5
105
330
22
100
AcDbEntity
8
0
62
256
6
Continuous
370
-1
48
1.0
60
0
100
AcDbLine
10
1.52758316907681
20
1.80222485696694
30
0.0
11
1.58758316907681
21
1.80222485696694
31
0.0
39
0.0
210
0.0
220
0.0
230
1.0
0
LINE
5
106
330
22
100
AcDbEntity
8
0
62
256
6
Continuous
370
-1
48
1.0
60
0
100
AcDbLine
10
1.58758316907681
20
1.80222485696694
30
0.0
11
1.51758316907681
21
1.80222485696694
31
0.0
39
0.0
210
0.0
220
0.0
230
1.0
0
LINE
5
107
330
22
100
AcDbEntity
8
0
62
256
6
Continuous
370
-1
48
1.0
60
0
100
AcDbLine
10
1.68758316907681
20
1.80222485696694
30
0.0
11
1.70425016907681
21
1.80222485696694
31
0.0
39
0.0
210
0.0
220
0.0
230
1.0
0
LINE
5
108
330
22
100
AcDbEntity
8
0
62
256
6
Continuous
370
-1
48
1.0
60
0
100
AcDbLine
10
1.70425016907681
20
1.80222485696694
30
0.0
11
1.75425016907681
21
1.80222485696694
31
0.0
39
0.0
210
0.0
220
0.0
230
1.0
0
LINE
5
109
330
22
100
AcDbEntity
8
0
62
256
6
Continuous
370
-1
48
1.0
60
0
100
AcDbLine
10
1.75425016907681
20
1.80222485696694
30
0.0
11
1.68758316907681
21
1.80222485696694
31
0.0
39
0.0
210
0.0
220
0.0
230
1.0
0
LINE
5
10A
330
22
100
AcDbEntity
8
0
62
256
6
Continuous
370
-1
48
1.0
60
0
100
AcDbLine
10
1.76091616907681
20
1.80222485696694
30
0.0
11
1.80091616907681
21
1.80222485696694
31
0.0
39
0.0
210
0.0
220
0.0
230
1.0
0
LINE
5
10B
330
22
100
AcDbEntity
8
0
62
256
6
Continuous
370
-1
48
1.0
60
0
100
AcDbLine
10
1.80091616907681
20
1.80222485696694
30
0.0
11
1.76091616907681
21
1.80222485696694
31
0.0
39
0.0
210
0.0
220
0.0
230
1.0
0
LINE
5
10C
330
22
100
AcDbEntity
8
0
62
256
6
Continuous
370
-1
48
1.0
60
0
100
AcDbLine
10
2.01758316907681
20
1.80222485696694
30
0.0
11
2.03425016907681
21
1.80222485696694
31
0.0
39
0.0
210
0.0
220
0.0
230
1.0
0
LINE
5
10D
330
22
100
AcDbEntity
8
0
62
256
6
Continuous
370
-1
48
1.0
60
0
100
AcDbLine
10
2.03425016907681
20
1.80222485696694
30
0.0
11
2.17091616907681
21
1.80222485696694
31
0.0
39
0.0
210
0.0
220
0.0
230
1.0
0
LINE
5
10E
330
22
100
AcDbEntity
8
0
62
256
6
Continuous
370
-1
48
1.0
60
0
100
AcDbLine
10
2.17091616907681
20
1.80222485696694
30
0.0
11
2.01758316907681
21
1.80222485696694
31
0.0
39
0.0
210
0.0
220
0.0
230
1.0
0
LINE
5
10F
330
22
100
AcDbEntity
8
0
62
256
6
Continuous
370
-1
48
1.0
60
0
100
AcDbLine
10
2.27425016907681
20
1.80222485696694
30
0.0
11
2.25758316907681
21
1.81222485696694
31
0.0
39
0.0
210
0.0
220
0.0
230
1.0
0
LINE
5
110
330
22
100
AcDbEntity
8
0
62
256
6
Continuous
370
-1
48
1.0
60
0
100
AcDbLine
10
2.25758316907681
20
1.81222485696694
30
0.0
11
2.27425016907681
21
1.80222485696694
31
0.0
39
0.0
210
0.0
220
0.0
230
1.0
0
LINE
5
111
330
22
100
AcDbEntity
8
0
62
256
6
Continuous
370
-1
48
1.0
60
0
100
AcDbLine
10
2.28091616907681
20
1.79889185696694
30
0.0
11
2.25758316907681
21
1.81222485696694
31
0.0
39
0.0
210
0.0
220
0.0
230
1.0
0
LINE
5
112
330
22
100
AcDbEntity
8
0
62
256
6
Continuous
370
-1
48
1.0
60
0
100
AcDbLine
10
2.25758316907681
20
1.81222485696694
30
0.0
11
2.28091616907681
21
1.79889185696694
31
0.0
39
0.0
210
0.0
220
0.0
230
1.0
0
LINE
5
113
330
22
100
AcDbEntity
8
0
62
256
6
Continuous
370
-1
48
1.0
60
0
100
AcDbLine
10
2.28758316907681
20
1.79555885696694
30
0.0
11
2.25758316907681
21
1.81222485696694
31
0.0
39
0.0
210
0.0
220
0.0
230
1.0
0
LINE
5
114
330
22
100
AcDbEntity
8
0
62
256
6
Continuous
370
-1
48
1.0
60
0
100
AcDbLine
10
2.25758316907681
20
1.81222485696694
30
0.0
11
2.28758316907681
21
1.79555885696694
31
0.0
39
0.0
210
0.0
220
0.0
230
1.0
0
LINE
5
115
330
22
100
AcDbEntity
8
0
62
256
6
Continuous
370
-1
48
1.0
60
0
100
AcDbLine
10
2.29091716907681
20
1.79222485696694
30
0.0
11
2.28425016907681
21
1.79889185696694
31
0.0
39
0.0
210
0.0
220
0.0
230
1.0
0
LINE
5
116
330
22
100
AcDbEntity
8
0
62
256
6
Continuous
370
-1
48
1.0
60
0
100
AcDbLine
10
2.28425016907681
20
1.79889185696694
30
0.0
11
2.25758316907681
21
1.81222485696694
31
0.0
39
0.0
210
0.0
220
0.0
230
1.0
0
LINE
5
117
330
22
100
AcDbEntity
8
0
62
256
6
Continuous
370
-1
48
1.0
60
0
100
AcDbLine
10
2.25758316907681
20
1.81222485696694
30
0.0
11
2.31425016907681
21
1.78222485696694
31
0.0
39
0.0
210
0.0
220
0.0
230
1.0
0
LINE
5
118
330
22
100
AcDbEntity
8
0
62
256
6
Continuous
370
-1
48
1.0
60
0
100
AcDbLine
10
2.31425016907681
20
1.78222485696694
30
0.0
11
2.29091716907681
21
1.79222485696694
31
0.0
39
0.0
210
0.0
220
0.0
230
1.0
0
LINE
5
119
330
22
100
AcDbEntity
8
0
62
256
6
Continuous
370
-1
48
1.0
60
0
100
AcDbLine
10
2.32425016907681
20
1.77555785696694
30
0.0
11
2.34425016907681
21
1.76555785696694
31
0.0
39
0.0
210
0.0
220
0.0
230
1.0
0
LINE
5
11A
330
22
100
AcDbEntity
8
0
62
256
6
Continuous
370
-1
48
1.0
60
0
100
AcDbLine
10
2.34425016907681
20
1.76555785696694
30
0.0
11
2.38758316907681
21
1.72555785696694
31
0.0
39
0.0
210
0.0
220
0.0
230
1.0
0
LINE
5
11B
330
22
100
AcDbEntity
8
0
62
256
6
Continuous
370
-1
48
1.0
60
0
100
AcDbLine
10
2.38758316907681
20
1.72555785696694
30
0.0
11
2.34425016907681
21
1.76555785696694
31
0.0
39
0.0
210
0.0
220
0.0
230
1.0
0
LINE
5
11C
330
22
100
AcDbEntity
8
0
62
256
6
Continuous
370
-1
48
1.0
60
0
100
AcDbLine
10
2.34425016907681
20
1.76555785696694
30
0.0
11
2.32425016907681
21
1.77555785696694
31
0.0
39
0.0
210
0.0
220
0.0
230
1.0
0
LINE
5
11D
330
22
100
AcDbEntity
8
0
62
256
6
Continuous
370
-1
48
1.0
60
0
100
AcDbLine
10
2.42091616907681
20
1.69555785696694
30
0.0
11
2.39425016907681
21
1.72222485696694
31
0.0
39
0.0
210
0.0
220
0.0
230
1.0
0
LINE
5
11E
330
22
100
AcDbEntity
8
0
62
256
6
Continuous
370
-1
48
1.0
60
0
100
AcDbLine
10
2.39425016907681
20
1.72222485696694
30
0.0
11
2.42091616907681
21
1.69555785696694
31
0.0
39
0.0
210
0.0
220
0.0
230
1.0
0
LINE
5
11F
330
22
100
AcDbEntity
8
0
62
256
6
Continuous
370
-1
48
1.0
60
0
100
AcDbLine
10
2.55091616907681
20
1.69555785696694
30
0.0
11
2.55758316907681
21
1.69889185696694
31
0.0
39
0.0
210
0.0
220
0.0
230
1.0
0
LINE
5
120
330
22
100
AcDbEntity
8
0
62
256
6
Continuous
370
-1
48
1.0
60
0
100
AcDbLine
10
2.55758316907681
20
1.69889185696694
30
0.0
11
2.55091616907681
21
1.69555785696694
31
0.0
39
0.0
210
0.0
220
0.0
230
1.0
0
LINE
5
121
330
22
100
AcDbEntity
8
0
62
256
6
Continuous
370
-1
48
1.0
60
0
100
AcDbLine
10
2.54425016907681
20
1.69222485696694
30
0.0
11
2.55758316907681
21
1.69889185696694
31
0.0
39
0.0
210
0.0
220
0.0
230
1.0
0
LINE
5
122
330
22
100
AcDbEntity
8
0
62
256
6
Continuous
370
-1
48
1.0
60
0
100
AcDbLine
10
2.55758316907681
20
1.69889185696694
30
0.0
11
2.54425016907681
21
1.69222485696694
31
0.0
39
0.0
210
0.0
220
0.0
230
1.0
0
LINE
5
123
330
22
100
AcDbEntity
8
0
62
256
6
Continuous
370
-1
48
1.0
60
0
100
AcDbLine
10
2.53425016907681
20
1.68889185696694
30
0.0
11
2.54091716907681
21
1.68889185696694
31
0.0
39
0.0
210
0.0
220
0.0
230
1.0
0
LINE
5
124
330
22
100
AcDbEntity
8
0
62
256
6
Continuous
370
-1
48
1.0
60
0
100
AcDbLine
10
2.54091716907681
20
1.68889185696694
30
0.0
11
2.55758316907681
21
1.69889185696694
31
0.0
39
0.0
210
0.0
220
0.0
230
1.0
0
LINE
5
125
330
22
100
AcDbEntity
8
0
62
256
6
Continuous
370
-1
48
1.0
60
0
100
AcDbLine
10
2.55758316907681
20
1.69889185696694
30
0.0
11
2.53425016907681
21
1.68889185696694
31
0.0
39
0.0
210
0.0
220
0.0
230
1.0
0
LINE
5
126
330
22
100
AcDbEntity
8
0
62
256
6
Continuous
370
-1
48
1.0
60
0
100
AcDbLine
10
2.52758316907681
20
1.68555785696694
30
0.0
11
2.54091716907681
21
1.68889185696694
31
0.0
39
0.0
210
0.0
220
0.0
230
1.0
0
LINE
5
127
330
22
100
AcDbEntity
8
0
62
256
6
Continuous
370
-1
48
1.0
60
0
100
AcDbLine
10
2.54091716907681
20
1.68889185696694
30
0.0
11
2.55758316907681
21
1.69889185696694
31
0.0
39
0.0
210
0.0
220
0.0
230
1.0
0
LINE
5
128
330
22
100
AcDbEntity
8
0
62
256
6
Continuous
370
-1
48
1.0
60
0
100
AcDbLine
10
2.55758316907681
20
1.69889185696694
30
0.0
11
2.52758316907681
21
1.68555785696694
31
0.0
39
0.0
210
0.0
220
0.0
230
1.0
0
LINE
5
129
330
22
100
AcDbEntity
8
0
62
256
6
Continuous
370
-1
48
1.0
60
0
100
AcDbLine
10
2.52091716907681
20
1.68222485696694
30
0.0
11
2.53425016907681
21
1.68889185696694
31
0.0
39
0.0
210
0.0
220
0.0
230
1.0
0
LINE
5
12A
330
22
100
AcDbEntity
8
0
62
256
6
Continuous
370
-1
48
1.0
60
0
100
AcDbLine
10
2.53425016907681
20
1.68889185696694
30
0.0
11
2.55758316907681
21
1.69889185696694
31
0.0
39
0.0
210
0.0
220
0.0
230
1.0
0
LINE
5
12B
330
22
100
AcDbEntity
8
0
62
256
6
Continuous
370
-1
48
1.0
60
0
100
AcDbLine
10
2.55758316907681
20
1.69889185696694
30
0.0
11
2.52091716907681
21
1.68222485696694
31
0.0
39
0.0
210
0.0
220
0.0
230
1.0
0
LINE
5
12C
330
22
100
AcDbEntity
8
0
62
256
6
Continuous
370
-1
48
1.0
60
0
100
AcDbLine
10
2.51091616907681
20
1.67889185696694
30
0.0
11
2.51758316907681
21
1.67889185696694
31
0.0
39
0.0
210
0.0
220
0.0
230
1.0
0
LINE
5
12D
330
22
100
AcDbEntity
8
0
62
256
6
Continuous
370
-1
48
1.0
60
0
100
AcDbLine
10
2.51758316907681
20
1.67889185696694
30
0.0
11
2.55758316907681
21
1.69889185696694
31
0.0
39
0.0
210
0.0
220
0.0
230
1.0
0
LINE
5
12E
330
22
100
AcDbEntity
8
0
62
256
6
Continuous
370
-1
48
1.0
60
0
100
AcDbLine
10
2.55758316907681
20
1.69889185696694
30
0.0
11
2.50758316907681
21
1.67555885696694
31
0.0
39
0.0
210
0.0
220
0.0
230
1.0
0
LINE
5
12F
330
22
100
AcDbEntity
8
0
62
256
6
Continuous
370
-1
48
1.0
60
0
100
AcDbLine
10
2.50758316907681
20
1.67555885696694
30
0.0
11
2.51091616907681
21
1.67889185696694
31
0.0
39
0.0
210
0.0
220
0.0
230
1.0
0
LINE
5
130
330
22
100
AcDbEntity
8
0
62
256
6
Continuous
370
-1
48
1.0
60
0
100
AcDbLine
10
2.49758316907681
20
1.67222485696694
30
0.0
11
2.50091716907681
21
1.67222485696694
31
0.0
39
0.0
210
0.0
220
0.0
230
1.0
0
LINE
5
131
330
22
100
AcDbEntity
8
0
62
256
6
Continuous
370
-1
48
1.0
60
0
100
AcDbLine
10
2.50091716907681
20
1.67222485696694
30
0.0
11
2.49758316907681
21
1.67222485696694
31
0.0
39
0.0
210
0.0
220
0.0
230
1.0
0
LINE
5
132
330
22
100
AcDbEntity
8
0
62
256
6
Continuous
370
-1
48
1.0
60
0
100
AcDbLine
10
2.64091716907681
20
1.66889185696694
30
0.0
11
2.63425016907681
21
1.67555885696694
31
0.0
39
0.0
210
0.0
220
0.0
230
1.0
0
LINE
5
133
330
22
100
AcDbEntity
8
0
62
256
6
Continuous
370
-1
48
1.0
60
0
100
AcDbLine
10
2.63425016907681
20
1.67555885696694
30
0.0
11
2.64091716907681
21
1.66889185696694
31
0.0
39
0.0
210
0.0
220
0.0
230
1.0
0
LINE
5
134
330
22
100
AcDbEntity
8
0
62
256
6
Continuous
370
-1
48
1.0
60
0
100
AcDbLine
10
2.45425016907681
20
1.66555885696694
30
0.0
11
2.39425016907681
21
1.72222485696694
31
0.0
39
0.0
210
0.0
220
0.0
230
1.0
0
LINE
5
135
330
22
100
AcDbEntity
8
0
62
256
6
Continuous
370
-1
48
1.0
60
0
100
AcDbLine
10
2.39425016907681
20
1.72222485696694
30
0.0
11
2.45425016907681
21
1.66555885696694
31
0.0
39
0.0
210
0.0
220
0.0
230
1.0
0
LINE
5
136
330
22
100
AcDbEntity
8
0
62
256
6
Continuous
370
-1
48
1.0
60
0
100
AcDbLine
10
2.46425016907681
20
1.66555885696694
30
0.0
11
2.48091716907681
21
1.66555885696694
31
0.0
39
0.0
210
0.0
220
0.0
230
1.0
0
LINE
5
137
330
22
100
AcDbEntity
8
0
62
256
6
Continuous
370
-1
48
1.0
60
0
100
AcDbLine
10
2.48091716907681
20
1.66555885696694
30
0.0
11
2.45425016907681
21
1.66555885696694
31
0.0
39
0.0
210
0.0
220
0.0
230
1.0
0
LINE
5
138
330
22
100
AcDbEntity
8
0
62
256
6
Continuous
370
-1
48
1.0
60
0
100
AcDbLine
10
2.45425016907681
20
1.66555885696694
30
0.0
11
2.39425016907681
21
1.72222485696694
31
0.0
39
0.0
210
0.0
220
0.0
230
1.0
0
LINE
5
139
330
22
100
AcDbEntity
8
0
62
256
6
Continuous
370
-1
48
1.0
60
0
100
AcDbLine
10
2.39425016907681
20
1.72222485696694
30
0.0
11
2.45425016907681
21
1.66555885696694
31
0.0
39
0.0
210
0.0
220
0.0
230
1.0
0
LINE
5
13A
330
22
100
AcDbEntity
8
0
62
256
6
Continuous
370
-1
48
1.0
60
0
100
AcDbLine
10
2.45425016907681
20
1.66555885696694
30
0.0
11
2.46425016907681
21
1.66555885696694
31
0.0
39
0.0
210
0.0
220
0.0
230
1.0
0
LINE
5
13B
330
22
100
AcDbEntity
8
0
62
256
6
Continuous
370
-1
48
1.0
60
0
100
AcDbLine
10
2.65425016907681
20
1.65889185696694
30
0.0
11
2.63425016907681
21
1.67555885696694
31
0.0
39
0.0
210
0.0
220
0.0
230
1.0
0
LINE
5
13C
330
22
100
AcDbEntity
8
0
62
256
6
Continuous
370
-1
48
1.0
60
0
100
AcDbLine
10
2.63425016907681
20
1.67555885696694
30
0.0
11
2.65425016907681
21
1.65889185696694
31
0.0
39
0.0
210
0.0
220
0.0
230
1.0
0
LINE
5
13D
330
22
100
AcDbEntity
8
0
62
256
6
Continuous
370
-1
48
1.0
60
0
100
AcDbLine
10
2.66758316907681
20
1.64889185696694
30
0.0
11
2.63425016907681
21
1.67555885696694
31
0.0
39
0.0
210
0.0
220
0.0
230
1.0
0
LINE
5
13E
330
22
100
AcDbEntity
8
0
62
256
6
Continuous
370
-1
48
1.0
60
0
100
AcDbLine
10
2.63425016907681
20
1.67555885696694
30
0.0
11
2.66758316907681
21
1.64889185696694
31
0.0
39
0.0
210
0.0
220
0.0
230
1.0
0
LINE
5
13F
330
22
100
AcDbEntity
8
0
62
256
6
Continuous
370
-1
48
1.0
60
0
100
AcDbLine
10
2.67758316907681
20
1.64222485696694
30
0.0
11
2.63425016907681
21
1.67555885696694
31
0.0
39
0.0
210
0.0
220
0.0
230
1.0
0
LINE
5
140
330
22
100
AcDbEntity
8
0
62
256
6
Continuous
370
-1
48
1.0
60
0
100
AcDbLine
10
2.63425016907681
20
1.67555885696694
30
0.0
11
2.67758316907681
21
1.64222485696694
31
0.0
39
0.0
210
0.0
220
0.0
230
1.0
0
LINE
5
141
330
22
100
AcDbEntity
8
0
62
256
6
Continuous
370
-1
48
1.0
60
0
100
AcDbLine
10
2.69091616907681
20
1.63222485696694
30
0.0
11
2.63425016907681
21
1.67555885696694
31
0.0
39
0.0
210
0.0
220
0.0
230
1.0
0
LINE
5
142
330
22
100
AcDbEntity
8
0
62
256
6
Continuous
370
-1
48
1.0
60
0
100
AcDbLine
10
2.63425016907681
20
1.67555885696694
30
0.0
11
2.69091616907681
21
1.63222485696694
31
0.0
39
0.0
210
0.0
220
0.0
230
1.0
0
LINE
5
143
330
22
100
AcDbEntity
8
0
62
256
6
Continuous
370
-1
48
1.0
60
0
100
AcDbLine
10
2.70425016907681
20
1.62222485696694
30
0.0
11
2.63425016907681
21
1.67555885696694
31
0.0
39
0.0
210
0.0
220
0.0
230
1.0
0
LINE
5
144
330
22
100
AcDbEntity
8
0
62
256
6
Continuous
370
-1
48
1.0
60
0
100
AcDbLine
10
2.63425016907681
20
1.67555885696694
30
0.0
11
2.70425016907681
21
1.62222485696694
31
0.0
39
0.0
210
0.0
220
0.0
230
1.0
0
LINE
5
145
330
22
100
AcDbEntity
8
0
62
256
6
Continuous
370
-1
48
1.0
60
0
100
AcDbLine
10
2.71425016907681
20
1.61555885696694
30
0.0
11
2.63425016907681
21
1.67555885696694
31
0.0
39
0.0
210
0.0
220
0.0
230
1.0
0
LINE
5
146
330
22
100
AcDbEntity
8
0
62
256
6
Continuous
370
-1
48
1.0
60
0
100
AcDbLine
10
2.63425016907681
20
1.67555885696694
30
0.0
11
2.71425016907681
21
1.61555885696694
31
0.0
39
0.0
210
0.0
220
0.0
230
1.0
0
LINE
5
147
330
22
100
AcDbEntity
8
0
62
256
6
Continuous
370
-1
48
1.0
60
0
100
AcDbLine
10
2.72425016907681
20
1.61222485696694
30
0.0
11
2.70425016907681
21
1.62222485696694
31
0.0
39
0.0
210
0.0
220
0.0
230
1.0
0
LINE
5
148
330
22
100
AcDbEntity
8
0
62
256
6
Continuous
370
-1
48
1.0
60
0
100
AcDbLine
10
2.70425016907681
20
1.62222485696694
30
0.0
11
2.63425016907681
21
1.67555885696694
31
0.0
39
0.0
210
0.0
220
0.0
230
1.0
0
LINE
5
149
330
22
100
AcDbEntity
8
0
62
256
6
Continuous
370
-1
48
1.0
60
0
100
AcDbLine
10
2.63425016907681
20
1.67555885696694
30
0.0
11
2.72425016907681
21
1.61222485696694
31
0.0
39
0.0
210
0.0
220
0.0
230
1.0
0
LINE
5
14A
330
22
100
AcDbEntity
8
0
62
256
6
Continuous
370
-1
48
1.0
60
0
100
AcDbLine
10
2.73758316907681
20
1.60889185696694
30
0.0
11
2.73425016907681
21
1.61222485696694
31
0.0
39
0.0
210
0.0
220
0.0
230
1.0
0
LINE
5
14B
330
22
100
AcDbEntity
8
0
62
256
6
Continuous
370
-1
48
1.0
60
0
100
AcDbLine
10
2.73425016907681
20
1.61222485696694
30
0.0
11
2.71425016907681
21
1.61555885696694
31
0.0
39
0.0
210
0.0
220
0.0
230
1.0
0
LINE
5
14C
330
22
100
AcDbEntity
8
0
62
256
6
Continuous
370
-1
48
1.0
60
0
100
AcDbLine
10
2.71425016907681
20
1.61555885696694
30
0.0
11
2.63425016907681
21
1.67555885696694
31
0.0
39
0.0
210
0.0
220
0.0
230
1.0
0
LINE
5
14D
330
22
100
AcDbEntity
8
0
62
256
6
Continuous
370
-1
48
1.0
60
0
100
AcDbLine
10
2.63425016907681
20
1.67555885696694
30
0.0
11
2.71425016907681
21
1.61555885696694
31
0.0
39
0.0
210
0.0
220
0.0
230
1.0
0
LINE
5
14E
330
22
100
AcDbEntity
8
0
62
256
6
Continuous
370
-1
48
1.0
60
0
100
AcDbLine
10
2.71425016907681
20
1.61555885696694
30
0.0
11
2.73758316907681
21
1.60889185696694
31
0.0
39
0.0
210
0.0
220
0.0
230
1.0
0
LINE
5
14F
330
22
100
AcDbEntity
8
0
62
256
6
Continuous
370
-1
48
1.0
60
0
100
AcDbLine
10
2.75091716907681
20
1.60555885696694
30
0.0
11
2.74758316907681
21
1.60889185696694
31
0.0
39
0.0
210
0.0
220
0.0
230
1.0
0
LINE
5
150
330
22
100
AcDbEntity
8
0
62
256
6
Continuous
370
-1
48
1.0
60
0
100
AcDbLine
10
2.74758316907681
20
1.60889185696694
30
0.0
11
2.71425016907681
21
1.61555885696694
31
0.0
39
0.0
210
0.0
220
0.0
230
1.0
0
LINE
5
151
330
22
100
AcDbEntity
8
0
62
256
6
Continuous
370
-1
48
1.0
60
0
100
AcDbLine
10
2.71425016907681
20
1.61555885696694
30
0.0
11
2.63425016907681
21
1.67555885696694
31
0.0
39
0.0
210
0.0
220
0.0
230
1.0
0
LINE
5
152
330
22
100
AcDbEntity
8
0
62
256
6
Continuous
370
-1
48
1.0
60
0
100
AcDbLine
10
2.63425016907681
20
1.67555885696694
30
0.0
11
2.71425016907681
21
1.61555885696694
31
0.0
39
0.0
210
0.0
220
0.0
230
1.0
0
LINE
5
153
330
22
100
AcDbEntity
8
0
62
256
6
Continuous
370
-1
48
1.0
60
0
100
AcDbLine
10
2.71425016907681
20
1.61555885696694
30
0.0
11
2.75091716907681
21
1.60555885696694
31
0.0
39
0.0
210
0.0
220
0.0
230
1.0
0
LINE
5
154
330
22
100
AcDbEntity
8
0
62
256
6
Continuous
370
-1
48
1.0
60
0
100
AcDbLine
10
2.76425016907681
20
1.60222485696694
30
0.0
11
2.76091616907681
21
1.60555885696694
31
0.0
39
0.0
210
0.0
220
0.0
230
1.0
0
LINE
5
155
330
22
100
AcDbEntity
8
0
62
256
6
Continuous
370
-1
48
1.0
60
0
100
AcDbLine
10
2.76091616907681
20
1.60555885696694
30
0.0
11
2.71425016907681
21
1.61555885696694
31
0.0
39
0.0
210
0.0
220
0.0
230
1.0
0
LINE
5
156
330
22
100
AcDbEntity
8
0
62
256
6
Continuous
370
-1
48
1.0
60
0
100
AcDbLine
10
2.71425016907681
20
1.61555885696694
30
0.0
11
2.63425016907681
21
1.67555885696694
31
0.0
39
0.0
210
0.0
220
0.0
230
1.0
0
LINE
5
157
330
22
100
AcDbEntity
8
0
62
256
6
Continuous
370
-1
48
1.0
60
0
100
AcDbLine
10
2.63425016907681
20
1.67555885696694
30
0.0
11
2.71425016907681
21
1.61555885696694
31
0.0
39
0.0
210
0.0
220
0.0
230
1.0
0
LINE
5
158
330
22
100
AcDbEntity
8
0
62
256
6
Continuous
370
-1
48
1.0
60
0
100
AcDbLine
10
2.71425016907681
20
1.61555885696694
30
0.0
11
2.76425016907681
21
1.60222485696694
31
0.0
39
0.0
210
0.0
220
0.0
230
1.0
0
LINE
5
159
330
22
100
AcDbEntity
8
0
62
256
6
Continuous
370
-1
48
1.0
60
0
100
AcDbLine
10
3.23091716907681
20
0.55555785696694
30
0.0
11
2.96758316907681
21
0.55222485696694
31
0.0
39
0.0
210
0.0
220
0.0
230
1.0
0
LINE
5
15A
330
22
100
AcDbEntity
8
0
62
256
6
Continuous
370
-1
48
1.0
60
0
100
AcDbLine
10
2.96758316907681
20
0.55222485696694
30
0.0
11
2.97758316907681
21
0.54222485696694
31
0.0
39
0.0
210
0.0
220
0.0
230
1.0
0
LINE
5
15B
330
22
100
AcDbEntity
8
0
62
256
6
Continuous
370
-1
48
1.0
60
0
100
AcDbLine
10
2.97758316907681
20
0.54222485696694
30
0.0
11
3.22758316907681
21
0.54555785696694
31
0.0
39
0.0
210
0.0
220
0.0
230
1.0
0
LWPOLYLINE
5
15C
330
22
100
AcDbEntity
8
0
62
256
6
ByLayer
370
-1
48
1.0
60
0
100
AcDbPolyline
90
101
70
0
38
0.0
39
0.0
10
-2.79574983092319
20
0.36222485696694
40
0.0
41
0.0
42
0.0
10
-2.77574983092319
20
0.39222485696694
40
0.0
41
0.0
42
0.0
10
-2.77908383092319
20
0.41222485696694
40
0.0
41
0.0
42
0.0
10
-2.73908383092319
20
0.41222485696694
40
0.0
41
0.0
42
0.0
10
2.90091616907681
20
0.41222485696694
40
0.0
41
0.0
42
0.0
10
2.93091716907681
20
0.41222485696694
40
0.0
41
0.0
42
0.0
10
2.95758316907681
20
0.40889185696694
40
0.0
41
0.0
42
0.0
10
2.94883942234066
20
0.39188374334817
40
0.0
41
0.0
42
0.0
10
2.97091616907681
20
0.36222485696694
40
0.0
41
0.0
42
0.0
10
2.93758316907681
20
0.32555785696694
40
0.0
41
0.0
42
0.0
10
2.92758316907681
20
0.24555785696694
40
0.0
41
0.0
42
0.0
10
2.94758316907681
20
0.17222485696694
40
0.0
41
0.0
42
0.0
10
2.99758316907681
20
0.09222485696694
40
0.0
41
0.0
42
0.0
10
3.01758316907681
20
0.02889185696694
40
0.0
41
0.0
42
0.0
10
3.18425016907681
20
0.02889185696694
40
0.0
41
0.0
42
0.0
10
3.20669270424085
20
0.09301366081753
40
0.0
41
0.0
42
0.0
10
3.25758316907681
20
0.17889185696694
40
0.0
41
0.0
42
0.0
10
3.27758316907681
20
0.25889185696694
40
0.0
41
0.0
42
0.0
10
3.26425016907681
20
0.32889185696694
40
0.0
41
0.0
42
0.0
10
3.23091716907682
20
0.36222485696694
40
0.0
41
0.0
42
0.0
10
3.25091716907681
20
0.39222485696694
40
0.0
41
0.0
42
0.0
10
3.24758316907681
20
0.41222485696694
40
0.0
41
0.0
42
0.0
10
3.34425016907681
20
0.41222485696694
40
0.0
41
0.0
42
0.0
10
3.35425016907681
20
0.42222485696694
40
0.0
41
0.0
42
0.0
10
3.35425016907681
20
0.53555785696694
40
0.0
41
0.0
42
0.0
10
3.34758316907681
20
0.54222485696694
40
0.0
41
0.0
42
0.0
10
3.23758316907681
20
0.54222485696694
40
0.0
41
0.0
42
0.0
10
3.23425016907681
20
0.54889185696694
40
0.0
41
0.0
42
0.0
10
3.24425016907681
20
0.55889185696694
40
0.0
41
0.0
42
0.0
10
3.24425016907681
20
0.57555885696694
40
0.0
41
0.0
42
0.0
10
3.21091716907681
20
0.63222485696694
40
0.0
41
0.0
42
0.0
10
3.21091716907681
20
0.64889185696694
40
0.0
41
0.0
42
0.0
10
3.26425016907681
20
0.70889185696694
40
0.0
41
0.0
42
0.0
10
3.26425016907682
20
0.73555785696694
40
0.0
41
0.0
42
0.0
10
3.23125899879534
20
0.79119926525219
40
0.0
41
0.0
42
0.0
10
3.26758316907681
20
0.99889185696694
40
0.0
41
0.0
42
0.0
10
3.26425016907681
20
1.17555885696694
40
0.0
41
0.0
42
0.0
10
3.22758316907681
20
1.31222485696694
40
0.0
41
0.0
42
0.0
10
3.25758316907681
20
1.34222485696694
40
0.0
41
0.0
42
0.0
10
3.26425016907681
20
1.35555885696694
40
0.0
41
0.0
42
0.0
10
3.26091616907681
20
1.38889185696694
40
0.0
41
0.0
42
0.0
10
3.22091616907681
20
1.44222485696694
40
0.0
41
0.0
42
0.0
10
3.22091616907682
20
1.46555785696694
40
0.0
41
0.0
42
0.0
10
3.25091716907681
20
1.50889185696694
40
0.0
41
0.0
42
0.0
10
3.25425016907682
20
1.55222485696694
40
0.0
41
0.0
42
0.0
10
3.27091716907682
20
1.56222485696694
40
0.0
41
0.0
42
0.0
10
3.27402984412679
20
2.20472836860839
40
0.0
41
0.0
42
0.0
10
3.36758316907681
20
2.20555785696694
40
0.0
41
0.0
42
0.0
10
3.36758316907681
20
2.22889185696694
40
0.0
41
0.0
42
0.0
10
3.35091716907681
20
2.22889185696694
40
0.0
41
0.0
42
0.0
10
3.32425016907681
20
2.26222485696694
40
0.0
41
0.0
42
0.0
10
3.30091616907681
20
2.27222485696694
40
0.0
41
0.0
42
0.0
10
3.25091716907681
20
2.28555885696694
40
0.0
41
0.0
42
0.0
10
-3.08574983092319
20
2.28555885696694
40
0.0
41
0.0
42
0.0
10
-3.09574983092319
20
2.27555785696694
40
0.0
41
0.0
42
0.0
10
-3.10574983092319
20
2.27555785696694
40
0.0
41
0.0
42
0.0
10
-3.14574983092319
20
2.26222485696694
40
0.0
41
0.0
42
0.0
10
-3.17241683092319
20
2.22889185696694
40
0.0
41
0.0
42
0.0
10
-3.18908383092319
20
2.22889185696694
40
0.0
41
0.0
42
0.0
10
-3.18908383092319
20
2.20555785696694
40
0.0
41
0.0
42
0.0
10
-3.09574983092319
20
2.20222485696694
40
0.0
41
0.0
42
0.0
10
-3.09241683092319
20
1.56222485696694
40
0.0
41
0.0
42
0.0
10
-3.07574983092319
20
1.54889185696694
40
0.0
41
0.0
42
0.0
10
-3.07574983092319
20
1.51555785696694
40
0.0
41
0.0
42
0.0
10
-3.04241683092319
20
1.46222485696694
40
0.0
41
0.0
42
0.0
10
-3.04574983092319
20
1.43889185696694
40
0.0
41
0.0
42
0.0
10
-3.08241683092319
20
1.39222485696694
40
0.0
41
0.0
42
0.0
10
-3.08908383092319
20
1.35889185696694
40
0.0
41
0.0
42
0.0
10
-3.07908383092319
20
1.33889185696694
40
0.0
41
0.0
42
0.0
10
-3.05241683092319
20
1.30889185696694
40
0.0
41
0.0
42
0.0
10
-3.09241683092319
20
1.15555885696694
40
0.0
41
0.0
42
0.0
10
-3.08908383092319
20
0.99222485696694
40
0.0
41
0.0
42
0.0
10
-3.05574983092319
20
0.81222485696694
40
0.0
41
0.0
42
0.0
10
-3.05574983092319
20
0.77889185696694
40
0.0
41
0.0
42
0.0
10
-3.08574983092319
20
0.73555785696694
40
0.0
41
0.0
42
0.0
10
-3.08574983092319
20
0.70555785696694
40
0.0
41
0.0
42
0.0
10
-3.03908383092319
20
0.65555885696694
40
0.0
41
0.0
42
0.0
10
-3.03241683092319
20
0.63889185696694
40
0.0
41
0.0
42
0.0
10
-3.06908383092319
20
0.57222485696694
40
0.0
41
0.0
42
0.0
10
-3.06241683092318
20
0.55555785696694
40
0.0
41
0.0
42
0.0
10
-3.06287746061018
20
0.542241147685
40
0.0
41
0.0
42
0.0
10
-3.17908383092319
20
0.54222485696694
40
0.0
41
0.0
42
0.0
10
-3.18574983092319
20
0.53555785696694
40
0.0
41
0.0
42
0.0
10
-3.18574983092319
20
0.42222485696694
40
0.0
41
0.0
42
0.0
10
-3.17574983092319
20
0.41222485696694
40
0.0
41
0.0
42
0.0
10
-3.07574983092319
20
0.41555885696694
40
0.0
41
0.0
42
0.0
10
-3.06908383092319
20
0.40889185696694
40
0.0
41
0.0
42
0.0
10
-3.06908383092319
20
0.37889185696694
40
0.0
41
0.0
42
0.0
10
-3.05241683092319
20
0.36222485696694
40
0.0
41
0.0
42
0.0
10
-3.08908383092319
20
0.32555785696694
40
0.0
41
0.0
42
0.0
10
-3.09908383092319
20
0.24555785696694
40
0.0
41
0.0
42
0.0
10
-3.07908383092319
20
0.17555885696694
40
0.0
41
0.0
42
0.0
10
-3.02574983092319
20
0.08555785696694
40
0.0
41
0.0
42
0.0
10
-3.01241683092319
20
0.03555885696694
40
0.0
41
0.0
42
0.0
10
-3.00574983092319
20
0.02889185696694
40
0.0
41
0.0
42
0.0
10
-2.84241683092319
20
0.02889185696694
40
0.0
41
0.0
42
0.0
10
-2.83574983092319
20
0.03555885696694
40
0.0
41
0.0
42
0.0
10
-2.81908383092319
20
0.09555785696694
40
0.0
41
0.0
42
0.0
10
-2.76908383092319
20
0.17555885696694
40
0.0
41
0.0
42
0.0
10
-2.74908383092319
20
0.24889185696694
40
0.0
41
0.0
42
0.0
10
-2.75908383092319
20
0.32222485696694
40
0.0
41
0.0
42
0.0
210
0.0
220
0.0
230
1.0
0
ENDBLK
5
23
330
22
100
AcDbEntity
8
0
100
AcDbBlockEnd
0
BLOCK
5
15F
330
15D
100
AcDbEntity
8
0
100
AcDbBlockBegin
2
*Paper_Space
70
0
10
0.0
20
0.0
30
0.0
3
*Paper_Space
0
ENDBLK
5
15E
330
15D
100
AcDbEntity
8
0
100
AcDbBlockEnd
0
ENDSEC
0
SECTION
2
ENTITIES
0
INSERT
5
21
330
1A
100
AcDbEntity
67
0
8
0
62
256
6
ByLayer
370
-1
48
1.0
60
0
100
AcDbBlockReference
2
桌前视
10
0.0
20
0.0
30
0.0
41
1.0
42
1.0
43
1.0
50
0.0
210
0.0
220
0.0
230
1.0
0
VIEWPORT
5
161
330
15D
100
AcDbEntity
67
1
8
0
62
256
6
ByLayer
370
-1
48
1.0
60
0
100
AcDbViewport
10
0.0
20
0.0
30
0.0
40
297.0
41
210.0
68
1
69
1
12
50.0
22
100.0
13
0.0
23
0.0
14
10.0
24
10.0
15
10.0
25
10.0
16
0.0
26
0.0
36
1.0
17
0.0
27
0.0
37
0.0
42
50.0
43
0.0
44
0.0
45
250.0
50
0.0
51
0.0
72
1000
90
819232
110
0.0
120
0.0
130
0.0
111
1.0
121
0.0
131
0.0
112
0.0
122
1.0
132
0.0
0
ENDSEC
0
SECTION
2
OBJECTS
0
DICTIONARY
5
166
330
0
100
AcDbDictionary
280
0
281
1
3
ACAD_GROUP
350
167
3
ACAD_LAYOUT
350
168
3
ACAD_MLINESTYLE
350
16C
0
DICTIONARY
5
167
330
166
100
AcDbDictionary
280
0
281
1
0
DICTIONARY
5
168
330
166
100
AcDbDictionary
280
0
281
1
3
Model
350
1E
3
Layout1
350
162
0
DICTIONARY
5
16C
330
166
100
AcDbDictionary
280
0
281
1
3
Standard
350
19
0
LAYOUT
5
1E
330
168
100
AcDbPlotSettings
1

2
none_device
4
ISO_A4_(210.00_x_297.00_MM)
6

40
7.5
41
20.0
42
7.5
43
20.0
44
210.0
45
297.0
46
0.0
47
0.0
48
0.0
49
0.0
140
0.0
141
0.0
142
1.0
143
1.0
70
11952
72
1
73
1
74
5
7

75
16
147
1.0
148
0.0
149
0.0
100
AcDbLayout
1
Model
70
1
71
0
10
-20.0
20
-7.5
11
277.0
21
202.5
12
0.0
22
0.0
32
0.0
14
25.7
24
19.5
34
0.0
15
231.3
25
175.5
35
0.0
146
0.0
13
0.0
23
0.0
33
0.0
16
1.0
26
0.0
36
0.0
17
0.0
27
1.0
37
0.0
76
0
330
1A
0
LAYOUT
5
162
330
168
100
AcDbPlotSettings
1

2
none_device
4
ISO_A4_(210.00_x_297.00_MM)
6

40
7.5
41
20.0
42
7.5
43
20.0
44
210.0
45
297.0
46
0.0
47
0.0
48
0.0
49
0.0
140
0.0
141
0.0
142
1.0
143
1.0
70
688
72
1
73
1
74
5
7

75
16
147
1.0
148
0.0
149
0.0
100
AcDbLayout
1
Layout1
70
1
71
1
10
-20.0
20
-7.5
11
277.0
21
202.5
12
0.0
22
0.0
32
0.0
14
25.7
24
19.5
34
0.0
15
231.3
25
175.5
35
0.0
146
0.0
13
0.0
23
0.0
33
0.0
16
1.0
26
0.0
36
0.0
17
0.0
27
1.0
37
0.0
76
0
330
15D
0
MLINESTYLE
5
19
330
16C
100
AcDbMlineStyle
2
Standard
70
0
3

62
256
51
90.0
52
90.0
71
2
49
-0.5
62
256
6
ByLayer
49
0.5
62
256
6
ByLayer
0
ENDSEC
0
EOF
