999
Dxf file generated by netDxf https://netdxf.codeplex.com, Copyright(C) 2009-2016 Daniel Carvajal, Licensed under LGPL
0
SECTION
2
HEADER
9
$ACADVER
1
AC1021
9
$DWGCODEPAGE
3
ANSI_936
9
$LASTSAVEDBY
1
GAODI
9
$HANDSEED
5
5C
9
$ANGBASE
50
0.0
9
$ANGDIR
70
0
9
$ATTMODE
70
1
9
$AUNITS
70
0
9
$AUPREC
70
0
9
$CECOLOR
62
256
9
$CELTSCALE
40
1.0
9
$CELTYPE
6
ByLayer
9
$CELWEIGHT
370
-1
9
$CLAYER
8
0
9
$CMLJUST
70
0
9
$CMLSCALE
40
20.0
9
$CMLSTYLE
2
Standard
9
$DIMSTYLE
2
Standard
9
$TEXTSIZE
40
2.5
9
$TEXTSTYLE
7
Standard
9
$LUNITS
70
2
9
$LUPREC
70
4
9
$EXTNAMES
290
1
9
$INSBASE
10
0.0
20
0.0
30
0.0
9
$INSUNITS
70
0
9
$LTSCALE
40
1.0
9
$LWDISPLAY
290
0
9
$PDMODE
70
0
9
$PDSIZE
40
0.0
9
$PLINEGEN
70
0
9
$PSLTSCALE
70
1
9
$TDCREATE
40
2457773.67057418
9
$TDUCREATE
40
2457773.33724085
9
$TDUPDATE
40
2457773.67057418
9
$TDUUPDATE
40
2457773.33724085
9
$TDINDWG
40
0.0
9
$DIMADEC
70
0
9
$DIMAUNIT
70
0
9
$DIMASZ
40
0.18
9
$DIMAZIN
70
0
9
$DIMSAH
70
0
9
$DIMBLK
1

9
$DIMLDRBLK
1

9
$DIMCEN
40
0.09
9
$DIMCLRD
70
0
9
$DIMCLRE
70
0
9
$DIMCLRT
70
0
9
$DIMDEC
70
2
9
$DIMDLE
40
0.0
9
$DIMDLI
40
0.38
9
$DIMDSEP
70
46
9
$DIMEXE
40
0.18
9
$DIMEXO
40
0.0625
9
$DIMGAP
40
0.09
9
$DIMJUST
70
0
9
$DIMLFAC
40
1.0
9
$DIMLUNIT
70
2
9
$DIMLWD
70
-2
9
$DIMLWE
70
-2
9
$DIMPOST
1
<>
9
$DIMRND
40
0.0
9
$DIMSCALE
40
1.0
9
$DIMSE1
70
0
9
$DIMSE2
70
0
9
$DIMTAD
70
1
9
$DIMTIH
70
0
9
$DIMTOH
70
0
9
$DIMTXT
40
0.18
9
$DIMZIN
70
0
9
$DIMFRAC
70
0
9
$DIMLTYPE
6
ByBlock
9
$DIMLTEX1
6
ByBlock
9
$DIMLTEX2
6
ByBlock
0
ENDSEC
0
SECTION
2
CLASSES
0
CLASS
1
RASTERVARIABLES
2
AcDbRasterVariables
3
ISM
90
0
91
1
280
0
281
0
0
ENDSEC
0
SECTION
2
TABLES
0
TABLE
2
APPID
5
4
330
0
100
AcDbSymbolTable
70
4
0
APPID
5
17
330
4
100
AcDbSymbolTableRecord
100
AcDbRegAppTableRecord
2
ACAD
70
0
0
APPID
5
51
330
4
100
AcDbSymbolTableRecord
100
AcDbRegAppTableRecord
2
AcCmTransparency
70
0
0
APPID
5
52
330
4
100
AcDbSymbolTableRecord
100
AcDbRegAppTableRecord
2
GradientColor1ACI
70
0
0
APPID
5
53
330
4
100
AcDbSymbolTableRecord
100
AcDbRegAppTableRecord
2
GradientColor2ACI
70
0
0
ENDTAB
0
TABLE
2
VPORT
5
1
330
0
100
AcDbSymbolTable
70
1
0
VPORT
5
2
330
1
100
AcDbSymbolTableRecord
100
AcDbViewportTableRecord
2
*Active
70
0
10
0.0
20
0.0
11
1.0
21
1.0
12
0.0
22
0.0
13
0.0
23
0.0
14
0.5
24
0.5
15
10.0
25
10.0
16
0.0
26
0.0
36
1.0
17
0.0
27
0.0
37
0.0
40
10.0
41
1.0
75
0
76
1
0
ENDTAB
0
TABLE
2
LTYPE
5
6
330
0
100
AcDbSymbolTable
70
3
0
LTYPE
5
13
330
6
100
AcDbSymbolTableRecord
100
AcDbLinetypeTableRecord
70
0
2
Continuous
3
Solid line
72
65
73
0
40
0.0
0
LTYPE
5
14
330
6
100
AcDbSymbolTableRecord
100
AcDbLinetypeTableRecord
70
0
2
ByLayer
3

72
65
73
0
40
0.0
0
LTYPE
5
15
330
6
100
AcDbSymbolTableRecord
100
AcDbLinetypeTableRecord
70
0
2
ByBlock
3

72
65
73
0
40
0.0
0
ENDTAB
0
TABLE
2
LAYER
5
5
330
0
100
AcDbSymbolTable
70
2
0
LAYER
5
12
330
5
100
AcDbSymbolTableRecord
100
AcDbLayerTableRecord
2
0
70
0
62
7
6
Continuous
290
1
370
-3
390
0
0
LAYER
5
3F
330
5
100
AcDbSymbolTableRecord
100
AcDbLayerTableRecord
2
字体及标识
70
0
62
7
6
Continuous
290
1
370
-3
390
0
0
ENDTAB
0
TABLE
2
STYLE
5
7
330
0
100
AcDbSymbolTable
70
1
0
STYLE
5
16
330
7
100
AcDbSymbolTableRecord
100
AcDbTextStyleTableRecord
2
Standard
3
simplex.shx
70
0
71
0
40
0.0
41
1.0
42
0.0
50
0.0
0
ENDTAB
0
TABLE
2
DIMSTYLE
5
8
330
0
100
AcDbSymbolTable
70
1
100
AcDbDimStyleTable
0
DIMSTYLE
105
18
330
8
100
AcDbSymbolTableRecord
100
AcDbDimStyleTableRecord
2
Standard
70
0
3
<>
40
1.0
41
0.18
42
0.0625
43
0.38
44
0.18
45
0.0
46
0.0
73
0
74
0
75
0
76
0
77
1
78
0
79
0
140
0.18
141
0.09
144
1.0
147
0.09
176
0
177
0
178
0
179
0
271
2
275
0
276
0
277
2
278
46
280
0
340
16
173
0
345
15
346
15
347
15
371
-2
372
-2
0
ENDTAB
0
TABLE
2
VIEW
5
3
330
0
100
AcDbSymbolTable
70
0
0
ENDTAB
0
TABLE
2
UCS
5
A
330
0
100
AcDbSymbolTable
70
0
0
ENDTAB
0
TABLE
2
BLOCK_RECORD
5
B
330
0
100
AcDbSymbolTable
70
4
0
BLOCK_RECORD
5
1A
330
B
100
AcDbSymbolTableRecord
100
AcDbBlockTableRecord
2
*Model_Space
340
1E
0
BLOCK_RECORD
5
22
330
B
100
AcDbSymbolTableRecord
100
AcDbBlockTableRecord
2
paper
340
0
70
0
280
1
281
0
1001
ACAD
1000
DesignCenter Data
1002
{
1070
1
1070
0
1002
}
0
BLOCK_RECORD
5
27
330
B
100
AcDbSymbolTableRecord
100
AcDbBlockTableRecord
2
图框658
340
0
70
0
280
1
281
0
1001
ACAD
1000
DesignCenter Data
1002
{
1070
1
1070
0
1002
}
0
BLOCK_RECORD
5
4B
330
B
100
AcDbSymbolTableRecord
100
AcDbBlockTableRecord
2
*Paper_Space
340
50
0
ENDTAB
0
ENDSEC
0
SECTION
2
BLOCKS
0
BLOCK
5
1C
330
1A
100
AcDbEntity
8
0
100
AcDbBlockBegin
2
*Model_Space
70
0
10
0.0
20
0.0
30
0.0
3
*Model_Space
0
ENDBLK
5
1B
330
1A
100
AcDbEntity
8
0
100
AcDbBlockEnd
0
BLOCK
5
24
330
22
100
AcDbEntity
8
0
100
AcDbBlockBegin
2
paper
70
0
10
0.0
20
0.0
30
0.0
3
paper
0
INSERT
5
26
330
22
100
AcDbEntity
8
0
62
7
6
ByLayer
370
-1
48
1.0
60
0
100
AcDbBlockReference
2
图框658
10
-2500.0
20
200.0
30
0.0
41
0.03937007874016
42
0.03937007874016
43
0.03937007874016
50
0.0
210
0.0
220
0.0
230
1.0
0
INSERT
5
42
330
22
100
AcDbEntity
8
0
62
7
6
ByLayer
370
-1
48
1.0
60
0
100
AcDbBlockReference
2
图框658
10
-1900.0
20
200.0
30
0.0
41
0.03937007874016
42
0.03937007874016
43
0.03937007874016
50
0.0
210
0.0
220
0.0
230
1.0
0
INSERT
5
44
330
22
100
AcDbEntity
8
0
62
7
6
ByLayer
370
-1
48
1.0
60
0
100
AcDbBlockReference
2
图框658
10
-800.0
20
500.0
30
0.0
41
0.10314960629921
42
0.10314960629921
43
0.03937007874016
50
0.0
210
0.0
220
0.0
230
1.0
0
INSERT
5
46
330
22
100
AcDbEntity
8
0
62
7
6
ByLayer
370
-1
48
1.0
60
0
100
AcDbBlockReference
2
图框658
10
800.0
20
500.0
30
0.0
41
0.10314960629921
42
0.10314960629921
43
0.03937007874016
50
0.0
210
0.0
220
0.0
230
1.0
0
INSERT
5
48
330
22
100
AcDbEntity
8
0
62
7
6
ByLayer
370
-1
48
1.0
60
0
100
AcDbBlockReference
2
图框658
10
1900.0
20
200.0
30
0.0
41
0.03937007874016
42
0.03937007874016
43
0.03937007874016
50
0.0
210
0.0
220
0.0
230
1.0
0
INSERT
5
4A
330
22
100
AcDbEntity
8
0
62
7
6
ByLayer
370
-1
48
1.0
60
0
100
AcDbBlockReference
2
图框658
10
2500.0
20
200.0
30
0.0
41
0.03937007874016
42
0.03937007874016
43
0.03937007874016
50
0.0
210
0.0
220
0.0
230
1.0
0
ENDBLK
5
23
330
22
100
AcDbEntity
8
0
100
AcDbBlockEnd
0
BLOCK
5
29
330
27
100
AcDbEntity
8
0
100
AcDbBlockBegin
2
图框658
70
0
10
0.0
20
0.0
30
0.0
3
图框658
0
LINE
5
2A
330
27
100
AcDbEntity
8
0
62
0
6
ByLayer
370
-1
48
1.0
60
0
100
AcDbLine
10
3673.92398316681
20
-8782.18186070342
30
0.0
11
3673.92398316681
21
-9622.18186070342
31
0.0
39
0.0
210
0.0
220
0.0
230
1.0
0
LINE
5
2B
330
27
100
AcDbEntity
8
0
62
0
6
ByLayer
370
-1
48
1.0
60
0
100
AcDbLine
10
5335.9372136459
20
-8782.18186070342
30
0.0
11
5335.9372136459
21
-9622.18186070342
31
0.0
39
0.0
210
0.0
220
0.0
230
1.0
0
LWPOLYLINE
5
2C
330
27
100
AcDbEntity
8
0
62
0
6
ByLayer
370
-1
48
1.0
60
0
100
AcDbPolyline
90
4
70
1
38
0.0
39
0.0
10
-6997.95044412522
20
0.0
40
34.9897522214774
41
34.9897522214774
42
0.0
10
-6997.95044412522
20
-9622.18186070342
40
34.9897522214774
41
34.9897522214774
42
0.0
10
6997.95044412522
20
-9622.18186070342
40
34.9897522214774
41
34.9897522214774
42
0.0
10
6997.95044412522
20
0.0
40
34.9897522214774
41
34.9897522214774
42
0.0
210
0.0
220
0.0
230
1.0
0
LWPOLYLINE
5
2D
330
27
100
AcDbEntity
8
0
62
0
6
ByLayer
370
-1
48
1.0
60
0
100
AcDbPolyline
90
4
70
1
38
0.0
39
0.0
10
-7172.89920522866
20
174.948761103558
40
17.4948761107387
41
17.4948761107387
42
0.0
10
-7172.89920522866
20
-9797.13062180745
40
17.4948761107387
41
17.4948761107387
42
0.0
10
7172.89920522866
20
-9797.13062180745
40
17.4948761107387
41
17.4948761107387
42
0.0
10
7172.89920522866
20
174.948761103558
40
17.4948761107387
41
17.4948761107387
42
0.0
210
0.0
220
0.0
230
1.0
0
MTEXT
5
2E
330
27
100
AcDbEntity
8
0
62
0
6
ByLayer
370
-1
48
1.0
60
0
100
AcDbMText
10
3743.90348760749
20
-9297.61519403677
30
0.0
210
0.0
220
0.0
230
1.0
1
{\fSimSun|b0|i0|c134|p2;比例:\PSCALE:}
40
84.0
41
3278.68844075507
44
1.0
50
0.0
71
1
72
5
7
Standard
0
MTEXT
5
2F
330
27
100
AcDbEntity
8
0
62
0
6
ByLayer
370
-1
48
1.0
60
0
100
AcDbMText
10
5405.91671808774
20
-9297.61519403677
30
0.0
210
0.0
220
0.0
230
1.0
1
{\fSimSun|b0|i0|c134|p2;张数:\PSHTNO:}
40
84.0
41
3278.68844075507
44
1.0
50
0.0
71
1
72
5
7
Standard
0
LINE
5
30
330
27
100
AcDbEntity
8
0
62
0
6
ByLayer
370
-1
48
1.0
60
0
100
AcDbLine
10
-1749.48761103128
20
-9202.18186070342
30
0.0
11
6997.95044412522
21
-9202.18186070342
31
0.0
39
0.0
210
0.0
220
0.0
230
1.0
0
MTEXT
5
31
330
27
100
AcDbEntity
8
0
62
0
6
ByLayer
370
-1
48
1.0
60
0
100
AcDbMText
10
3743.90348760749
20
-8896.51519403673
30
0.0
210
0.0
220
0.0
230
1.0
1
\fsimsun|b0|i0|c134|p2;日期: \PDATE:
40
84.0
41
3278.68844075507
44
1.0
50
0.0
71
1
72
5
7
Standard
0
MTEXT
5
32
330
27
100
AcDbEntity
8
0
62
0
6
ByLayer
370
-1
48
1.0
60
0
100
AcDbMText
10
5405.91671808774
20
-8896.51519403673
30
0.0
210
0.0
220
0.0
230
1.0
1
\fsimsun|b0|i0|c134|p2;图号:  \PDRGNO:
40
84.0
41
3278.68844075507
44
1.0
50
0.0
71
1
72
5
7
Standard
0
LINE
5
33
330
27
100
AcDbEntity
8
0
62
0
6
ByLayer
370
-1
48
1.0
60
0
100
AcDbLine
10
-3848.87274426839
20
-8782.18186070342
30
0.0
11
-3848.87274426839
21
-9622.18186070342
31
0.0
39
0.0
210
0.0
220
0.0
230
1.0
0
LINE
5
34
330
27
100
AcDbEntity
8
0
62
0
6
ByLayer
370
-1
48
1.0
60
0
100
AcDbLine
10
-1749.48761103128
20
-8782.18186070342
30
0.0
11
-1749.48761103128
21
-9622.18186070342
31
0.0
39
0.0
210
0.0
220
0.0
230
1.0
0
MTEXT
5
35
330
27
100
AcDbEntity
8
0
62
0
6
ByLayer
370
-1
48
1.0
60
0
100
AcDbMText
10
-1679.50810659013
20
-9297.1485273701
30
0.0
210
0.0
220
0.0
230
1.0
1
\fsimsun|b0|i0|c134|p2;工程名称:\PPROTECT:
40
84.0
41
3278.68844075507
44
1.0
50
0.0
71
1
72
5
7
Standard
0
LWPOLYLINE
5
36
330
27
100
AcDbEntity
8
0
62
0
6
ByLayer
370
-1
48
1.0
60
0
100
AcDbPolyline
90
2
70
0
38
0.0
39
0.0
10
-6997.95044412522
20
-8782.18186070342
40
34.9897522214774
41
34.9897522214774
42
0.0
10
6997.95044412522
20
-8782.18186070342
40
34.9897522214774
41
34.9897522214774
42
0.0
210
0.0
220
0.0
230
1.0
0
MTEXT
5
37
330
27
100
AcDbEntity
8
0
62
0
6
ByLayer
370
-1
48
1.0
60
0
100
AcDbMText
10
-1679.50810659013
20
-8894.18186070342
30
0.0
210
0.0
220
0.0
230
1.0
1
\fsimsun|b0|i0|c134|p2;\H1x;建设单位:\PPROPRITOR:
40
84.0
41
3278.68844075507
44
1.0
50
0.0
71
1
72
5
7
Standard
0
LINE
5
38
330
27
100
AcDbEntity
8
0
62
0
6
ByLayer
370
-1
48
1.0
60
0
100
AcDbLine
10
349.897522207466
20
-8782.18186070342
30
0.0
11
349.897522207466
21
-9622.18186070342
31
0.0
39
0.0
210
0.0
220
0.0
230
1.0
0
LINE
5
39
330
27
100
AcDbEntity
8
0
62
0
6
ByLayer
370
-1
48
1.0
60
0
100
AcDbLine
10
2011.91075268656
20
-8782.18186070342
30
0.0
11
2011.91075268656
21
-9622.18186070342
31
0.0
39
0.0
210
0.0
220
0.0
230
1.0
0
MTEXT
5
3A
330
27
100
AcDbEntity
8
0
62
0
6
ByLayer
370
-1
48
1.0
60
0
100
AcDbMText
10
419.877026648144
20
-9297.61519403677
30
0.0
210
0.0
220
0.0
230
1.0
1
\fsimsun|b0|i0|c134|p2;制图:  \PCHECKET:
40
84.0
41
3278.68844075507
44
1.0
50
0.0
71
1
72
5
7
Standard
0
MTEXT
5
3B
330
27
100
AcDbEntity
8
0
62
0
6
ByLayer
370
-1
48
1.0
60
0
100
AcDbMText
10
2081.89025712723
20
-9297.61519403677
30
0.0
210
0.0
220
0.0
230
1.0
1
{\fSimSun|b0|i0|c134|p2;审定:\PAPPRDVED:}
40
84.0
41
3278.68844075507
44
1.0
50
0.0
71
1
72
5
7
Standard
0
MTEXT
5
3C
330
27
100
AcDbEntity
8
0
62
0
6
ByLayer
370
-1
48
1.0
60
0
100
AcDbMText
10
419.877026648144
20
-8896.51519403673
30
0.0
210
0.0
220
0.0
230
1.0
1
\fsimsun|b0|i0|c134|p2;设计:  \PDESIGN:
40
84.0
41
3278.68844075507
44
1.0
50
0.0
71
1
72
5
7
Standard
0
MTEXT
5
3D
330
27
100
AcDbEntity
8
0
62
0
6
ByLayer
370
-1
48
1.0
60
0
100
AcDbMText
10
2081.89025712723
20
-8896.51519403673
30
0.0
210
0.0
220
0.0
230
1.0
1
{\fSimSun|b0|i0|c134|p2;审核:\PAPPRDVED:}
40
84.0
41
3278.68844075507
44
1.0
50
0.0
71
1
72
5
7
Standard
0
MTEXT
5
3E
330
27
100
AcDbEntity
8
字体及标识
62
255
6
ByLayer
370
-1
48
1.0
60
0
100
AcDbMText
10
-5430.0
20
-9220.0
30
0.0
210
0.0
220
0.0
230
1.0
1
\fsimsum|b1|i0|c134|p2;广东省唯美陶瓷有限公司
40
160.0
41
3150.0
44
0.825
50
0.0
71
5
72
5
7
Standard
0
MTEXT
5
40
330
27
100
AcDbEntity
8
字体及标识
62
255
6
ByLayer
370
-1
48
1.0
60
0
100
AcDbMText
10
-3760.0
20
-8860.0
30
0.0
210
0.0
220
0.0
230
1.0
1
1.本图纸所有权属广东省唯美陶瓷^J  有限公司;^J2.承建商必须实地核实所有尺寸;^J3.本工程所涉及的消防工程由经销商委^J  托当地消防公司承建;^J4.本图纸所标尺寸均为完成饰面后尺寸
40
63.0
41
2000.0
44
1.0
50
0.0
71
1
72
5
7
Standard
0
ENDBLK
5
28
330
27
100
AcDbEntity
8
0
100
AcDbBlockEnd
0
BLOCK
5
4D
330
4B
100
AcDbEntity
8
0
100
AcDbBlockBegin
2
*Paper_Space
70
0
10
0.0
20
0.0
30
0.0
3
*Paper_Space
0
ENDBLK
5
4C
330
4B
100
AcDbEntity
8
0
100
AcDbBlockEnd
0
ENDSEC
0
SECTION
2
ENTITIES
0
INSERT
5
21
330
1A
100
AcDbEntity
67
0
8
0
62
256
6
ByLayer
370
-1
48
1.0
60
0
100
AcDbBlockReference
2
paper
10
0.0
20
0.0
30
0.0
41
1.0
42
1.0
43
1.0
50
0.0
210
0.0
220
0.0
230
1.0
0
VIEWPORT
5
4F
330
4B
100
AcDbEntity
67
1
8
0
62
256
6
ByLayer
370
-1
48
1.0
60
0
100
AcDbViewport
10
0.0
20
0.0
30
0.0
40
297.0
41
210.0
68
1
69
1
12
50.0
22
100.0
13
0.0
23
0.0
14
10.0
24
10.0
15
10.0
25
10.0
16
0.0
26
0.0
36
1.0
17
0.0
27
0.0
37
0.0
42
50.0
43
0.0
44
0.0
45
250.0
50
0.0
51
0.0
72
1000
90
819232
110
0.0
120
0.0
130
0.0
111
1.0
121
0.0
131
0.0
112
0.0
122
1.0
132
0.0
0
ENDSEC
0
SECTION
2
OBJECTS
0
DICTIONARY
5
54
330
0
100
AcDbDictionary
280
0
281
1
3
ACAD_GROUP
350
55
3
ACAD_LAYOUT
350
56
3
ACAD_MLINESTYLE
350
5A
0
DICTIONARY
5
55
330
54
100
AcDbDictionary
280
0
281
1
0
DICTIONARY
5
56
330
54
100
AcDbDictionary
280
0
281
1
3
Model
350
1E
3
Layout1
350
50
0
DICTIONARY
5
5A
330
54
100
AcDbDictionary
280
0
281
1
3
Standard
350
19
0
LAYOUT
5
1E
330
56
100
AcDbPlotSettings
1

2
none_device
4
ISO_A4_(210.00_x_297.00_MM)
6

40
7.5
41
20.0
42
7.5
43
20.0
44
210.0
45
297.0
46
0.0
47
0.0
48
0.0
49
0.0
140
0.0
141
0.0
142
1.0
143
1.0
70
11952
72
1
73
1
74
5
7

75
16
147
1.0
148
0.0
149
0.0
100
AcDbLayout
1
Model
70
1
71
0
10
-20.0
20
-7.5
11
277.0
21
202.5
12
0.0
22
0.0
32
0.0
14
25.7
24
19.5
34
0.0
15
231.3
25
175.5
35
0.0
146
0.0
13
0.0
23
0.0
33
0.0
16
1.0
26
0.0
36
0.0
17
0.0
27
1.0
37
0.0
76
0
330
1A
0
LAYOUT
5
50
330
56
100
AcDbPlotSettings
1

2
none_device
4
ISO_A4_(210.00_x_297.00_MM)
6

40
7.5
41
20.0
42
7.5
43
20.0
44
210.0
45
297.0
46
0.0
47
0.0
48
0.0
49
0.0
140
0.0
141
0.0
142
1.0
143
1.0
70
688
72
1
73
1
74
5
7

75
16
147
1.0
148
0.0
149
0.0
100
AcDbLayout
1
Layout1
70
1
71
1
10
-20.0
20
-7.5
11
277.0
21
202.5
12
0.0
22
0.0
32
0.0
14
25.7
24
19.5
34
0.0
15
231.3
25
175.5
35
0.0
146
0.0
13
0.0
23
0.0
33
0.0
16
1.0
26
0.0
36
0.0
17
0.0
27
1.0
37
0.0
76
0
330
4B
0
MLINESTYLE
5
19
330
5A
100
AcDbMlineStyle
2
Standard
70
0
3

62
256
51
90.0
52
90.0
71
2
49
-0.5
62
256
6
ByLayer
49
0.5
62
256
6
ByLayer
0
ENDSEC
0
EOF
