999
Dxf file generated by netDxf https://netdxf.codeplex.com, Copyright(C) 2009-2016 Daniel Carvajal, Licensed under LGPL
0
SECTION
2
HEADER
9
$ACADVER
1
AC1021
9
$DWGCODEPAGE
3
ANSI_936
9
$LASTSAVEDBY
1
GAODI
9
$HANDSEED
5
B0
9
$ANGBASE
50
0.0
9
$ANGDIR
70
0
9
$ATTMODE
70
1
9
$AUNITS
70
0
9
$AUPREC
70
0
9
$CECOLOR
62
256
9
$CELTSCALE
40
1.0
9
$CELTYPE
6
ByLayer
9
$CELWEIGHT
370
-1
9
$CLAYER
8
0
9
$CMLJUST
70
0
9
$CMLSCALE
40
20.0
9
$CMLSTYLE
2
Standard
9
$DIMSTYLE
2
Standard
9
$TEXTSIZE
40
2.5
9
$TEXTSTYLE
7
Standard
9
$LUNITS
70
2
9
$LUPREC
70
4
9
$EXTNAMES
290
1
9
$INSBASE
10
0.0
20
0.0
30
0.0
9
$INSUNITS
70
0
9
$LTSCALE
40
1.0
9
$LWDISPLAY
290
0
9
$PDMODE
70
0
9
$PDSIZE
40
0.0
9
$PLINEGEN
70
0
9
$PSLTSCALE
70
1
9
$TDCREATE
40
2457773.60926963
9
$TDUCREATE
40
2457773.2759363
9
$TDUPDATE
40
2457773.60926963
9
$TDUUPDATE
40
2457773.2759363
9
$TDINDWG
40
0.0
9
$DIMADEC
70
0
9
$DIMAUNIT
70
0
9
$DIMASZ
40
0.18
9
$DIMAZIN
70
0
9
$DIMSAH
70
0
9
$DIMBLK
1

9
$DIMLDRBLK
1

9
$DIMCEN
40
0.09
9
$DIMCLRD
70
0
9
$DIMCLRE
70
0
9
$DIMCLRT
70
0
9
$DIMDEC
70
2
9
$DIMDLE
40
0.0
9
$DIMDLI
40
0.38
9
$DIMDSEP
70
46
9
$DIMEXE
40
0.18
9
$DIMEXO
40
0.0625
9
$DIMGAP
40
0.09
9
$DIMJUST
70
0
9
$DIMLFAC
40
1.0
9
$DIMLUNIT
70
2
9
$DIMLWD
70
-2
9
$DIMLWE
70
-2
9
$DIMPOST
1
<>
9
$DIMRND
40
0.0
9
$DIMSCALE
40
1.0
9
$DIMSE1
70
0
9
$DIMSE2
70
0
9
$DIMTAD
70
1
9
$DIMTIH
70
0
9
$DIMTOH
70
0
9
$DIMTXT
40
0.18
9
$DIMZIN
70
0
9
$DIMFRAC
70
0
9
$DIMLTYPE
6
ByBlock
9
$DIMLTEX1
6
ByBlock
9
$DIMLTEX2
6
ByBlock
0
ENDSEC
0
SECTION
2
CLASSES
0
CLASS
1
RASTERVARIABLES
2
AcDbRasterVariables
3
ISM
90
0
91
1
280
0
281
0
0
ENDSEC
0
SECTION
2
TABLES
0
TABLE
2
APPID
5
4
330
0
100
AcDbSymbolTable
70
4
0
APPID
5
17
330
4
100
AcDbSymbolTableRecord
100
AcDbRegAppTableRecord
2
ACAD
70
0
0
APPID
5
A5
330
4
100
AcDbSymbolTableRecord
100
AcDbRegAppTableRecord
2
AcCmTransparency
70
0
0
APPID
5
A6
330
4
100
AcDbSymbolTableRecord
100
AcDbRegAppTableRecord
2
GradientColor1ACI
70
0
0
APPID
5
A7
330
4
100
AcDbSymbolTableRecord
100
AcDbRegAppTableRecord
2
GradientColor2ACI
70
0
0
ENDTAB
0
TABLE
2
VPORT
5
1
330
0
100
AcDbSymbolTable
70
1
0
VPORT
5
2
330
1
100
AcDbSymbolTableRecord
100
AcDbViewportTableRecord
2
*Active
70
0
10
0.0
20
0.0
11
1.0
21
1.0
12
0.0
22
0.0
13
0.0
23
0.0
14
0.5
24
0.5
15
10.0
25
10.0
16
0.0
26
0.0
36
1.0
17
0.0
27
0.0
37
0.0
40
10.0
41
1.0
75
0
76
1
0
ENDTAB
0
TABLE
2
LTYPE
5
6
330
0
100
AcDbSymbolTable
70
3
0
LTYPE
5
13
330
6
100
AcDbSymbolTableRecord
100
AcDbLinetypeTableRecord
70
0
2
Continuous
3
Solid line
72
65
73
0
40
0.0
0
LTYPE
5
14
330
6
100
AcDbSymbolTableRecord
100
AcDbLinetypeTableRecord
70
0
2
ByLayer
3

72
65
73
0
40
0.0
0
LTYPE
5
15
330
6
100
AcDbSymbolTableRecord
100
AcDbLinetypeTableRecord
70
0
2
ByBlock
3

72
65
73
0
40
0.0
0
ENDTAB
0
TABLE
2
LAYER
5
5
330
0
100
AcDbSymbolTable
70
1
0
LAYER
5
12
330
5
100
AcDbSymbolTableRecord
100
AcDbLayerTableRecord
2
0
70
0
62
7
6
Continuous
290
1
370
-3
390
0
0
ENDTAB
0
TABLE
2
STYLE
5
7
330
0
100
AcDbSymbolTable
70
1
0
STYLE
5
16
330
7
100
AcDbSymbolTableRecord
100
AcDbTextStyleTableRecord
2
Standard
3
simplex.shx
70
0
71
0
40
0.0
41
1.0
42
0.0
50
0.0
0
ENDTAB
0
TABLE
2
DIMSTYLE
5
8
330
0
100
AcDbSymbolTable
70
1
100
AcDbDimStyleTable
0
DIMSTYLE
105
18
330
8
100
AcDbSymbolTableRecord
100
AcDbDimStyleTableRecord
2
Standard
70
0
3
<>
40
1.0
41
0.18
42
0.0625
43
0.38
44
0.18
45
0.0
46
0.0
73
0
74
0
75
0
76
0
77
1
78
0
79
0
140
0.18
141
0.09
144
1.0
147
0.09
176
0
177
0
178
0
179
0
271
2
275
0
276
0
277
2
278
46
280
0
340
16
173
0
345
15
346
15
347
15
371
-2
372
-2
0
ENDTAB
0
TABLE
2
VIEW
5
3
330
0
100
AcDbSymbolTable
70
0
0
ENDTAB
0
TABLE
2
UCS
5
A
330
0
100
AcDbSymbolTable
70
0
0
ENDTAB
0
TABLE
2
BLOCK_RECORD
5
B
330
0
100
AcDbSymbolTable
70
3
0
BLOCK_RECORD
5
1A
330
B
100
AcDbSymbolTableRecord
100
AcDbBlockTableRecord
2
*Model_Space
340
1E
0
BLOCK_RECORD
5
22
330
B
100
AcDbSymbolTableRecord
100
AcDbBlockTableRecord
2
窗前视
340
0
70
0
280
1
281
0
1001
ACAD
1000
DesignCenter Data
1002
{
1070
1
1070
0
1002
}
0
BLOCK_RECORD
5
9F
330
B
100
AcDbSymbolTableRecord
100
AcDbBlockTableRecord
2
*Paper_Space
340
A4
0
ENDTAB
0
ENDSEC
0
SECTION
2
BLOCKS
0
BLOCK
5
1C
330
1A
100
AcDbEntity
8
0
100
AcDbBlockBegin
2
*Model_Space
70
0
10
0.0
20
0.0
30
0.0
3
*Model_Space
0
ENDBLK
5
1B
330
1A
100
AcDbEntity
8
0
100
AcDbBlockEnd
0
BLOCK
5
24
330
22
100
AcDbEntity
8
0
100
AcDbBlockBegin
2
窗前视
70
0
10
0.0
20
0.0
30
0.0
3
窗前视
0
LINE
5
25
330
22
100
AcDbEntity
8
0
62
256
6
ByBlock
370
-1
48
1.0
60
0
100
AcDbLine
10
-1.48168300527278
20
3.10333399494215
30
0.0
11
1.48164999472722
21
3.10333399494215
31
0.0
39
0.0
210
0.0
220
0.0
230
1.0
0
LINE
5
26
330
22
100
AcDbEntity
8
0
62
256
6
ByBlock
370
-1
48
1.0
60
0
100
AcDbLine
10
1.48164999472722
20
3.10333399494215
30
0.0
11
1.48831699472722
21
3.09666699494215
31
0.0
39
0.0
210
0.0
220
0.0
230
1.0
0
LINE
5
27
330
22
100
AcDbEntity
8
0
62
256
6
ByBlock
370
-1
48
1.0
60
0
100
AcDbLine
10
1.48831699472722
20
3.09666699494215
30
0.0
11
1.48498399472722
21
0.00333399494215
31
0.0
39
0.0
210
0.0
220
0.0
230
1.0
0
LINE
5
28
330
22
100
AcDbEntity
8
0
62
256
6
ByBlock
370
-1
48
1.0
60
0
100
AcDbLine
10
1.48498399472722
20
0.00333399494215
30
0.0
11
1.47498399472722
21
-0.00000000505785
31
0.0
39
0.0
210
0.0
220
0.0
230
1.0
0
LINE
5
29
330
22
100
AcDbEntity
8
0
62
256
6
ByBlock
370
-1
48
1.0
60
0
100
AcDbLine
10
1.47498399472722
20
-0.00000000505785
30
0.0
11
-1.48501600527278
21
-0.00000000505785
31
0.0
39
0.0
210
0.0
220
0.0
230
1.0
0
LINE
5
2A
330
22
100
AcDbEntity
8
0
62
256
6
ByBlock
370
-1
48
1.0
60
0
100
AcDbLine
10
-1.48501600527278
20
-0.00000000505785
30
0.0
11
-1.48835000527278
21
0.01333399494215
31
0.0
39
0.0
210
0.0
220
0.0
230
1.0
0
LINE
5
2B
330
22
100
AcDbEntity
8
0
62
256
6
ByBlock
370
-1
48
1.0
60
0
100
AcDbLine
10
-1.48835000527278
20
0.01333399494215
30
0.0
11
-1.48835000527278
21
3.09666699494215
31
0.0
39
0.0
210
0.0
220
0.0
230
1.0
0
LINE
5
2C
330
22
100
AcDbEntity
8
0
62
256
6
ByBlock
370
-1
48
1.0
60
0
100
AcDbLine
10
-1.48835000527278
20
3.09666699494215
30
0.0
11
-1.48168300527278
21
3.10333399494215
31
0.0
39
0.0
210
0.0
220
0.0
230
1.0
0
LINE
5
2D
330
22
100
AcDbEntity
8
0
62
256
6
ByBlock
370
-1
48
1.0
60
0
100
AcDbLine
10
-1.47168300527278
20
3.09999999494215
30
0.0
11
1.47165099472722
21
3.09666699494215
31
0.0
39
0.0
210
0.0
220
0.0
230
1.0
0
LINE
5
2E
330
22
100
AcDbEntity
8
0
62
256
6
ByBlock
370
-1
48
1.0
60
0
100
AcDbLine
10
1.47165099472722
20
3.09666699494215
30
0.0
11
1.48164999472722
21
3.08666699494215
31
0.0
39
0.0
210
0.0
220
0.0
230
1.0
0
LINE
5
2F
330
22
100
AcDbEntity
8
0
62
256
6
ByBlock
370
-1
48
1.0
60
0
100
AcDbLine
10
1.48164999472722
20
3.08666699494215
30
0.0
11
1.48056845496377
21
0.00681324684064
31
0.0
39
0.0
210
0.0
220
0.0
230
1.0
0
LINE
5
30
330
22
100
AcDbEntity
8
0
62
256
6
ByBlock
370
-1
48
1.0
60
0
100
AcDbLine
10
1.48056845496377
20
0.00681324684064
30
0.0
11
1.47165099472722
21
0.00666699494215
31
0.0
39
0.0
210
0.0
220
0.0
230
1.0
0
LINE
5
31
330
22
100
AcDbEntity
8
0
62
256
6
ByBlock
370
-1
48
1.0
60
0
100
AcDbLine
10
1.47165099472722
20
0.00666699494215
30
0.0
11
-1.47168300527278
21
0.00666699494215
31
0.0
39
0.0
210
0.0
220
0.0
230
1.0
0
LINE
5
32
330
22
100
AcDbEntity
8
0
62
256
6
ByBlock
370
-1
48
1.0
60
0
100
AcDbLine
10
-1.47168300527278
20
0.00666699494215
30
0.0
11
-1.47948473230925
21
0.01866731071383
31
0.0
39
0.0
210
0.0
220
0.0
230
1.0
0
LINE
5
33
330
22
100
AcDbEntity
8
0
62
256
6
ByBlock
370
-1
48
1.0
60
0
100
AcDbLine
10
-1.47948473230925
20
0.01866731071383
30
0.0
11
-1.48168300527278
21
0.11333399494215
31
0.0
39
0.0
210
0.0
220
0.0
230
1.0
0
LINE
5
34
330
22
100
AcDbEntity
8
0
62
256
6
ByBlock
370
-1
48
1.0
60
0
100
AcDbLine
10
-1.48168300527278
20
0.11333399494215
30
0.0
11
-1.48168300527278
21
3.08666699494215
31
0.0
39
0.0
210
0.0
220
0.0
230
1.0
0
LINE
5
35
330
22
100
AcDbEntity
8
0
62
256
6
ByBlock
370
-1
48
1.0
60
0
100
AcDbLine
10
-1.48168300527278
20
3.08666699494215
30
0.0
11
-1.47168300527278
21
3.09999999494215
31
0.0
39
0.0
210
0.0
220
0.0
230
1.0
0
LINE
5
36
330
22
100
AcDbEntity
8
0
62
256
6
ByBlock
370
-1
48
1.0
60
0
100
AcDbLine
10
-1.39501600527278
20
3.01666699494215
30
0.0
11
1.40164999472722
21
3.01666699494215
31
0.0
39
0.0
210
0.0
220
0.0
230
1.0
0
LINE
5
37
330
22
100
AcDbEntity
8
0
62
256
6
ByBlock
370
-1
48
1.0
60
0
100
AcDbLine
10
1.40164999472722
20
3.01666699494215
30
0.0
11
1.40831699472722
21
3.00999999494215
31
0.0
39
0.0
210
0.0
220
0.0
230
1.0
0
LINE
5
38
330
22
100
AcDbEntity
8
0
62
256
6
ByBlock
370
-1
48
1.0
60
0
100
AcDbLine
10
1.40831699472722
20
3.00999999494215
30
0.0
11
1.40831699472722
21
0.09333399494215
31
0.0
39
0.0
210
0.0
220
0.0
230
1.0
0
LINE
5
39
330
22
100
AcDbEntity
8
0
62
256
6
ByBlock
370
-1
48
1.0
60
0
100
AcDbLine
10
1.40831699472722
20
0.09333399494215
30
0.0
11
1.40164999472722
21
0.08666699494215
31
0.0
39
0.0
210
0.0
220
0.0
230
1.0
0
LINE
5
3A
330
22
100
AcDbEntity
8
0
62
256
6
ByBlock
370
-1
48
1.0
60
0
100
AcDbLine
10
1.40164999472722
20
0.08666699494215
30
0.0
11
-1.39501600527278
21
0.08333399494215
31
0.0
39
0.0
210
0.0
220
0.0
230
1.0
0
LINE
5
3B
330
22
100
AcDbEntity
8
0
62
256
6
ByBlock
370
-1
48
1.0
60
0
100
AcDbLine
10
-1.39501600527278
20
0.08333399494215
30
0.0
11
-1.40501600527277
21
0.09333399494215
31
0.0
39
0.0
210
0.0
220
0.0
230
1.0
0
LINE
5
3C
330
22
100
AcDbEntity
8
0
62
256
6
ByBlock
370
-1
48
1.0
60
0
100
AcDbLine
10
-1.40501600527277
20
0.09333399494215
30
0.0
11
-1.40168300527278
21
3.00666699494215
31
0.0
39
0.0
210
0.0
220
0.0
230
1.0
0
LINE
5
3D
330
22
100
AcDbEntity
8
0
62
256
6
ByBlock
370
-1
48
1.0
60
0
100
AcDbLine
10
-1.40168300527278
20
3.00666699494215
30
0.0
11
-1.39501600527278
21
3.01666699494215
31
0.0
39
0.0
210
0.0
220
0.0
230
1.0
0
LINE
5
3E
330
22
100
AcDbEntity
8
0
62
256
6
ByBlock
370
-1
48
1.0
60
0
100
AcDbLine
10
-1.39835000527278
20
3.00333399494215
30
0.0
11
-1.39168300527278
21
3.00999999494215
31
0.0
39
0.0
210
0.0
220
0.0
230
1.0
0
LINE
5
3F
330
22
100
AcDbEntity
8
0
62
256
6
ByBlock
370
-1
48
1.0
60
0
100
AcDbLine
10
-1.39168300527278
20
3.00999999494215
30
0.0
11
-1.33168300527278
21
3.00999999494215
31
0.0
39
0.0
210
0.0
220
0.0
230
1.0
0
LINE
5
40
330
22
100
AcDbEntity
8
0
62
256
6
ByBlock
370
-1
48
1.0
60
0
100
AcDbLine
10
-1.33168300527278
20
3.00999999494215
30
0.0
11
1.39831699472722
21
3.00999999494215
31
0.0
39
0.0
210
0.0
220
0.0
230
1.0
0
LINE
5
41
330
22
100
AcDbEntity
8
0
62
256
6
ByBlock
370
-1
48
1.0
60
0
100
AcDbLine
10
1.39831699472722
20
3.00999999494215
30
0.0
11
1.40498399472722
21
3.00333399494215
31
0.0
39
0.0
210
0.0
220
0.0
230
1.0
0
LINE
5
42
330
22
100
AcDbEntity
8
0
62
256
6
ByBlock
370
-1
48
1.0
60
0
100
AcDbLine
10
1.40498399472722
20
3.00333399494215
30
0.0
11
1.40164999472722
21
0.09666699494215
31
0.0
39
0.0
210
0.0
220
0.0
230
1.0
0
LINE
5
43
330
22
100
AcDbEntity
8
0
62
256
6
ByBlock
370
-1
48
1.0
60
0
100
AcDbLine
10
1.40164999472722
20
0.09666699494215
30
0.0
11
1.39498399472722
21
0.08999999494215
31
0.0
39
0.0
210
0.0
220
0.0
230
1.0
0
LINE
5
44
330
22
100
AcDbEntity
8
0
62
256
6
ByBlock
370
-1
48
1.0
60
0
100
AcDbLine
10
1.39498399472722
20
0.08999999494215
30
0.0
11
-1.39168300527278
21
0.08999999494215
31
0.0
39
0.0
210
0.0
220
0.0
230
1.0
0
LINE
5
45
330
22
100
AcDbEntity
8
0
62
256
6
ByBlock
370
-1
48
1.0
60
0
100
AcDbLine
10
-1.39168300527278
20
0.08999999494215
30
0.0
11
-1.39835000527278
21
0.09666699494215
31
0.0
39
0.0
210
0.0
220
0.0
230
1.0
0
LINE
5
46
330
22
100
AcDbEntity
8
0
62
256
6
ByBlock
370
-1
48
1.0
60
0
100
AcDbLine
10
-1.39835000527278
20
0.09666699494215
30
0.0
11
-1.39835000527278
21
3.00333399494215
31
0.0
39
0.0
210
0.0
220
0.0
230
1.0
0
LINE
5
47
330
22
100
AcDbEntity
8
0
62
256
6
ByBlock
370
-1
48
1.0
60
0
100
AcDbLine
10
-1.26168300527278
20
2.88333399494215
30
0.0
11
-0.14168300527278
21
2.88333399494215
31
0.0
39
0.0
210
0.0
220
0.0
230
1.0
0
LINE
5
48
330
22
100
AcDbEntity
8
0
62
256
6
ByBlock
370
-1
48
1.0
60
0
100
AcDbLine
10
-0.14168300527278
20
2.88333399494215
30
0.0
11
-0.14168300527278
21
0.21666699494215
31
0.0
39
0.0
210
0.0
220
0.0
230
1.0
0
LINE
5
49
330
22
100
AcDbEntity
8
0
62
256
6
ByBlock
370
-1
48
1.0
60
0
100
AcDbLine
10
-0.14168300527278
20
0.21666699494215
30
0.0
11
-1.26501600527278
21
0.21999999494215
31
0.0
39
0.0
210
0.0
220
0.0
230
1.0
0
LINE
5
4A
330
22
100
AcDbEntity
8
0
62
256
6
ByBlock
370
-1
48
1.0
60
0
100
AcDbLine
10
-1.26501600527278
20
0.21999999494215
30
0.0
11
-1.26168300527278
21
2.88333399494215
31
0.0
39
0.0
210
0.0
220
0.0
230
1.0
0
LINE
5
4B
330
22
100
AcDbEntity
8
0
62
256
6
ByBlock
370
-1
48
1.0
60
0
100
AcDbLine
10
-1.21168300527278
20
2.84000099494215
30
0.0
11
-0.17834900527278
21
2.84000099494215
31
0.0
39
0.0
210
0.0
220
0.0
230
1.0
0
LINE
5
4C
330
22
100
AcDbEntity
8
0
62
256
6
ByBlock
370
-1
48
1.0
60
0
100
AcDbLine
10
-0.17834900527278
20
2.84000099494215
30
0.0
11
-0.18168300527278
21
0.26333399494215
31
0.0
39
0.0
210
0.0
220
0.0
230
1.0
0
LINE
5
4D
330
22
100
AcDbEntity
8
0
62
256
6
ByBlock
370
-1
48
1.0
60
0
100
AcDbLine
10
-0.18168300527278
20
0.26333399494215
30
0.0
11
-1.20835000527278
21
0.26333399494215
31
0.0
39
0.0
210
0.0
220
0.0
230
1.0
0
LINE
5
4E
330
22
100
AcDbEntity
8
0
62
256
6
ByBlock
370
-1
48
1.0
60
0
100
AcDbLine
10
-1.20835000527278
20
0.26333399494215
30
0.0
11
-1.21168300527278
21
2.84000099494215
31
0.0
39
0.0
210
0.0
220
0.0
230
1.0
0
LINE
5
4F
330
22
100
AcDbEntity
8
0
62
256
6
ByBlock
370
-1
48
1.0
60
0
100
AcDbLine
10
-1.26168300527278
20
2.88333399494215
30
0.0
11
-1.21168300527278
21
2.84000099494215
31
0.0
39
0.0
210
0.0
220
0.0
230
1.0
0
LINE
5
50
330
22
100
AcDbEntity
8
0
62
256
6
ByBlock
370
-1
48
1.0
60
0
100
AcDbLine
10
-0.14168300527278
20
2.88333399494215
30
0.0
11
-0.17834900527278
21
2.84000099494215
31
0.0
39
0.0
210
0.0
220
0.0
230
1.0
0
LINE
5
51
330
22
100
AcDbEntity
8
0
62
256
6
ByBlock
370
-1
48
1.0
60
0
100
AcDbLine
10
-0.14168300527278
20
0.21666699494215
30
0.0
11
-0.18168300527278
21
0.26333399494215
31
0.0
39
0.0
210
0.0
220
0.0
230
1.0
0
LINE
5
52
330
22
100
AcDbEntity
8
0
62
256
6
ByBlock
370
-1
48
1.0
60
0
100
AcDbLine
10
-1.26501600527278
20
0.21999999494215
30
0.0
11
-1.20835000527278
21
0.26333399494215
31
0.0
39
0.0
210
0.0
220
0.0
230
1.0
0
LINE
5
53
330
22
100
AcDbEntity
8
0
62
256
6
ByBlock
370
-1
48
1.0
60
0
100
AcDbLine
10
-1.14501600527278
20
2.75999999494215
30
0.0
11
-0.25835000527278
21
2.75999999494215
31
0.0
39
0.0
210
0.0
220
0.0
230
1.0
0
LINE
5
54
330
22
100
AcDbEntity
8
0
62
256
6
ByBlock
370
-1
48
1.0
60
0
100
AcDbLine
10
-0.25835000527278
20
2.75999999494215
30
0.0
11
-0.26168300527278
21
0.33999999494215
31
0.0
39
0.0
210
0.0
220
0.0
230
1.0
0
LINE
5
55
330
22
100
AcDbEntity
8
0
62
256
6
ByBlock
370
-1
48
1.0
60
0
100
AcDbLine
10
-0.26168300527278
20
0.33999999494215
30
0.0
11
-1.14835000527278
21
0.34333399494215
31
0.0
39
0.0
210
0.0
220
0.0
230
1.0
0
LINE
5
56
330
22
100
AcDbEntity
8
0
62
256
6
ByBlock
370
-1
48
1.0
60
0
100
AcDbLine
10
-1.14835000527278
20
0.34333399494215
30
0.0
11
-1.14501600527278
21
2.75999999494215
31
0.0
39
0.0
210
0.0
220
0.0
230
1.0
0
LINE
5
57
330
22
100
AcDbEntity
8
0
62
256
6
ByBlock
370
-1
48
1.0
60
0
100
AcDbLine
10
-1.12501600527278
20
2.73666699494215
30
0.0
11
-0.28168300527278
21
2.73666699494215
31
0.0
39
0.0
210
0.0
220
0.0
230
1.0
0
LINE
5
58
330
22
100
AcDbEntity
8
0
62
256
6
ByBlock
370
-1
48
1.0
60
0
100
AcDbLine
10
-1.12501600527278
20
2.73666699494215
30
0.0
11
-1.12501600527278
21
0.36333399494215
31
0.0
39
0.0
210
0.0
220
0.0
230
1.0
0
LINE
5
59
330
22
100
AcDbEntity
8
0
62
256
6
ByBlock
370
-1
48
1.0
60
0
100
AcDbLine
10
-1.12501600527278
20
0.36333399494215
30
0.0
11
-0.28168300527278
21
0.36333399494215
31
0.0
39
0.0
210
0.0
220
0.0
230
1.0
0
LINE
5
5A
330
22
100
AcDbEntity
8
0
62
256
6
ByBlock
370
-1
48
1.0
60
0
100
AcDbLine
10
-0.28168300527278
20
2.73666699494215
30
0.0
11
-0.28168300527278
21
0.36333399494215
31
0.0
39
0.0
210
0.0
220
0.0
230
1.0
0
LINE
5
5B
330
22
100
AcDbEntity
8
0
62
256
6
ByBlock
370
-1
48
1.0
60
0
100
AcDbLine
10
-0.26168300527278
20
0.33999999494215
30
0.0
11
-0.28168300527278
21
0.36333399494215
31
0.0
39
0.0
210
0.0
220
0.0
230
1.0
0
LINE
5
5C
330
22
100
AcDbEntity
8
0
62
256
6
ByBlock
370
-1
48
1.0
60
0
100
AcDbLine
10
-1.14835000527278
20
0.34333399494215
30
0.0
11
-1.12501600527278
21
0.36333399494215
31
0.0
39
0.0
210
0.0
220
0.0
230
1.0
0
LINE
5
5D
330
22
100
AcDbEntity
8
0
62
256
6
ByBlock
370
-1
48
1.0
60
0
100
AcDbLine
10
-1.14501600527278
20
2.75999999494215
30
0.0
11
-1.12501600527278
21
2.73666699494215
31
0.0
39
0.0
210
0.0
220
0.0
230
1.0
0
LINE
5
5E
330
22
100
AcDbEntity
8
0
62
256
6
ByBlock
370
-1
48
1.0
60
0
100
AcDbLine
10
-0.11168300527278
20
1.79666699494214
30
0.0
11
-0.10835000527278
21
1.80000099494215
31
0.0
39
0.0
210
0.0
220
0.0
230
1.0
0
LINE
5
5F
330
22
100
AcDbEntity
8
0
62
256
6
ByBlock
370
-1
48
1.0
60
0
100
AcDbLine
10
-0.10835000527278
20
1.80000099494215
30
0.0
11
-0.03835000527278
21
1.80000099494215
31
0.0
39
0.0
210
0.0
220
0.0
230
1.0
0
LINE
5
60
330
22
100
AcDbEntity
8
0
62
256
6
ByBlock
370
-1
48
1.0
60
0
100
AcDbLine
10
-0.03835000527278
20
1.80000099494215
30
0.0
11
-0.03168300527278
21
1.79000099494215
31
0.0
39
0.0
210
0.0
220
0.0
230
1.0
0
LINE
5
61
330
22
100
AcDbEntity
8
0
62
256
6
ByBlock
370
-1
48
1.0
60
0
100
AcDbLine
10
-0.03168300527278
20
1.79000099494215
30
0.0
11
-0.03168300527278
21
1.63333399494215
31
0.0
39
0.0
210
0.0
220
0.0
230
1.0
0
LINE
5
62
330
22
100
AcDbEntity
8
0
62
256
6
ByBlock
370
-1
48
1.0
60
0
100
AcDbLine
10
-0.03168300527278
20
1.63333399494215
30
0.0
11
-0.03501600527278
21
1.60999999494215
31
0.0
39
0.0
210
0.0
220
0.0
230
1.0
0
LINE
5
63
330
22
100
AcDbEntity
8
0
62
256
6
ByBlock
370
-1
48
1.0
60
0
100
AcDbLine
10
-0.03501600527278
20
1.60999999494215
30
0.0
11
-0.04835000527278
21
1.59999999494215
31
0.0
39
0.0
210
0.0
220
0.0
230
1.0
0
LINE
5
64
330
22
100
AcDbEntity
8
0
62
256
6
ByBlock
370
-1
48
1.0
60
0
100
AcDbLine
10
-0.04835000527278
20
1.59999999494215
30
0.0
11
-0.04835000527278
21
1.48333399494215
31
0.0
39
0.0
210
0.0
220
0.0
230
1.0
0
LINE
5
65
330
22
100
AcDbEntity
8
0
62
256
6
ByBlock
370
-1
48
1.0
60
0
100
AcDbLine
10
-0.04835000527278
20
1.48333399494215
30
0.0
11
-0.05501600527278
21
1.38666699494215
31
0.0
39
0.0
210
0.0
220
0.0
230
1.0
0
LINE
5
66
330
22
100
AcDbEntity
8
0
62
256
6
ByBlock
370
-1
48
1.0
60
0
100
AcDbLine
10
-0.05501600527278
20
1.38666699494215
30
0.0
11
-0.05501600527278
21
1.37333399494215
31
0.0
39
0.0
210
0.0
220
0.0
230
1.0
0
LINE
5
67
330
22
100
AcDbEntity
8
0
62
256
6
ByBlock
370
-1
48
1.0
60
0
100
AcDbLine
10
-0.05501600527278
20
1.37333399494215
30
0.0
11
-0.09168300527278
21
1.37333399494215
31
0.0
39
0.0
210
0.0
220
0.0
230
1.0
0
LINE
5
68
330
22
100
AcDbEntity
8
0
62
256
6
ByBlock
370
-1
48
1.0
60
0
100
AcDbLine
10
-0.09168300527278
20
1.37333399494215
30
0.0
11
-0.09835000527278
21
1.60333399494215
31
0.0
39
0.0
210
0.0
220
0.0
230
1.0
0
LINE
5
69
330
22
100
AcDbEntity
8
0
62
256
6
ByBlock
370
-1
48
1.0
60
0
100
AcDbLine
10
-0.09835000527278
20
1.60333399494215
30
0.0
11
-0.11168300527278
21
1.60999999494215
31
0.0
39
0.0
210
0.0
220
0.0
230
1.0
0
LINE
5
6A
330
22
100
AcDbEntity
8
0
62
256
6
ByBlock
370
-1
48
1.0
60
0
100
AcDbLine
10
-0.11168300527278
20
1.60999999494215
30
0.0
11
-0.11168300527278
21
1.79666699494214
31
0.0
39
0.0
210
0.0
220
0.0
230
1.0
0
LINE
5
6B
330
22
100
AcDbEntity
8
0
62
256
6
ByBlock
370
-1
48
1.0
60
0
100
AcDbLine
10
-0.10168300527278
20
1.72666699494215
30
0.0
11
-0.09168300527278
21
1.73666699494215
31
0.0
39
0.0
210
0.0
220
0.0
230
1.0
0
LINE
5
6C
330
22
100
AcDbEntity
8
0
62
256
6
ByBlock
370
-1
48
1.0
60
0
100
AcDbLine
10
-0.09168300527278
20
1.73666699494215
30
0.0
11
-0.05501600527278
21
1.73666699494215
31
0.0
39
0.0
210
0.0
220
0.0
230
1.0
0
LINE
5
6D
330
22
100
AcDbEntity
8
0
62
256
6
ByBlock
370
-1
48
1.0
60
0
100
AcDbLine
10
-0.05501600527278
20
1.73666699494215
30
0.0
11
-0.04168300527278
21
1.72333399494215
31
0.0
39
0.0
210
0.0
220
0.0
230
1.0
0
LINE
5
6E
330
22
100
AcDbEntity
8
0
62
256
6
ByBlock
370
-1
48
1.0
60
0
100
AcDbLine
10
-0.04168300527278
20
1.72333399494215
30
0.0
11
-0.04835000527278
21
1.64333399494215
31
0.0
39
0.0
210
0.0
220
0.0
230
1.0
0
LINE
5
6F
330
22
100
AcDbEntity
8
0
62
256
6
ByBlock
370
-1
48
1.0
60
0
100
AcDbLine
10
-0.04835000527278
20
1.64333399494215
30
0.0
11
-0.04835000527278
21
1.60999999494215
31
0.0
39
0.0
210
0.0
220
0.0
230
1.0
0
LINE
5
70
330
22
100
AcDbEntity
8
0
62
256
6
ByBlock
370
-1
48
1.0
60
0
100
AcDbLine
10
-0.04835000527278
20
1.60999999494215
30
0.0
11
-0.03501600527278
21
1.60999999494215
31
0.0
39
0.0
210
0.0
220
0.0
230
1.0
0
LINE
5
71
330
22
100
AcDbEntity
8
0
62
256
6
ByBlock
370
-1
48
1.0
60
0
100
AcDbLine
10
-0.10168300527278
20
1.72666699494215
30
0.0
11
-0.09835000527278
21
1.60999999494215
31
0.0
39
0.0
210
0.0
220
0.0
230
1.0
0
LINE
5
72
330
22
100
AcDbEntity
8
0
62
256
6
ByBlock
370
-1
48
1.0
60
0
100
AcDbLine
10
-0.09835000527278
20
1.60999999494215
30
0.0
11
-0.11168300527278
21
1.60999999494215
31
0.0
39
0.0
210
0.0
220
0.0
230
1.0
0
LINE
5
73
330
22
100
AcDbEntity
8
0
62
256
6
ByBlock
370
-1
48
1.0
60
0
100
AcDbLine
10
1.26831699472722
20
2.88333399494215
30
0.0
11
0.14831699472723
21
2.88333399494215
31
0.0
39
0.0
210
0.0
220
0.0
230
1.0
0
LINE
5
74
330
22
100
AcDbEntity
8
0
62
256
6
ByBlock
370
-1
48
1.0
60
0
100
AcDbLine
10
0.14831699472723
20
2.88333399494215
30
0.0
11
0.14831699472723
21
0.21666699494215
31
0.0
39
0.0
210
0.0
220
0.0
230
1.0
0
LINE
5
75
330
22
100
AcDbEntity
8
0
62
256
6
ByBlock
370
-1
48
1.0
60
0
100
AcDbLine
10
0.14831699472723
20
0.21666699494215
30
0.0
11
1.27164999472722
21
0.21999999494215
31
0.0
39
0.0
210
0.0
220
0.0
230
1.0
0
LINE
5
76
330
22
100
AcDbEntity
8
0
62
256
6
ByBlock
370
-1
48
1.0
60
0
100
AcDbLine
10
1.27164999472722
20
0.21999999494215
30
0.0
11
1.26831699472722
21
2.88333399494215
31
0.0
39
0.0
210
0.0
220
0.0
230
1.0
0
LINE
5
77
330
22
100
AcDbEntity
8
0
62
256
6
ByBlock
370
-1
48
1.0
60
0
100
AcDbLine
10
1.21831699472722
20
2.84000099494215
30
0.0
11
0.18498299472723
21
2.84000099494215
31
0.0
39
0.0
210
0.0
220
0.0
230
1.0
0
LINE
5
78
330
22
100
AcDbEntity
8
0
62
256
6
ByBlock
370
-1
48
1.0
60
0
100
AcDbLine
10
0.18498299472723
20
2.84000099494215
30
0.0
11
0.18831699472722
21
0.26333399494215
31
0.0
39
0.0
210
0.0
220
0.0
230
1.0
0
LINE
5
79
330
22
100
AcDbEntity
8
0
62
256
6
ByBlock
370
-1
48
1.0
60
0
100
AcDbLine
10
0.18831699472722
20
0.26333399494215
30
0.0
11
1.21498399472722
21
0.26333399494215
31
0.0
39
0.0
210
0.0
220
0.0
230
1.0
0
LINE
5
7A
330
22
100
AcDbEntity
8
0
62
256
6
ByBlock
370
-1
48
1.0
60
0
100
AcDbLine
10
1.21498399472722
20
0.26333399494215
30
0.0
11
1.21831699472722
21
2.84000099494215
31
0.0
39
0.0
210
0.0
220
0.0
230
1.0
0
LINE
5
7B
330
22
100
AcDbEntity
8
0
62
256
6
ByBlock
370
-1
48
1.0
60
0
100
AcDbLine
10
1.26831699472722
20
2.88333399494215
30
0.0
11
1.21831699472722
21
2.84000099494215
31
0.0
39
0.0
210
0.0
220
0.0
230
1.0
0
LINE
5
7C
330
22
100
AcDbEntity
8
0
62
256
6
ByBlock
370
-1
48
1.0
60
0
100
AcDbLine
10
0.14831699472723
20
2.88333399494215
30
0.0
11
0.18498299472723
21
2.84000099494215
31
0.0
39
0.0
210
0.0
220
0.0
230
1.0
0
LINE
5
7D
330
22
100
AcDbEntity
8
0
62
256
6
ByBlock
370
-1
48
1.0
60
0
100
AcDbLine
10
0.14831699472723
20
0.21666699494215
30
0.0
11
0.18831699472722
21
0.26333399494215
31
0.0
39
0.0
210
0.0
220
0.0
230
1.0
0
LINE
5
7E
330
22
100
AcDbEntity
8
0
62
256
6
ByBlock
370
-1
48
1.0
60
0
100
AcDbLine
10
1.27164999472722
20
0.21999999494215
30
0.0
11
1.21498399472722
21
0.26333399494215
31
0.0
39
0.0
210
0.0
220
0.0
230
1.0
0
LINE
5
7F
330
22
100
AcDbEntity
8
0
62
256
6
ByBlock
370
-1
48
1.0
60
0
100
AcDbLine
10
1.15164999472722
20
2.75999999494215
30
0.0
11
0.26498399472723
21
2.75999999494215
31
0.0
39
0.0
210
0.0
220
0.0
230
1.0
0
LINE
5
80
330
22
100
AcDbEntity
8
0
62
256
6
ByBlock
370
-1
48
1.0
60
0
100
AcDbLine
10
0.26498399472723
20
2.75999999494215
30
0.0
11
0.26831699472722
21
0.33999999494215
31
0.0
39
0.0
210
0.0
220
0.0
230
1.0
0
LINE
5
81
330
22
100
AcDbEntity
8
0
62
256
6
ByBlock
370
-1
48
1.0
60
0
100
AcDbLine
10
0.26831699472722
20
0.33999999494215
30
0.0
11
1.15498399472722
21
0.34333399494215
31
0.0
39
0.0
210
0.0
220
0.0
230
1.0
0
LINE
5
82
330
22
100
AcDbEntity
8
0
62
256
6
ByBlock
370
-1
48
1.0
60
0
100
AcDbLine
10
1.15498399472722
20
0.34333399494215
30
0.0
11
1.15164999472722
21
2.75999999494215
31
0.0
39
0.0
210
0.0
220
0.0
230
1.0
0
LINE
5
83
330
22
100
AcDbEntity
8
0
62
256
6
ByBlock
370
-1
48
1.0
60
0
100
AcDbLine
10
1.13164999472722
20
2.73666699494215
30
0.0
11
0.28831699472723
21
2.73666699494215
31
0.0
39
0.0
210
0.0
220
0.0
230
1.0
0
LINE
5
84
330
22
100
AcDbEntity
8
0
62
256
6
ByBlock
370
-1
48
1.0
60
0
100
AcDbLine
10
1.13164999472722
20
2.73666699494215
30
0.0
11
1.13164999472722
21
0.36333399494215
31
0.0
39
0.0
210
0.0
220
0.0
230
1.0
0
LINE
5
85
330
22
100
AcDbEntity
8
0
62
256
6
ByBlock
370
-1
48
1.0
60
0
100
AcDbLine
10
1.13164999472722
20
0.36333399494215
30
0.0
11
0.28831699472723
21
0.36333399494215
31
0.0
39
0.0
210
0.0
220
0.0
230
1.0
0
LINE
5
86
330
22
100
AcDbEntity
8
0
62
256
6
ByBlock
370
-1
48
1.0
60
0
100
AcDbLine
10
0.28831699472723
20
2.73666699494215
30
0.0
11
0.28831699472723
21
0.36333399494215
31
0.0
39
0.0
210
0.0
220
0.0
230
1.0
0
LINE
5
87
330
22
100
AcDbEntity
8
0
62
256
6
ByBlock
370
-1
48
1.0
60
0
100
AcDbLine
10
0.26831699472722
20
0.33999999494215
30
0.0
11
0.28831699472723
21
0.36333399494215
31
0.0
39
0.0
210
0.0
220
0.0
230
1.0
0
LINE
5
88
330
22
100
AcDbEntity
8
0
62
256
6
ByBlock
370
-1
48
1.0
60
0
100
AcDbLine
10
1.15498399472722
20
0.34333399494215
30
0.0
11
1.13164999472722
21
0.36333399494215
31
0.0
39
0.0
210
0.0
220
0.0
230
1.0
0
LINE
5
89
330
22
100
AcDbEntity
8
0
62
256
6
ByBlock
370
-1
48
1.0
60
0
100
AcDbLine
10
1.15164999472722
20
2.75999999494215
30
0.0
11
1.13164999472722
21
2.73666699494215
31
0.0
39
0.0
210
0.0
220
0.0
230
1.0
0
LINE
5
8A
330
22
100
AcDbEntity
8
0
62
256
6
ByBlock
370
-1
48
1.0
60
0
100
AcDbLine
10
0.10498399472722
20
1.79666699494214
30
0.0
11
0.10165099472722
21
1.80000099494215
31
0.0
39
0.0
210
0.0
220
0.0
230
1.0
0
LINE
5
8B
330
22
100
AcDbEntity
8
0
62
256
6
ByBlock
370
-1
48
1.0
60
0
100
AcDbLine
10
0.10165099472722
20
1.80000099494215
30
0.0
11
0.03165099472723
21
1.80000099494215
31
0.0
39
0.0
210
0.0
220
0.0
230
1.0
0
LINE
5
8C
330
22
100
AcDbEntity
8
0
62
256
6
ByBlock
370
-1
48
1.0
60
0
100
AcDbLine
10
0.03165099472723
20
1.80000099494215
30
0.0
11
0.02498399472722
21
1.79000099494215
31
0.0
39
0.0
210
0.0
220
0.0
230
1.0
0
LINE
5
8D
330
22
100
AcDbEntity
8
0
62
256
6
ByBlock
370
-1
48
1.0
60
0
100
AcDbLine
10
0.02498399472722
20
1.79000099494215
30
0.0
11
0.02498399472722
21
1.63333399494215
31
0.0
39
0.0
210
0.0
220
0.0
230
1.0
0
LINE
5
8E
330
22
100
AcDbEntity
8
0
62
256
6
ByBlock
370
-1
48
1.0
60
0
100
AcDbLine
10
0.02498399472722
20
1.63333399494215
30
0.0
11
0.02831699472722
21
1.60999999494215
31
0.0
39
0.0
210
0.0
220
0.0
230
1.0
0
LINE
5
8F
330
22
100
AcDbEntity
8
0
62
256
6
ByBlock
370
-1
48
1.0
60
0
100
AcDbLine
10
0.02831699472722
20
1.60999999494215
30
0.0
11
0.04165099472722
21
1.59999999494215
31
0.0
39
0.0
210
0.0
220
0.0
230
1.0
0
LINE
5
90
330
22
100
AcDbEntity
8
0
62
256
6
ByBlock
370
-1
48
1.0
60
0
100
AcDbLine
10
0.04165099472722
20
1.59999999494215
30
0.0
11
0.04165099472722
21
1.48333399494215
31
0.0
39
0.0
210
0.0
220
0.0
230
1.0
0
LINE
5
91
330
22
100
AcDbEntity
8
0
62
256
6
ByBlock
370
-1
48
1.0
60
0
100
AcDbLine
10
0.04165099472722
20
1.48333399494215
30
0.0
11
0.04831699472722
21
1.38666699494215
31
0.0
39
0.0
210
0.0
220
0.0
230
1.0
0
LINE
5
92
330
22
100
AcDbEntity
8
0
62
256
6
ByBlock
370
-1
48
1.0
60
0
100
AcDbLine
10
0.04831699472722
20
1.38666699494215
30
0.0
11
0.04831699472722
21
1.37333399494215
31
0.0
39
0.0
210
0.0
220
0.0
230
1.0
0
LINE
5
93
330
22
100
AcDbEntity
8
0
62
256
6
ByBlock
370
-1
48
1.0
60
0
100
AcDbLine
10
0.04831699472722
20
1.37333399494215
30
0.0
11
0.08498399472722
21
1.37333399494215
31
0.0
39
0.0
210
0.0
220
0.0
230
1.0
0
LINE
5
94
330
22
100
AcDbEntity
8
0
62
256
6
ByBlock
370
-1
48
1.0
60
0
100
AcDbLine
10
0.08498399472722
20
1.37333399494215
30
0.0
11
0.09165099472722
21
1.60333399494215
31
0.0
39
0.0
210
0.0
220
0.0
230
1.0
0
LINE
5
95
330
22
100
AcDbEntity
8
0
62
256
6
ByBlock
370
-1
48
1.0
60
0
100
AcDbLine
10
0.09165099472722
20
1.60333399494215
30
0.0
11
0.10498399472722
21
1.60999999494215
31
0.0
39
0.0
210
0.0
220
0.0
230
1.0
0
LINE
5
96
330
22
100
AcDbEntity
8
0
62
256
6
ByBlock
370
-1
48
1.0
60
0
100
AcDbLine
10
0.10498399472722
20
1.60999999494215
30
0.0
11
0.10498399472722
21
1.79666699494214
31
0.0
39
0.0
210
0.0
220
0.0
230
1.0
0
LINE
5
97
330
22
100
AcDbEntity
8
0
62
256
6
ByBlock
370
-1
48
1.0
60
0
100
AcDbLine
10
0.09498399472723
20
1.72666699494215
30
0.0
11
0.08498399472722
21
1.73666699494215
31
0.0
39
0.0
210
0.0
220
0.0
230
1.0
0
LINE
5
98
330
22
100
AcDbEntity
8
0
62
256
6
ByBlock
370
-1
48
1.0
60
0
100
AcDbLine
10
0.08498399472722
20
1.73666699494215
30
0.0
11
0.04831699472722
21
1.73666699494215
31
0.0
39
0.0
210
0.0
220
0.0
230
1.0
0
LINE
5
99
330
22
100
AcDbEntity
8
0
62
256
6
ByBlock
370
-1
48
1.0
60
0
100
AcDbLine
10
0.04831699472722
20
1.73666699494215
30
0.0
11
0.03498399472722
21
1.72333399494215
31
0.0
39
0.0
210
0.0
220
0.0
230
1.0
0
LINE
5
9A
330
22
100
AcDbEntity
8
0
62
256
6
ByBlock
370
-1
48
1.0
60
0
100
AcDbLine
10
0.03498399472722
20
1.72333399494215
30
0.0
11
0.04165099472722
21
1.64333399494215
31
0.0
39
0.0
210
0.0
220
0.0
230
1.0
0
LINE
5
9B
330
22
100
AcDbEntity
8
0
62
256
6
ByBlock
370
-1
48
1.0
60
0
100
AcDbLine
10
0.04165099472722
20
1.64333399494215
30
0.0
11
0.04165099472722
21
1.60999999494215
31
0.0
39
0.0
210
0.0
220
0.0
230
1.0
0
LINE
5
9C
330
22
100
AcDbEntity
8
0
62
256
6
ByBlock
370
-1
48
1.0
60
0
100
AcDbLine
10
0.04165099472722
20
1.60999999494215
30
0.0
11
0.02831699472722
21
1.60999999494215
31
0.0
39
0.0
210
0.0
220
0.0
230
1.0
0
LINE
5
9D
330
22
100
AcDbEntity
8
0
62
256
6
ByBlock
370
-1
48
1.0
60
0
100
AcDbLine
10
0.09498399472723
20
1.72666699494215
30
0.0
11
0.09165099472722
21
1.60999999494215
31
0.0
39
0.0
210
0.0
220
0.0
230
1.0
0
LINE
5
9E
330
22
100
AcDbEntity
8
0
62
256
6
ByBlock
370
-1
48
1.0
60
0
100
AcDbLine
10
0.09165099472722
20
1.60999999494215
30
0.0
11
0.10498399472722
21
1.60999999494215
31
0.0
39
0.0
210
0.0
220
0.0
230
1.0
0
ENDBLK
5
23
330
22
100
AcDbEntity
8
0
100
AcDbBlockEnd
0
BLOCK
5
A1
330
9F
100
AcDbEntity
8
0
100
AcDbBlockBegin
2
*Paper_Space
70
0
10
0.0
20
0.0
30
0.0
3
*Paper_Space
0
ENDBLK
5
A0
330
9F
100
AcDbEntity
8
0
100
AcDbBlockEnd
0
ENDSEC
0
SECTION
2
ENTITIES
0
INSERT
5
21
330
1A
100
AcDbEntity
67
0
8
0
62
256
6
ByLayer
370
-1
48
1.0
60
0
100
AcDbBlockReference
2
窗前视
10
0.0
20
0.0
30
0.0
41
1.0
42
1.0
43
1.0
50
0.0
210
0.0
220
0.0
230
1.0
0
VIEWPORT
5
A3
330
9F
100
AcDbEntity
67
1
8
0
62
256
6
ByLayer
370
-1
48
1.0
60
0
100
AcDbViewport
10
0.0
20
0.0
30
0.0
40
297.0
41
210.0
68
1
69
1
12
50.0
22
100.0
13
0.0
23
0.0
14
10.0
24
10.0
15
10.0
25
10.0
16
0.0
26
0.0
36
1.0
17
0.0
27
0.0
37
0.0
42
50.0
43
0.0
44
0.0
45
250.0
50
0.0
51
0.0
72
1000
90
819232
110
0.0
120
0.0
130
0.0
111
1.0
121
0.0
131
0.0
112
0.0
122
1.0
132
0.0
0
ENDSEC
0
SECTION
2
OBJECTS
0
DICTIONARY
5
A8
330
0
100
AcDbDictionary
280
0
281
1
3
ACAD_GROUP
350
A9
3
ACAD_LAYOUT
350
AA
3
ACAD_MLINESTYLE
350
AE
0
DICTIONARY
5
A9
330
A8
100
AcDbDictionary
280
0
281
1
0
DICTIONARY
5
AA
330
A8
100
AcDbDictionary
280
0
281
1
3
Model
350
1E
3
Layout1
350
A4
0
DICTIONARY
5
AE
330
A8
100
AcDbDictionary
280
0
281
1
3
Standard
350
19
0
LAYOUT
5
1E
330
AA
100
AcDbPlotSettings
1

2
none_device
4
ISO_A4_(210.00_x_297.00_MM)
6

40
7.5
41
20.0
42
7.5
43
20.0
44
210.0
45
297.0
46
0.0
47
0.0
48
0.0
49
0.0
140
0.0
141
0.0
142
1.0
143
1.0
70
11952
72
1
73
1
74
5
7

75
16
147
1.0
148
0.0
149
0.0
100
AcDbLayout
1
Model
70
1
71
0
10
-20.0
20
-7.5
11
277.0
21
202.5
12
0.0
22
0.0
32
0.0
14
25.7
24
19.5
34
0.0
15
231.3
25
175.5
35
0.0
146
0.0
13
0.0
23
0.0
33
0.0
16
1.0
26
0.0
36
0.0
17
0.0
27
1.0
37
0.0
76
0
330
1A
0
LAYOUT
5
A4
330
AA
100
AcDbPlotSettings
1

2
none_device
4
ISO_A4_(210.00_x_297.00_MM)
6

40
7.5
41
20.0
42
7.5
43
20.0
44
210.0
45
297.0
46
0.0
47
0.0
48
0.0
49
0.0
140
0.0
141
0.0
142
1.0
143
1.0
70
688
72
1
73
1
74
5
7

75
16
147
1.0
148
0.0
149
0.0
100
AcDbLayout
1
Layout1
70
1
71
1
10
-20.0
20
-7.5
11
277.0
21
202.5
12
0.0
22
0.0
32
0.0
14
25.7
24
19.5
34
0.0
15
231.3
25
175.5
35
0.0
146
0.0
13
0.0
23
0.0
33
0.0
16
1.0
26
0.0
36
0.0
17
0.0
27
1.0
37
0.0
76
0
330
9F
0
MLINESTYLE
5
19
330
AE
100
AcDbMlineStyle
2
Standard
70
0
3

62
256
51
90.0
52
90.0
71
2
49
-0.5
62
256
6
ByLayer
49
0.5
62
256
6
ByLayer
0
ENDSEC
0
EOF
